<?xml version="1.0" encoding="utf-8"?>
<!-- Generator: Adobe Illustrator 16.0.0, SVG Export Plug-In . SVG Version: 6.00 Build 0)  -->
<!DOCTYPE svg PUBLIC "-//W3C//DTD SVG 1.1//EN" "http://www.w3.org/Graphics/SVG/1.1/DTD/svg11.dtd">
<svg version="1.1" id="Capa_1" xmlns="http://www.w3.org/2000/svg" xmlns:xlink="http://www.w3.org/1999/xlink" x="0px" y="0px"
	 width="100px" height="100px" viewBox="202.127 202.127 100 100" enable-background="new 202.127 202.127 100 100"
	 xml:space="preserve">
<g>
	<g>
		<path fill="#3A67B4" d="M258.104,275.203c0-0.414,0.014-0.828,0.037-1.236c-9.606-0.596-18.561-1.029-18.561-1.029l-1.054-4.123
			h20.563c1.466-4.625,4.477-8.568,8.426-11.219l4.858-21.755c0.035-0.153,0.173-0.264,0.33-0.264h9.119
			c0.105,0,0.206,0.05,0.27,0.135c0.062,0.083,0.083,0.193,0.055,0.294L277,254.139c0.754-0.082,1.52-0.125,2.293-0.125
			c2.319,0,4.551,0.375,6.64,1.066l5.701-20.083h3.18c2.652,0,4.804-2.15,4.804-4.803c0-2.652-2.151-4.821-4.804-4.821
			l-68.557,0.007l-2.874-9.894c-0.429-1.475-1.616-2.64-3.098-3.041l-10.057-2.72c-0.379-0.102-0.769-0.154-1.158-0.154
			c-1.996,0-3.754,1.346-4.275,3.275c-0.31,1.143-0.155,2.337,0.435,3.363c0.589,1.026,1.543,1.762,2.686,2.07l7.653,2.07
			l15.537,56.038c-2.213,1.094-3.648,3.355-3.648,5.873c0,3.615,2.939,6.553,6.552,6.553c3.612,0,6.552-2.938,6.552-6.553
			c0-0.084-0.002-0.168-0.005-0.254h18.671C258.499,279.869,258.104,277.58,258.104,275.203z M248.617,235.704
			c0.064-0.081,0.16-0.127,0.263-0.127h13.765c0.104,0,0.199,0.046,0.264,0.127c0.064,0.08,0.088,0.184,0.065,0.284l-4.053,22.366
			c-0.034,0.156-0.17,0.262-0.329,0.262h-5.659c-0.16,0-0.295-0.105-0.33-0.262l-4.053-22.367
			C248.528,235.887,248.552,235.784,248.617,235.704z M235.607,258.012c-0.048-0.168-6.229-22.006-6.229-22.006
			c-0.029-0.101-0.008-0.21,0.055-0.294c0.064-0.084,0.165-0.135,0.27-0.135h9.12c0.159,0,0.294,0.108,0.328,0.264l4.974,22.272
			l0.019,0.068c0.009,0.031,0.014,0.062,0.014,0.1c0,0.184-0.148,0.332-0.332,0.334h-7.773
			C235.767,258.615,235.655,258.184,235.607,258.012z"/>
		<g>
			<path fill="#3A67B4" d="M280.287,257.957c-10.143,0-18.363,8.221-18.363,18.363c0,10.141,8.221,18.363,18.363,18.363
				c10.141,0,18.363-8.223,18.363-18.363C298.65,266.178,290.427,257.957,280.287,257.957z M290.456,279.146h-7.392v7.344
				c0,1.561-1.266,2.824-2.825,2.824c-1.561,0-2.825-1.264-2.825-2.824v-7.344h-7.299c-1.56,0-2.825-1.266-2.825-2.826
				s1.266-2.826,2.825-2.826h7.299v-7.344c0-1.561,1.265-2.826,2.825-2.826c1.56,0,2.825,1.266,2.825,2.826v7.344h7.392
				c1.562,0,2.826,1.266,2.826,2.826S292.017,279.146,290.456,279.146z"/>
		</g>
	</g>
</g>
</svg>
