<?xml version="1.0" encoding="utf-8"?>
<!-- Generator: Adobe Illustrator 16.0.0, SVG Export Plug-In . SVG Version: 6.00 Build 0)  -->
<!DOCTYPE svg PUBLIC "-//W3C//DTD SVG 1.1//EN" "http://www.w3.org/Graphics/SVG/1.1/DTD/svg11.dtd">
<svg version="1.1" id="Capa_1" xmlns="http://www.w3.org/2000/svg" xmlns:xlink="http://www.w3.org/1999/xlink" x="0px" y="0px"
	 width="126.75px" height="100px" viewBox="0 0 126.75 100" enable-background="new 0 0 126.75 100" xml:space="preserve">
<g>
	<path fill="#FFFFFF" d="M85.001,93.155v3.591H41.753v-3.591c0-1.989,1.616-3.609,3.586-3.609h7.271
		c0.197-4.507,3.098-8.257,7.167-9.7V37.58c-1.901-1.196-3.187-3.309-3.187-5.721h13.553c0,2.412-1.268,4.524-3.169,5.721v42.266
		c4.05,1.443,6.972,5.193,7.165,9.7h7.252C83.381,89.546,85.001,91.166,85.001,93.155L85.001,93.155z M110.243,60.693
		c-2.641,7.446-9.682,12.815-18.025,12.815S76.833,68.14,74.192,60.693h4.154l12.182-32.267c0.527-1.409,2.852-1.409,3.379,0
		l12.165,32.267H110.243z M102.234,60.693L92.218,34.165L82.202,60.693H102.234z M34.532,24.695c1.637,0,2.957-1.11,3.432-2.587
		c1.178-0.44,2.412-1.057,3.662-1.691c2.767-1.391,5.879-2.974,9.139-2.974c3.113,0,5.052,1.442,6.159,2.658
		c-0.036,0.316-0.088,0.615-0.088,0.95c0,3.608,2.925,6.531,6.527,6.531c3.611,0,6.551-2.923,6.551-6.531
		c0-0.334-0.052-0.634-0.105-0.95c1.11-1.216,3.063-2.658,6.179-2.658c3.258,0,6.373,1.583,9.137,2.974
		c1.25,0.634,2.464,1.25,3.662,1.691c0.457,1.478,1.795,2.587,3.432,2.587c2.008,0,3.645-1.638,3.645-3.645
		c0-2.025-1.637-3.643-3.645-3.643c-1.038,0-1.971,0.44-2.623,1.143c-0.898-0.368-1.866-0.862-2.852-1.355
		c-3.115-1.584-6.654-3.362-10.756-3.362c-3.59,0-6.09,1.373-7.78,2.834c-0.774-0.827-1.742-1.461-2.851-1.812
		c1.354-0.723,2.287-2.095,2.287-3.733c0-2.359-4.28-7.868-4.28-7.868s-4.257,5.509-4.257,7.868c0,1.638,0.933,3.01,2.287,3.733
		c-1.107,0.352-2.094,0.985-2.85,1.812c-1.691-1.461-4.193-2.834-7.779-2.834c-4.119,0-7.642,1.777-10.758,3.362
		c-1.004,0.493-1.955,0.987-2.852,1.355c-0.65-0.703-1.588-1.143-2.623-1.143c-2.005,0-3.646,1.618-3.646,3.643
		C30.886,23.058,32.527,24.695,34.532,24.695L34.532,24.695z M34.532,73.508c-8.346,0-15.385-5.369-18.025-12.815h4.152
		l12.184-32.267c0.527-1.409,2.852-1.409,3.379,0l12.182,32.267h4.154C49.917,68.14,42.878,73.508,34.532,73.508L34.532,73.508z
		 M44.55,60.693L34.532,34.165l-10.02,26.528H44.55z M44.55,60.693"/>
</g>
</svg>
