<?xml version="1.0" encoding="utf-8"?>
<!-- Generator: Adobe Illustrator 16.0.0, SVG Export Plug-In . SVG Version: 6.00 Build 0)  -->
<!DOCTYPE svg PUBLIC "-//W3C//DTD SVG 1.1//EN" "http://www.w3.org/Graphics/SVG/1.1/DTD/svg11.dtd">
<svg version="1.1" id="Capa_1" xmlns="http://www.w3.org/2000/svg" xmlns:xlink="http://www.w3.org/1999/xlink" x="0px" y="0px"
	 width="150px" height="150px" viewBox="0 0 150 150" enable-background="new 0 0 150 150" xml:space="preserve">
<g>
	<circle fill="none" stroke="#FFFFFF" stroke-width="2" stroke-miterlimit="10" cx="75" cy="75" r="69.778"/>
	<g>
		<path fill="#FFFFFF" d="M90.326,102.711v2.546H59.677v-2.546c0-1.409,1.146-2.557,2.542-2.557h5.154
			c0.139-3.193,2.195-5.852,5.079-6.874V63.327c-1.347-0.848-2.258-2.345-2.258-4.054h9.605c0,1.709-0.898,3.207-2.246,4.054V93.28
			c2.87,1.022,4.94,3.681,5.077,6.874h5.141C89.179,100.154,90.326,101.302,90.326,102.711L90.326,102.711z M108.215,79.707
			c-1.871,5.277-6.86,9.082-12.773,9.082s-10.903-3.805-12.774-9.082h2.943l8.633-22.867c0.374-0.998,2.021-0.998,2.396,0
			l8.621,22.867H108.215z M102.539,79.707l-7.098-18.8l-7.098,18.8H102.539z M54.561,54.196c1.16,0,2.096-0.787,2.433-1.833
			c0.834-0.312,1.709-0.749,2.595-1.198c1.96-0.986,4.167-2.108,6.477-2.108c2.206,0,3.58,1.022,4.365,1.884
			c-0.026,0.224-0.062,0.437-0.062,0.673c0,2.557,2.073,4.628,4.626,4.628c2.559,0,4.642-2.071,4.642-4.628
			c0-0.237-0.036-0.449-0.075-0.673c0.787-0.861,2.172-1.884,4.38-1.884c2.308,0,4.516,1.122,6.475,2.108
			c0.886,0.449,1.746,0.886,2.595,1.198c0.324,1.047,1.272,1.833,2.433,1.833c1.422,0,2.582-1.161,2.582-2.583
			c0-1.435-1.16-2.582-2.582-2.582c-0.736,0-1.397,0.312-1.859,0.811c-0.637-0.262-1.322-0.611-2.021-0.96
			c-2.207-1.123-4.715-2.382-7.621-2.382c-2.545,0-4.316,0.973-5.515,2.008c-0.549-0.586-1.234-1.035-2.021-1.285
			c0.961-0.512,1.622-1.484,1.622-2.645c0-1.672-3.034-5.576-3.034-5.576s-3.017,3.904-3.017,5.576c0,1.161,0.661,2.133,1.622,2.645
			c-0.786,0.25-1.484,0.699-2.021,1.285c-1.198-1.035-2.971-2.008-5.512-2.008c-2.919,0-5.416,1.259-7.624,2.382
			c-0.711,0.349-1.386,0.699-2.021,0.96c-0.461-0.499-1.125-0.811-1.859-0.811c-1.42,0-2.584,1.147-2.584,2.582
			C51.977,53.036,53.14,54.196,54.561,54.196L54.561,54.196z M54.561,88.789c-5.915,0-10.903-3.805-12.774-9.082h2.943l8.634-22.867
			c0.374-0.998,2.021-0.998,2.395,0l8.633,22.867h2.944C65.464,84.984,60.475,88.789,54.561,88.789L54.561,88.789z M61.66,79.707
			l-7.1-18.8l-7.1,18.8H61.66z M61.66,79.707"/>
	</g>
</g>
</svg>
