<?xml version="1.0" encoding="utf-8"?>
<!-- Generator: Adobe Illustrator 16.0.0, SVG Export Plug-In . SVG Version: 6.00 Build 0)  -->
<!DOCTYPE svg PUBLIC "-//W3C//DTD SVG 1.1//EN" "http://www.w3.org/Graphics/SVG/1.1/DTD/svg11.dtd">
<svg version="1.1" id="Capa_1" xmlns="http://www.w3.org/2000/svg" xmlns:xlink="http://www.w3.org/1999/xlink" x="0px" y="0px"
	 width="150px" height="150px" viewBox="0 0 150 150" enable-background="new 0 0 150 150" xml:space="preserve">
<g>
	<circle fill="none" stroke="#FFFFFF" stroke-width="2" stroke-miterlimit="10" cx="75" cy="75" r="70.688"/>
	<g>
		<path fill="#FFFFFF" d="M41.203,66.41c0,3.932,2.699,7.208,6.336,8.153v27.757h-4.224c-1.164,0-2.112,0.945-2.112,2.112
			c0,1.168,0.949,2.112,2.112,2.112h63.37c1.172,0,2.113-0.944,2.113-2.112c0-1.167-0.941-2.112-2.113-2.112h-4.225V74.562
			c3.64-0.945,6.338-4.221,6.338-8.153v-2.111H41.203V66.41z M83.45,74.859c4.67,0,8.448-3.784,8.448-8.45
			c0,3.932,2.699,7.208,6.337,8.153v27.757H66.55v-27.46c4.67,0,8.451-3.784,8.451-8.45C75.001,71.075,78.787,74.859,83.45,74.859
			L83.45,74.859z M64.438,74.562v27.757H51.765V74.562c3.638-0.945,6.336-4.221,6.336-8.153
			C58.101,70.342,60.801,73.618,64.438,74.562L64.438,74.562z M100.348,45.287H49.652l-8.45,16.898h67.595L100.348,45.287z
			 M59.05,49.982l-4.225,8.449c-0.19,0.371-0.562,0.586-0.949,0.586c-0.157,0-0.318-0.032-0.471-0.112
			c-0.519-0.259-0.734-0.895-0.471-1.415l4.225-8.449c0.265-0.521,0.896-0.73,1.415-0.475C59.1,48.827,59.306,49.46,59.05,49.982
			L59.05,49.982z M67.5,49.982l-4.225,8.449c-0.189,0.371-0.561,0.586-0.95,0.586c-0.156,0-0.317-0.032-0.471-0.112
			c-0.519-0.259-0.734-0.895-0.47-1.415l4.225-8.449c0.264-0.521,0.9-0.73,1.415-0.475C67.549,48.827,67.756,49.46,67.5,49.982
			L67.5,49.982z M76.057,57.96c0,0.586-0.47,1.057-1.056,1.057c-0.582,0-1.056-0.471-1.056-1.057v-8.449
			c0-0.586,0.474-1.056,1.056-1.056c0.585,0,1.056,0.47,1.056,1.056V57.96z M88.186,58.885c-0.165,0.091-0.338,0.132-0.51,0.132
			c-0.372,0-0.735-0.199-0.927-0.549l-4.619-8.45c-0.281-0.511-0.092-1.154,0.421-1.431c0.503-0.281,1.155-0.1,1.436,0.417
			l4.62,8.448C88.879,57.965,88.698,58.608,88.186,58.885L88.186,58.885z M96.594,58.905c-0.147,0.078-0.306,0.112-0.471,0.112
			c-0.388,0-0.759-0.216-0.939-0.586l-4.225-8.45c-0.265-0.521-0.051-1.155,0.471-1.415c0.511-0.26,1.155-0.051,1.419,0.474
			l4.225,8.45C97.328,58.01,97.122,58.646,96.594,58.905L96.594,58.905z M59.157,89.968v-4.869c-0.618-0.371-1.057-1.015-1.057-1.79
			c0-1.167,0.95-2.112,2.113-2.112c1.172,0,2.112,0.945,2.112,2.112c0,0.775-0.432,1.419-1.054,1.79v4.869
			c0.623,0.371,1.054,1.015,1.054,1.79c0,1.167-0.94,2.112-2.112,2.112c-1.164,0-2.113-0.945-2.113-2.112
			C58.101,90.982,58.539,90.338,59.157,89.968L59.157,89.968z M49.652,41.062c0-1.167,0.949-2.112,2.112-2.112h46.471
			c1.173,0,2.112,0.945,2.112,2.112c0,1.167-0.939,2.113-2.112,2.113H51.765C50.601,43.174,49.652,42.229,49.652,41.062
			L49.652,41.062z M78.227,86.167l-1.494-1.493l5.975-5.974l1.494,1.493L78.227,86.167z M78.227,92.142l-1.494-1.494L88.682,78.7
			l1.493,1.493L78.227,92.142z M88.682,84.674l1.493,1.493l-5.974,5.975l-1.494-1.494L88.682,84.674z M88.682,84.674"/>
	</g>
</g>
</svg>
