<?xml version="1.0" encoding="utf-8"?>
<!-- Generator: Adobe Illustrator 16.0.0, SVG Export Plug-In . SVG Version: 6.00 Build 0)  -->
<!DOCTYPE svg PUBLIC "-//W3C//DTD SVG 1.1//EN" "http://www.w3.org/Graphics/SVG/1.1/DTD/svg11.dtd">
<svg version="1.1" id="Capa_1" xmlns="http://www.w3.org/2000/svg" xmlns:xlink="http://www.w3.org/1999/xlink" x="0px" y="0px"
	 width="100px" height="100px" viewBox="0 0 100 100" enable-background="new 0 0 100 100" xml:space="preserve">
<g>
	<text transform="matrix(1 0 0 1 -440.5498 -124.603)" fill="#5595CF" font-family="'OpenSans-Bold'" font-size="12.5627">Producción</text>
</g>
<g>
	<text transform="matrix(1 0 0 1 -274.8936 -124.603)" fill="#5595CF" font-family="'OpenSans-Bold'" font-size="12.5627">Marketing</text>
</g>
<g>
	<text transform="matrix(1 0 0 1 -132.1733 47.3281)" fill="#5595CF" font-family="'OpenSans-Bold'" font-size="12.5627">Fulfillment</text>
</g>
<g>
	<text transform="matrix(1 0 0 1 -108.5933 -124.603)" fill="#5595CF" font-family="'OpenSans-Bold'" font-size="12.5627">TI</text>
</g>
<g>
	<text transform="matrix(1 0 0 1 -141.2495 213.3936)" fill="#5595CF" font-family="'OpenSans-Bold'" font-size="12.5627">Asesoría legal </text>
</g>
<g>
	<text transform="matrix(1 0 0 1 -258.1543 213.3936)" fill="#5595CF" font-family="'OpenSans-Bold'" font-size="12.5627">B2B</text>
</g>
<g>
	<path fill="#3A67B4" d="M83.109-86.271H64.398V-108.1c0-3.764-3.074-6.796-6.838-6.796H32.341c-3.762,0-6.734,3.032-6.734,6.796
		v21.821h-4.611v-3.353c0-1.547-1.196-2.847-2.736-2.847H9.548c-1.55,0-2.869,1.3-2.869,2.847v3.333C3.023-86.278,0-83.236,0-79.483
		v41.577c0,3.76,3.023,6.802,6.785,6.802h76.325c3.764,0,6.891-3.042,6.891-6.802v-41.577C90-83.247,86.873-86.271,83.109-86.271
		L83.109-86.271z M31.64-106.531c0-1.551,1.254-2.801,2.802-2.801h20.955c1.548,0,2.799,1.25,2.799,2.801v2.512
		c0,1.541-1.251,2.801-2.799,2.801H34.441c-1.548,0-2.802-1.26-2.802-2.801V-106.531z M44.951-35.378
		c-12.859,0-23.323-10.466-23.323-23.314c0-12.859,10.464-23.32,23.323-23.32c12.862,0,23.314,10.461,23.314,23.32
		C68.265-45.844,57.812-35.378,44.951-35.378L44.951-35.378z M44.951-35.378"/>
	<path fill="#3A67B4" d="M44.951-73.833c-8.344,0-15.139,6.786-15.139,15.141c0,8.349,6.794,15.134,15.139,15.134
		c8.345,0,15.14-6.785,15.14-15.134C60.091-67.047,53.296-73.833,44.951-73.833L44.951-73.833z M44.951-73.833"/>
</g>
<path fill="#3A67B4" d="M186.448-97.337c-0.545-0.747-1.41-1.189-2.337-1.189h-64.975c-0.122,0-0.249,0.009-0.371,0.023
	l-2.674-7.709c-0.277-0.793-0.889-1.429-1.669-1.739l-13.48-5.292c-1.485-0.582-3.159,0.146-3.741,1.631
	c-0.583,1.481,0.146,3.158,1.631,3.742l12.239,4.808l14.981,43.187c-0.658,0.23-1.223,0.737-1.477,1.447l-4.33,12.032
	c-0.268,0.737-0.16,1.557,0.291,2.2c0.451,0.639,1.189,1.02,1.97,1.02h2.229c-1.382,1.537-2.229,3.559-2.229,5.777
	c0,4.779,3.888,8.662,8.665,8.662c4.779,0,8.664-3.883,8.664-8.662c0-2.219-0.846-4.24-2.229-5.777h18.891
	c-1.377,1.537-2.223,3.559-2.223,5.777c0,4.779,3.882,8.662,8.662,8.662c4.775,0,8.663-3.883,8.663-8.662
	c0-2.219-0.847-4.24-2.224-5.777h2.703c1.33,0,2.406-1.076,2.406-2.406c0-1.326-1.076-2.406-2.406-2.406h-46.146l2.679-7.451
	c0.348,0.146,0.725,0.231,1.114,0.231h42.353c1.259,0,2.369-0.808,2.75-2.003l12.031-37.545
	C187.144-95.636,186.988-96.595,186.448-97.337L186.448-97.337z M131.172-33.55c-2.121,0-3.851-1.727-3.851-3.85
	c0-2.125,1.729-3.851,3.851-3.851c2.123,0,3.854,1.726,3.854,3.851C135.025-35.276,133.295-33.55,131.172-33.55L131.172-33.55z
	 M162.938-33.55c-2.125,0-3.85-1.727-3.85-3.85c0-2.125,1.725-3.851,3.85-3.851s3.85,1.726,3.85,3.851
	C166.787-35.276,165.062-33.55,162.938-33.55L162.938-33.55z M178.072-86.25h-14.735v-6.5h16.817L178.072-86.25z M173.833-73.014
	h-10.496v-7.464h12.884L173.833-73.014z M144.244-73.014v-7.464h13.316v7.464H144.244z M157.561-67.242v6.261h-13.316v-6.261
	H157.561z M125.023-80.478h13.445v7.464h-10.86L125.023-80.478z M144.244-86.25v-6.5h13.316v6.5H144.244z M138.469-92.75v6.5
	h-15.453l-2.252-6.5H138.469z M129.615-67.242h8.854v6.261h-6.687L129.615-67.242z M163.337-60.981v-6.261h8.644l-2.006,6.261
	H163.337z M163.337-60.981"/>
<g>
	<path fill="#3A67B4" d="M206.334-118.443v89.221h89.999v-89.221H206.334z M288.905-111.034v74.402h-75.163v-74.402H288.905z
		 M288.905-111.034"/>
	<path fill="#3A67B4" d="M241.646-60.979l-23.65-10.287v-5.69l23.65-10.229v6.713l-16.476,6.312l16.476,6.55V-60.979z
		 M241.646-60.979"/>
	<path fill="#3A67B4" d="M243.844-56.446l8.548-35.672h4.953l-8.647,35.672H243.844z M243.844-56.446"/>
	<path fill="#3A67B4" d="M259.521-60.979v-6.632l16.5-6.531l-16.5-6.431v-6.612l23.67,10.247v5.648L259.521-60.979z M259.521-60.979
		"/>
</g>
<g>
	<text transform="matrix(1 0 0 1 -443.9985 47.3281)" fill="#5595CF" font-family="'OpenSans-Bold'" font-size="12.5627">Antifraude</text>
</g>
<g>
	<path fill="#3A67B4" d="M356.999-119.083l-37.556,11.337v28.344c0,18.429,15.225,38.456,37.556,50.318
		c22.332-11.862,37.558-31.89,37.558-50.318v-28.344L356.999-119.083z M356.999-35.565c-19.184-11.079-31.89-28.411-31.89-43.836
		v-24.132l31.89-9.626V-35.565z M356.999-35.565"/>
</g>
<g>
	<text transform="matrix(1 0 0 1 -276.6465 47.3281)" fill="#5595CF" font-family="'OpenSans-Bold'" font-size="12.5627">Call Center</text>
</g>
<path fill="#3A67B4" d="M584-71.041l-8.958-19.366L540.8-104.35l-37.103,14.092L494-76.186l9.576-0.845v31.566l35.887,14.202
	l35.607-14.202V-67.2L584-71.041z M540.854-76.808v-24.771l30.886,12.59L540.854-76.808z M538.046-34.609l-31.911-12.589V-86.55
	l31.911,12.589V-34.609z M572.513-47.198l-31.91,12.589v-39.352l7.009,18.561l24.901-10.708V-47.198z M572.513-47.198"/>
<g>
	<text transform="matrix(1 0 0 1 -448.5439 213.3936)" fill="#5595CF" font-family="'OpenSans-Bold'" font-size="12.5627">Distribución</text>
</g>
<g>
	<path fill="#3A67B4" d="M678.379-53.114v-0.967l-8.106-26.622h-17.935v-6.372h-43.119v16.479h-9.187l-3.888,5.177h13.074v3.886
		h-14.686l-3.887,5.177h18.563v3.242h-2.058v8.73h2.058v1.299h1.403c0.786,4.646,4.825,8.201,9.698,8.201
		c4.863,0,8.902-3.555,9.688-8.201h22.1c0.777,4.646,4.815,8.201,9.689,8.201c4.863,0,8.902-3.555,9.688-8.201h6.901v-1.299h2.266
		v-8.73H678.379z M620.312-39.513c-2.873,0-5.215-2.34-5.215-5.213c0-2.875,2.332-5.213,5.215-5.213
		c2.863,0,5.205,2.338,5.205,5.213C625.517-41.853,623.175-39.513,620.312-39.513L620.312-39.513z M661.789-39.513
		c-2.874,0-5.215-2.34-5.215-5.213c0-2.875,2.341-5.213,5.215-5.213c2.873,0,5.205,2.338,5.205,5.213
		C666.994-41.853,664.662-39.513,661.789-39.513L661.789-39.513z M656.963-64.284v-11.792h9.879l3.594,11.792H656.963z
		 M656.963-64.284"/>
</g>
<g>
	<path fill="#3A67B4" d="M456.029-59.384c5.793-6.118,9.494-14.752,9.494-22.992c0-14.989-12.14-27.145-27.129-27.145
		c-14.986,0-27.144,12.156-27.144,27.145c0,3.701,0.787,7.467,2.127,11.068c3.332,7.518,9.88,13.341,18.169,15.468
		c1.641-2.028,4.119-3.25,6.848-3.25c4.874,0,8.825,3.971,8.825,8.848c0,4.866-3.968,8.818-8.825,8.818
		c-3.482,0-6.546-2.021-7.986-5.035c-7.116-1.578-13.362-5.144-18.219-10.047c-10.699,4.549-17.633,11.839-17.633,20.044
		c0,13.827,87.66,13.827,87.66,0C482.217-46.713,471.449-55.505,456.029-59.384L456.029-59.384z M456.029-59.384"/>
	<path fill="#3A67B4" d="M432.784-49.187c0.502,2.642,2.814,4.638,5.593,4.638c3.165,0,5.713-2.551,5.713-5.692
		c0-3.152-2.548-5.711-5.696-5.711c-2.427,0-4.487,1.519-5.307,3.646c-14.335-2.528-25.271-15.037-25.271-30.069
		c0-16.864,13.715-30.578,30.577-30.578c16.848,0,30.562,13.714,30.562,30.578h3.132c0-18.588-15.123-33.714-33.693-33.714
		c-18.587,0-33.706,15.125-33.706,33.714C404.688-65.72,416.877-51.868,432.784-49.187L432.784-49.187z M432.784-49.187"/>
</g>
<g>
	<path fill="#3A67B4" d="M-94.179,180.431v1.625h-19.578v-1.625c0-0.9,0.732-1.634,1.624-1.634h3.292
		c0.089-2.04,1.401-3.737,3.244-4.391v-19.134c-0.861-0.541-1.442-1.498-1.442-2.59h6.135c0,1.092-0.573,2.049-1.435,2.59v19.134
		c1.833,0.653,3.156,2.351,3.243,4.391h3.283C-94.913,178.797-94.179,179.53-94.179,180.431L-94.179,180.431z M-82.752,165.735
		c-1.195,3.371-4.383,5.802-8.159,5.802c-3.777,0-6.965-2.431-8.16-5.802h1.88l5.515-14.606c0.239-0.638,1.291-0.638,1.53,0
		l5.507,14.606H-82.752z M-86.377,165.735l-4.534-12.009l-4.534,12.009H-86.377z M-117.026,149.44c0.741,0,1.339-0.503,1.554-1.172
		c0.533-0.199,1.092-0.479,1.658-0.766c1.252-0.629,2.661-1.346,4.137-1.346c1.409,0,2.287,0.652,2.788,1.203
		c-0.017,0.143-0.04,0.278-0.04,0.43c0,1.634,1.324,2.957,2.955,2.957c1.635,0,2.966-1.323,2.966-2.957
		c0-0.151-0.023-0.287-0.048-0.43c0.502-0.551,1.387-1.203,2.797-1.203c1.475,0,2.885,0.717,4.136,1.346
		c0.565,0.287,1.115,0.566,1.657,0.766c0.208,0.669,0.813,1.172,1.555,1.172c0.908,0,1.649-0.742,1.649-1.65
		c0-0.916-0.741-1.649-1.649-1.649c-0.471,0-0.893,0.199-1.188,0.518c-0.407-0.167-0.845-0.39-1.291-0.613
		c-1.411-0.717-3.013-1.521-4.869-1.521c-1.625,0-2.757,0.621-3.522,1.283c-0.351-0.375-0.788-0.662-1.29-0.821
		c0.613-0.327,1.035-0.948,1.035-1.689c0-1.068-1.938-3.562-1.938-3.562s-1.927,2.493-1.927,3.562c0,0.741,0.422,1.362,1.035,1.689
		c-0.502,0.159-0.948,0.446-1.29,0.821c-0.766-0.662-1.898-1.283-3.521-1.283c-1.864,0-3.459,0.805-4.87,1.521
		c-0.454,0.224-0.885,0.446-1.291,0.613c-0.294-0.318-0.719-0.518-1.188-0.518c-0.907,0-1.65,0.733-1.65,1.649
		C-118.676,148.698-117.933,149.44-117.026,149.44L-117.026,149.44z M-117.026,171.537c-3.778,0-6.964-2.431-8.159-5.802h1.88
		l5.515-14.606c0.239-0.638,1.291-0.638,1.53,0l5.514,14.606h1.881C-110.061,169.106-113.248,171.537-117.026,171.537
		L-117.026,171.537z M-112.491,165.735l-4.535-12.009l-4.535,12.009H-112.491z M-112.491,165.735"/>
</g>
<g>
	<path fill="#3A67B4" d="M5,41.563c0,5.234,3.593,9.597,8.437,10.854v36.957H7.812C6.263,89.374,5,90.632,5,92.188
		C5,93.742,6.263,95,7.812,95h84.375C93.75,95,95,93.742,95,92.188c0-1.556-1.25-2.813-2.812-2.813h-5.622V52.417
		C91.407,51.16,95,46.797,95,41.563V38.75H5V41.563z M61.251,52.813c6.22,0,11.251-5.039,11.251-11.25
		c0,5.234,3.593,9.597,8.438,10.854v36.957H38.75V52.813c6.219,0,11.252-5.039,11.252-11.25
		C50.001,47.774,55.044,52.813,61.251,52.813L61.251,52.813z M35.938,52.417v36.957H19.062V52.417
		c4.845-1.257,8.437-5.62,8.437-10.854C27.5,46.797,31.094,51.16,35.938,52.417L35.938,52.417z M83.753,13.438H16.25L5,35.938h90
		L83.753,13.438z M28.764,19.688l-5.625,11.251c-0.252,0.493-0.748,0.78-1.263,0.78c-0.208,0-0.423-0.043-0.627-0.148
		c-0.69-0.347-0.976-1.192-0.625-1.883l5.624-11.251c0.354-0.693,1.193-0.971,1.884-0.633C28.83,18.15,29.104,18.995,28.764,19.688
		L28.764,19.688z M40.015,19.688l-5.625,11.251c-0.252,0.493-0.747,0.78-1.264,0.78c-0.208,0-0.423-0.043-0.627-0.148
		c-0.691-0.347-0.978-1.192-0.626-1.883l5.625-11.251c0.352-0.693,1.198-0.971,1.884-0.633C40.08,18.15,40.354,18.995,40.015,19.688
		L40.015,19.688z M51.407,30.312c0,0.78-0.626,1.407-1.406,1.407c-0.774,0-1.407-0.627-1.407-1.407V19.063
		c0-0.782,0.632-1.406,1.407-1.406c0.779,0,1.406,0.625,1.406,1.406V30.312z M67.557,31.543c-0.218,0.12-0.449,0.175-0.68,0.175
		c-0.495,0-0.978-0.264-1.233-0.73l-6.149-11.251c-0.375-0.681-0.124-1.539,0.561-1.905c0.669-0.375,1.539-0.132,1.91,0.555
		l6.153,11.249C68.48,30.318,68.242,31.176,67.557,31.543L67.557,31.543z M78.755,31.57c-0.198,0.103-0.409,0.148-0.627,0.148
		c-0.516,0-1.011-0.287-1.254-0.78l-5.626-11.251c-0.351-0.693-0.065-1.538,0.627-1.885c0.681-0.346,1.538-0.068,1.894,0.633
		l5.621,11.251C79.731,30.378,79.455,31.224,78.755,31.57L78.755,31.57z M28.906,72.931v-6.483
		c-0.823-0.494-1.406-1.353-1.406-2.384c0-1.555,1.264-2.812,2.812-2.812c1.56,0,2.813,1.258,2.813,2.812
		c0,1.031-0.575,1.89-1.404,2.384v6.483c0.829,0.495,1.404,1.349,1.404,2.38c0,1.555-1.253,2.812-2.813,2.812
		c-1.549,0-2.812-1.258-2.812-2.812C27.5,74.279,28.083,73.426,28.906,72.931L28.906,72.931z M16.25,7.812
		C16.25,6.258,17.514,5,19.062,5H80.94c1.559,0,2.812,1.258,2.812,2.813s-1.254,2.812-2.812,2.812H19.062
		C17.514,10.625,16.25,9.367,16.25,7.812L16.25,7.812z M54.298,67.87l-1.992-1.991l7.956-7.952l1.989,1.988L54.298,67.87z
		 M54.298,75.826l-1.992-1.992l15.911-15.907l1.988,1.988L54.298,75.826z M68.217,65.879l1.988,1.991l-7.954,7.956l-1.989-1.992
		L68.217,65.879z M68.217,65.879"/>
</g>
<g>
	<text transform="matrix(1 0 0 1 -258.3936 334.5107)" fill="#5595CF" font-family="'OpenSans-Bold'" font-size="12.5627">B2C</text>
</g>
<path fill="#3A67B4" d="M-226.982,272.603l-8.515-2.8c0,0,0,0-0.005,0h0.005c0,0-0.138-0.051-0.332-0.031
	c-0.188,0.021-0.322,0.118-0.322,0.118l-4.775,3.118c-0.217,0.139-0.346,0.382-0.346,0.641v8.538l-0.263-0.019v-13.793
	c0-0.331-0.216-0.626-0.524-0.728l-15.437-5.07c0,0-0.18-0.056-0.345-0.027c-0.198,0.027-0.341,0.133-0.341,0.133l-11.283,8.051
	c-0.203,0.143-0.323,0.372-0.323,0.621v28.567c0,0.276,0.152,0.534,0.396,0.668l11.287,6.185c0,0,0.115,0.069,0.276,0.088
	c0.161,0.022,0.277-0.015,0.277-0.015l15.437-3.896l6.567-1.658l8.515-2.15c0.336-0.083,0.576-0.392,0.576-0.742V273.33
	C-226.457,272.999-226.668,272.704-226.982,272.603L-226.982,272.603z M-267.486,296.312c0,0.082-0.042,0.16-0.106,0.207
	c-0.046,0.032-0.096,0.046-0.147,0.046c-0.032,0-0.061-0.004-0.088-0.014l-0.659-0.244c-0.101-0.037-0.169-0.134-0.169-0.24v-2.095
	c0-0.078,0.041-0.156,0.101-0.202c0.064-0.052,0.147-0.065,0.221-0.042l0.663,0.18c0.106,0.032,0.185,0.133,0.185,0.249V296.312z
	 M-267.486,292.001c0,0.073-0.033,0.146-0.092,0.192c-0.046,0.038-0.101,0.061-0.161,0.061c-0.019,0-0.032-0.005-0.046-0.005
	l-0.663-0.124c-0.12-0.022-0.207-0.129-0.207-0.249v-2.1c0-0.069,0.031-0.139,0.082-0.189c0.056-0.046,0.125-0.068,0.199-0.064
	l0.659,0.064c0.129,0.015,0.23,0.125,0.23,0.253V292.001z M-267.486,287.686c0,0.069-0.028,0.133-0.074,0.184
	c-0.051,0.046-0.111,0.074-0.18,0.074l-0.664-0.004c-0.138-0.005-0.252-0.116-0.252-0.259v-2.096c0-0.134,0.101-0.244,0.234-0.253
	l0.659-0.056c0.074-0.009,0.143,0.019,0.194,0.064c0.055,0.051,0.083,0.115,0.083,0.189V287.686z M-267.486,283.375
	c0,0.124-0.088,0.229-0.212,0.249l-0.659,0.114c-0.014,0.004-0.028,0.004-0.042,0.004c-0.06,0-0.12-0.021-0.166-0.06
	c-0.055-0.051-0.091-0.119-0.091-0.197v-2.096c0-0.115,0.078-0.217,0.188-0.244l0.659-0.174c0.079-0.02,0.162-0.006,0.221,0.045
	c0.064,0.047,0.102,0.119,0.102,0.202V283.375z M-267.486,279.063c0,0.106-0.069,0.202-0.17,0.239l-0.659,0.23
	c-0.027,0.01-0.055,0.015-0.083,0.015c-0.055,0-0.106-0.015-0.147-0.047c-0.07-0.046-0.11-0.123-0.11-0.207v-2.096
	c0-0.102,0.06-0.193,0.151-0.234l0.664-0.29c0.078-0.037,0.165-0.026,0.239,0.019c0.074,0.046,0.116,0.129,0.116,0.211V279.063z
	 M-267.486,274.748c0,0.098-0.051,0.181-0.134,0.227l-0.659,0.35c-0.041,0.023-0.082,0.032-0.119,0.032
	c-0.046,0-0.092-0.014-0.134-0.035c-0.078-0.048-0.124-0.131-0.124-0.218v-2.101c0-0.087,0.045-0.17,0.119-0.217l0.659-0.41
	c0.083-0.046,0.18-0.051,0.257-0.002c0.083,0.045,0.134,0.128,0.134,0.219V274.748z M-265.262,297.131
	c0,0.083-0.042,0.161-0.111,0.207c-0.041,0.032-0.091,0.047-0.142,0.047c-0.033,0-0.061-0.005-0.092-0.015l-0.783-0.29
	c-0.101-0.037-0.166-0.133-0.166-0.239v-2.289c0-0.078,0.036-0.151,0.097-0.203c0.064-0.045,0.147-0.06,0.226-0.041l0.783,0.222
	c0.11,0.027,0.189,0.128,0.189,0.244V297.131z M-265.262,292.415c0,0.078-0.037,0.147-0.092,0.197
	c-0.046,0.038-0.106,0.061-0.166,0.061c-0.014,0-0.028-0.004-0.046-0.004l-0.784-0.148c-0.124-0.022-0.211-0.129-0.211-0.253v-2.284
	c0-0.074,0.033-0.144,0.088-0.188c0.055-0.047,0.124-0.074,0.193-0.064l0.787,0.073c0.129,0.014,0.23,0.124,0.23,0.258V292.415z
	 M-265.262,287.704c0,0.069-0.027,0.133-0.079,0.18c-0.046,0.051-0.11,0.073-0.174,0.073h-0.005l-0.783-0.005
	c-0.144,0-0.253-0.115-0.253-0.253v-2.288c0-0.13,0.102-0.24,0.23-0.254l0.788-0.064c0.069-0.005,0.143,0.019,0.194,0.069
	c0.05,0.045,0.083,0.114,0.083,0.183V287.704z M-265.262,282.992c0,0.125-0.092,0.23-0.212,0.249l-0.787,0.137
	c-0.014,0-0.028,0-0.041,0c-0.06,0-0.121-0.017-0.166-0.059c-0.056-0.046-0.092-0.12-0.092-0.193v-2.285
	c0-0.119,0.078-0.215,0.193-0.249l0.783-0.206c0.079-0.019,0.162-0.004,0.222,0.046c0.06,0.046,0.096,0.125,0.096,0.202v2.358
	H-265.262z M-265.262,278.276c0,0.109-0.069,0.207-0.17,0.239l-0.788,0.282c-0.028,0.009-0.056,0.013-0.083,0.013
	c-0.056,0-0.106-0.019-0.148-0.047c-0.069-0.05-0.105-0.129-0.105-0.21v-2.285c0-0.102,0.055-0.194,0.152-0.23l0.783-0.35
	c0.078-0.032,0.17-0.028,0.244,0.019c0.069,0.046,0.115,0.128,0.115,0.216V278.276z M-265.262,273.564
	c0,0.092-0.051,0.181-0.134,0.227l-0.787,0.419c-0.037,0.019-0.079,0.027-0.12,0.027c-0.047,0-0.092-0.013-0.134-0.037
	c-0.073-0.046-0.12-0.128-0.12-0.216V271.7c0-0.087,0.042-0.17,0.12-0.217l0.782-0.492c0.079-0.046,0.18-0.052,0.258-0.005
	c0.083,0.047,0.134,0.128,0.134,0.221V273.564z M-262.587,298.116c0,0.083-0.036,0.161-0.105,0.208
	c-0.046,0.032-0.097,0.045-0.147,0.045c-0.028,0-0.06-0.004-0.087-0.013l-0.954-0.351c-0.097-0.037-0.166-0.134-0.166-0.239v-2.515
	c0-0.078,0.037-0.151,0.102-0.203c0.06-0.046,0.143-0.064,0.221-0.041l0.953,0.263c0.11,0.032,0.183,0.134,0.183,0.249V298.116z
	 M-262.587,292.917c0,0.078-0.031,0.147-0.092,0.198c-0.046,0.037-0.101,0.06-0.161,0.06c-0.014,0-0.033-0.005-0.046-0.005
	l-0.953-0.18c-0.12-0.022-0.207-0.129-0.207-0.248v-2.515c0-0.069,0.032-0.138,0.083-0.188c0.056-0.047,0.125-0.069,0.198-0.064
	l0.949,0.092c0.134,0.014,0.229,0.124,0.229,0.258V292.917z M-262.587,287.723c0,0.068-0.022,0.133-0.073,0.184
	c-0.046,0.046-0.11,0.073-0.18,0.073l-0.953-0.008c-0.138,0-0.253-0.116-0.253-0.254v-2.516c0-0.133,0.102-0.243,0.235-0.252
	l0.954-0.079c0.068-0.005,0.138,0.019,0.193,0.065c0.051,0.05,0.083,0.115,0.083,0.188v2.599H-262.587z M-262.587,282.527
	c0,0.123-0.086,0.229-0.207,0.253l-0.953,0.166c-0.014,0-0.027,0-0.046,0c-0.06,0-0.115-0.018-0.161-0.059
	c-0.061-0.048-0.092-0.121-0.092-0.195v-2.509c0-0.12,0.078-0.217,0.189-0.249l0.953-0.249c0.073-0.023,0.157-0.004,0.221,0.047
	c0.06,0.045,0.096,0.119,0.096,0.197V282.527z M-262.587,277.333c0,0.109-0.063,0.201-0.165,0.238l-0.953,0.337
	c-0.028,0.01-0.055,0.014-0.087,0.014c-0.051,0-0.101-0.014-0.148-0.045c-0.064-0.048-0.105-0.126-0.105-0.208v-2.515
	c0-0.102,0.06-0.189,0.152-0.23l0.953-0.424c0.079-0.031,0.171-0.027,0.24,0.019c0.074,0.051,0.114,0.129,0.114,0.217V277.333z
	 M-262.587,272.137c0,0.093-0.05,0.181-0.132,0.227l-0.954,0.506c-0.037,0.019-0.079,0.028-0.12,0.028
	c-0.046,0-0.092-0.01-0.13-0.037c-0.078-0.045-0.124-0.129-0.124-0.217v-2.51c0-0.092,0.046-0.17,0.12-0.216l0.953-0.594
	c0.079-0.052,0.175-0.052,0.258-0.005c0.083,0.041,0.128,0.129,0.128,0.221V272.137z M-259.293,299.323
	c0,0.087-0.042,0.166-0.111,0.212c-0.041,0.027-0.092,0.046-0.143,0.046c-0.032,0-0.06-0.005-0.092-0.019l-1.175-0.433
	c-0.101-0.037-0.166-0.134-0.166-0.239v-2.787c0-0.078,0.038-0.151,0.097-0.202c0.064-0.051,0.147-0.065,0.221-0.042l1.179,0.327
	c0.111,0.027,0.189,0.13,0.189,0.244V299.323z M-259.293,293.534c0,0.078-0.037,0.151-0.093,0.198
	c-0.045,0.037-0.105,0.06-0.166,0.06c-0.013,0-0.027-0.005-0.046-0.005l-1.179-0.221c-0.12-0.023-0.208-0.129-0.208-0.253v-2.786
	c0-0.069,0.033-0.139,0.088-0.189c0.051-0.046,0.125-0.069,0.193-0.064l1.179,0.115c0.13,0.014,0.231,0.124,0.231,0.253V293.534z
	 M-259.293,287.75c0,0.068-0.028,0.134-0.078,0.179c-0.046,0.047-0.111,0.074-0.175,0.074h-0.005l-1.174-0.009
	c-0.143,0-0.253-0.116-0.253-0.254v-2.79c0-0.135,0.102-0.245,0.23-0.254l1.179-0.097c0.074-0.005,0.143,0.018,0.194,0.063
	c0.05,0.051,0.083,0.116,0.083,0.189V287.75z M-259.293,281.96c0,0.125-0.093,0.231-0.212,0.249l-1.18,0.203
	c-0.014,0.004-0.027,0.004-0.041,0.004c-0.06,0-0.12-0.019-0.166-0.06c-0.055-0.046-0.092-0.119-0.092-0.193v-2.785
	c0-0.116,0.079-0.218,0.194-0.249l1.174-0.31c0.079-0.018,0.157-0.004,0.222,0.046c0.059,0.047,0.101,0.12,0.101,0.203V281.96z
	 M-259.293,276.172c0,0.105-0.069,0.208-0.17,0.239l-1.179,0.415c-0.028,0.009-0.056,0.019-0.083,0.019
	c-0.055,0-0.106-0.019-0.147-0.051c-0.068-0.047-0.106-0.125-0.106-0.207V273.8c0-0.101,0.056-0.193,0.147-0.235l1.18-0.52
	c0.078-0.037,0.17-0.028,0.244,0.018c0.069,0.047,0.116,0.13,0.116,0.217V276.172z M-259.293,270.383
	c0,0.097-0.051,0.18-0.138,0.226l-1.175,0.627c-0.037,0.018-0.079,0.031-0.12,0.031c-0.046,0-0.092-0.014-0.134-0.036
	c-0.074-0.046-0.125-0.129-0.125-0.222v-2.786c0-0.087,0.047-0.171,0.121-0.217l1.178-0.731c0.079-0.051,0.18-0.056,0.258-0.009
	c0.083,0.045,0.134,0.129,0.134,0.22V270.383z M-253.044,299.24c0,0.124-0.087,0.229-0.212,0.249l-2.717,0.46
	c-0.013,0.005-0.027,0.005-0.042,0.005c-0.06,0-0.12-0.019-0.166-0.061c-0.055-0.046-0.088-0.119-0.088-0.193v-2.988
	c0-0.124,0.093-0.235,0.222-0.249l2.717-0.35c0.069-0.01,0.143,0.014,0.198,0.06c0.056,0.051,0.087,0.12,0.087,0.194V299.24z
	 M-253.044,293.492c0,0.134-0.097,0.244-0.23,0.254l-2.717,0.234c-0.009,0-0.013,0-0.023,0c-0.064,0-0.124-0.022-0.17-0.064
	c-0.055-0.05-0.083-0.12-0.083-0.188v-2.961c0-0.139,0.106-0.249,0.24-0.258l2.717-0.12c0.073-0.005,0.138,0.019,0.188,0.069
	c0.051,0.046,0.078,0.115,0.078,0.184V293.492z M-253.044,287.746c0,0.142-0.111,0.257-0.253,0.257l-2.718,0.01
	c-0.069,0-0.134-0.028-0.179-0.073c-0.046-0.047-0.075-0.116-0.075-0.181v-2.989c0-0.068,0.028-0.133,0.079-0.184
	c0.051-0.046,0.115-0.069,0.185-0.069l2.717,0.101c0.138,0.005,0.244,0.12,0.244,0.259V287.746z M-253.044,282.003
	c0,0.067-0.027,0.138-0.078,0.184c-0.051,0.041-0.11,0.068-0.175,0.068c-0.009,0-0.014,0-0.019,0l-2.718-0.216
	c-0.133-0.015-0.235-0.12-0.235-0.258v-2.983c0-0.075,0.033-0.145,0.083-0.189c0.056-0.051,0.13-0.074,0.203-0.064l2.717,0.331
	c0.129,0.015,0.221,0.125,0.221,0.254V282.003z M-253.044,276.256c0,0.072-0.032,0.146-0.087,0.192
	c-0.046,0.042-0.106,0.06-0.166,0.06c-0.014,0-0.028,0-0.042,0l-2.716-0.442c-0.125-0.022-0.213-0.128-0.213-0.252v-2.985
	c0-0.078,0.033-0.152,0.093-0.198c0.06-0.051,0.138-0.068,0.212-0.056l2.717,0.558c0.121,0.023,0.203,0.129,0.203,0.249V276.256z
	 M-253.044,270.508c0,0.078-0.032,0.151-0.097,0.202c-0.046,0.032-0.101,0.055-0.156,0.055c-0.019,0-0.042-0.005-0.06-0.01
	l-2.717-0.667c-0.115-0.027-0.194-0.128-0.194-0.249v-2.983c0-0.083,0.038-0.157,0.102-0.203c0.065-0.051,0.143-0.064,0.221-0.041
	l2.717,0.778c0.111,0.031,0.185,0.128,0.185,0.244V270.508z M-248.181,298.416c0,0.124-0.092,0.23-0.211,0.253l-2.344,0.396
	c-0.015,0-0.027,0-0.042,0c-0.06,0-0.119-0.018-0.165-0.06c-0.055-0.045-0.092-0.119-0.092-0.193v-2.768
	c0-0.129,0.096-0.234,0.226-0.253l2.339-0.3c0.074-0.009,0.147,0.014,0.203,0.06c0.056,0.052,0.087,0.12,0.087,0.194V298.416z
	 M-248.181,293.073c0,0.134-0.101,0.244-0.235,0.254l-2.339,0.203c-0.009,0-0.014,0-0.023,0c-0.064,0-0.125-0.023-0.17-0.07
	c-0.056-0.046-0.083-0.114-0.083-0.184v-2.768c0-0.139,0.106-0.249,0.244-0.259l2.339-0.101c0.069-0.005,0.138,0.019,0.188,0.068
	c0.051,0.047,0.079,0.115,0.079,0.185V293.073z M-248.181,287.731c0,0.138-0.115,0.253-0.253,0.253l-2.345,0.01
	c-0.068,0-0.134-0.028-0.179-0.074c-0.051-0.051-0.078-0.115-0.078-0.18v-2.772c0-0.069,0.032-0.133,0.078-0.18
	c0.051-0.051,0.119-0.078,0.188-0.074l2.339,0.089c0.138,0.009,0.249,0.119,0.249,0.258V287.731z M-248.181,282.385
	c0,0.072-0.032,0.143-0.083,0.188c-0.046,0.041-0.11,0.068-0.175,0.068c-0.005,0-0.014,0-0.018-0.004l-2.344-0.185
	c-0.129-0.008-0.235-0.119-0.235-0.253v-2.768c0-0.074,0.032-0.144,0.087-0.188c0.055-0.051,0.128-0.074,0.203-0.064l2.339,0.284
	c0.129,0.015,0.226,0.125,0.226,0.254V282.385z M-248.181,277.042c0,0.074-0.032,0.147-0.092,0.194
	c-0.046,0.041-0.101,0.063-0.166,0.063c-0.014,0-0.023-0.004-0.036-0.004l-2.345-0.383c-0.124-0.019-0.216-0.124-0.216-0.249v-2.771
	c0-0.075,0.037-0.147,0.096-0.198c0.06-0.046,0.139-0.064,0.212-0.051l2.345,0.479c0.115,0.021,0.202,0.128,0.202,0.248V277.042z
	 M-248.181,271.7c0,0.078-0.037,0.151-0.097,0.202c-0.046,0.037-0.102,0.056-0.156,0.056c-0.023,0-0.041-0.005-0.064-0.01
	l-2.34-0.575c-0.115-0.027-0.193-0.128-0.193-0.249v-2.768c0-0.078,0.037-0.151,0.101-0.203c0.06-0.046,0.147-0.063,0.222-0.041
	l2.344,0.673c0.105,0.032,0.184,0.134,0.184,0.244V271.7z M-243.957,297.697c0,0.125-0.088,0.23-0.212,0.253l-2.04,0.346
	c-0.014,0.005-0.028,0.005-0.042,0.005c-0.06,0-0.119-0.023-0.165-0.06c-0.06-0.052-0.093-0.12-0.093-0.193v-2.584
	c0-0.129,0.097-0.235,0.221-0.254l2.04-0.258c0.074-0.009,0.148,0.014,0.203,0.061c0.055,0.05,0.088,0.12,0.088,0.192V297.697z
	 M-243.957,292.705c0,0.134-0.102,0.244-0.235,0.258l-2.04,0.176c-0.005,0-0.014,0-0.019,0c-0.064,0-0.124-0.023-0.174-0.069
	c-0.051-0.047-0.083-0.115-0.083-0.185v-2.578c0-0.139,0.106-0.25,0.245-0.259l2.04-0.092c0.069,0,0.138,0.023,0.188,0.073
	c0.05,0.046,0.079,0.115,0.079,0.185V292.705z M-243.957,287.713c0,0.143-0.117,0.253-0.254,0.259l-2.04,0.004
	c-0.069,0-0.133-0.023-0.179-0.074c-0.05-0.046-0.079-0.11-0.079-0.179v-2.579c0-0.069,0.028-0.139,0.079-0.185
	c0.051-0.047,0.12-0.074,0.189-0.069l2.041,0.074c0.133,0.004,0.244,0.119,0.244,0.258V287.713z M-243.957,282.721
	c0,0.073-0.029,0.143-0.083,0.188c-0.046,0.046-0.105,0.069-0.171,0.069c-0.008,0-0.013,0-0.022-0.005l-2.04-0.161
	c-0.13-0.01-0.236-0.12-0.236-0.253v-2.579c0-0.074,0.033-0.143,0.087-0.192c0.056-0.047,0.13-0.07,0.203-0.061l2.036,0.248
	c0.129,0.014,0.226,0.124,0.226,0.254V282.721z M-243.957,277.729c0,0.077-0.033,0.147-0.088,0.196
	c-0.051,0.037-0.106,0.061-0.167,0.061c-0.013,0-0.027-0.005-0.041-0.005l-2.04-0.331c-0.125-0.023-0.217-0.13-0.217-0.254v-2.579
	c0-0.078,0.037-0.146,0.097-0.197c0.061-0.046,0.134-0.07,0.213-0.051l2.04,0.414c0.115,0.023,0.203,0.13,0.203,0.248V277.729z
	 M-243.957,272.735c0,0.08-0.037,0.157-0.097,0.204c-0.046,0.036-0.102,0.055-0.157,0.055c-0.022,0-0.041-0.005-0.064-0.01
	l-2.04-0.497c-0.11-0.027-0.194-0.133-0.194-0.249v-2.583c0-0.078,0.042-0.152,0.102-0.203c0.064-0.045,0.146-0.064,0.226-0.041
	l2.04,0.585c0.105,0.032,0.185,0.133,0.185,0.249V272.735z M-235.479,300.553c0,0.115-0.083,0.216-0.193,0.249l-6.567,1.658
	c-0.019,0.004-0.042,0.004-0.06,0.004c-0.06,0-0.111-0.019-0.157-0.051c-0.064-0.051-0.101-0.124-0.101-0.202v-14.503
	c0-0.022,0.041-2.676,3.748-2.537c3.293,0.124,3.33,2.491,3.33,2.515V300.553z M-232.725,295.796c0,0.124-0.087,0.229-0.211,0.253
	l-1.341,0.226c-0.014,0.004-0.027,0.004-0.041,0.004c-0.06,0-0.12-0.022-0.166-0.06c-0.055-0.051-0.087-0.119-0.087-0.198v-2.081
	c0-0.129,0.092-0.24,0.221-0.254l1.34-0.175c0.074-0.009,0.148,0.015,0.203,0.064c0.051,0.047,0.083,0.115,0.083,0.189V295.796z
	 M-232.725,291.737c0,0.13-0.097,0.24-0.23,0.254l-1.34,0.115c-0.009,0-0.018,0-0.023,0c-0.065,0-0.125-0.023-0.175-0.064
	c-0.05-0.051-0.078-0.12-0.078-0.188v-2.087c0-0.138,0.105-0.248,0.239-0.253l1.345-0.06c0.069-0.005,0.138,0.018,0.183,0.068
	c0.052,0.047,0.079,0.115,0.079,0.185V291.737z M-232.725,287.662c0,0.138-0.11,0.253-0.253,0.253l-1.34,0.005
	c-0.069,0-0.134-0.027-0.18-0.073c-0.046-0.051-0.074-0.115-0.074-0.18v-2.072c0-0.069,0.028-0.134,0.078-0.184
	c0.046-0.047,0.115-0.07,0.184-0.07l1.34,0.051c0.138,0.005,0.249,0.12,0.249,0.259v2.012H-232.725z M-232.725,283.614
	c0,0.073-0.027,0.143-0.079,0.188c-0.05,0.046-0.11,0.068-0.174,0.068c-0.005,0-0.015-0.003-0.019-0.003l-1.345-0.106
	c-0.128-0.01-0.23-0.12-0.23-0.253v-2.087c0-0.074,0.028-0.143,0.083-0.189c0.055-0.05,0.129-0.073,0.197-0.06l1.346,0.161
	c0.129,0.014,0.221,0.124,0.221,0.254V283.614z M-232.725,279.557c0,0.074-0.032,0.143-0.087,0.193
	c-0.047,0.042-0.106,0.06-0.166,0.06c-0.015,0-0.028,0-0.042-0.004l-1.34-0.217c-0.125-0.018-0.217-0.125-0.217-0.249v-2.086
	c0-0.078,0.037-0.152,0.097-0.198c0.06-0.051,0.138-0.068,0.211-0.056l1.34,0.277c0.12,0.022,0.203,0.129,0.203,0.249V279.557z
	 M-232.725,275.495c0,0.077-0.032,0.151-0.097,0.202c-0.045,0.036-0.101,0.056-0.156,0.056c-0.019,0-0.042-0.005-0.06-0.009
	l-1.341-0.327c-0.115-0.033-0.193-0.134-0.193-0.249v-2.087c0-0.078,0.036-0.156,0.102-0.203c0.06-0.05,0.142-0.062,0.221-0.041
	l1.34,0.383c0.11,0.032,0.184,0.134,0.184,0.244V275.495z M-230.248,295.376c0,0.124-0.087,0.23-0.211,0.249l-1.207,0.207
	c-0.014,0.004-0.029,0.004-0.042,0.004c-0.06,0-0.12-0.022-0.165-0.06c-0.056-0.05-0.088-0.119-0.088-0.193v-1.979
	c0-0.13,0.092-0.235,0.222-0.254l1.206-0.151c0.074-0.01,0.143,0.014,0.198,0.06c0.055,0.051,0.087,0.12,0.087,0.193V295.376z
	 M-230.248,291.521c0,0.134-0.097,0.244-0.229,0.254l-1.207,0.105c-0.011,0-0.014,0-0.023,0c-0.064,0-0.125-0.022-0.17-0.064
	c-0.056-0.051-0.083-0.12-0.083-0.188v-1.976c0-0.139,0.106-0.249,0.244-0.259l1.207-0.055c0.069,0,0.138,0.022,0.184,0.073
	c0.051,0.047,0.078,0.11,0.078,0.185V291.521z M-230.248,287.667c0,0.143-0.11,0.258-0.253,0.258l-1.207,0.004
	c-0.068,0-0.134-0.027-0.179-0.073c-0.046-0.051-0.074-0.115-0.074-0.184v-1.977c0-0.068,0.027-0.138,0.078-0.184
	c0.05-0.051,0.115-0.074,0.184-0.074l1.207,0.047c0.139,0.009,0.244,0.119,0.244,0.258V287.667z M-230.248,283.812
	c0,0.073-0.027,0.138-0.078,0.188c-0.05,0.041-0.11,0.065-0.175,0.065c-0.005,0-0.014,0-0.019,0l-1.207-0.094
	c-0.134-0.013-0.235-0.124-0.235-0.257v-1.976c0-0.075,0.027-0.144,0.088-0.193c0.05-0.046,0.124-0.07,0.198-0.061l1.206,0.146
	c0.129,0.015,0.221,0.125,0.221,0.254V283.812z M-230.248,279.957c0,0.079-0.033,0.147-0.087,0.193
	c-0.046,0.042-0.105,0.065-0.166,0.065c-0.014,0-0.027-0.005-0.042-0.005l-1.207-0.198c-0.124-0.019-0.211-0.124-0.211-0.249v-1.98
	c0-0.073,0.032-0.147,0.092-0.198c0.06-0.046,0.138-0.064,0.212-0.051l1.207,0.244c0.12,0.028,0.203,0.135,0.203,0.254V279.957z
	 M-230.248,276.104c0,0.077-0.033,0.152-0.097,0.202c-0.045,0.037-0.101,0.055-0.156,0.055c-0.019,0-0.042-0.004-0.06-0.009
	l-1.207-0.295c-0.115-0.027-0.193-0.129-0.193-0.249v-1.976c0-0.082,0.037-0.157,0.101-0.202c0.065-0.051,0.147-0.065,0.222-0.041
	l1.206,0.345c0.111,0.026,0.185,0.129,0.185,0.244V276.104z M-228.004,294.999c0,0.124-0.093,0.229-0.216,0.248l-1.091,0.185
	c-0.014,0.005-0.028,0.005-0.042,0.005c-0.061,0-0.12-0.02-0.166-0.061c-0.055-0.046-0.088-0.119-0.088-0.193v-1.879
	c0-0.129,0.092-0.239,0.222-0.254l1.091-0.138c0.074-0.009,0.147,0.014,0.203,0.061c0.055,0.046,0.083,0.119,0.083,0.193v1.833
	H-228.004z M-228.004,291.328c0,0.134-0.102,0.244-0.235,0.254l-1.092,0.096c-0.009,0-0.014,0-0.022,0
	c-0.061,0-0.125-0.022-0.171-0.068c-0.055-0.047-0.083-0.115-0.083-0.185v-1.879c0-0.138,0.106-0.253,0.244-0.258l1.091-0.051
	c0.069,0,0.138,0.023,0.185,0.073c0.05,0.046,0.083,0.116,0.083,0.185V291.328z M-228.004,287.662c0,0.138-0.115,0.253-0.258,0.253
	l-1.091,0.005c-0.065,0-0.134-0.027-0.18-0.073c-0.046-0.051-0.074-0.115-0.074-0.18v-1.879c0-0.073,0.028-0.138,0.079-0.188
	c0.05-0.047,0.114-0.074,0.184-0.069l1.092,0.041c0.138,0.005,0.249,0.12,0.249,0.258V287.662z M-228.004,283.992
	c0,0.069-0.033,0.138-0.083,0.188c-0.051,0.041-0.111,0.064-0.175,0.064c-0.005,0-0.014,0-0.019,0l-1.091-0.088
	c-0.134-0.009-0.235-0.12-0.235-0.253v-1.88c0-0.072,0.033-0.143,0.088-0.192c0.05-0.046,0.124-0.069,0.198-0.061l1.091,0.129
	c0.129,0.019,0.226,0.124,0.226,0.253V283.992z M-228.004,280.321c0,0.078-0.037,0.147-0.093,0.193
	c-0.045,0.042-0.105,0.06-0.165,0.06c-0.014,0-0.028,0-0.042,0l-1.091-0.18c-0.124-0.018-0.211-0.124-0.211-0.249v-1.879
	c0-0.078,0.033-0.151,0.092-0.197c0.06-0.051,0.138-0.068,0.212-0.056l1.092,0.226c0.12,0.023,0.207,0.129,0.207,0.248V280.321z
	 M-228.004,276.655c0,0.079-0.037,0.151-0.102,0.198c-0.042,0.037-0.102,0.055-0.156,0.055c-0.019,0-0.042,0-0.061-0.01
	l-1.092-0.266c-0.114-0.028-0.193-0.13-0.193-0.245v-1.884c0-0.077,0.037-0.151,0.101-0.202c0.065-0.047,0.147-0.064,0.222-0.041
	l1.091,0.313c0.11,0.031,0.184,0.133,0.184,0.243v1.838H-228.004z M-228.004,276.655"/>
<g>
	<text transform="matrix(1 0 0 1 -137.1177 334.5107)" fill="#5595CF" font-family="'OpenSans-Bold'" font-size="12.5627">Market Place </text>
</g>
<g>
	<path fill="#3A67B4" d="M-95.266,269.04h-18.307c-0.797,0-1.444,0.648-1.444,1.444v33.146c0,0.796,0.647,1.444,1.444,1.444h18.307
		c0.797,0,1.443-0.648,1.443-1.444v-33.146C-93.823,269.688-94.469,269.04-95.266,269.04L-95.266,269.04z M-104.419,302.659
		c-0.864,0-1.566-0.704-1.566-1.566c0-0.864,0.702-1.566,1.566-1.566c0.863,0,1.565,0.702,1.565,1.566
		C-102.854,301.955-103.556,302.659-104.419,302.659L-104.419,302.659z M-96.971,297.812h-14.897v-25.624h14.897V297.812z
		 M-96.971,297.812"/>
	<path fill="#3A67B4" d="M-104.502,291.761c0,0.552-0.448,0.999-0.999,0.999c-0.553,0-1-0.447-1-0.999c0-0.553,0.447-1,1-1
		C-104.951,290.761-104.502,291.208-104.502,291.761L-104.502,291.761z M-104.502,291.761"/>
	<path fill="#3A67B4" d="M-101.828,290.761c-0.552,0-1,0.447-1,1c0,0.552,0.448,0.999,1,0.999s1-0.447,1-0.999
		C-100.828,291.208-101.276,290.761-101.828,290.761L-101.828,290.761z M-101.828,290.761"/>
	<path fill="#3A67B4" d="M-110.285,282.917l0.706,0.438l2.437,6.313c0.074,0.193,0.261,0.32,0.467,0.32h6.021
		c0.206,0,0.393-0.127,0.467-0.32l1.999-5.199c0.06-0.154,0.039-0.326-0.054-0.463c-0.094-0.135-0.247-0.217-0.413-0.217h-8.939
		l-0.514-1.312c-0.066-0.171-0.187-0.314-0.342-0.411l-0.944-0.585c-0.396-0.245-0.917-0.123-1.163,0.273
		C-110.803,282.15-110.681,282.672-110.285,282.917L-110.285,282.917z M-110.285,282.917"/>
</g>
</svg>
