<?xml version="1.0" encoding="utf-8"?>
<!-- Generator: Adobe Illustrator 16.0.0, SVG Export Plug-In . SVG Version: 6.00 Build 0)  -->
<!DOCTYPE svg PUBLIC "-//W3C//DTD SVG 1.1//EN" "http://www.w3.org/Graphics/SVG/1.1/DTD/svg11.dtd">
<svg version="1.1" id="Capa_1" xmlns="http://www.w3.org/2000/svg" xmlns:xlink="http://www.w3.org/1999/xlink" x="0px" y="0px"
	 width="126.75px" height="100px" viewBox="0 0 126.75 100" enable-background="new 0 0 126.75 100" xml:space="preserve">
<g>
	<path fill="#FFFFFF" d="M16.63,41.235c0,5.439,3.731,9.97,8.763,11.277v38.391h-5.841c-1.609,0-2.922,1.307-2.922,2.921
		c0,1.615,1.312,2.922,2.922,2.922h87.647c1.62,0,2.921-1.307,2.921-2.922c0-1.614-1.301-2.921-2.921-2.921h-5.843V52.512
		c5.033-1.307,8.764-5.838,8.764-11.277v-2.92H16.63V41.235z M75.063,52.921c6.458,0,11.684-5.233,11.684-11.687
		c0,5.439,3.734,9.97,8.766,11.277v38.391H51.688V52.921c6.46,0,11.688-5.233,11.688-11.687
		C63.376,47.688,68.613,52.921,75.063,52.921L75.063,52.921z M48.766,52.512v38.391H31.237V52.512
		c5.032-1.307,8.765-5.838,8.765-11.277C40.002,46.674,43.736,51.205,48.766,52.512L48.766,52.512z M98.435,12.02H28.315
		L16.63,35.392h93.49L98.435,12.02z M41.315,18.514l-5.844,11.686c-0.263,0.513-0.776,0.811-1.312,0.811
		c-0.216,0-0.438-0.045-0.65-0.155c-0.718-0.358-1.016-1.237-0.65-1.957l5.843-11.686c0.366-0.72,1.24-1.01,1.957-0.657
		C41.383,16.916,41.669,17.792,41.315,18.514L41.315,18.514z M53.002,18.514l-5.843,11.686c-0.262,0.513-0.776,0.811-1.313,0.811
		c-0.217,0-0.439-0.045-0.65-0.155c-0.719-0.358-1.016-1.237-0.651-1.957l5.844-11.686c0.364-0.72,1.245-1.01,1.956-0.657
		C53.07,16.916,53.355,17.792,53.002,18.514L53.002,18.514z M64.837,29.548c0,0.811-0.65,1.462-1.461,1.462
		c-0.805,0-1.461-0.651-1.461-1.462V17.863c0-0.811,0.656-1.461,1.461-1.461c0.811,0,1.461,0.65,1.461,1.461V29.548z M81.613,30.827
		c-0.229,0.126-0.468,0.183-0.706,0.183c-0.515,0-1.017-0.275-1.282-0.76l-6.387-11.687c-0.391-0.708-0.128-1.597,0.58-1.979
		c0.696-0.389,1.599-0.138,1.985,0.577l6.39,11.685C82.57,29.555,82.321,30.445,81.613,30.827L81.613,30.827z M93.241,30.855
		c-0.202,0.108-0.422,0.155-0.65,0.155c-0.535,0-1.05-0.298-1.299-0.811l-5.844-11.687c-0.366-0.72-0.071-1.598,0.65-1.957
		c0.706-0.36,1.599-0.07,1.963,0.656l5.844,11.687C94.258,29.618,93.972,30.497,93.241,30.855L93.241,30.855z M41.463,73.818v-6.734
		c-0.854-0.514-1.461-1.403-1.461-2.476c0-1.615,1.313-2.922,2.922-2.922c1.62,0,2.922,1.307,2.922,2.922
		c0,1.073-0.598,1.962-1.459,2.476v6.734c0.861,0.514,1.459,1.405,1.459,2.476c0,1.614-1.302,2.921-2.922,2.921
		c-1.609,0-2.922-1.307-2.922-2.921C40.002,75.223,40.608,74.331,41.463,73.818L41.463,73.818z M28.315,6.176
		c0-1.615,1.312-2.922,2.922-2.922h64.275c1.622,0,2.922,1.307,2.922,2.922c0,1.614-1.3,2.921-2.922,2.921H31.237
		C29.628,9.098,28.315,7.791,28.315,6.176L28.315,6.176z M67.839,68.562l-2.067-2.065l8.262-8.262l2.067,2.064L67.839,68.562z
		 M67.839,76.826l-2.067-2.067l16.526-16.524l2.066,2.064L67.839,76.826z M82.298,66.496l2.066,2.065l-8.264,8.264l-2.067-2.067
		L82.298,66.496z M82.298,66.496"/>
</g>
</svg>
