<?xml version="1.0" encoding="utf-8"?>
<!-- Generator: Adobe Illustrator 16.0.0, SVG Export Plug-In . SVG Version: 6.00 Build 0)  -->
<!DOCTYPE svg PUBLIC "-//W3C//DTD SVG 1.1//EN" "http://www.w3.org/Graphics/SVG/1.1/DTD/svg11.dtd">
<svg version="1.1" id="Capa_1" xmlns="http://www.w3.org/2000/svg" xmlns:xlink="http://www.w3.org/1999/xlink" x="0px" y="0px"
	 width="100px" height="100px" viewBox="0 0 100 100" enable-background="new 0 0 100 100" xml:space="preserve">
<g>
	<text transform="matrix(1 0 0 1 -440.5498 -124.603)" fill="#5595CF" font-family="'OpenSans-Bold'" font-size="12.5627">Producción</text>
</g>
<g>
	<text transform="matrix(1 0 0 1 -274.8936 -124.603)" fill="#5595CF" font-family="'OpenSans-Bold'" font-size="12.5627">Marketing</text>
</g>
<g>
	<text transform="matrix(1 0 0 1 -132.1733 47.3281)" fill="#5595CF" font-family="'OpenSans-Bold'" font-size="12.5627">Fulfillment</text>
</g>
<g>
	<text transform="matrix(1 0 0 1 -108.5933 -124.603)" fill="#5595CF" font-family="'OpenSans-Bold'" font-size="12.5627">TI</text>
</g>
<g>
	<text transform="matrix(1 0 0 1 -141.2495 213.3936)" fill="#5595CF" font-family="'OpenSans-Bold'" font-size="12.5627">Asesoría legal </text>
</g>
<g>
	<text transform="matrix(1 0 0 1 -258.1543 213.3936)" fill="#5595CF" font-family="'OpenSans-Bold'" font-size="12.5627">B2B</text>
</g>
<g>
	<path fill="#3A67B4" d="M83.109-86.271H64.398V-108.1c0-3.764-3.074-6.796-6.838-6.796H32.341c-3.762,0-6.734,3.032-6.734,6.796
		v21.821h-4.611v-3.353c0-1.547-1.196-2.847-2.736-2.847H9.548c-1.55,0-2.869,1.3-2.869,2.847v3.333C3.023-86.278,0-83.236,0-79.483
		v41.577c0,3.76,3.023,6.802,6.785,6.802h76.325c3.764,0,6.891-3.042,6.891-6.802v-41.577C90-83.247,86.873-86.271,83.109-86.271
		L83.109-86.271z M31.64-106.531c0-1.551,1.254-2.801,2.802-2.801h20.955c1.548,0,2.799,1.25,2.799,2.801v2.512
		c0,1.541-1.251,2.801-2.799,2.801H34.441c-1.548,0-2.802-1.26-2.802-2.801V-106.531z M44.951-35.378
		c-12.859,0-23.323-10.466-23.323-23.314c0-12.859,10.464-23.32,23.323-23.32c12.862,0,23.314,10.461,23.314,23.32
		C68.265-45.844,57.812-35.378,44.951-35.378L44.951-35.378z M44.951-35.378"/>
	<path fill="#3A67B4" d="M44.951-73.833c-8.344,0-15.139,6.786-15.139,15.141c0,8.349,6.794,15.134,15.139,15.134
		c8.345,0,15.14-6.785,15.14-15.134C60.091-67.047,53.296-73.833,44.951-73.833L44.951-73.833z M44.951-73.833"/>
</g>
<path fill="#3A67B4" d="M186.448-97.337c-0.545-0.747-1.41-1.189-2.337-1.189h-64.975c-0.122,0-0.249,0.009-0.371,0.023
	l-2.674-7.709c-0.277-0.793-0.889-1.429-1.669-1.739l-13.48-5.292c-1.485-0.582-3.159,0.146-3.741,1.631
	c-0.583,1.481,0.146,3.158,1.631,3.742l12.239,4.808l14.981,43.187c-0.658,0.23-1.223,0.737-1.477,1.447l-4.33,12.032
	c-0.268,0.737-0.16,1.557,0.291,2.2c0.451,0.639,1.189,1.02,1.97,1.02h2.229c-1.382,1.537-2.229,3.559-2.229,5.777
	c0,4.779,3.888,8.662,8.665,8.662c4.779,0,8.664-3.883,8.664-8.662c0-2.219-0.846-4.24-2.229-5.777h18.891
	c-1.377,1.537-2.223,3.559-2.223,5.777c0,4.779,3.882,8.662,8.662,8.662c4.775,0,8.663-3.883,8.663-8.662
	c0-2.219-0.847-4.24-2.224-5.777h2.703c1.33,0,2.406-1.076,2.406-2.406c0-1.326-1.076-2.406-2.406-2.406h-46.146l2.679-7.451
	c0.348,0.146,0.725,0.231,1.114,0.231h42.353c1.259,0,2.369-0.808,2.75-2.003l12.031-37.545
	C187.144-95.636,186.988-96.595,186.448-97.337L186.448-97.337z M131.172-33.55c-2.121,0-3.851-1.727-3.851-3.85
	c0-2.125,1.729-3.851,3.851-3.851c2.123,0,3.854,1.726,3.854,3.851C135.025-35.276,133.295-33.55,131.172-33.55L131.172-33.55z
	 M162.938-33.55c-2.125,0-3.85-1.727-3.85-3.85c0-2.125,1.725-3.851,3.85-3.851s3.85,1.726,3.85,3.851
	C166.787-35.276,165.062-33.55,162.938-33.55L162.938-33.55z M178.072-86.25h-14.735v-6.5h16.817L178.072-86.25z M173.833-73.014
	h-10.496v-7.464h12.884L173.833-73.014z M144.244-73.014v-7.464h13.316v7.464H144.244z M157.561-67.242v6.261h-13.316v-6.261
	H157.561z M125.023-80.478h13.445v7.464h-10.86L125.023-80.478z M144.244-86.25v-6.5h13.316v6.5H144.244z M138.469-92.75v6.5
	h-15.453l-2.252-6.5H138.469z M129.615-67.242h8.854v6.261h-6.687L129.615-67.242z M163.337-60.981v-6.261h8.644l-2.006,6.261
	H163.337z M163.337-60.981"/>
<g>
	<path fill="#3A67B4" d="M206.334-118.443v89.221h89.999v-89.221H206.334z M288.905-111.034v74.402h-75.163v-74.402H288.905z
		 M288.905-111.034"/>
	<path fill="#3A67B4" d="M241.646-60.979l-23.65-10.287v-5.69l23.65-10.229v6.713l-16.476,6.312l16.476,6.55V-60.979z
		 M241.646-60.979"/>
	<path fill="#3A67B4" d="M243.844-56.446l8.548-35.672h4.953l-8.647,35.672H243.844z M243.844-56.446"/>
	<path fill="#3A67B4" d="M259.521-60.979v-6.632l16.5-6.531l-16.5-6.431v-6.612l23.67,10.247v5.648L259.521-60.979z M259.521-60.979
		"/>
</g>
<g>
	<text transform="matrix(1 0 0 1 -443.9985 47.3281)" fill="#5595CF" font-family="'OpenSans-Bold'" font-size="12.5627">Antifraude</text>
</g>
<g>
	<path fill="#3A67B4" d="M356.999-119.083l-37.556,11.337v28.344c0,18.429,15.225,38.456,37.556,50.318
		c22.332-11.862,37.558-31.89,37.558-50.318v-28.344L356.999-119.083z M356.999-35.565c-19.184-11.079-31.89-28.411-31.89-43.836
		v-24.132l31.89-9.626V-35.565z M356.999-35.565"/>
</g>
<g>
	<text transform="matrix(1 0 0 1 -276.6465 47.3281)" fill="#5595CF" font-family="'OpenSans-Bold'" font-size="12.5627">Call Center</text>
</g>
<path fill="#3A67B4" d="M584-71.041l-8.958-19.366L540.8-104.35l-37.103,14.092L494-76.186l9.576-0.845v31.566l35.887,14.202
	l35.607-14.202V-67.2L584-71.041z M540.854-76.808v-24.771l30.886,12.59L540.854-76.808z M538.046-34.609l-31.911-12.589V-86.55
	l31.911,12.589V-34.609z M572.513-47.198l-31.91,12.589v-39.352l7.009,18.561l24.901-10.708V-47.198z M572.513-47.198"/>
<g>
	<text transform="matrix(1 0 0 1 -448.5439 213.3936)" fill="#5595CF" font-family="'OpenSans-Bold'" font-size="12.5627">Distribución</text>
</g>
<g>
	<path fill="#3A67B4" d="M678.379-53.114v-0.967l-8.106-26.622h-17.935v-6.372h-43.119v16.479h-9.187l-3.888,5.177h13.074v3.886
		h-14.686l-3.887,5.177h18.563v3.242h-2.058v8.73h2.058v1.299h1.403c0.786,4.646,4.825,8.201,9.698,8.201
		c4.863,0,8.902-3.555,9.688-8.201h22.1c0.777,4.646,4.815,8.201,9.689,8.201c4.863,0,8.902-3.555,9.688-8.201h6.901v-1.299h2.266
		v-8.73H678.379z M620.312-39.513c-2.873,0-5.215-2.34-5.215-5.213c0-2.875,2.332-5.213,5.215-5.213
		c2.863,0,5.205,2.338,5.205,5.213C625.517-41.853,623.175-39.513,620.312-39.513L620.312-39.513z M661.789-39.513
		c-2.874,0-5.215-2.34-5.215-5.213c0-2.875,2.341-5.213,5.215-5.213c2.873,0,5.205,2.338,5.205,5.213
		C666.994-41.853,664.662-39.513,661.789-39.513L661.789-39.513z M656.963-64.284v-11.792h9.879l3.594,11.792H656.963z
		 M656.963-64.284"/>
</g>
<g>
	<path fill="#3A67B4" d="M456.029-59.384c5.793-6.118,9.494-14.752,9.494-22.992c0-14.989-12.14-27.145-27.129-27.145
		c-14.986,0-27.144,12.156-27.144,27.145c0,3.701,0.787,7.467,2.127,11.068c3.332,7.518,9.88,13.341,18.169,15.468
		c1.641-2.028,4.119-3.25,6.848-3.25c4.874,0,8.825,3.971,8.825,8.848c0,4.866-3.968,8.818-8.825,8.818
		c-3.482,0-6.546-2.021-7.986-5.035c-7.116-1.578-13.362-5.144-18.219-10.047c-10.699,4.549-17.633,11.839-17.633,20.044
		c0,13.827,87.66,13.827,87.66,0C482.217-46.713,471.449-55.505,456.029-59.384L456.029-59.384z M456.029-59.384"/>
	<path fill="#3A67B4" d="M432.784-49.187c0.502,2.642,2.814,4.638,5.593,4.638c3.165,0,5.713-2.551,5.713-5.692
		c0-3.152-2.548-5.711-5.696-5.711c-2.427,0-4.487,1.519-5.307,3.646c-14.335-2.528-25.271-15.037-25.271-30.069
		c0-16.864,13.715-30.578,30.577-30.578c16.848,0,30.562,13.714,30.562,30.578h3.132c0-18.588-15.123-33.714-33.693-33.714
		c-18.587,0-33.706,15.125-33.706,33.714C404.688-65.72,416.877-51.868,432.784-49.187L432.784-49.187z M432.784-49.187"/>
</g>
<g>
	<path fill="#3A67B4" d="M325.282,82.017v3.447h-41.523v-3.447c0-1.909,1.554-3.463,3.444-3.463h6.982
		c0.188-4.329,2.973-7.929,6.881-9.312V28.658c-1.826-1.147-3.059-3.177-3.059-5.493h13.012c0,2.315-1.218,4.345-3.044,5.493v40.583
		c3.89,1.384,6.694,4.983,6.88,9.312h6.964C323.729,78.554,325.282,80.107,325.282,82.017L325.282,82.017z M349.521,50.849
		c-2.535,7.15-9.296,12.308-17.308,12.308s-14.772-5.157-17.308-12.308h3.989l11.694-30.979c0.51-1.353,2.738-1.353,3.248,0
		l11.678,30.979H349.521z M341.832,50.849l-9.619-25.47l-9.614,25.47H341.832z M276.826,16.288c1.572,0,2.84-1.066,3.295-2.485
		c1.131-0.422,2.316-1.015,3.518-1.624c2.655-1.334,5.645-2.854,8.773-2.854c2.989,0,4.852,1.383,5.914,2.552
		c-0.035,0.302-0.085,0.59-0.085,0.911c0,3.465,2.809,6.272,6.268,6.272c3.467,0,6.292-2.807,6.292-6.272
		c0-0.321-0.05-0.609-0.104-0.911c1.065-1.168,2.941-2.552,5.933-2.552c3.128,0,6.118,1.52,8.774,2.854
		c1.196,0.609,2.365,1.202,3.513,1.624c0.443,1.419,1.728,2.485,3.297,2.485c1.927,0,3.501-1.574,3.501-3.5
		c0-1.943-1.574-3.498-3.501-3.498c-0.998,0-1.893,0.422-2.519,1.098c-0.861-0.354-1.789-0.827-2.738-1.301
		c-2.99-1.521-6.388-3.227-10.327-3.227c-3.446,0-5.845,1.317-7.469,2.722c-0.746-0.795-1.674-1.404-2.737-1.742
		c1.3-0.694,2.194-2.011,2.194-3.583c0-2.266-4.108-7.554-4.108-7.554s-4.087,5.288-4.087,7.554c0,1.572,0.895,2.889,2.195,3.583
		c-1.064,0.338-2.011,0.947-2.735,1.742c-1.624-1.404-4.026-2.722-7.47-2.722c-3.953,0-7.336,1.707-10.329,3.227
		c-0.963,0.474-1.876,0.947-2.738,1.301c-0.623-0.675-1.524-1.098-2.519-1.098c-1.924,0-3.5,1.555-3.5,3.498
		C273.326,14.714,274.902,16.288,276.826,16.288L276.826,16.288z M276.826,63.156c-8.014,0-14.77-5.157-17.305-12.308h3.986
		l11.697-30.979c0.507-1.353,2.738-1.353,3.245,0l11.694,30.979h3.989C291.599,57.999,284.84,63.156,276.826,63.156L276.826,63.156z
		 M286.445,50.849l-9.619-25.47l-9.619,25.47H286.445z M286.445,50.849"/>
</g>
<g>
	<path fill="#3A67B4" d="M161.334,32.146c0,5.234,3.593,9.597,8.436,10.854v36.957h-5.623c-1.55,0-2.812,1.258-2.812,2.813
		c0,1.555,1.263,2.812,2.812,2.812h84.375c1.562,0,2.812-1.258,2.812-2.812c0-1.556-1.25-2.813-2.812-2.813h-5.622V43
		c4.842-1.257,8.435-5.62,8.435-10.854v-2.812h-90V32.146z M217.585,43.396c6.22,0,11.251-5.039,11.251-11.25
		c0,5.234,3.593,9.597,8.438,10.854v36.957h-42.19V43.396c6.219,0,11.252-5.039,11.252-11.25
		C206.336,38.357,211.378,43.396,217.585,43.396L217.585,43.396z M192.271,43v36.957h-16.875V43
		c4.845-1.257,8.438-5.62,8.438-10.854C183.834,37.38,187.428,41.743,192.271,43L192.271,43z M240.087,4.021h-67.503l-11.25,22.5h90
		L240.087,4.021z M185.098,10.271l-5.625,11.251c-0.253,0.493-0.748,0.78-1.264,0.78c-0.208,0-0.423-0.043-0.627-0.148
		c-0.69-0.347-0.977-1.192-0.625-1.883L182.58,9.02c0.354-0.693,1.193-0.971,1.885-0.633
		C185.164,8.733,185.438,9.578,185.098,10.271L185.098,10.271z M196.349,10.271l-5.626,11.251c-0.252,0.493-0.746,0.78-1.264,0.78
		c-0.207,0-0.423-0.043-0.627-0.148c-0.691-0.347-0.978-1.192-0.626-1.883l5.626-11.251c0.352-0.693,1.197-0.971,1.883-0.633
		C196.414,8.733,196.688,9.578,196.349,10.271L196.349,10.271z M207.741,20.895c0,0.78-0.626,1.407-1.405,1.407
		c-0.775,0-1.407-0.627-1.407-1.407V9.646c0-0.782,0.632-1.406,1.407-1.406c0.779,0,1.405,0.625,1.405,1.406V20.895z
		 M223.891,22.126c-0.218,0.12-0.449,0.175-0.68,0.175c-0.495,0-0.978-0.264-1.233-0.73l-6.149-11.251
		c-0.375-0.681-0.124-1.539,0.561-1.905c0.669-0.375,1.539-0.132,1.91,0.555l6.153,11.249
		C224.814,20.901,224.576,21.759,223.891,22.126L223.891,22.126z M235.089,22.153c-0.198,0.103-0.409,0.148-0.627,0.148
		c-0.516,0-1.011-0.287-1.254-0.78l-5.626-11.251c-0.351-0.693-0.065-1.538,0.627-1.885c0.681-0.346,1.538-0.068,1.894,0.633
		l5.621,11.251C236.065,20.961,235.789,21.807,235.089,22.153L235.089,22.153z M185.24,63.514V57.03
		c-0.823-0.494-1.406-1.353-1.406-2.384c0-1.555,1.264-2.812,2.812-2.812c1.56,0,2.812,1.258,2.812,2.812
		c0,1.031-0.575,1.89-1.404,2.384v6.483c0.829,0.495,1.404,1.349,1.404,2.38c0,1.555-1.253,2.812-2.812,2.812
		c-1.55,0-2.812-1.258-2.812-2.812C183.834,64.862,184.417,64.009,185.24,63.514L185.24,63.514z M172.584-1.604
		c0-1.555,1.264-2.813,2.812-2.813h61.878c1.559,0,2.812,1.258,2.812,2.813s-1.254,2.812-2.812,2.812h-61.878
		C173.848,1.208,172.584-0.05,172.584-1.604L172.584-1.604z M210.632,58.453l-1.992-1.991l7.956-7.952l1.989,1.988L210.632,58.453z
		 M210.632,66.409l-1.992-1.992l15.911-15.907l1.988,1.988L210.632,66.409z M224.551,56.462l1.988,1.991l-7.954,7.956l-1.989-1.992
		L224.551,56.462z M224.551,56.462"/>
</g>
<g>
	<text transform="matrix(1 0 0 1 -258.3936 334.5107)" fill="#5595CF" font-family="'OpenSans-Bold'" font-size="12.5627">B2C</text>
</g>
<path fill="#3A67B4" d="M92.923,25.427l-17.288-5.685c0,0,0,0-0.01,0h0.01c0,0-0.279-0.103-0.674-0.063
	c-0.383,0.043-0.654,0.24-0.654,0.24l-9.695,6.331c-0.442,0.282-0.702,0.775-0.702,1.301v17.335l-0.533-0.038V16.843
	c0-0.672-0.44-1.271-1.067-1.477L30.967,5.072c0,0-0.366-0.113-0.701-0.056c-0.403,0.056-0.692,0.27-0.692,0.27L6.666,21.632
	c-0.411,0.29-0.655,0.755-0.655,1.261v58.001c0,0.562,0.31,1.085,0.805,1.356l22.917,12.557c0,0,0.234,0.141,0.562,0.179
	c0.327,0.046,0.562-0.03,0.562-0.03l31.343-7.909l13.334-3.366l17.288-4.366c0.682-0.169,1.169-0.795,1.169-1.507V26.904
	C93.989,26.232,93.562,25.633,92.923,25.427L92.923,25.427z M10.687,73.563c0,0.167-0.084,0.325-0.216,0.42
	c-0.093,0.065-0.195,0.094-0.299,0.094c-0.065,0-0.123-0.008-0.178-0.028l-1.337-0.495c-0.204-0.075-0.344-0.271-0.344-0.488v-4.253
	c0-0.158,0.082-0.317,0.205-0.41c0.13-0.105,0.298-0.133,0.448-0.085l1.346,0.364c0.216,0.065,0.375,0.27,0.375,0.506V73.563z
	 M10.687,64.812c0,0.148-0.066,0.298-0.188,0.391c-0.094,0.077-0.205,0.123-0.327,0.123c-0.039,0-0.065-0.01-0.094-0.01
	l-1.346-0.252c-0.244-0.046-0.42-0.262-0.42-0.506v-4.263c0-0.141,0.063-0.281,0.166-0.385c0.114-0.093,0.254-0.139,0.403-0.131
	l1.337,0.131c0.262,0.029,0.468,0.254,0.468,0.514V64.812z M10.687,56.05c0,0.141-0.058,0.27-0.149,0.373
	c-0.104,0.093-0.225,0.15-0.365,0.15l-1.348-0.008c-0.279-0.01-0.511-0.236-0.511-0.525v-4.254c0-0.272,0.205-0.496,0.475-0.514
	l1.337-0.113c0.151-0.018,0.29,0.038,0.394,0.131c0.111,0.104,0.168,0.234,0.168,0.385V56.05z M10.687,47.299
	c0,0.251-0.179,0.466-0.43,0.505l-1.337,0.232c-0.029,0.008-0.057,0.008-0.084,0.008c-0.122,0-0.243-0.044-0.337-0.121
	c-0.111-0.103-0.185-0.242-0.185-0.4v-4.255c0-0.234,0.157-0.44,0.381-0.496l1.337-0.353c0.16-0.04,0.328-0.012,0.449,0.091
	c0.13,0.095,0.206,0.242,0.206,0.411V47.299z M10.687,38.545c0,0.216-0.141,0.41-0.346,0.486l-1.338,0.468
	c-0.056,0.02-0.112,0.03-0.167,0.03c-0.112,0-0.216-0.03-0.299-0.095c-0.142-0.093-0.224-0.25-0.224-0.42v-4.255
	c0-0.207,0.121-0.393,0.306-0.476l1.348-0.589c0.158-0.075,0.335-0.053,0.485,0.038c0.151,0.093,0.235,0.262,0.235,0.428V38.545z
	 M10.687,29.783c0,0.199-0.104,0.367-0.272,0.46l-1.337,0.709C8.994,31,8.91,31.018,8.835,31.018c-0.093,0-0.188-0.028-0.272-0.071
	c-0.159-0.097-0.25-0.266-0.25-0.442V26.24c0-0.176,0.092-0.345,0.242-0.44l1.337-0.833c0.168-0.093,0.365-0.103,0.522-0.004
	c0.168,0.091,0.272,0.26,0.272,0.444V29.783z M15.202,75.227c0,0.169-0.084,0.327-0.226,0.421c-0.083,0.065-0.186,0.095-0.288,0.095
	c-0.066,0-0.123-0.01-0.188-0.029l-1.59-0.589c-0.205-0.075-0.336-0.27-0.336-0.486V69.99c0-0.158,0.073-0.307,0.196-0.412
	c0.131-0.091,0.298-0.121,0.458-0.083l1.589,0.45c0.224,0.055,0.383,0.26,0.383,0.495V75.227z M15.202,65.652
	c0,0.158-0.075,0.299-0.187,0.4c-0.093,0.077-0.215,0.123-0.336,0.123c-0.028,0-0.056-0.008-0.093-0.008l-1.591-0.302
	c-0.251-0.046-0.429-0.262-0.429-0.514v-4.638c0-0.15,0.066-0.291,0.178-0.383c0.112-0.095,0.251-0.15,0.393-0.131l1.598,0.149
	c0.263,0.027,0.468,0.252,0.468,0.523V65.652z M15.202,56.087c0,0.142-0.055,0.271-0.159,0.365
	c-0.093,0.104-0.224,0.148-0.354,0.148h-0.01l-1.589-0.01c-0.292,0-0.515-0.233-0.515-0.514v-4.645c0-0.264,0.206-0.488,0.467-0.515
	l1.599-0.131c0.14-0.01,0.29,0.038,0.394,0.141c0.102,0.091,0.167,0.232,0.167,0.371V56.087z M15.202,46.521
	c0,0.254-0.187,0.468-0.431,0.505l-1.598,0.278c-0.029,0-0.056,0-0.083,0c-0.122,0-0.245-0.034-0.337-0.119
	c-0.113-0.093-0.187-0.244-0.187-0.393v-4.64c0-0.242,0.159-0.436,0.393-0.505l1.589-0.418c0.161-0.038,0.328-0.008,0.45,0.093
	c0.121,0.093,0.195,0.254,0.195,0.41v4.789H15.202z M15.202,36.947c0,0.222-0.14,0.42-0.345,0.486l-1.6,0.573
	c-0.057,0.018-0.113,0.026-0.167,0.026c-0.113,0-0.216-0.038-0.3-0.095c-0.141-0.101-0.214-0.262-0.214-0.426v-4.64
	c0-0.206,0.111-0.395,0.309-0.468l1.589-0.71c0.159-0.065,0.346-0.058,0.496,0.038c0.14,0.093,0.234,0.26,0.234,0.438V36.947z
	 M15.202,27.38c0,0.187-0.103,0.367-0.271,0.46l-1.598,0.851c-0.075,0.038-0.16,0.056-0.243,0.056c-0.095,0-0.188-0.026-0.271-0.076
	c-0.149-0.093-0.243-0.26-0.243-0.438v-4.638c0-0.176,0.084-0.345,0.243-0.44l1.588-0.999c0.16-0.093,0.365-0.105,0.524-0.01
	c0.168,0.095,0.271,0.26,0.271,0.448V27.38z M20.633,77.228c0,0.169-0.073,0.327-0.213,0.423c-0.094,0.065-0.197,0.091-0.299,0.091
	c-0.057,0-0.122-0.008-0.177-0.025l-1.937-0.712c-0.196-0.076-0.336-0.271-0.336-0.486v-5.105c0-0.158,0.075-0.308,0.206-0.412
	c0.121-0.094,0.29-0.131,0.449-0.084l1.935,0.534c0.224,0.065,0.372,0.271,0.372,0.505V77.228z M20.633,66.671
	c0,0.159-0.063,0.3-0.187,0.403c-0.093,0.075-0.205,0.12-0.326,0.12c-0.028,0-0.066-0.01-0.094-0.01l-1.935-0.364
	c-0.243-0.046-0.42-0.262-0.42-0.504v-5.105c0-0.141,0.064-0.279,0.167-0.383c0.113-0.095,0.253-0.141,0.403-0.131l1.926,0.187
	c0.271,0.027,0.466,0.252,0.466,0.523V66.671z M20.633,56.125c0,0.139-0.045,0.27-0.148,0.373c-0.094,0.093-0.224,0.148-0.365,0.148
	l-1.935-0.016c-0.28,0-0.515-0.236-0.515-0.516v-5.106c0-0.27,0.206-0.494,0.477-0.512l1.936-0.161
	c0.139-0.01,0.281,0.038,0.392,0.133c0.103,0.101,0.168,0.234,0.168,0.38v5.275H20.633z M20.633,45.578
	c0,0.25-0.176,0.466-0.419,0.514l-1.935,0.337c-0.028,0-0.056,0-0.093,0c-0.122,0-0.234-0.036-0.327-0.119
	c-0.123-0.097-0.188-0.246-0.188-0.396v-5.094c0-0.244,0.159-0.44,0.384-0.505l1.935-0.506c0.149-0.047,0.319-0.008,0.449,0.095
	c0.121,0.091,0.194,0.242,0.194,0.401V45.578z M20.633,35.031c0,0.222-0.128,0.409-0.335,0.484l-1.936,0.684
	c-0.056,0.02-0.112,0.028-0.177,0.028c-0.103,0-0.205-0.028-0.3-0.091c-0.13-0.097-0.214-0.256-0.214-0.422v-5.105
	c0-0.207,0.121-0.385,0.31-0.468l1.934-0.86c0.16-0.063,0.347-0.056,0.487,0.038c0.149,0.103,0.232,0.262,0.232,0.44V35.031z
	 M20.633,24.481c0,0.188-0.102,0.367-0.269,0.46l-1.937,1.027c-0.074,0.038-0.16,0.057-0.243,0.057c-0.094,0-0.188-0.02-0.264-0.075
	c-0.158-0.091-0.251-0.262-0.251-0.44v-5.096c0-0.187,0.093-0.345,0.243-0.438l1.935-1.206c0.16-0.105,0.355-0.105,0.523-0.01
	c0.169,0.083,0.261,0.262,0.261,0.448V24.481z M27.321,79.679c0,0.176-0.085,0.337-0.225,0.43c-0.083,0.056-0.188,0.094-0.29,0.094
	c-0.065,0-0.121-0.011-0.187-0.038l-2.385-0.878c-0.205-0.076-0.337-0.272-0.337-0.486v-5.658c0-0.159,0.076-0.308,0.197-0.411
	c0.13-0.103,0.298-0.133,0.448-0.085l2.393,0.664c0.226,0.056,0.385,0.264,0.385,0.496V79.679z M27.321,67.925
	c0,0.158-0.075,0.307-0.188,0.402c-0.091,0.075-0.214,0.121-0.336,0.121c-0.027,0-0.056-0.01-0.093-0.01l-2.395-0.448
	c-0.243-0.048-0.421-0.262-0.421-0.514v-5.657c0-0.141,0.066-0.281,0.179-0.385c0.103-0.093,0.253-0.141,0.393-0.131l2.393,0.234
	c0.264,0.027,0.469,0.252,0.469,0.514V67.925z M27.321,56.181c0,0.139-0.058,0.271-0.159,0.362
	c-0.094,0.096-0.226,0.151-0.356,0.151h-0.01l-2.385-0.019c-0.289,0-0.514-0.235-0.514-0.515v-5.664
	c0-0.274,0.206-0.498,0.467-0.516l2.394-0.196c0.15-0.01,0.291,0.036,0.394,0.129c0.103,0.103,0.169,0.236,0.169,0.385V56.181z
	 M27.321,44.426c0,0.254-0.188,0.47-0.431,0.505l-2.395,0.413c-0.028,0.008-0.055,0.008-0.083,0.008
	c-0.122,0-0.243-0.038-0.337-0.121c-0.112-0.093-0.188-0.242-0.188-0.393v-5.655c0-0.236,0.16-0.442,0.395-0.505l2.383-0.628
	c0.159-0.036,0.318-0.008,0.45,0.093c0.12,0.095,0.206,0.244,0.206,0.413V44.426z M27.321,32.674c0,0.214-0.141,0.422-0.346,0.486
	l-2.394,0.843c-0.057,0.018-0.113,0.038-0.169,0.038c-0.111,0-0.216-0.038-0.299-0.103c-0.139-0.095-0.215-0.254-0.215-0.42v-5.659
	c0-0.204,0.113-0.393,0.298-0.478l2.395-1.055c0.158-0.076,0.345-0.058,0.495,0.036c0.141,0.095,0.235,0.264,0.235,0.44V32.674z
	 M27.321,20.92c0,0.196-0.104,0.365-0.28,0.458l-2.386,1.273c-0.074,0.036-0.16,0.063-0.243,0.063c-0.093,0-0.187-0.028-0.271-0.073
	c-0.149-0.093-0.253-0.262-0.253-0.45v-5.657c0-0.177,0.095-0.347,0.245-0.44l2.392-1.485c0.161-0.103,0.366-0.113,0.524-0.018
	c0.168,0.091,0.272,0.262,0.272,0.446V20.92z M40.009,79.51c0,0.252-0.177,0.466-0.43,0.506l-5.517,0.934
	c-0.027,0.01-0.056,0.01-0.084,0.01c-0.121,0-0.243-0.037-0.336-0.123c-0.112-0.093-0.178-0.241-0.178-0.393v-6.067
	c0-0.251,0.188-0.478,0.45-0.505l5.516-0.71c0.14-0.02,0.29,0.027,0.403,0.121c0.113,0.103,0.177,0.243,0.177,0.395V79.51z
	 M40.009,67.839c0,0.272-0.196,0.496-0.468,0.516l-5.516,0.477c-0.019,0-0.027,0-0.048,0c-0.13,0-0.25-0.046-0.346-0.131
	c-0.111-0.102-0.168-0.244-0.168-0.383v-6.012c0-0.282,0.216-0.506,0.488-0.523l5.517-0.244c0.148-0.01,0.279,0.037,0.382,0.141
	c0.103,0.093,0.159,0.234,0.159,0.373V67.839z M40.009,56.173c0,0.287-0.225,0.521-0.514,0.521l-5.518,0.02
	c-0.14,0-0.271-0.058-0.363-0.148c-0.094-0.096-0.151-0.236-0.151-0.367V50.13c0-0.139,0.057-0.27,0.161-0.373
	c0.103-0.093,0.233-0.141,0.375-0.141l5.516,0.204c0.281,0.01,0.495,0.244,0.495,0.525V56.173z M40.009,44.513
	c0,0.137-0.056,0.28-0.159,0.373c-0.103,0.083-0.224,0.139-0.355,0.139c-0.019,0-0.027,0-0.038,0l-5.518-0.438
	c-0.271-0.03-0.477-0.244-0.477-0.523v-6.058c0-0.152,0.066-0.293,0.168-0.385c0.114-0.103,0.264-0.15,0.412-0.131l5.516,0.672
	c0.262,0.03,0.449,0.254,0.449,0.516V44.513z M40.009,32.844c0,0.147-0.064,0.297-0.177,0.391c-0.094,0.085-0.215,0.121-0.336,0.121
	c-0.027,0-0.056,0-0.085,0l-5.515-0.898c-0.254-0.045-0.432-0.26-0.432-0.511v-6.062c0-0.159,0.066-0.309,0.188-0.402
	c0.121-0.103,0.281-0.139,0.431-0.113l5.516,1.132c0.245,0.047,0.412,0.262,0.412,0.505V32.844z M40.009,21.174
	c0,0.159-0.064,0.307-0.196,0.41c-0.094,0.065-0.205,0.111-0.317,0.111c-0.038,0-0.085-0.01-0.122-0.02l-5.517-1.354
	c-0.233-0.056-0.394-0.26-0.394-0.506v-6.057c0-0.168,0.076-0.319,0.206-0.413c0.132-0.103,0.291-0.131,0.449-0.083l5.516,1.58
	c0.226,0.063,0.375,0.26,0.375,0.496V21.174z M49.883,77.836c0,0.252-0.186,0.469-0.429,0.514l-4.759,0.804c-0.03,0-0.056,0-0.085,0
	c-0.122,0-0.242-0.036-0.335-0.121c-0.112-0.092-0.188-0.242-0.188-0.393v-5.619c0-0.262,0.195-0.477,0.459-0.514l4.749-0.609
	c0.15-0.018,0.3,0.028,0.412,0.121c0.113,0.105,0.177,0.244,0.177,0.395V77.836z M49.883,66.988c0,0.271-0.205,0.496-0.477,0.516
	l-4.75,0.413c-0.018,0-0.028,0-0.047,0c-0.13,0-0.253-0.048-0.345-0.144c-0.113-0.093-0.168-0.231-0.168-0.372v-5.619
	c0-0.282,0.216-0.506,0.496-0.525l4.75-0.205c0.14-0.01,0.28,0.038,0.383,0.14c0.103,0.095,0.159,0.233,0.159,0.374V66.988z
	 M49.883,56.143c0,0.28-0.234,0.514-0.513,0.514l-4.761,0.02c-0.139,0-0.271-0.057-0.364-0.15c-0.103-0.103-0.159-0.233-0.159-0.364
	v-5.628c0-0.141,0.064-0.27,0.159-0.365c0.103-0.104,0.242-0.159,0.383-0.151l4.75,0.181c0.281,0.018,0.505,0.242,0.505,0.523
	V56.143z M49.883,45.288c0,0.147-0.064,0.29-0.167,0.383c-0.094,0.083-0.224,0.139-0.356,0.139c-0.01,0-0.028,0-0.037-0.008
	l-4.759-0.375c-0.263-0.016-0.477-0.242-0.477-0.513v-5.619c0-0.151,0.064-0.292,0.177-0.383c0.111-0.103,0.261-0.151,0.412-0.131
	l4.75,0.577c0.262,0.03,0.458,0.253,0.458,0.515V45.288z M49.883,34.44c0,0.151-0.064,0.299-0.186,0.395
	c-0.094,0.083-0.206,0.129-0.337,0.129c-0.028,0-0.047-0.008-0.073-0.008l-4.762-0.777c-0.25-0.038-0.438-0.252-0.438-0.505v-5.627
	c0-0.152,0.075-0.299,0.195-0.402c0.122-0.093,0.282-0.131,0.43-0.103l4.761,0.974c0.233,0.043,0.41,0.26,0.41,0.503V34.44z
	 M49.883,23.595c0,0.159-0.075,0.307-0.196,0.411c-0.093,0.075-0.206,0.113-0.317,0.113c-0.047,0-0.083-0.01-0.131-0.02
	l-4.752-1.167c-0.233-0.056-0.392-0.26-0.392-0.506v-5.619c0-0.159,0.074-0.307,0.205-0.413c0.122-0.093,0.3-0.128,0.45-0.083
	l4.759,1.366c0.214,0.065,0.374,0.271,0.374,0.496V23.595z M58.458,76.377c0,0.254-0.178,0.468-0.43,0.514l-4.143,0.702
	c-0.027,0.01-0.057,0.01-0.087,0.01c-0.119,0-0.242-0.048-0.333-0.121c-0.123-0.105-0.19-0.244-0.19-0.393v-5.246
	c0-0.262,0.198-0.479,0.45-0.516l4.142-0.523c0.151-0.019,0.302,0.027,0.413,0.123c0.11,0.101,0.178,0.243,0.178,0.391V76.377z
	 M58.458,66.241c0,0.271-0.206,0.495-0.478,0.523l-4.142,0.356c-0.01,0-0.028,0-0.04,0c-0.129,0-0.25-0.047-0.353-0.141
	c-0.104-0.095-0.171-0.233-0.171-0.375v-5.234c0-0.281,0.216-0.507,0.498-0.525l4.142-0.187c0.139,0,0.279,0.048,0.383,0.149
	c0.102,0.093,0.16,0.233,0.16,0.374V66.241z M58.458,56.105c0,0.289-0.237,0.514-0.515,0.525l-4.145,0.008
	c-0.139,0-0.27-0.048-0.362-0.15c-0.102-0.094-0.161-0.225-0.161-0.363V50.89c0-0.141,0.06-0.282,0.161-0.375
	c0.103-0.095,0.243-0.15,0.382-0.141l4.145,0.151c0.27,0.008,0.495,0.242,0.495,0.523V56.105z M58.458,45.97
	c0,0.149-0.059,0.29-0.17,0.383c-0.094,0.093-0.214,0.141-0.345,0.141c-0.017,0-0.028,0-0.046-0.01l-4.143-0.327
	c-0.264-0.02-0.479-0.244-0.479-0.514v-5.236c0-0.151,0.067-0.29,0.179-0.391c0.115-0.095,0.264-0.143,0.412-0.123l4.132,0.503
	c0.262,0.028,0.46,0.252,0.46,0.516V45.97z M58.458,35.836c0,0.157-0.067,0.299-0.178,0.398c-0.104,0.075-0.215,0.123-0.337,0.123
	c-0.028,0-0.056-0.01-0.084-0.01l-4.142-0.672c-0.252-0.048-0.442-0.264-0.442-0.516v-5.236c0-0.159,0.075-0.297,0.198-0.401
	c0.123-0.093,0.27-0.143,0.433-0.103l4.14,0.841c0.234,0.048,0.412,0.264,0.412,0.503V35.836z M58.458,25.696
	c0,0.163-0.075,0.319-0.198,0.415c-0.091,0.073-0.206,0.111-0.316,0.111c-0.046,0-0.084-0.01-0.131-0.02l-4.143-1.009
	c-0.224-0.056-0.395-0.27-0.395-0.506v-5.244c0-0.159,0.087-0.31,0.208-0.413c0.131-0.091,0.298-0.131,0.458-0.083l4.143,1.188
	c0.214,0.065,0.374,0.27,0.374,0.505V25.696z M75.673,82.175c0,0.233-0.169,0.438-0.393,0.506l-13.334,3.366
	c-0.038,0.008-0.085,0.008-0.121,0.008c-0.123,0-0.226-0.037-0.319-0.103c-0.131-0.104-0.204-0.252-0.204-0.411V56.096
	c0-0.046,0.081-5.432,7.61-5.151c6.686,0.252,6.761,5.057,6.761,5.105V82.175z M81.265,72.517c0,0.252-0.179,0.466-0.431,0.514
	l-2.723,0.458c-0.027,0.008-0.055,0.008-0.083,0.008c-0.123,0-0.244-0.046-0.337-0.121c-0.111-0.103-0.179-0.242-0.179-0.402v-4.226
	c0-0.262,0.188-0.487,0.448-0.516l2.723-0.354c0.15-0.018,0.299,0.029,0.41,0.131c0.104,0.095,0.171,0.234,0.171,0.385V72.517z
	 M81.265,64.276c0,0.264-0.198,0.487-0.469,0.516l-2.72,0.233c-0.02,0-0.038,0-0.048,0c-0.131,0-0.254-0.047-0.356-0.131
	c-0.102-0.103-0.159-0.243-0.159-0.383v-4.236c0-0.28,0.214-0.504,0.488-0.514l2.729-0.121c0.142-0.01,0.28,0.035,0.371,0.139
	c0.107,0.095,0.163,0.234,0.163,0.375V64.276z M81.265,56.002c0,0.279-0.227,0.514-0.516,0.514l-2.721,0.01
	c-0.139,0-0.271-0.056-0.364-0.148c-0.094-0.104-0.151-0.234-0.151-0.365v-4.206c0-0.141,0.058-0.271,0.159-0.373
	c0.095-0.095,0.233-0.143,0.374-0.143l2.723,0.104c0.279,0.01,0.504,0.243,0.504,0.525v4.083H81.265z M81.265,47.785
	c0,0.148-0.056,0.29-0.163,0.382c-0.099,0.093-0.222,0.139-0.353,0.139c-0.008,0-0.028-0.006-0.036-0.006l-2.732-0.216
	c-0.262-0.02-0.468-0.244-0.468-0.514v-4.237c0-0.15,0.058-0.29,0.171-0.384c0.111-0.102,0.262-0.149,0.4-0.121l2.732,0.327
	c0.262,0.028,0.448,0.252,0.448,0.516V47.785z M81.265,39.546c0,0.151-0.067,0.29-0.179,0.393c-0.096,0.085-0.214,0.121-0.337,0.121
	c-0.028,0-0.056,0-0.084-0.008l-2.72-0.44c-0.254-0.036-0.44-0.253-0.44-0.505v-4.235c0-0.159,0.075-0.309,0.196-0.402
	c0.121-0.103,0.279-0.139,0.431-0.113l2.72,0.563c0.242,0.045,0.413,0.262,0.413,0.505V39.546z M81.265,31.3
	c0,0.157-0.067,0.307-0.198,0.41c-0.092,0.074-0.207,0.113-0.317,0.113c-0.036,0-0.084-0.01-0.119-0.018l-2.725-0.664
	c-0.233-0.067-0.393-0.271-0.393-0.505v-4.237c0-0.159,0.075-0.317,0.206-0.413c0.123-0.101,0.29-0.127,0.448-0.083l2.723,0.777
	c0.224,0.065,0.375,0.272,0.375,0.496V31.3z M86.293,71.664c0,0.252-0.177,0.468-0.429,0.506l-2.45,0.42
	c-0.028,0.008-0.06,0.008-0.084,0.008c-0.123,0-0.243-0.045-0.337-0.121c-0.111-0.101-0.179-0.241-0.179-0.393v-4.019
	c0-0.264,0.187-0.478,0.452-0.516l2.447-0.308c0.15-0.02,0.289,0.028,0.402,0.121c0.111,0.104,0.177,0.244,0.177,0.393V71.664z
	 M86.293,63.838c0,0.271-0.196,0.496-0.464,0.516l-2.451,0.214c-0.023,0-0.029,0-0.048,0c-0.131,0-0.254-0.045-0.345-0.131
	c-0.115-0.103-0.171-0.243-0.171-0.383v-4.011c0-0.281,0.217-0.506,0.496-0.525l2.45-0.111c0.142,0,0.28,0.046,0.373,0.149
	c0.104,0.095,0.159,0.224,0.159,0.374V63.838z M86.293,56.012c0,0.29-0.223,0.523-0.512,0.523l-2.451,0.008
	c-0.139,0-0.273-0.055-0.364-0.148c-0.096-0.103-0.151-0.233-0.151-0.373V52.01c0-0.139,0.056-0.279,0.159-0.373
	c0.103-0.103,0.233-0.15,0.375-0.15l2.448,0.095c0.281,0.019,0.496,0.242,0.496,0.522V56.012z M86.293,48.187
	c0,0.149-0.056,0.28-0.159,0.383c-0.101,0.083-0.222,0.133-0.353,0.133c-0.012,0-0.028,0-0.04,0l-2.448-0.19
	c-0.271-0.026-0.479-0.252-0.479-0.521v-4.011c0-0.153,0.056-0.292,0.179-0.393c0.104-0.093,0.252-0.143,0.402-0.123l2.449,0.297
	c0.262,0.03,0.448,0.254,0.448,0.516V48.187z M86.293,40.359c0,0.161-0.065,0.299-0.177,0.393c-0.093,0.085-0.214,0.133-0.335,0.133
	c-0.028,0-0.056-0.01-0.086-0.01l-2.45-0.402c-0.252-0.038-0.431-0.252-0.431-0.506v-4.021c0-0.148,0.067-0.299,0.187-0.402
	c0.123-0.093,0.282-0.131,0.433-0.103l2.448,0.496c0.244,0.058,0.411,0.273,0.411,0.516V40.359z M86.293,32.535
	c0,0.156-0.065,0.309-0.196,0.41c-0.094,0.076-0.204,0.111-0.315,0.111c-0.04,0-0.086-0.008-0.123-0.018l-2.451-0.599
	c-0.233-0.056-0.393-0.262-0.393-0.506v-4.011c0-0.167,0.076-0.319,0.207-0.41c0.131-0.103,0.299-0.133,0.449-0.083l2.449,0.7
	c0.224,0.053,0.373,0.262,0.373,0.496V32.535z M90.849,70.898c0,0.252-0.19,0.466-0.439,0.504l-2.217,0.375
	c-0.028,0.01-0.056,0.01-0.084,0.01c-0.122,0-0.243-0.04-0.337-0.123c-0.11-0.094-0.178-0.242-0.178-0.393v-3.815
	c0-0.262,0.186-0.485,0.449-0.515l2.215-0.28c0.151-0.018,0.3,0.028,0.413,0.123c0.11,0.094,0.166,0.242,0.166,0.393v3.722H90.849z
	 M90.849,63.445c0,0.271-0.206,0.496-0.478,0.516l-2.217,0.194c-0.018,0-0.027,0-0.046,0c-0.122,0-0.253-0.046-0.347-0.139
	c-0.113-0.096-0.168-0.234-0.168-0.375v-3.814c0-0.28,0.216-0.514,0.495-0.523l2.217-0.104c0.139,0,0.279,0.048,0.375,0.148
	c0.101,0.094,0.168,0.236,0.168,0.375V63.445z M90.849,56.002c0,0.279-0.233,0.514-0.523,0.514l-2.217,0.01
	c-0.131,0-0.271-0.056-0.364-0.148c-0.096-0.104-0.15-0.234-0.15-0.365v-3.814c0-0.148,0.055-0.278,0.158-0.382
	c0.104-0.095,0.234-0.15,0.375-0.141l2.217,0.083c0.279,0.01,0.505,0.244,0.505,0.522V56.002z M90.849,48.552
	c0,0.141-0.067,0.28-0.168,0.383c-0.105,0.083-0.227,0.131-0.355,0.131c-0.012,0-0.027,0-0.039,0l-2.217-0.179
	c-0.27-0.018-0.476-0.244-0.476-0.513v-3.817c0-0.147,0.067-0.29,0.178-0.391c0.104-0.093,0.25-0.141,0.4-0.123l2.217,0.262
	c0.262,0.038,0.46,0.252,0.46,0.514V48.552z M90.849,41.099c0,0.159-0.075,0.299-0.19,0.393c-0.091,0.085-0.214,0.121-0.333,0.121
	c-0.027,0-0.06,0-0.087,0l-2.217-0.365c-0.25-0.036-0.428-0.251-0.428-0.505v-3.815c0-0.159,0.067-0.307,0.186-0.4
	c0.123-0.103,0.282-0.139,0.433-0.113l2.217,0.458c0.242,0.048,0.42,0.262,0.42,0.504V41.099z M90.849,33.655
	c0,0.161-0.075,0.307-0.206,0.402c-0.085,0.076-0.206,0.111-0.317,0.111c-0.039,0-0.087,0-0.123-0.02l-2.216-0.539
	c-0.234-0.058-0.393-0.264-0.393-0.498v-3.825c0-0.157,0.075-0.307,0.206-0.41c0.131-0.095,0.297-0.131,0.448-0.083l2.217,0.637
	c0.224,0.063,0.372,0.27,0.372,0.494v3.731H90.849z M90.849,33.655"/>
<g>
	<text transform="matrix(1 0 0 1 -137.1177 334.5107)" fill="#5595CF" font-family="'OpenSans-Bold'" font-size="12.5627">Market Place </text>
</g>
<g>
	<path fill="#3A67B4" d="M-95.266,269.04h-18.307c-0.797,0-1.444,0.648-1.444,1.444v33.146c0,0.796,0.647,1.444,1.444,1.444h18.307
		c0.797,0,1.443-0.648,1.443-1.444v-33.146C-93.823,269.688-94.469,269.04-95.266,269.04L-95.266,269.04z M-104.419,302.659
		c-0.864,0-1.566-0.704-1.566-1.566c0-0.864,0.702-1.566,1.566-1.566c0.863,0,1.565,0.702,1.565,1.566
		C-102.854,301.955-103.556,302.659-104.419,302.659L-104.419,302.659z M-96.971,297.812h-14.897v-25.624h14.897V297.812z
		 M-96.971,297.812"/>
	<path fill="#3A67B4" d="M-104.502,291.761c0,0.552-0.448,0.999-0.999,0.999c-0.553,0-1-0.447-1-0.999c0-0.553,0.447-1,1-1
		C-104.951,290.761-104.502,291.208-104.502,291.761L-104.502,291.761z M-104.502,291.761"/>
	<path fill="#3A67B4" d="M-101.828,290.761c-0.552,0-1,0.447-1,1c0,0.552,0.448,0.999,1,0.999s1-0.447,1-0.999
		C-100.828,291.208-101.276,290.761-101.828,290.761L-101.828,290.761z M-101.828,290.761"/>
	<path fill="#3A67B4" d="M-110.285,282.917l0.706,0.438l2.437,6.313c0.074,0.193,0.261,0.32,0.467,0.32h6.021
		c0.206,0,0.393-0.127,0.467-0.32l1.999-5.199c0.06-0.154,0.039-0.326-0.054-0.463c-0.094-0.135-0.247-0.217-0.413-0.217h-8.939
		l-0.514-1.312c-0.066-0.171-0.187-0.314-0.342-0.411l-0.944-0.585c-0.396-0.245-0.917-0.123-1.163,0.273
		C-110.803,282.15-110.681,282.672-110.285,282.917L-110.285,282.917z M-110.285,282.917"/>
</g>
</svg>
