<?xml version="1.0" encoding="utf-8"?>
<!-- Generator: Adobe Illustrator 16.0.0, SVG Export Plug-In . SVG Version: 6.00 Build 0)  -->
<!DOCTYPE svg PUBLIC "-//W3C//DTD SVG 1.1//EN" "http://www.w3.org/Graphics/SVG/1.1/DTD/svg11.dtd">
<svg version="1.1" id="Capa_1" xmlns="http://www.w3.org/2000/svg" xmlns:xlink="http://www.w3.org/1999/xlink" x="0px" y="0px"
	 width="150px" height="150px" viewBox="0 0 150 150" enable-background="new 0 0 150 150" xml:space="preserve">
<g>
	<circle fill="none" stroke="#FFFFFF" stroke-width="2" stroke-miterlimit="10" cx="75" cy="75" r="70.688"/>
	<path fill="#FFFFFF" d="M88.798,79.453c4.533-4.785,7.427-11.54,7.427-17.983c0-11.723-9.495-21.231-21.218-21.231
		c-11.722,0-21.231,9.508-21.231,21.231c0,2.894,0.616,5.84,1.664,8.657c2.606,5.881,7.727,10.436,14.21,12.099
		c1.284-1.585,3.223-2.541,5.357-2.541c3.812,0,6.903,3.104,6.903,6.919c0,3.808-3.104,6.899-6.903,6.899
		c-2.724,0-5.121-1.581-6.247-3.939c-5.566-1.234-10.452-4.023-14.25-7.858c-8.369,3.559-13.792,9.26-13.792,15.678
		c0,10.815,68.566,10.815,68.566,0C109.283,89.364,100.861,82.488,88.798,79.453L88.798,79.453z M88.798,79.453"/>
	<path fill="#FFFFFF" d="M70.618,87.429c0.393,2.066,2.201,3.628,4.375,3.628c2.475,0,4.467-1.994,4.467-4.453
		c0-2.466-1.992-4.466-4.455-4.466c-1.899,0-3.509,1.188-4.15,2.852c-11.212-1.978-19.766-11.762-19.766-23.52
		c0-13.19,10.727-23.917,23.916-23.917c13.176,0,23.904,10.727,23.904,23.917h2.449c0-14.539-11.827-26.37-26.353-26.37
		c-14.538,0-26.364,11.832-26.364,26.37C48.641,74.498,58.175,85.333,70.618,87.429L70.618,87.429z M70.618,87.429"/>
</g>
</svg>
