<?xml version="1.0" encoding="utf-8"?>
<!-- Generator: Adobe Illustrator 16.0.0, SVG Export Plug-In . SVG Version: 6.00 Build 0)  -->
<!DOCTYPE svg PUBLIC "-//W3C//DTD SVG 1.1//EN" "http://www.w3.org/Graphics/SVG/1.1/DTD/svg11.dtd">
<svg version="1.1" id="Capa_1" xmlns="http://www.w3.org/2000/svg" xmlns:xlink="http://www.w3.org/1999/xlink" x="0px" y="0px"
	 width="126.75px" height="100px" viewBox="0 0 126.75 100" enable-background="new 0 0 126.75 100" xml:space="preserve">
<g>
	<path fill="#FFFFFF" d="M82.236,62.185c6.03-6.368,9.882-15.356,9.882-23.931c0-15.599-12.636-28.252-28.235-28.252
		c-15.598,0-28.251,12.653-28.251,28.252c0,3.851,0.819,7.772,2.214,11.52c3.469,7.826,10.282,13.887,18.91,16.1
		c1.708-2.109,4.287-3.381,7.127-3.381c5.072,0,9.186,4.131,9.186,9.207c0,5.067-4.131,9.181-9.186,9.181
		c-3.624,0-6.813-2.104-8.312-5.242c-7.406-1.642-13.908-5.354-18.963-10.457c-11.136,4.735-18.352,12.322-18.352,20.862
		c0,14.391,91.238,14.391,91.238,0C109.494,75.373,98.287,66.223,82.236,62.185L82.236,62.185z M82.236,62.185"/>
	<path fill="#FFFFFF" d="M58.043,72.797c0.523,2.749,2.93,4.827,5.822,4.827c3.294,0,5.944-2.654,5.944-5.926
		c0-3.28-2.65-5.942-5.927-5.942c-2.527,0-4.67,1.581-5.523,3.795c-14.92-2.632-26.302-15.65-26.302-31.297
		c0-17.551,14.274-31.825,31.825-31.825c17.533,0,31.807,14.274,31.807,31.825h3.26c0-19.346-15.738-35.089-35.066-35.089
		c-19.346,0-35.082,15.744-35.082,35.089C28.801,55.59,41.486,70.008,58.043,72.797L58.043,72.797z M58.043,72.797"/>
</g>
</svg>
