<?xml version="1.0" encoding="utf-8"?>
<!-- Generator: Adobe Illustrator 16.0.0, SVG Export Plug-In . SVG Version: 6.00 Build 0)  -->
<!DOCTYPE svg PUBLIC "-//W3C//DTD SVG 1.1//EN" "http://www.w3.org/Graphics/SVG/1.1/DTD/svg11.dtd">
<svg version="1.1" id="Capa_1" xmlns="http://www.w3.org/2000/svg" xmlns:xlink="http://www.w3.org/1999/xlink" x="0px" y="0px"
	 width="150px" height="150px" viewBox="0 0 150 150" enable-background="new 0 0 150 150" xml:space="preserve">
<g>
	<circle fill="none" stroke="#FFFFFF" stroke-width="2" stroke-miterlimit="10" cx="75.005" cy="75.904" r="71.175"/>
	<g>
		<path fill="#FFFFFF" d="M100.499,65.688H87.965V51.066c0-2.522-2.057-4.553-4.578-4.553H66.495c-2.52,0-4.512,2.031-4.512,4.553
			v14.616h-3.088v-2.245c0-1.038-0.8-1.908-1.832-1.908h-5.835c-1.038,0-1.921,0.87-1.921,1.908v2.231
			c-2.449,0.013-4.475,2.05-4.475,4.564v27.848c0,2.521,2.025,4.558,4.545,4.558h51.123c2.521,0,4.616-2.037,4.616-4.558V70.233
			C105.115,67.713,103.02,65.688,100.499,65.688L100.499,65.688z M66.024,52.116c0-1.039,0.839-1.876,1.877-1.876h14.037
			c1.037,0,1.875,0.837,1.875,1.876v1.683c0,1.032-0.838,1.876-1.875,1.876H67.901c-1.038,0-1.877-0.844-1.877-1.876V52.116z
			 M74.941,99.775c-8.615,0-15.623-7.009-15.623-15.615c0-8.614,7.008-15.622,15.623-15.622c8.614,0,15.616,7.007,15.616,15.622
			C90.557,92.767,83.555,99.775,74.941,99.775L74.941,99.775z M74.941,99.775"/>
		<path fill="#FFFFFF" d="M74.941,74.018c-5.591,0-10.141,4.545-10.141,10.142c0,5.592,4.55,10.137,10.141,10.137
			c5.589,0,10.142-4.545,10.142-10.137C85.083,78.563,80.53,74.018,74.941,74.018L74.941,74.018z M74.941,74.018"/>
	</g>
</g>
</svg>
