<?xml version="1.0" encoding="utf-8"?>
<!-- Generator: Adobe Illustrator 16.0.0, SVG Export Plug-In . SVG Version: 6.00 Build 0)  -->
<!DOCTYPE svg PUBLIC "-//W3C//DTD SVG 1.1//EN" "http://www.w3.org/Graphics/SVG/1.1/DTD/svg11.dtd">
<svg version="1.1" id="Capa_1" xmlns="http://www.w3.org/2000/svg" xmlns:xlink="http://www.w3.org/1999/xlink" x="0px" y="0px"
	 width="100px" height="100px" viewBox="-27.174 -27.174 100 100" enable-background="new -27.174 -27.174 100 100"
	 xml:space="preserve">
<g>
	<g>
		<path fill="#3A67B4" d="M62.306,9.076H42.921V-13.54c0-3.897-3.188-7.033-7.085-7.033H9.717c-3.898,0-6.981,3.136-6.981,7.033
			V9.074h-4.776V5.595c0-1.599-1.23-2.947-2.829-2.947h-9.028c-1.6,0-2.967,1.348-2.967,2.947v3.456
			c-3.789,0.022-6.92,3.173-6.92,7.056V59.17c0,3.898,3.133,7.057,7.031,7.057h79.061c3.896,0,7.131-3.158,7.131-7.057V16.109
			C69.437,12.208,66.203,9.076,62.306,9.076z M8.991-11.911c0-1.6,1.3-2.902,2.901-2.902h21.706c1.602,0,2.902,1.302,2.902,2.902
			v2.602c0,1.599-1.301,2.9-2.902,2.9H11.892c-1.602,0-2.901-1.301-2.901-2.9V-11.911z M22.776,61.793
			c-13.318,0-24.153-10.838-24.153-24.15c0-13.32,10.835-24.156,24.153-24.156s24.153,10.836,24.153,24.156
			C46.929,50.955,36.094,61.793,22.776,61.793z"/>
		<path fill="#3A67B4" d="M22.776,21.956c-8.646,0-15.684,7.034-15.684,15.687c0,8.648,7.037,15.68,15.684,15.68
			c8.648,0,15.686-7.029,15.686-15.68C38.46,28.99,31.425,21.956,22.776,21.956z"/>
	</g>
</g>
</svg>
