<?xml version="1.0" encoding="utf-8"?>
<!-- Generator: Adobe Illustrator 16.0.0, SVG Export Plug-In . SVG Version: 6.00 Build 0)  -->
<!DOCTYPE svg PUBLIC "-//W3C//DTD SVG 1.1//EN" "http://www.w3.org/Graphics/SVG/1.1/DTD/svg11.dtd">
<svg version="1.1" id="Capa_1" xmlns="http://www.w3.org/2000/svg" xmlns:xlink="http://www.w3.org/1999/xlink" x="0px" y="0px"
	 width="150px" height="150px" viewBox="0 0 150 150" enable-background="new 0 0 150 150" xml:space="preserve">
<circle fill="none" stroke="#FFFFFF" stroke-width="2" stroke-miterlimit="10" cx="75" cy="75" r="70.008"/>
<path fill="#FFFFFF" d="M109.709,54.504c-0.426-0.583-1.102-0.929-1.824-0.929H57.146c-0.095,0-0.194,0.007-0.29,0.019l-2.088-6.02
	c-0.216-0.62-0.693-1.116-1.303-1.358l-10.527-4.133c-1.16-0.455-2.466,0.114-2.921,1.273c-0.455,1.156,0.114,2.467,1.273,2.922
	l9.558,3.754l11.698,33.723c-0.514,0.18-0.954,0.576-1.152,1.13l-3.381,9.396c-0.209,0.576-0.125,1.215,0.228,1.718
	c0.353,0.499,0.929,0.796,1.538,0.796h1.741c-1.079,1.2-1.741,2.778-1.741,4.511c0,3.733,3.036,6.765,6.765,6.765
	c3.733,0,6.766-3.031,6.766-6.765c0-1.732-0.661-3.311-1.739-4.511h14.751c-1.075,1.2-1.736,2.778-1.736,4.511
	c0,3.733,3.032,6.765,6.765,6.765c3.729,0,6.765-3.031,6.765-6.765c0-1.732-0.661-3.311-1.736-4.511h2.11
	c1.039,0,1.879-0.84,1.879-1.879c0-1.035-0.84-1.879-1.879-1.879H62.455l2.092-5.817c0.271,0.113,0.565,0.18,0.87,0.18h33.071
	c0.983,0,1.85-0.632,2.147-1.563l9.396-29.318C110.252,55.833,110.131,55.084,109.709,54.504L109.709,54.504z M66.543,104.314
	c-1.655,0-3.006-1.348-3.006-3.007c0-1.658,1.351-3.006,3.006-3.006c1.659,0,3.01,1.348,3.01,3.006
	C69.553,102.967,68.203,104.314,66.543,104.314L66.543,104.314z M91.35,104.314c-1.659,0-3.006-1.348-3.006-3.007
	c0-1.658,1.347-3.006,3.006-3.006s3.006,1.348,3.006,3.006C94.355,102.967,93.009,104.314,91.35,104.314L91.35,104.314z
	 M103.168,63.163H91.661v-5.076h13.133L103.168,63.163z M99.857,73.499h-8.196V67.67h10.061L99.857,73.499z M76.753,73.499V67.67
	H87.15v5.829H76.753z M87.15,78.005v4.889H76.753v-4.889H87.15z M61.743,67.67h10.499v5.829h-8.48L61.743,67.67z M76.753,63.163
	v-5.076H87.15v5.076H76.753z M72.242,58.086v5.076H60.175l-1.759-5.076H72.242z M65.329,78.005h6.913v4.889h-5.221L65.329,78.005z
	 M91.661,82.894v-4.889h6.75l-1.567,4.889H91.661z M91.661,82.894"/>
</svg>
