<?xml version="1.0" encoding="utf-8"?>
<!-- Generator: Adobe Illustrator 16.0.0, SVG Export Plug-In . SVG Version: 6.00 Build 0)  -->
<!DOCTYPE svg PUBLIC "-//W3C//DTD SVG 1.1//EN" "http://www.w3.org/Graphics/SVG/1.1/DTD/svg11.dtd">
<svg version="1.1" id="Capa_1" xmlns="http://www.w3.org/2000/svg" xmlns:xlink="http://www.w3.org/1999/xlink" x="0px" y="0px"
	 width="200px" height="200px" viewBox="0 0 200 200" enable-background="new 0 0 200 200" xml:space="preserve">
<g>
	<rect x="38.862" y="36.019" fill="#FFFFFF" width="51.112" height="10.812"/>
	<path fill="#FFFFFF" d="M158.878,48.185c1.777,0,3.514-0.721,4.776-1.983c1.258-1.261,1.979-3,1.979-4.773
		c0-1.786-0.722-3.522-1.979-4.786c-1.263-1.254-2.999-1.971-4.776-1.971c-1.781,0-3.523,0.717-4.782,1.971
		c-1.253,1.264-1.975,3-1.975,4.786c0,1.773,0.722,3.512,1.975,4.773C155.354,47.456,157.097,48.185,158.878,48.185L158.878,48.185z
		 M158.878,48.185"/>
	<path fill="#FFFFFF" d="M134.559,48.185c1.771,0,3.51-0.721,4.771-1.983c1.262-1.261,1.984-3,1.984-4.773
		c0-1.786-0.723-3.522-1.984-4.786c-1.262-1.254-3-1.971-4.771-1.971c-1.786,0-3.524,0.717-4.787,1.971
		c-1.248,1.264-1.971,3-1.971,4.786c0,1.773,0.723,3.512,1.971,4.773C131.034,47.464,132.772,48.185,134.559,48.185L134.559,48.185z
		 M134.559,48.185"/>
	<path fill="#FFFFFF" d="M110.233,48.185c1.777,0,3.514-0.721,4.776-1.983c1.258-1.261,1.979-3,1.979-4.773
		c0-1.786-0.722-3.522-1.979-4.786c-1.253-1.254-2.999-1.971-4.776-1.971c-1.781,0-3.523,0.717-4.781,1.971
		c-1.254,1.264-1.976,3-1.976,4.786c0,1.773,0.722,3.512,1.976,4.773C106.71,47.464,108.452,48.185,110.233,48.185L110.233,48.185z
		 M110.233,48.185"/>
	<path fill="#FFFFFF" d="M4.072,13.692v172.615h191.855V13.692H4.072z M182.414,27.204v28.441H17.585V27.204H182.414z
		 M17.585,172.794V69.156h164.829v103.638H17.585z M17.585,172.794"/>
	<path fill="#FFFFFF" d="M159.348,114.243c0-21.024-17.105-38.137-38.132-38.137c-11.458,0-21.741,5.085-28.74,13.108H69.388v10.812
		h16.451c-1.772,4.394-2.757,9.195-2.757,14.216c0,0.382,0.017,0.764,0.031,1.147H40.837v10.81h44.175
		c1.949,5.885,5.292,11.135,9.641,15.365H40.837v10.81h80.099v-0.004c0.093,0,0.185,0.004,0.28,0.004
		c8.569,0,16.483-2.843,22.86-7.628l19.604,19.605l7.646-7.646l-19.605-19.603C156.507,130.729,159.348,122.813,159.348,114.243
		L159.348,114.243z M121.216,141.565c-15.068,0-27.328-12.257-27.328-27.322c0-15.068,12.26-27.324,27.328-27.324
		c15.067,0,27.325,12.256,27.325,27.324C148.541,129.309,136.283,141.565,121.216,141.565L121.216,141.565z M121.216,141.565"/>
</g>
</svg>
