<?xml version="1.0" encoding="utf-8"?>
<!-- Generator: Adobe Illustrator 16.0.0, SVG Export Plug-In . SVG Version: 6.00 Build 0)  -->
<!DOCTYPE svg PUBLIC "-//W3C//DTD SVG 1.1//EN" "http://www.w3.org/Graphics/SVG/1.1/DTD/svg11.dtd">
<svg version="1.1" id="Capa_1" xmlns="http://www.w3.org/2000/svg" xmlns:xlink="http://www.w3.org/1999/xlink" x="0px" y="0px"
	 width="150px" height="150px" viewBox="0 0 150 150" enable-background="new 0 0 150 150" xml:space="preserve">
<g>
	<circle fill="none" stroke="#FFFFFF" stroke-width="2" stroke-miterlimit="10" cx="75" cy="75" r="69.778"/>
	<g>
		<path fill="#FFFFFF" d="M113.891,86.119v-0.945l-7.932-26.047h-17.55v-6.234H46.222v16.122h-8.988L33.43,74.08h12.792v3.803
			H31.854l-3.803,5.064h18.162v3.172H44.2v8.544h2.013v1.271h1.373c0.77,4.544,4.721,8.023,9.489,8.023
			c4.759,0,8.709-3.479,9.479-8.023h21.622c0.762,4.544,4.712,8.023,9.48,8.023c4.759,0,8.71-3.479,9.479-8.023h6.754v-1.271h2.217
			v-8.544H113.891z M57.075,99.428c-2.81,0-5.102-2.288-5.102-5.1c0-2.812,2.282-5.102,5.102-5.102c2.802,0,5.092,2.289,5.092,5.102
			C62.167,97.14,59.877,99.428,57.075,99.428L57.075,99.428z M97.657,99.428c-2.812,0-5.103-2.288-5.103-5.1
			c0-2.812,2.291-5.102,5.103-5.102c2.811,0,5.093,2.289,5.093,5.102C102.75,97.14,100.468,99.428,97.657,99.428L97.657,99.428z
			 M92.936,75.192V63.653h9.666l3.516,11.539H92.936z M92.936,75.192"/>
	</g>
</g>
</svg>
