<?xml version="1.0" encoding="utf-8"?>
<!-- Generator: Adobe Illustrator 16.0.0, SVG Export Plug-In . SVG Version: 6.00 Build 0)  -->
<!DOCTYPE svg PUBLIC "-//W3C//DTD SVG 1.1//EN" "http://www.w3.org/Graphics/SVG/1.1/DTD/svg11.dtd">
<svg version="1.1" id="Capa_1" xmlns="http://www.w3.org/2000/svg" xmlns:xlink="http://www.w3.org/1999/xlink" x="0px" y="0px"
	 width="175.25px" height="100px" viewBox="0 0 175.25 100" enable-background="new 0 0 175.25 100" xml:space="preserve">
<g>
	<path fill="#FFFFFF" d="M168.443,64.214v-1.812l-15.191-49.904h-33.627V0.553h-80.83v30.89H21.574l-7.289,9.704h24.51v7.286H11.266
		l-7.287,9.704h34.799v6.077H34.92v16.37h3.857v2.434h2.632c1.475,8.708,9.043,15.373,18.179,15.373
		c9.119,0,16.691-6.666,18.164-15.373h41.428c1.457,8.708,9.028,15.373,18.164,15.373c9.116,0,16.689-6.666,18.162-15.373h12.938
		v-2.434h4.248v-16.37H168.443z M59.588,89.713c-5.383,0-9.773-4.385-9.773-9.771c0-5.391,4.371-9.775,9.773-9.775
		c5.368,0,9.758,4.384,9.758,9.775C69.346,85.328,64.956,89.713,59.588,89.713L59.588,89.713z M137.344,89.713
		c-5.387,0-9.777-4.385-9.777-9.771c0-5.391,4.391-9.775,9.777-9.775c5.383,0,9.756,4.384,9.756,9.775
		C147.1,85.328,142.727,89.713,137.344,89.713L137.344,89.713z M128.297,43.277V21.169h18.521l6.734,22.108H128.297z
		 M128.297,43.277"/>
</g>
</svg>
