<?xml version="1.0" encoding="utf-8"?>
<!-- Generator: Adobe Illustrator 16.0.0, SVG Export Plug-In . SVG Version: 6.00 Build 0)  -->
<!DOCTYPE svg PUBLIC "-//W3C//DTD SVG 1.1//EN" "http://www.w3.org/Graphics/SVG/1.1/DTD/svg11.dtd">
<svg version="1.1" id="Capa_1" xmlns="http://www.w3.org/2000/svg" xmlns:xlink="http://www.w3.org/1999/xlink" x="0px" y="0px"
	 width="150px" height="150px" viewBox="0 0 150 150" enable-background="new 0 0 150 150" xml:space="preserve">
<g>
	<path fill="#3A67B4" d="M98.019-92.62H79.308v-21.829c0-3.764-3.074-6.796-6.838-6.796H47.25c-3.762,0-6.734,3.032-6.734,6.796
		v21.821h-4.611v-3.353c0-1.547-1.196-2.847-2.736-2.847h-8.711c-1.55,0-2.869,1.3-2.869,2.847v3.333
		c-3.656,0.02-6.679,3.062-6.679,6.814v41.577c0,3.76,3.023,6.802,6.785,6.802h76.325c3.764,0,6.891-3.042,6.891-6.802v-41.577
		C104.909-89.597,101.782-92.62,98.019-92.62L98.019-92.62z M46.549-112.881c0-1.551,1.254-2.801,2.802-2.801h20.955
		c1.548,0,2.799,1.25,2.799,2.801v2.512c0,1.541-1.251,2.801-2.799,2.801H49.351c-1.548,0-2.802-1.26-2.802-2.801V-112.881z
		 M59.86-41.728c-12.859,0-23.323-10.466-23.323-23.314c0-12.859,10.464-23.32,23.323-23.32c12.862,0,23.314,10.461,23.314,23.32
		C83.174-52.193,72.722-41.728,59.86-41.728L59.86-41.728z M59.86-41.728"/>
	<path fill="#3A67B4" d="M59.86-80.183c-8.344,0-15.139,6.786-15.139,15.141c0,8.349,6.794,15.134,15.139,15.134
		c8.345,0,15.14-6.785,15.14-15.134C75-73.396,68.205-80.183,59.86-80.183L59.86-80.183z M59.86-80.183"/>
</g>
<path fill="#3A67B4" d="M211.448-72.337c-0.545-0.747-1.41-1.189-2.337-1.189h-64.975c-0.122,0-0.249,0.009-0.371,0.023
	l-2.674-7.709c-0.277-0.793-0.889-1.429-1.669-1.739l-13.48-5.292c-1.485-0.582-3.159,0.146-3.741,1.631
	c-0.583,1.481,0.146,3.158,1.631,3.742l12.239,4.808l14.981,43.187c-0.658,0.23-1.223,0.737-1.477,1.447l-4.33,12.032
	c-0.268,0.737-0.16,1.557,0.291,2.2c0.451,0.639,1.189,1.02,1.97,1.02h2.229c-1.382,1.537-2.229,3.559-2.229,5.777
	c0,4.779,3.888,8.662,8.665,8.662c4.779,0,8.664-3.883,8.664-8.662c0-2.219-0.846-4.24-2.229-5.777h18.891
	c-1.377,1.537-2.223,3.559-2.223,5.777c0,4.779,3.882,8.662,8.662,8.662c4.775,0,8.663-3.883,8.663-8.662
	c0-2.219-0.847-4.24-2.224-5.777h2.703c1.33,0,2.406-1.076,2.406-2.406c0-1.326-1.076-2.406-2.406-2.406h-46.146l2.679-7.451
	c0.348,0.146,0.725,0.231,1.114,0.231h42.353c1.259,0,2.369-0.808,2.75-2.003l12.031-37.545
	C212.144-70.636,211.988-71.595,211.448-72.337L211.448-72.337z M156.172-8.55c-2.121,0-3.851-1.727-3.851-3.85
	c0-2.125,1.729-3.851,3.851-3.851c2.123,0,3.854,1.726,3.854,3.851C160.025-10.276,158.295-8.55,156.172-8.55L156.172-8.55z
	 M187.938-8.55c-2.125,0-3.85-1.727-3.85-3.85c0-2.125,1.725-3.851,3.85-3.851s3.85,1.726,3.85,3.851
	C191.787-10.276,190.062-8.55,187.938-8.55L187.938-8.55z M203.072-61.25h-14.735v-6.5h16.817L203.072-61.25z M198.833-48.014
	h-10.496v-7.464h12.884L198.833-48.014z M169.244-48.014v-7.464h13.316v7.464H169.244z M182.561-42.242v6.261h-13.316v-6.261
	H182.561z M150.023-55.478h13.445v7.464h-10.86L150.023-55.478z M169.244-61.25v-6.5h13.316v6.5H169.244z M163.469-67.75v6.5
	h-15.453l-2.252-6.5H163.469z M154.615-42.242h8.854v6.261h-6.687L154.615-42.242z M188.337-35.981v-6.261h8.644l-2.006,6.261
	H188.337z M188.337-35.981"/>
<g>
	<path fill="#3A67B4" d="M231.334-93.443v89.221h89.999v-89.221H231.334z M313.905-86.034v74.402h-75.163v-74.402H313.905z
		 M313.905-86.034"/>
	<path fill="#3A67B4" d="M266.646-35.979l-23.65-10.287v-5.69l23.65-10.229v6.713l-16.476,6.312l16.476,6.55V-35.979z
		 M266.646-35.979"/>
	<path fill="#3A67B4" d="M268.844-31.446l8.548-35.672h4.953l-8.647,35.672H268.844z M268.844-31.446"/>
	<path fill="#3A67B4" d="M284.521-35.979v-6.632l16.5-6.531l-16.5-6.431v-6.612l23.67,10.247v5.648L284.521-35.979z M284.521-35.979
		"/>
</g>
<g>
	<path fill="#3A67B4" d="M381.999-94.083l-37.556,11.337v28.344c0,18.429,15.225,38.456,37.556,50.318
		c22.332-11.862,37.558-31.89,37.558-50.318v-28.344L381.999-94.083z M381.999-10.565c-19.184-11.079-31.89-28.411-31.89-43.836
		v-24.132l31.89-9.626V-10.565z M381.999-10.565"/>
</g>
<path fill="#3A67B4" d="M609-46.041l-8.958-19.366L565.8-79.35l-37.103,14.092L519-51.186l9.576-0.845v31.566l35.887,14.202
	l35.607-14.202V-42.2L609-46.041z M565.854-51.808v-24.771l30.886,12.59L565.854-51.808z M563.046-9.609l-31.911-12.589V-61.55
	l31.911,12.589V-9.609z M597.513-22.198l-31.91,12.589v-39.352l7.009,18.561l24.901-10.708V-22.198z M597.513-22.198"/>
<g>
	<path fill="#3A67B4" d="M703.379-28.114v-0.967l-8.106-26.622h-17.935v-6.372h-43.119v16.479h-9.187l-3.888,5.177h13.074v3.886
		h-14.686l-3.887,5.177h18.563v3.242h-2.058v8.73h2.058v1.299h1.403c0.786,4.646,4.825,8.201,9.698,8.201
		c4.863,0,8.902-3.555,9.688-8.201h22.1c0.777,4.646,4.815,8.201,9.689,8.201c4.863,0,8.902-3.555,9.688-8.201h6.901v-1.299h2.266
		v-8.73H703.379z M645.312-14.513c-2.873,0-5.215-2.34-5.215-5.213c0-2.875,2.332-5.213,5.215-5.213
		c2.863,0,5.205,2.338,5.205,5.213C650.517-16.853,648.175-14.513,645.312-14.513L645.312-14.513z M686.789-14.513
		c-2.874,0-5.215-2.34-5.215-5.213c0-2.875,2.341-5.213,5.215-5.213c2.873,0,5.205,2.338,5.205,5.213
		C691.994-16.853,689.662-14.513,686.789-14.513L686.789-14.513z M681.963-39.284v-11.792h9.879l3.594,11.792H681.963z
		 M681.963-39.284"/>
</g>
<g>
	<path fill="#3A67B4" d="M481.029-34.384c5.793-6.118,9.494-14.752,9.494-22.992c0-14.989-12.14-27.145-27.129-27.145
		c-14.986,0-27.144,12.156-27.144,27.145c0,3.701,0.787,7.467,2.127,11.068c3.332,7.518,9.88,13.341,18.169,15.468
		c1.641-2.028,4.119-3.25,6.848-3.25c4.874,0,8.825,3.971,8.825,8.848c0,4.866-3.968,8.818-8.825,8.818
		c-3.482,0-6.546-2.021-7.986-5.035c-7.116-1.578-13.362-5.144-18.219-10.047c-10.699,4.549-17.633,11.839-17.633,20.044
		c0,13.827,87.66,13.827,87.66,0C507.217-21.713,496.449-30.505,481.029-34.384L481.029-34.384z M481.029-34.384"/>
	<path fill="#3A67B4" d="M457.784-24.187c0.502,2.642,2.814,4.638,5.593,4.638c3.165,0,5.713-2.551,5.713-5.692
		c0-3.152-2.548-5.711-5.696-5.711c-2.427,0-4.487,1.519-5.307,3.646c-14.335-2.528-25.271-15.037-25.271-30.069
		c0-16.864,13.715-30.578,30.577-30.578c16.848,0,30.562,13.714,30.562,30.578h3.132c0-18.588-15.123-33.714-33.693-33.714
		c-18.587,0-33.706,15.125-33.706,33.714C429.688-40.72,441.877-26.868,457.784-24.187L457.784-24.187z M457.784-24.187"/>
</g>
<g>
	<path fill="#3A67B4" d="M350.282,107.017v3.447h-41.523v-3.447c0-1.909,1.554-3.463,3.444-3.463h6.982
		c0.188-4.329,2.973-7.929,6.881-9.312V53.658c-1.826-1.147-3.059-3.177-3.059-5.493h13.012c0,2.315-1.218,4.345-3.044,5.493v40.583
		c3.89,1.384,6.694,4.983,6.88,9.312h6.964C348.729,103.554,350.282,105.107,350.282,107.017L350.282,107.017z M374.521,75.849
		c-2.535,7.15-9.296,12.308-17.308,12.308s-14.772-5.157-17.308-12.308h3.989l11.694-30.979c0.51-1.353,2.738-1.353,3.248,0
		l11.678,30.979H374.521z M366.832,75.849l-9.619-25.47l-9.614,25.47H366.832z M301.826,41.288c1.572,0,2.84-1.066,3.295-2.485
		c1.131-0.422,2.316-1.015,3.518-1.624c2.655-1.334,5.645-2.854,8.773-2.854c2.989,0,4.852,1.383,5.914,2.552
		c-0.035,0.302-0.085,0.59-0.085,0.911c0,3.465,2.809,6.272,6.268,6.272c3.467,0,6.292-2.807,6.292-6.272
		c0-0.321-0.05-0.609-0.104-0.911c1.065-1.168,2.941-2.552,5.933-2.552c3.128,0,6.118,1.52,8.774,2.854
		c1.196,0.609,2.365,1.202,3.513,1.624c0.443,1.419,1.728,2.485,3.297,2.485c1.927,0,3.501-1.574,3.501-3.5
		c0-1.943-1.574-3.498-3.501-3.498c-0.998,0-1.893,0.422-2.519,1.098c-0.861-0.354-1.789-0.827-2.738-1.301
		c-2.99-1.521-6.388-3.227-10.327-3.227c-3.446,0-5.845,1.317-7.469,2.722c-0.746-0.795-1.674-1.404-2.737-1.742
		c1.3-0.694,2.194-2.011,2.194-3.583c0-2.266-4.108-7.554-4.108-7.554s-4.087,5.288-4.087,7.554c0,1.572,0.895,2.889,2.195,3.583
		c-1.064,0.338-2.011,0.947-2.735,1.742c-1.624-1.404-4.026-2.722-7.47-2.722c-3.953,0-7.336,1.707-10.329,3.227
		c-0.963,0.474-1.876,0.947-2.738,1.301c-0.623-0.675-1.524-1.098-2.519-1.098c-1.924,0-3.5,1.555-3.5,3.498
		C298.326,39.714,299.902,41.288,301.826,41.288L301.826,41.288z M301.826,88.156c-8.014,0-14.77-5.157-17.305-12.308h3.986
		l11.697-30.979c0.507-1.353,2.738-1.353,3.245,0l11.694,30.979h3.989C316.599,82.999,309.84,88.156,301.826,88.156L301.826,88.156z
		 M311.445,75.849l-9.619-25.47l-9.619,25.47H311.445z M311.445,75.849"/>
</g>
<g>
	<path fill="#3A67B4" d="M186.334,57.146c0,5.234,3.593,9.597,8.436,10.854v36.957h-5.623c-1.55,0-2.812,1.258-2.812,2.813
		c0,1.555,1.263,2.812,2.812,2.812h84.375c1.562,0,2.812-1.258,2.812-2.812c0-1.556-1.25-2.813-2.812-2.813h-5.622V68
		c4.842-1.257,8.435-5.62,8.435-10.854v-2.812h-90V57.146z M242.585,68.396c6.22,0,11.251-5.039,11.251-11.25
		c0,5.234,3.593,9.597,8.438,10.854v36.957h-42.19V68.396c6.219,0,11.252-5.039,11.252-11.25
		C231.336,63.357,236.378,68.396,242.585,68.396L242.585,68.396z M217.271,68v36.957h-16.875V68
		c4.845-1.257,8.438-5.62,8.438-10.854C208.834,62.38,212.428,66.743,217.271,68L217.271,68z M265.087,29.021h-67.503l-11.25,22.5
		h90L265.087,29.021z M210.098,35.271l-5.625,11.251c-0.253,0.493-0.748,0.78-1.264,0.78c-0.208,0-0.423-0.043-0.627-0.148
		c-0.69-0.347-0.977-1.192-0.625-1.883l5.623-11.251c0.354-0.693,1.193-0.971,1.885-0.633
		C210.164,33.733,210.438,34.578,210.098,35.271L210.098,35.271z M221.349,35.271l-5.626,11.251c-0.252,0.493-0.746,0.78-1.264,0.78
		c-0.207,0-0.423-0.043-0.627-0.148c-0.691-0.347-0.978-1.192-0.626-1.883l5.626-11.251c0.352-0.693,1.197-0.971,1.883-0.633
		C221.414,33.733,221.688,34.578,221.349,35.271L221.349,35.271z M232.741,45.895c0,0.78-0.626,1.407-1.405,1.407
		c-0.775,0-1.407-0.627-1.407-1.407V34.646c0-0.782,0.632-1.406,1.407-1.406c0.779,0,1.405,0.625,1.405,1.406V45.895z
		 M248.891,47.126c-0.218,0.12-0.449,0.175-0.68,0.175c-0.495,0-0.978-0.264-1.233-0.73l-6.149-11.251
		c-0.375-0.681-0.124-1.539,0.561-1.905c0.669-0.375,1.539-0.132,1.91,0.555l6.153,11.249
		C249.814,45.901,249.576,46.759,248.891,47.126L248.891,47.126z M260.089,47.153c-0.198,0.103-0.409,0.148-0.627,0.148
		c-0.516,0-1.011-0.287-1.254-0.78l-5.626-11.251c-0.351-0.693-0.065-1.538,0.627-1.885c0.681-0.346,1.538-0.068,1.894,0.633
		l5.621,11.251C261.065,45.961,260.789,46.807,260.089,47.153L260.089,47.153z M210.24,88.514V82.03
		c-0.823-0.494-1.406-1.353-1.406-2.384c0-1.555,1.264-2.812,2.812-2.812c1.56,0,2.812,1.258,2.812,2.812
		c0,1.031-0.575,1.89-1.404,2.384v6.483c0.829,0.495,1.404,1.349,1.404,2.38c0,1.555-1.253,2.812-2.812,2.812
		c-1.55,0-2.812-1.258-2.812-2.812C208.834,89.862,209.417,89.009,210.24,88.514L210.24,88.514z M197.584,23.396
		c0-1.555,1.264-2.813,2.812-2.813h61.878c1.559,0,2.812,1.258,2.812,2.813s-1.254,2.812-2.812,2.812h-61.878
		C198.848,26.208,197.584,24.95,197.584,23.396L197.584,23.396z M235.632,83.453l-1.992-1.991l7.956-7.952l1.989,1.988
		L235.632,83.453z M235.632,91.409l-1.992-1.992l15.911-15.907l1.988,1.988L235.632,91.409z M249.551,81.462l1.988,1.991
		l-7.954,7.956l-1.989-1.992L249.551,81.462z M249.551,81.462"/>
</g>
<path fill="#3A67B4" d="M281.278,156.109l-17.288-5.685c0,0,0,0-0.01,0h0.01c0,0-0.279-0.103-0.674-0.063
	c-0.383,0.043-0.654,0.24-0.654,0.24l-9.695,6.33c-0.442,0.282-0.702,0.775-0.702,1.301v17.336l-0.533-0.037v-28.006
	c0-0.672-0.44-1.271-1.067-1.477l-31.342-10.295c0,0-0.365-0.113-0.7-0.055c-0.403,0.055-0.692,0.27-0.692,0.27l-22.908,16.346
	c-0.412,0.289-0.656,0.756-0.656,1.261v58.001c0,0.562,0.311,1.085,0.806,1.356l22.917,12.557c0,0,0.234,0.141,0.561,0.179
	c0.328,0.046,0.562-0.03,0.562-0.03l31.343-7.909l13.334-3.366l17.288-4.366c0.682-0.169,1.169-0.795,1.169-1.507v-50.903
	C282.345,156.914,281.917,156.315,281.278,156.109L281.278,156.109z M199.042,204.246c0,0.167-0.084,0.325-0.216,0.42
	c-0.094,0.065-0.195,0.094-0.299,0.094c-0.065,0-0.123-0.008-0.178-0.028l-1.338-0.495c-0.204-0.075-0.344-0.271-0.344-0.488v-4.253
	c0-0.158,0.082-0.317,0.205-0.41c0.13-0.105,0.299-0.133,0.448-0.085l1.347,0.364c0.215,0.065,0.374,0.27,0.374,0.506V204.246z
	 M199.042,195.494c0,0.148-0.066,0.298-0.188,0.391c-0.094,0.077-0.205,0.123-0.327,0.123c-0.039,0-0.065-0.01-0.094-0.01
	l-1.346-0.252c-0.244-0.046-0.42-0.262-0.42-0.506v-4.263c0-0.141,0.062-0.281,0.166-0.385c0.113-0.093,0.254-0.139,0.402-0.131
	l1.338,0.131c0.262,0.029,0.468,0.254,0.468,0.514V195.494z M199.042,186.732c0,0.141-0.058,0.27-0.149,0.373
	c-0.104,0.093-0.225,0.15-0.365,0.15l-1.348-0.008c-0.279-0.01-0.512-0.236-0.512-0.525v-4.254c0-0.272,0.205-0.496,0.475-0.514
	l1.338-0.113c0.15-0.018,0.289,0.038,0.393,0.131c0.111,0.104,0.169,0.234,0.169,0.385V186.732z M199.042,177.981
	c0,0.251-0.179,0.466-0.431,0.505l-1.337,0.232c-0.028,0.008-0.057,0.008-0.084,0.008c-0.122,0-0.243-0.043-0.337-0.121
	c-0.111-0.103-0.186-0.242-0.186-0.4v-4.255c0-0.233,0.157-0.44,0.381-0.495l1.338-0.354c0.16-0.039,0.328-0.012,0.449,0.092
	c0.13,0.095,0.206,0.242,0.206,0.41V177.981z M199.042,169.228c0,0.216-0.141,0.41-0.346,0.485l-1.339,0.469
	c-0.055,0.02-0.111,0.029-0.167,0.029c-0.112,0-0.216-0.029-0.299-0.096c-0.142-0.093-0.224-0.25-0.224-0.42v-4.255
	c0-0.206,0.121-0.393,0.307-0.476l1.348-0.59c0.158-0.074,0.335-0.053,0.484,0.038c0.151,0.093,0.235,0.262,0.235,0.429V169.228z
	 M199.042,160.465c0,0.199-0.104,0.367-0.272,0.461l-1.338,0.709c-0.082,0.049-0.166,0.066-0.241,0.066
	c-0.093,0-0.188-0.028-0.272-0.072c-0.158-0.097-0.25-0.266-0.25-0.441v-4.266c0-0.176,0.092-0.345,0.242-0.439l1.337-0.833
	c0.169-0.093,0.364-0.103,0.522-0.004c0.168,0.091,0.272,0.26,0.272,0.444V160.465z M203.558,205.909
	c0,0.169-0.084,0.327-0.226,0.421c-0.082,0.065-0.186,0.095-0.287,0.095c-0.066,0-0.123-0.01-0.188-0.029l-1.591-0.589
	c-0.205-0.075-0.336-0.27-0.336-0.486v-4.647c0-0.158,0.073-0.307,0.196-0.412c0.131-0.091,0.299-0.121,0.458-0.083l1.589,0.45
	c0.225,0.055,0.384,0.26,0.384,0.495V205.909z M203.558,196.335c0,0.158-0.075,0.299-0.187,0.4
	c-0.094,0.077-0.216,0.123-0.337,0.123c-0.028,0-0.056-0.008-0.093-0.008l-1.592-0.302c-0.25-0.046-0.429-0.262-0.429-0.514v-4.638
	c0-0.15,0.066-0.291,0.179-0.383c0.111-0.095,0.25-0.15,0.393-0.131l1.598,0.149c0.263,0.027,0.468,0.252,0.468,0.523V196.335z
	 M203.558,186.77c0,0.142-0.056,0.271-0.159,0.365c-0.094,0.104-0.225,0.148-0.354,0.148h-0.011l-1.589-0.01
	c-0.291,0-0.515-0.233-0.515-0.514v-4.645c0-0.264,0.206-0.488,0.467-0.516l1.599-0.131c0.141-0.01,0.29,0.038,0.395,0.141
	c0.102,0.092,0.167,0.232,0.167,0.371V186.77z M203.558,177.204c0,0.254-0.187,0.468-0.431,0.505l-1.599,0.278
	c-0.028,0-0.056,0-0.083,0c-0.122,0-0.245-0.034-0.338-0.119c-0.112-0.093-0.187-0.243-0.187-0.393v-4.64
	c0-0.242,0.159-0.436,0.393-0.506l1.589-0.418c0.16-0.037,0.328-0.008,0.45,0.094c0.121,0.093,0.195,0.254,0.195,0.41v4.788H203.558
	z M203.558,167.629c0,0.223-0.14,0.421-0.345,0.486l-1.6,0.572c-0.057,0.019-0.113,0.026-0.168,0.026
	c-0.113,0-0.217-0.038-0.301-0.095c-0.141-0.102-0.214-0.262-0.214-0.427v-4.64c0-0.206,0.11-0.395,0.309-0.468l1.589-0.71
	c0.158-0.065,0.346-0.058,0.496,0.037c0.14,0.094,0.233,0.26,0.233,0.438V167.629z M203.558,158.062c0,0.187-0.103,0.367-0.271,0.46
	l-1.599,0.851c-0.074,0.037-0.159,0.056-0.242,0.056c-0.096,0-0.188-0.026-0.271-0.075c-0.148-0.094-0.243-0.26-0.243-0.438v-4.638
	c0-0.176,0.085-0.346,0.243-0.44l1.588-0.999c0.16-0.094,0.365-0.105,0.524-0.01c0.169,0.095,0.271,0.26,0.271,0.447V158.062z
	 M208.988,207.91c0,0.169-0.072,0.327-0.213,0.423c-0.094,0.065-0.197,0.091-0.299,0.091c-0.057,0-0.123-0.008-0.178-0.025
	l-1.937-0.712c-0.196-0.076-0.336-0.271-0.336-0.486v-5.105c0-0.158,0.075-0.308,0.206-0.412c0.121-0.094,0.289-0.131,0.449-0.084
	l1.936,0.534c0.224,0.065,0.371,0.271,0.371,0.505V207.91z M208.988,197.354c0,0.159-0.062,0.3-0.186,0.403
	c-0.094,0.075-0.205,0.12-0.326,0.12c-0.028,0-0.066-0.01-0.095-0.01l-1.935-0.364c-0.243-0.046-0.421-0.262-0.421-0.504v-5.105
	c0-0.141,0.064-0.279,0.167-0.383c0.113-0.095,0.254-0.141,0.403-0.131l1.927,0.187c0.271,0.027,0.465,0.252,0.465,0.523V197.354z
	 M208.988,186.808c0,0.139-0.045,0.27-0.147,0.373c-0.095,0.093-0.224,0.148-0.364,0.148l-1.936-0.016
	c-0.279,0-0.515-0.236-0.515-0.516v-5.106c0-0.27,0.206-0.494,0.478-0.512l1.936-0.16c0.139-0.011,0.281,0.037,0.392,0.133
	c0.103,0.101,0.169,0.233,0.169,0.38v5.275H208.988z M208.988,176.26c0,0.25-0.176,0.467-0.419,0.514l-1.935,0.338
	c-0.028,0-0.057,0-0.094,0c-0.122,0-0.234-0.036-0.327-0.119c-0.123-0.098-0.188-0.246-0.188-0.396v-5.094
	c0-0.244,0.159-0.44,0.384-0.506l1.936-0.506c0.148-0.047,0.318-0.008,0.449,0.096c0.121,0.091,0.193,0.242,0.193,0.4V176.26z
	 M208.988,165.714c0,0.222-0.127,0.409-0.334,0.483l-1.936,0.685c-0.057,0.02-0.112,0.028-0.178,0.028
	c-0.104,0-0.205-0.028-0.301-0.092c-0.129-0.098-0.214-0.256-0.214-0.422v-5.105c0-0.207,0.121-0.385,0.31-0.469l1.934-0.86
	c0.16-0.063,0.348-0.056,0.487,0.038c0.149,0.103,0.231,0.262,0.231,0.439V165.714z M208.988,155.164
	c0,0.188-0.102,0.366-0.268,0.459l-1.938,1.027c-0.074,0.038-0.159,0.058-0.242,0.058c-0.094,0-0.188-0.02-0.264-0.075
	c-0.158-0.092-0.251-0.262-0.251-0.439v-5.096c0-0.188,0.093-0.346,0.243-0.439l1.936-1.205c0.159-0.105,0.354-0.105,0.523-0.01
	c0.169,0.083,0.26,0.262,0.26,0.448V155.164z M215.677,210.361c0,0.176-0.085,0.337-0.226,0.43
	c-0.083,0.056-0.188,0.094-0.289,0.094c-0.065,0-0.121-0.011-0.187-0.038l-2.386-0.878c-0.205-0.076-0.336-0.272-0.336-0.486v-5.658
	c0-0.159,0.076-0.308,0.197-0.411c0.129-0.103,0.298-0.133,0.447-0.085l2.394,0.664c0.226,0.056,0.385,0.264,0.385,0.496V210.361z
	 M215.677,198.607c0,0.158-0.075,0.307-0.188,0.402c-0.092,0.075-0.215,0.121-0.336,0.121c-0.027,0-0.056-0.01-0.094-0.01
	l-2.395-0.448c-0.242-0.048-0.421-0.262-0.421-0.514v-5.657c0-0.141,0.066-0.281,0.179-0.385c0.104-0.093,0.253-0.141,0.393-0.131
	l2.393,0.234c0.264,0.027,0.47,0.252,0.47,0.514V198.607z M215.677,186.863c0,0.139-0.058,0.271-0.159,0.362
	c-0.094,0.096-0.226,0.151-0.355,0.151h-0.01l-2.385-0.019c-0.289,0-0.514-0.235-0.514-0.515v-5.664
	c0-0.273,0.205-0.498,0.467-0.516l2.394-0.196c0.149-0.01,0.29,0.036,0.394,0.129c0.103,0.103,0.169,0.235,0.169,0.385V186.863z
	 M215.677,175.108c0,0.254-0.188,0.47-0.431,0.505l-2.395,0.413c-0.028,0.008-0.055,0.008-0.084,0.008
	c-0.121,0-0.242-0.038-0.337-0.121c-0.112-0.093-0.188-0.241-0.188-0.393v-5.655c0-0.235,0.159-0.441,0.396-0.505l2.383-0.628
	c0.159-0.037,0.318-0.009,0.449,0.092c0.121,0.096,0.206,0.244,0.206,0.413V175.108z M215.677,163.356
	c0,0.214-0.142,0.423-0.347,0.485l-2.394,0.844c-0.057,0.018-0.113,0.037-0.169,0.037c-0.111,0-0.216-0.037-0.299-0.104
	c-0.139-0.095-0.215-0.254-0.215-0.42v-5.659c0-0.204,0.112-0.393,0.298-0.478l2.396-1.055c0.157-0.076,0.345-0.058,0.494,0.035
	c0.141,0.096,0.235,0.264,0.235,0.44V163.356z M215.677,151.603c0,0.196-0.104,0.364-0.28,0.458l-2.386,1.273
	c-0.074,0.035-0.159,0.062-0.243,0.062c-0.093,0-0.188-0.027-0.271-0.072c-0.149-0.094-0.253-0.262-0.253-0.451v-5.656
	c0-0.177,0.095-0.348,0.245-0.44l2.393-1.485c0.16-0.103,0.365-0.113,0.523-0.018c0.169,0.092,0.272,0.262,0.272,0.446V151.603z
	 M228.364,210.192c0,0.252-0.177,0.466-0.431,0.506l-5.517,0.934c-0.026,0.01-0.056,0.01-0.085,0.01
	c-0.12,0-0.242-0.037-0.336-0.123c-0.111-0.093-0.178-0.241-0.178-0.393v-6.067c0-0.251,0.188-0.478,0.449-0.505l5.517-0.71
	c0.14-0.02,0.29,0.027,0.403,0.121c0.112,0.103,0.177,0.243,0.177,0.395V210.192z M228.364,198.521c0,0.272-0.196,0.496-0.468,0.516
	l-5.516,0.477c-0.02,0-0.027,0-0.049,0c-0.129,0-0.25-0.046-0.346-0.131c-0.111-0.102-0.168-0.244-0.168-0.383v-6.012
	c0-0.282,0.216-0.506,0.488-0.523l5.517-0.244c0.148-0.01,0.279,0.037,0.382,0.141c0.104,0.093,0.159,0.234,0.159,0.373V198.521z
	 M228.364,186.855c0,0.287-0.226,0.521-0.514,0.521l-5.519,0.02c-0.139,0-0.271-0.058-0.362-0.148
	c-0.095-0.096-0.151-0.236-0.151-0.367v-6.068c0-0.139,0.057-0.27,0.16-0.373c0.104-0.093,0.233-0.141,0.375-0.141l5.516,0.205
	c0.281,0.01,0.495,0.243,0.495,0.525V186.855z M228.364,175.195c0,0.137-0.056,0.279-0.159,0.373
	c-0.103,0.083-0.224,0.139-0.354,0.139c-0.019,0-0.027,0-0.038,0l-5.518-0.438c-0.271-0.03-0.477-0.244-0.477-0.523v-6.059
	c0-0.152,0.066-0.293,0.168-0.385c0.114-0.103,0.264-0.15,0.412-0.131l5.517,0.673c0.262,0.03,0.449,0.254,0.449,0.516V175.195z
	 M228.364,163.527c0,0.146-0.064,0.297-0.177,0.391c-0.095,0.085-0.216,0.121-0.337,0.121c-0.027,0-0.056,0-0.085,0l-5.516-0.898
	c-0.254-0.046-0.432-0.26-0.432-0.512v-6.062c0-0.159,0.066-0.31,0.188-0.402c0.121-0.103,0.281-0.139,0.432-0.113l5.516,1.132
	c0.244,0.048,0.411,0.262,0.411,0.506V163.527z M228.364,151.856c0,0.159-0.064,0.308-0.196,0.41
	c-0.094,0.065-0.205,0.111-0.317,0.111c-0.038,0-0.085-0.011-0.122-0.021l-5.517-1.354c-0.233-0.056-0.394-0.26-0.394-0.506v-6.057
	c0-0.169,0.076-0.32,0.206-0.413c0.132-0.103,0.29-0.131,0.449-0.083l5.517,1.58c0.226,0.063,0.374,0.26,0.374,0.496V151.856z
	 M238.238,208.519c0,0.252-0.186,0.469-0.43,0.514l-4.759,0.804c-0.03,0-0.056,0-0.085,0c-0.123,0-0.242-0.036-0.336-0.121
	c-0.111-0.092-0.188-0.242-0.188-0.393v-5.619c0-0.262,0.195-0.477,0.459-0.514l4.749-0.609c0.149-0.018,0.3,0.028,0.411,0.121
	c0.113,0.105,0.178,0.244,0.178,0.395V208.519z M238.238,197.671c0,0.271-0.205,0.496-0.477,0.516l-4.75,0.413
	c-0.018,0-0.028,0-0.047,0c-0.131,0-0.254-0.048-0.346-0.144c-0.113-0.093-0.168-0.231-0.168-0.372v-5.619
	c0-0.282,0.216-0.506,0.495-0.525l4.75-0.205c0.14-0.01,0.28,0.038,0.383,0.14c0.103,0.095,0.159,0.233,0.159,0.374V197.671z
	 M238.238,186.825c0,0.28-0.234,0.514-0.514,0.514l-4.76,0.02c-0.139,0-0.271-0.057-0.364-0.15
	c-0.103-0.103-0.159-0.233-0.159-0.364v-5.629c0-0.141,0.064-0.27,0.159-0.364c0.103-0.104,0.241-0.159,0.383-0.151l4.749,0.182
	c0.281,0.018,0.506,0.241,0.506,0.523V186.825z M238.238,175.971c0,0.146-0.064,0.289-0.168,0.383
	c-0.094,0.083-0.224,0.139-0.355,0.139c-0.01,0-0.028,0-0.037-0.008l-4.759-0.375c-0.263-0.016-0.478-0.242-0.478-0.514v-5.619
	c0-0.15,0.064-0.291,0.178-0.383c0.111-0.103,0.261-0.15,0.412-0.131l4.749,0.578c0.262,0.029,0.458,0.253,0.458,0.515V175.971z
	 M238.238,165.123c0,0.15-0.064,0.299-0.186,0.395c-0.095,0.084-0.206,0.129-0.338,0.129c-0.028,0-0.047-0.008-0.073-0.008
	l-4.762-0.777c-0.251-0.037-0.438-0.252-0.438-0.506v-5.627c0-0.152,0.076-0.299,0.195-0.402c0.123-0.094,0.282-0.131,0.431-0.104
	l4.761,0.975c0.232,0.043,0.41,0.26,0.41,0.503V165.123z M238.238,154.277c0,0.158-0.075,0.307-0.196,0.41
	c-0.093,0.076-0.206,0.113-0.317,0.113c-0.047,0-0.083-0.01-0.131-0.02l-4.752-1.168c-0.232-0.056-0.391-0.26-0.391-0.506v-5.619
	c0-0.158,0.074-0.307,0.205-0.412c0.121-0.094,0.299-0.129,0.449-0.084l4.76,1.367c0.214,0.064,0.373,0.271,0.373,0.495V154.277z
	 M246.813,207.06c0,0.254-0.178,0.468-0.43,0.514l-4.143,0.702c-0.027,0.01-0.057,0.01-0.087,0.01c-0.119,0-0.242-0.048-0.333-0.121
	c-0.123-0.105-0.19-0.244-0.19-0.393v-5.246c0-0.262,0.198-0.479,0.45-0.516l4.142-0.523c0.151-0.019,0.302,0.027,0.413,0.123
	c0.11,0.101,0.178,0.243,0.178,0.391V207.06z M246.813,196.924c0,0.271-0.206,0.495-0.478,0.523l-4.142,0.356
	c-0.01,0-0.028,0-0.04,0c-0.129,0-0.25-0.047-0.353-0.141c-0.104-0.095-0.171-0.233-0.171-0.375v-5.234
	c0-0.281,0.216-0.507,0.498-0.525l4.142-0.187c0.139,0,0.279,0.048,0.383,0.149c0.102,0.093,0.16,0.233,0.16,0.374V196.924z
	 M246.813,186.788c0,0.289-0.237,0.514-0.515,0.525l-4.145,0.008c-0.139,0-0.27-0.048-0.362-0.15
	c-0.102-0.094-0.161-0.225-0.161-0.363v-5.235c0-0.141,0.06-0.281,0.161-0.375c0.103-0.096,0.243-0.15,0.382-0.141l4.145,0.15
	c0.27,0.008,0.495,0.242,0.495,0.523V186.788z M246.813,176.652c0,0.149-0.059,0.29-0.17,0.383
	c-0.094,0.094-0.214,0.141-0.345,0.141c-0.017,0-0.028,0-0.046-0.01l-4.143-0.326c-0.264-0.021-0.479-0.244-0.479-0.514v-5.236
	c0-0.151,0.067-0.29,0.179-0.391c0.115-0.096,0.264-0.144,0.412-0.123l4.132,0.503c0.262,0.028,0.46,0.252,0.46,0.516V176.652z
	 M246.813,166.52c0,0.156-0.067,0.299-0.178,0.398c-0.104,0.074-0.215,0.123-0.337,0.123c-0.028,0-0.056-0.011-0.084-0.011
	l-4.142-0.672c-0.252-0.048-0.442-0.264-0.442-0.516v-5.236c0-0.159,0.075-0.298,0.198-0.401c0.123-0.092,0.27-0.143,0.433-0.103
	l4.14,0.841c0.234,0.048,0.412,0.264,0.412,0.504V166.52z M246.813,156.379c0,0.162-0.075,0.319-0.198,0.414
	c-0.091,0.074-0.206,0.111-0.316,0.111c-0.046,0-0.084-0.01-0.131-0.02l-4.143-1.01c-0.224-0.055-0.395-0.27-0.395-0.506v-5.244
	c0-0.158,0.087-0.309,0.208-0.412c0.131-0.092,0.298-0.131,0.458-0.083l4.143,1.188c0.214,0.065,0.374,0.27,0.374,0.505V156.379z
	 M264.028,212.857c0,0.233-0.169,0.438-0.393,0.506l-13.334,3.366c-0.038,0.008-0.085,0.008-0.121,0.008
	c-0.123,0-0.226-0.037-0.319-0.103c-0.131-0.104-0.204-0.252-0.204-0.411v-29.445c0-0.046,0.081-5.433,7.61-5.151
	c6.686,0.253,6.761,5.058,6.761,5.105V212.857z M269.62,203.199c0,0.252-0.179,0.466-0.431,0.514l-2.723,0.458
	c-0.027,0.008-0.055,0.008-0.083,0.008c-0.123,0-0.244-0.046-0.337-0.121c-0.111-0.103-0.179-0.242-0.179-0.402v-4.226
	c0-0.262,0.188-0.487,0.448-0.516l2.723-0.354c0.15-0.018,0.299,0.029,0.41,0.131c0.104,0.095,0.171,0.234,0.171,0.385V203.199z
	 M269.62,194.959c0,0.264-0.198,0.487-0.469,0.516l-2.72,0.233c-0.02,0-0.038,0-0.048,0c-0.131,0-0.254-0.047-0.356-0.131
	c-0.102-0.103-0.159-0.243-0.159-0.383v-4.236c0-0.28,0.214-0.504,0.488-0.514l2.729-0.121c0.142-0.01,0.28,0.035,0.371,0.139
	c0.107,0.095,0.163,0.234,0.163,0.375V194.959z M269.62,186.685c0,0.279-0.227,0.514-0.516,0.514l-2.721,0.01
	c-0.139,0-0.271-0.056-0.364-0.148c-0.094-0.104-0.151-0.234-0.151-0.365v-4.206c0-0.141,0.058-0.271,0.159-0.373
	c0.095-0.095,0.233-0.143,0.374-0.143l2.723,0.104c0.279,0.01,0.504,0.243,0.504,0.525v4.083H269.62z M269.62,178.467
	c0,0.148-0.056,0.29-0.163,0.383c-0.099,0.094-0.222,0.139-0.353,0.139c-0.008,0-0.028-0.006-0.036-0.006l-2.732-0.216
	c-0.262-0.021-0.468-0.244-0.468-0.514v-4.237c0-0.15,0.058-0.289,0.171-0.385c0.111-0.102,0.262-0.148,0.4-0.121l2.732,0.328
	c0.262,0.027,0.448,0.252,0.448,0.516V178.467z M269.62,170.229c0,0.15-0.067,0.289-0.179,0.393
	c-0.096,0.086-0.214,0.121-0.337,0.121c-0.028,0-0.056,0-0.084-0.008l-2.72-0.44c-0.254-0.036-0.44-0.253-0.44-0.505v-4.236
	c0-0.158,0.075-0.309,0.196-0.402c0.121-0.103,0.279-0.139,0.431-0.113l2.72,0.564c0.242,0.045,0.413,0.262,0.413,0.505V170.229z
	 M269.62,161.982c0,0.156-0.067,0.307-0.198,0.41c-0.092,0.074-0.207,0.113-0.317,0.113c-0.036,0-0.084-0.01-0.119-0.018
	l-2.725-0.664c-0.233-0.068-0.393-0.271-0.393-0.506v-4.237c0-0.159,0.075-0.317,0.206-0.413c0.123-0.101,0.29-0.127,0.448-0.082
	l2.723,0.776c0.224,0.065,0.375,0.272,0.375,0.496V161.982z M274.648,202.347c0,0.252-0.177,0.468-0.429,0.506l-2.45,0.42
	c-0.028,0.008-0.06,0.008-0.084,0.008c-0.123,0-0.243-0.045-0.337-0.121c-0.111-0.101-0.179-0.241-0.179-0.393v-4.019
	c0-0.264,0.187-0.478,0.452-0.516l2.447-0.308c0.15-0.02,0.289,0.028,0.402,0.121c0.111,0.104,0.177,0.244,0.177,0.393V202.347z
	 M274.648,194.521c0,0.271-0.196,0.496-0.464,0.516l-2.451,0.214c-0.023,0-0.029,0-0.048,0c-0.131,0-0.254-0.045-0.345-0.131
	c-0.115-0.103-0.171-0.243-0.171-0.383v-4.011c0-0.281,0.217-0.506,0.496-0.525l2.45-0.111c0.142,0,0.28,0.046,0.373,0.149
	c0.104,0.095,0.159,0.224,0.159,0.374V194.521z M274.648,186.694c0,0.29-0.223,0.523-0.512,0.523l-2.451,0.008
	c-0.139,0-0.273-0.055-0.364-0.148c-0.096-0.103-0.151-0.233-0.151-0.373v-4.012c0-0.139,0.056-0.279,0.159-0.373
	c0.103-0.103,0.233-0.15,0.375-0.15l2.448,0.095c0.281,0.019,0.496,0.242,0.496,0.522V186.694z M274.648,178.869
	c0,0.149-0.056,0.28-0.159,0.383c-0.101,0.084-0.222,0.133-0.353,0.133c-0.012,0-0.028,0-0.04,0l-2.448-0.189
	c-0.271-0.026-0.479-0.252-0.479-0.521v-4.012c0-0.152,0.056-0.291,0.179-0.393c0.104-0.094,0.252-0.143,0.402-0.123l2.449,0.297
	c0.262,0.03,0.448,0.254,0.448,0.516V178.869z M274.648,171.041c0,0.161-0.065,0.3-0.177,0.393
	c-0.093,0.086-0.214,0.133-0.335,0.133c-0.028,0-0.056-0.01-0.086-0.01l-2.45-0.402c-0.252-0.037-0.431-0.252-0.431-0.506v-4.021
	c0-0.148,0.067-0.3,0.187-0.402c0.123-0.093,0.282-0.131,0.433-0.103l2.448,0.495c0.244,0.058,0.411,0.273,0.411,0.516V171.041z
	 M274.648,163.218c0,0.156-0.065,0.31-0.196,0.41c-0.094,0.075-0.204,0.111-0.315,0.111c-0.04,0-0.086-0.009-0.123-0.019
	l-2.451-0.598c-0.233-0.057-0.393-0.262-0.393-0.506v-4.012c0-0.166,0.076-0.318,0.207-0.41c0.131-0.104,0.299-0.133,0.449-0.084
	l2.449,0.701c0.224,0.053,0.373,0.262,0.373,0.495V163.218z M279.204,201.581c0,0.252-0.19,0.466-0.439,0.504l-2.217,0.375
	c-0.028,0.01-0.056,0.01-0.084,0.01c-0.122,0-0.243-0.04-0.337-0.123c-0.11-0.094-0.178-0.242-0.178-0.393v-3.815
	c0-0.262,0.186-0.485,0.449-0.515l2.215-0.28c0.151-0.018,0.3,0.028,0.413,0.123c0.11,0.094,0.166,0.242,0.166,0.393v3.722H279.204z
	 M279.204,194.128c0,0.271-0.206,0.496-0.478,0.516l-2.217,0.194c-0.018,0-0.027,0-0.046,0c-0.122,0-0.253-0.046-0.347-0.139
	c-0.113-0.096-0.168-0.234-0.168-0.375v-3.814c0-0.28,0.216-0.514,0.495-0.523l2.217-0.104c0.139,0,0.279,0.048,0.375,0.148
	c0.101,0.094,0.168,0.236,0.168,0.375V194.128z M279.204,186.685c0,0.279-0.233,0.514-0.523,0.514l-2.217,0.01
	c-0.131,0-0.271-0.056-0.364-0.148c-0.096-0.104-0.15-0.234-0.15-0.365v-3.814c0-0.148,0.055-0.278,0.158-0.382
	c0.104-0.095,0.234-0.15,0.375-0.141l2.217,0.083c0.279,0.01,0.505,0.244,0.505,0.522V186.685z M279.204,179.234
	c0,0.141-0.067,0.279-0.168,0.383c-0.105,0.083-0.227,0.131-0.355,0.131c-0.012,0-0.027,0-0.039,0l-2.217-0.179
	c-0.27-0.018-0.476-0.243-0.476-0.513v-3.817c0-0.147,0.067-0.29,0.178-0.391c0.104-0.093,0.25-0.141,0.4-0.123l2.217,0.262
	c0.262,0.038,0.46,0.252,0.46,0.514V179.234z M279.204,171.781c0,0.158-0.075,0.299-0.19,0.393
	c-0.091,0.086-0.214,0.121-0.333,0.121c-0.027,0-0.06,0-0.087,0l-2.217-0.365c-0.25-0.035-0.428-0.252-0.428-0.506v-3.814
	c0-0.158,0.067-0.307,0.186-0.4c0.123-0.104,0.282-0.139,0.433-0.113l2.217,0.458c0.242,0.048,0.42,0.262,0.42,0.504V171.781z
	 M279.204,164.338c0,0.16-0.075,0.307-0.206,0.402c-0.085,0.076-0.206,0.111-0.317,0.111c-0.039,0-0.087,0-0.123-0.02l-2.216-0.539
	c-0.234-0.059-0.393-0.264-0.393-0.498v-3.825c0-0.157,0.075-0.308,0.206-0.41c0.131-0.095,0.297-0.131,0.448-0.083l2.217,0.637
	c0.224,0.062,0.372,0.27,0.372,0.493v3.731H279.204z M279.204,164.338"/>
<g>
	<path fill="#3A67B4" d="M452.551,20.583h-45.724c-1.99,0-3.606,1.62-3.606,3.607v82.785c0,1.988,1.616,3.607,3.606,3.607h45.724
		c1.99,0,3.604-1.619,3.604-3.607V24.19C456.155,22.203,454.541,20.583,452.551,20.583L452.551,20.583z M429.688,104.549
		c-2.159,0-3.912-1.759-3.912-3.912c0-2.158,1.753-3.912,3.912-3.912c2.156,0,3.911,1.754,3.911,3.912
		C433.6,102.79,431.845,104.549,429.688,104.549L429.688,104.549z M448.292,92.444h-37.208V28.446h37.208V92.444z M448.292,92.444"
		/>
	<path fill="#3A67B4" d="M429.48,77.329c0,1.378-1.119,2.495-2.494,2.495c-1.381,0-2.498-1.117-2.498-2.495
		c0-1.38,1.117-2.497,2.498-2.497C428.361,74.832,429.48,75.949,429.48,77.329L429.48,77.329z M429.48,77.329"/>
	<path fill="#3A67B4" d="M436.16,74.832c-1.375,0-2.497,1.117-2.497,2.497c0,1.378,1.122,2.495,2.497,2.495
		c1.381,0,2.498-1.117,2.498-2.495C438.658,75.949,437.541,74.832,436.16,74.832L436.16,74.832z M436.16,74.832"/>
	<path fill="#3A67B4" d="M415.039,55.242l1.764,1.092l6.086,15.769c0.186,0.482,0.65,0.8,1.166,0.8h15.037
		c0.513,0,0.98-0.317,1.166-0.8l4.99-12.985c0.151-0.385,0.098-0.814-0.132-1.156c-0.234-0.336-0.619-0.542-1.034-0.542h-22.325
		l-1.283-3.275c-0.166-0.427-0.466-0.786-0.854-1.027l-2.358-1.461c-0.99-0.612-2.291-0.308-2.905,0.683
		C413.744,53.327,414.049,54.629,415.039,55.242L415.039,55.242z M415.039,55.242"/>
</g>
<circle fill="none" stroke="#FFFFFF" stroke-width="2" stroke-miterlimit="10" cx="166.713" cy="301.15" r="33.964"/>
<circle fill="none" stroke="#FFFFFF" stroke-width="2" stroke-miterlimit="10" cx="295.792" cy="299.332" r="33.964"/>
<g>
	<circle fill="none" stroke="#FFFFFF" stroke-width="2" stroke-miterlimit="10" cx="-132" cy="-10" r="70"/>
	<g>
		<path fill="#FFFFFF" d="M-111.423-20.031v-9.696h-4.898v23.636c-4.489,2.533-9.359-0.354-9.359-0.354s-1.718-29.065-14.722-29.065
			h-13.726v26.73h-4.696c-4.694,0,0,16.616,0,16.616h2.912c0.202-4.129,3.613-7.429,7.793-7.429c4.175,0,7.589,3.3,7.787,7.429
			h9.505c0-0.033-0.004-0.076-0.004-0.111c0-4.578,3.729-8.302,8.31-8.302c4.576,0,8.305,3.724,8.305,8.302
			c0,0.536-0.054,1.053-0.149,1.559h2.942v-25.291h17.78v-1.803L-111.423-20.031z M-136.067-5.532l-4.335-7.583h-9.391v-18.058
			h9.391c3.877,0,6.021,5.402,7.137,9.931c0.712,2.896,2.904,13.417,3.108,15.71H-136.067z M-136.067-5.532"/>
		<path fill="#FFFFFF" d="M-146.542-23.229h-2.167v7.944h7.95v-2.162h-5.783V-23.229z M-146.542-23.229"/>
		<path fill="#FFFFFF" d="M-122.479,0.382c-3.989,0-7.215,3.229-7.215,7.211c0,3.983,3.226,7.213,7.215,7.213
			c3.979,0,7.205-3.229,7.205-7.213C-115.274,3.611-118.5,0.382-122.479,0.382L-122.479,0.382z M-122.479,11.769
			c-2.308,0-4.175-1.871-4.175-4.176c0-2.299,1.867-4.173,4.175-4.173c2.298,0,4.17,1.874,4.17,4.173
			C-118.31,9.897-120.182,11.769-122.479,11.769L-122.479,11.769z M-122.479,11.769"/>
		<path fill="#FFFFFF" d="M-148.326,1.709c-3.782,0-6.849,3.064-6.849,6.852c0,3.779,3.067,6.845,6.849,6.845
			c3.786,0,6.853-3.065,6.853-6.845C-141.473,4.773-144.54,1.709-148.326,1.709L-148.326,1.709z M-148.326,12.522
			c-2.184,0-3.963-1.776-3.963-3.962c0-2.189,1.779-3.968,3.963-3.968c2.188,0,3.967,1.778,3.967,3.968
			C-144.359,10.746-146.138,12.522-148.326,12.522L-148.326,12.522z M-148.326,12.522"/>
	</g>
</g>
<g>
	<path fill="none" stroke="#FFFFFF" stroke-width="2" stroke-miterlimit="10" d="M70.168,5.169
		c38.566-2.668,71.992,26.434,74.662,64.995c2.667,38.566-26.435,71.994-65,74.666c-38.565,2.665-71.992-26.433-74.661-65.002
		C2.503,41.263,31.601,7.836,70.168,5.169z"/>
	<g>
		<path fill="#FFFFFF" d="M114.507,85.779v-0.948l-7.956-26.129H88.947v-6.253H46.629v16.173h-9.017l-3.816,5.08h12.833v3.815
			H32.215L28.399,82.6h18.22v3.18h-2.021v8.571h2.021v1.274h1.376c0.773,4.559,4.736,8.051,9.52,8.051
			c4.772,0,8.737-3.492,9.509-8.051h21.688c0.765,4.559,4.728,8.051,9.514,8.051c4.771,0,8.736-3.492,9.507-8.051h6.774v-1.274
			h2.224v-8.571H114.507z M57.515,99.131c-2.819,0-5.118-2.294-5.118-5.116c0-2.821,2.286-5.118,5.118-5.118
			c2.81,0,5.108,2.297,5.108,5.118C62.623,96.837,60.324,99.131,57.515,99.131L57.515,99.131z M98.226,99.131
			c-2.822,0-5.12-2.294-5.12-5.116c0-2.821,2.298-5.118,5.12-5.118c2.819,0,5.107,2.297,5.107,5.118
			C103.333,96.837,101.045,99.131,98.226,99.131L98.226,99.131z M93.489,74.819V63.243h9.695l3.527,11.576H93.489z M93.489,74.819"
			/>
	</g>
</g>
<g>
	<path fill="#FFFFFF" d="M154.105,290.948c-0.587-1.78,0.384-3.707,2.164-4.295c1.78-0.587,3.707,0.384,4.293,2.163l6.683,20.25
		c-0.622-0.164-1.284-0.194-1.947-0.073l-6.467-19.604c-0.272-0.824-1.165-1.275-1.99-1.002c-0.824,0.272-1.274,1.164-1.002,1.989
		c0.157,0.478-0.103,0.994-0.581,1.151C154.78,291.686,154.264,291.427,154.105,290.948L154.105,290.948z M180.431,306.832
		l-10.948,3.612c0.389,0.442,0.697,0.966,0.893,1.559c0.007,0.021,0.012,0.042,0.017,0.063l10.61-3.5
		c0.479-0.159,0.739-0.674,0.581-1.152C181.424,306.936,180.909,306.676,180.431,306.832L180.431,306.832z M169.509,312.289
		c0.62,1.879-0.401,3.906-2.28,4.526c-1.88,0.62-3.907-0.4-4.527-2.281c-0.621-1.879,0.4-3.905,2.28-4.525
		S168.889,310.409,169.509,312.289L169.509,312.289z M167.808,312.85c-0.311-0.939-1.324-1.449-2.265-1.14
		c-0.939,0.31-1.449,1.323-1.14,2.263c0.31,0.94,1.323,1.451,2.263,1.141C167.606,314.803,168.117,313.791,167.808,312.85
		L167.808,312.85z M177.663,293.098l3.717,11.264c0.079,0.238-0.051,0.497-0.29,0.576l-11.697,3.859
		c-0.24,0.079-0.497-0.051-0.576-0.29l-3.717-11.265c-0.078-0.238,0.052-0.498,0.291-0.576l11.697-3.859
		C177.326,292.728,177.585,292.858,177.663,293.098L177.663,293.098z M176.116,299.641l-3.983-2.191l-1.896,4.131l1.255,0.578
		l0.82-1.787l1.481,4.486l1.415-0.468l-1.48-4.485l1.723,0.947L176.116,299.641z M172.641,292.92l-2.376-7.201
		c-0.051-0.152-0.215-0.236-0.368-0.186l-2.037,0.672l-0.011,0.019l-0.017-0.01l-1.075,0.354l0.885,2.684l-1.213,0.4l-0.885-2.684
		l-1.075,0.355l-0.008,0.018l-0.019-0.01l-2.024,0.669c-0.153,0.05-0.236,0.215-0.187,0.368l2.376,7.201
		c0.051,0.154,0.216,0.236,0.369,0.186l7.479-2.466C172.608,293.238,172.691,293.074,172.641,292.92L172.641,292.92z
		 M172.641,292.92"/>
</g>
<g>
	<path fill="#FFFFFF" d="M313.191,290.961l-15.697-6.411c-0.538-0.22-1.143-0.218-1.679,0.005l-15.43,6.404
		c-0.412,0.171-0.68,0.572-0.68,1.019v2.296c0,0.607,0.493,1.102,1.103,1.102h0.826c0.152,0,0.275,0.123,0.275,0.275v14.605
		c0,1.37,1.111,2.48,2.48,2.48h0.721v-13.252h23.361v13.252h0.719c1.371,0,2.481-1.11,2.481-2.48V295.65
		c0-0.152,0.123-0.275,0.275-0.275h0.827c0.607,0,1.102-0.494,1.102-1.102v-2.291C313.877,291.533,313.606,291.131,313.191,290.961
		L313.191,290.961z M290.729,295.375h-5.512v-2.48h5.512V295.375z M299.547,295.375h-5.512v-2.48h5.512V295.375z M308.366,295.375
		h-5.512v-2.48h5.512V295.375z M292.162,307.228h-1.568v2.163h-0.732v-2.163h-1.578c-0.571,0-1.033,0.462-1.033,1.032v3.443
		c0,0.571,0.463,1.033,1.033,1.033h3.879c0.57,0,1.033-0.462,1.033-1.033v-3.443C293.195,307.689,292.732,307.228,292.162,307.228
		L292.162,307.228z M298.733,307.228h-1.568v2.163h-0.733v-2.163h-1.578c-0.57,0-1.032,0.462-1.032,1.032v3.443
		c0,0.571,0.462,1.033,1.032,1.033h3.88c0.569,0,1.032-0.462,1.032-1.033v-3.443C299.766,307.689,299.303,307.228,298.733,307.228
		L298.733,307.228z M305.427,307.228h-1.569v2.163h-0.732v-2.163h-1.578c-0.57,0-1.033,0.462-1.033,1.032v3.443
		c0,0.571,0.463,1.033,1.033,1.033h3.88c0.569,0,1.032-0.462,1.032-1.033v-3.443C306.459,307.689,305.996,307.228,305.427,307.228
		L305.427,307.228z M295.462,301.012h-1.569v2.165h-0.732v-2.165h-1.578c-0.57,0-1.033,0.463-1.033,1.033v3.443
		c0,0.571,0.463,1.033,1.033,1.033h3.88c0.569,0,1.032-0.462,1.032-1.033v-3.443C296.494,301.475,296.031,301.012,295.462,301.012
		L295.462,301.012z M302.193,301.012h-1.57v2.165h-0.732v-2.165h-1.577c-0.571,0-1.033,0.463-1.033,1.033v3.443
		c0,0.571,0.462,1.033,1.033,1.033h3.88c0.569,0,1.032-0.462,1.032-1.033v-3.443C303.226,301.475,302.763,301.012,302.193,301.012
		L302.193,301.012z M302.193,301.012"/>
</g>
<circle fill="none" stroke="#FFFFFF" stroke-width="2" stroke-miterlimit="10" cx="-122.751" cy="435.15" r="33.964"/>
<path fill="none" stroke="#FFFFFF" stroke-width="2" stroke-miterlimit="10" d="M19.406,401.268
	c18.714-1.295,34.933,12.826,36.229,31.537c1.294,18.714-12.827,34.934-31.54,36.23c-18.713,1.293-34.933-12.826-36.228-31.541
	C-13.427,418.781,0.692,402.562,19.406,401.268z"/>
<circle fill="none" stroke="#FFFFFF" stroke-width="2" stroke-miterlimit="10" cx="166.713" cy="435.15" r="33.964"/>
<circle fill="none" stroke="#FFFFFF" stroke-width="2" stroke-miterlimit="10" cx="295.792" cy="433.332" r="33.964"/>
<g>
	<g>
		<path fill="#FFFFFF" d="M-110.074,425h-6.102c-1.438,0-3.446,0.096-4.463,1.112l-10.248,9.878c-1.016,1.017-1.016,2.496,0,3.514
			l7.633,7.54c1.018,1.017,2.682,0.97,3.698-0.046l9.977-10.271c1.018-1.017,1.579-3.048,1.579-4.485v-6.102
			C-108,424.703-108.637,425-110.074,425z M-113.561,432.242c-1.444,0-2.615-1.172-2.615-2.615s1.171-2.615,2.615-2.615
			c1.443,0,2.614,1.172,2.614,2.615S-112.117,432.242-113.561,432.242z"/>
	</g>
	<path fill="#FFFFFF" d="M-134.733,438.087l9.325,9.325c-0.987,0.521-2.246,0.369-3.074-0.461l-7.633-7.631
		c-1.017-1.018-1.017-2.682,0-3.698l10.247-10.247c1.018-1.017,3.025-1.849,4.463-1.849l-13.328,13.328
		C-135.072,437.193-135.072,437.748-134.733,438.087L-134.733,438.087z"/>
</g>
<g>
	<path fill="#FFFFFF" d="M11.695,441.379l-0.021-9.735c-0.001-0.442,0.452-0.743,0.86-0.568l8.205,3.507
		c0.227,0.098,0.374,0.32,0.376,0.566l0.021,9.736c0.001,0.443-0.452,0.742-0.86,0.568l-8.205-3.508
		C11.844,441.849,11.696,441.626,11.695,441.379L11.695,441.379z"/>
	<path fill="#FFFFFF" d="M31.334,430.98c0.325,0,0.617,0.262,0.618,0.617l0.021,9.734c0.001,0.247-0.146,0.471-0.372,0.568
		l-8.189,3.547c-0.08,0.035-0.163,0.051-0.244,0.051c-0.324,0.001-0.617-0.261-0.617-0.615l-0.021-9.736
		c-0.002-0.246,0.145-0.47,0.371-0.568l8.189-3.547C31.171,430.997,31.253,430.98,31.334,430.98L31.334,430.98z"/>
	<path fill="#FFFFFF" d="M21.691,424.558c0.085-0.001,0.171,0.017,0.251,0.052l8.634,3.807c0.489,0.215,0.491,0.91,0.003,1.128
		l-8.616,3.847c-0.079,0.036-0.165,0.053-0.251,0.053c-0.085,0.001-0.17-0.017-0.25-0.051l-8.633-3.807
		c-0.489-0.216-0.491-0.91-0.003-1.128l8.616-3.847C21.521,424.575,21.606,424.558,21.691,424.558L21.691,424.558z"/>
	<polygon fill="#FFFFFF" points="23.674,452.662 23.674,447.996 19.835,447.996 19.835,452.662 16.156,452.662 21.754,458.257 
		27.352,452.662 	"/>
	<polygon fill="#FFFFFF" points="39.153,433.334 34.49,433.334 34.49,437.173 39.153,437.173 39.153,440.852 44.75,435.254 
		39.153,429.656 	"/>
	<polygon fill="#FFFFFF" points="19.826,417.853 19.826,422.518 23.666,422.518 23.666,417.853 27.344,417.853 21.746,412.258 
		16.148,417.853 	"/>
	<polygon fill="#FFFFFF" points="4.347,437.182 9.011,437.182 9.011,433.342 4.347,433.342 4.347,429.664 -1.25,435.261 
		4.347,440.859 	"/>
	<path fill="#FFFFFF" d="M4.347,437.182"/>
</g>
<g>
	<path fill="#FFFFFF" d="M166.257,435.426c-1.165-1.188-4.146-3.797-6.836-2.812l-8.188,8.078c0.044-0.005,0.082-0.016,0.125-0.016
		c1.879-0.251,4.592,0.043,7.207,2.69c2.108,2.141,3.013,4.102,2.55,5.528c-0.263,0.785-0.921,1.324-1.815,1.472
		c-0.157,0.021-0.332,0.038-0.512,0.038c-1.509,0-3.741-0.937-5.773-3.683l1.259-0.932c1.655,2.228,3.66,3.22,4.772,3.029
		c0.468-0.082,0.549-0.333,0.577-0.414c0.195-0.6-0.258-1.994-2.174-3.934c-3.105-3.147-6.243-2.331-7.332-1.901
		c-0.294,1.798,0.725,4.31,2.777,6.39c2.653,2.691,6.052,3.672,7.729,2.277c0.011,0,0.018-0.005,0.018-0.005l9.118-8.988
		c0.142-0.364,0.283-1.188-0.393-2.532C168.637,438.246,167.504,436.684,166.257,435.426L166.257,435.426z M166.257,435.426"/>
	<path fill="#FFFFFF" d="M182.207,420.053c-2.734-2.772-6.265-3.726-7.883-2.131c-0.049,0.045-6.581,6.478-6.581,6.478
		c2,0.806,4.141,2.278,5.885,4.053c2.021,2.042,3.284,4.194,3.752,6.27c0,0,6.809-6.71,6.854-6.748
		C185.852,426.377,184.946,422.83,182.207,420.053L182.207,420.053z M182.207,420.053"/>
	<path fill="#FFFFFF" d="M177.343,438.377c-0.84-0.195-1.461-0.266-1.553-0.272c0.19-0.659,0.256-1.334,0.206-2.01
		c-0.168-2.299-1.606-4.63-3.486-6.537c-1.655-1.683-3.654-3.028-5.435-3.73c-0.208-0.076-0.403-0.131-0.601-0.164l-5.263,5.186
		c2.18,0.212,4.358,1.646,6.162,3.476c1.433,1.455,2.631,3.16,3.398,4.686c0.305,0.615,0.49,1.171,0.584,1.661
		c0.364,1.862-0.513,2.811-0.513,2.811l2.92-2.876c0.119-0.027,0.25-0.061,0.376-0.109c0.136,0.627,0.163,1.237,0.114,1.825
		c-0.284,3.22-2.909,5.692-2.909,5.692l3.104,1.34c3.896-3.126,2.643-6.912,1.612-8.818c-0.239-0.441-0.463-0.779-0.608-0.991
		c-0.013-0.012-0.019-0.022-0.022-0.039c0.004,0.011,0.01,0.017,0.022,0.027c0.369,0.163,0.719,0.365,1.028,0.583
		c3.115,2.168,3.323,6.673,3.323,6.673l3.039-1.481C183.008,440.426,179.478,438.868,177.343,438.377L177.343,438.377z
		 M177.343,438.377"/>
</g>
<g>
	<path fill="#FFFFFF" d="M306.631,435.218c0,5.851-4.756,10.614-10.614,10.614c-5.856,0-10.62-4.764-10.62-10.614
		c0-5.853,4.764-10.622,10.62-10.622l3.13,0.04l-1.549,1.544l3.759,3.75l7.976-7.982l-7.976-7.964l-3.759,3.751l1.568,1.556h-3.149
		c-8.792,0-15.928,7.128-15.928,15.928c0,8.793,7.136,15.921,15.928,15.921c8.786,0,15.922-7.128,15.922-15.921H306.631z
		 M306.631,435.218"/>
</g>
</svg>
