<?xml version="1.0" encoding="utf-8"?>
<!-- Generator: Adobe Illustrator 16.0.0, SVG Export Plug-In . SVG Version: 6.00 Build 0)  -->
<!DOCTYPE svg PUBLIC "-//W3C//DTD SVG 1.1//EN" "http://www.w3.org/Graphics/SVG/1.1/DTD/svg11.dtd">
<svg version="1.1" id="Capa_1" xmlns="http://www.w3.org/2000/svg" xmlns:xlink="http://www.w3.org/1999/xlink" x="0px" y="0px"
	 width="178.49px" height="100px" viewBox="0 0 178.49 100" enable-background="new 0 0 178.49 100" xml:space="preserve">
<g>
	<path fill="#0167B9" d="M166.218,64.165v-1.741l-14.599-47.951h-32.311V2.997H41.644v29.68H25.098L18.096,42h23.548v7h-26.45
		l-7.002,9.325h33.437v5.839h-3.706v15.729h3.706v2.338h2.527c1.417,8.367,8.69,14.771,17.47,14.771
		c8.76,0,16.034-6.405,17.451-14.771h39.806c1.4,8.367,8.675,14.771,17.454,14.771c8.76,0,16.034-6.405,17.45-14.771h12.432v-2.338
		h4.081V64.165H166.218z M61.625,88.666c-5.174,0-9.394-4.213-9.394-9.388c0-5.179,4.2-9.392,9.394-9.392
		c5.156,0,9.374,4.212,9.374,9.392C70.999,84.453,66.781,88.666,61.625,88.666L61.625,88.666z M136.336,88.666
		c-5.178,0-9.396-4.213-9.396-9.388c0-5.179,4.218-9.392,9.396-9.392c5.172,0,9.374,4.212,9.374,9.392
		C145.71,84.453,141.508,88.666,136.336,88.666L136.336,88.666z M127.642,44.048V22.805h17.796l6.471,21.243H127.642z
		 M127.642,44.048"/>
</g>
</svg>
