<?xml version="1.0" encoding="utf-8"?>
<!-- Generator: Adobe Illustrator 16.0.0, SVG Export Plug-In . SVG Version: 6.00 Build 0)  -->
<!DOCTYPE svg PUBLIC "-//W3C//DTD SVG 1.1//EN" "http://www.w3.org/Graphics/SVG/1.1/DTD/svg11.dtd">
<svg version="1.1" id="Capa_1" xmlns="http://www.w3.org/2000/svg" xmlns:xlink="http://www.w3.org/1999/xlink" x="0px" y="0px"
	 width="221.402px" height="134.896px" viewBox="0 0 221.402 134.896" enable-background="new 0 0 221.402 134.896"
	 xml:space="preserve">
<g>
	<path fill="#3A67B4" d="M121.421-100.391H102.71v-21.829c0-3.764-3.074-6.796-6.838-6.796H70.653c-3.762,0-6.734,3.032-6.734,6.796
		v21.821h-4.611v-3.353c0-1.547-1.196-2.847-2.736-2.847H47.86c-1.55,0-2.869,1.3-2.869,2.847v3.333
		c-3.656,0.02-6.679,3.062-6.679,6.814v41.577c0,3.76,3.023,6.802,6.785,6.802h76.325c3.764,0,6.891-3.042,6.891-6.802v-41.577
		C128.312-97.368,125.185-100.391,121.421-100.391L121.421-100.391z M69.951-120.652c0-1.551,1.254-2.801,2.802-2.801h20.955
		c1.548,0,2.799,1.25,2.799,2.801v2.512c0,1.541-1.251,2.801-2.799,2.801H72.753c-1.548,0-2.802-1.26-2.802-2.801V-120.652z
		 M83.262-49.499c-12.859,0-23.323-10.466-23.323-23.314c0-12.859,10.464-23.32,23.323-23.32c12.862,0,23.314,10.461,23.314,23.32
		C106.576-59.964,96.124-49.499,83.262-49.499L83.262-49.499z M83.262-49.499"/>
	<path fill="#3A67B4" d="M83.262-87.954c-8.344,0-15.139,6.786-15.139,15.141c0,8.349,6.794,15.134,15.139,15.134
		c8.345,0,15.14-6.785,15.14-15.134C98.402-81.167,91.607-87.954,83.262-87.954L83.262-87.954z M83.262-87.954"/>
</g>
<path fill="#3A67B4" d="M226.182-138.557c-0.545-0.747-1.41-1.189-2.337-1.189H158.87c-0.122,0-0.249,0.009-0.371,0.023
	l-2.674-7.709c-0.277-0.793-0.889-1.429-1.669-1.739l-13.48-5.292c-1.485-0.582-3.159,0.146-3.741,1.631
	c-0.583,1.481,0.146,3.158,1.631,3.742l12.239,4.808l14.981,43.187c-0.658,0.23-1.223,0.737-1.477,1.447l-4.33,12.032
	c-0.268,0.737-0.16,1.557,0.291,2.2c0.451,0.639,1.189,1.02,1.97,1.02h2.229c-1.382,1.537-2.229,3.559-2.229,5.777
	c0,4.779,3.888,8.662,8.665,8.662c4.779,0,8.664-3.883,8.664-8.662c0-2.219-0.846-4.24-2.229-5.777h18.891
	c-1.377,1.537-2.223,3.559-2.223,5.777c0,4.779,3.882,8.662,8.662,8.662c4.775,0,8.663-3.883,8.663-8.662
	c0-2.219-0.847-4.24-2.224-5.777h2.703c1.33,0,2.406-1.076,2.406-2.406c0-1.326-1.076-2.406-2.406-2.406h-46.146l2.679-7.451
	c0.348,0.146,0.725,0.231,1.114,0.231h42.353c1.259,0,2.369-0.808,2.75-2.003l12.031-37.545
	C226.877-136.855,226.722-137.814,226.182-138.557L226.182-138.557z M170.905-74.769c-2.121,0-3.851-1.727-3.851-3.85
	c0-2.125,1.729-3.851,3.851-3.851c2.123,0,3.854,1.726,3.854,3.851C174.759-76.496,173.028-74.769,170.905-74.769L170.905-74.769z
	 M202.671-74.769c-2.125,0-3.85-1.727-3.85-3.85c0-2.125,1.725-3.851,3.85-3.851s3.85,1.726,3.85,3.851
	C206.521-76.496,204.796-74.769,202.671-74.769L202.671-74.769z M217.806-127.469H203.07v-6.5h16.817L217.806-127.469z
	 M213.566-114.233H203.07v-7.464h12.884L213.566-114.233z M183.978-114.233v-7.464h13.316v7.464H183.978z M197.294-108.461v6.261
	h-13.316v-6.261H197.294z M164.757-121.697h13.445v7.464h-10.86L164.757-121.697z M183.978-127.469v-6.5h13.316v6.5H183.978z
	 M178.202-133.969v6.5h-15.453l-2.252-6.5H178.202z M169.349-108.461h8.854v6.261h-6.687L169.349-108.461z M203.07-102.201v-6.261
	h8.644l-2.006,6.261H203.07z M203.07-102.201"/>
<g>
	<path fill="#3A67B4" d="M250.069-143.471v89.221h89.999v-89.221H250.069z M332.641-136.062v74.402h-75.163v-74.402H332.641z
		 M332.641-136.062"/>
	<path fill="#3A67B4" d="M285.381-86.007l-23.65-10.287v-5.69l23.65-10.229v6.713l-16.476,6.312l16.476,6.55V-86.007z
		 M285.381-86.007"/>
	<path fill="#3A67B4" d="M287.579-81.474l8.548-35.672h4.953l-8.647,35.672H287.579z M287.579-81.474"/>
	<path fill="#3A67B4" d="M303.256-86.007v-6.632l16.5-6.531l-16.5-6.431v-6.612l23.67,10.247v5.648L303.256-86.007z M303.256-86.007
		"/>
</g>
<g>
	<path fill="#3A67B4" d="M402.067-131.007l-37.556,11.337v28.344c0,18.429,15.225,38.456,37.556,50.318
		c22.332-11.862,37.558-31.89,37.558-50.318v-28.344L402.067-131.007z M402.067-47.49c-19.184-11.079-31.89-28.411-31.89-43.836
		v-24.132l31.89-9.626V-47.49z M402.067-47.49"/>
</g>
<path fill="#3A67B4" d="M479.287,263.918l-14.708-31.797l-56.222-22.893l-60.917,23.137l-15.922,23.105l15.723-1.387v51.828
	l58.923,23.316l58.462-23.316v-35.689L479.287,263.918z M408.447,254.45v-40.67l50.711,20.672L408.447,254.45z M403.837,323.733
	l-52.395-20.668v-64.611l52.395,20.67V323.733z M460.427,303.065l-52.392,20.668v-64.609l11.506,30.473l40.886-17.58V303.065z
	 M460.427,303.065"/>
<g>
	<path fill="#3A67B4" d="M208.957,85.533V83.31l-18.639-61.211H149.08V7.449H49.94v37.888H28.818l-8.94,11.902H49.94v8.936H16.174
		L7.238,78.078H49.92v7.455h-4.732v20.074h4.732v2.984h3.227c1.807,10.685,11.094,18.856,22.297,18.856
		c11.182,0,20.469-8.172,22.276-18.856h50.813c1.787,10.685,11.07,18.856,22.277,18.856c11.182,0,20.469-8.172,22.275-18.856h15.871
		v-2.984h5.207V85.533H208.957z M75.444,116.804c-6.604,0-11.99-5.377-11.99-11.984c0-6.609,5.362-11.985,11.99-11.985
		c6.583,0,11.969,5.376,11.969,11.985C87.413,111.427,82.027,116.804,75.444,116.804L75.444,116.804z M170.811,116.804
		c-6.607,0-11.99-5.377-11.99-11.984c0-6.609,5.383-11.985,11.99-11.985s11.969,5.376,11.969,11.985
		C182.779,111.427,177.418,116.804,170.811,116.804L170.811,116.804z M159.713,59.851V32.738h22.717l8.264,27.113H159.713z
		 M159.713,59.851"/>
</g>
<g>
	<path fill="#3A67B4" d="M504.432-42.155c5.793-6.118,9.494-14.752,9.494-22.992c0-14.989-12.14-27.145-27.129-27.145
		c-14.986,0-27.144,12.156-27.144,27.145c0,3.701,0.787,7.467,2.127,11.068c3.332,7.518,9.88,13.341,18.169,15.468
		c1.641-2.028,4.119-3.25,6.848-3.25c4.874,0,8.825,3.971,8.825,8.848c0,4.866-3.968,8.818-8.825,8.818
		c-3.482,0-6.546-2.021-7.986-5.035c-7.116-1.578-13.362-5.144-18.219-10.047c-10.699,4.549-17.633,11.839-17.633,20.044
		c0,13.827,87.66,13.827,87.66,0C530.619-29.484,519.852-38.276,504.432-42.155L504.432-42.155z M504.432-42.155"/>
	<path fill="#3A67B4" d="M481.187-31.958c0.502,2.642,2.814,4.638,5.593,4.638c3.165,0,5.713-2.551,5.713-5.692
		c0-3.152-2.548-5.711-5.696-5.711c-2.427,0-4.487,1.519-5.307,3.646c-14.335-2.528-25.271-15.037-25.271-30.069
		c0-16.864,13.715-30.578,30.577-30.578c16.848,0,30.562,13.714,30.562,30.578h3.132c0-18.588-15.123-33.714-33.693-33.714
		c-18.587,0-33.706,15.125-33.706,33.714C453.09-48.491,465.279-34.639,481.187-31.958L481.187-31.958z M481.187-31.958"/>
</g>
<g>
	<path fill="#3A67B4" d="M373.685,99.246v3.447h-41.523v-3.447c0-1.909,1.554-3.463,3.444-3.463h6.982
		c0.188-4.329,2.973-7.929,6.881-9.312V45.887c-1.826-1.147-3.059-3.177-3.059-5.493h13.012c0,2.315-1.218,4.345-3.044,5.493V86.47
		c3.89,1.384,6.694,4.983,6.88,9.312h6.964C372.132,95.783,373.685,97.336,373.685,99.246L373.685,99.246z M397.923,68.078
		c-2.535,7.15-9.296,12.308-17.308,12.308s-14.772-5.157-17.308-12.308h3.989l11.694-30.979c0.51-1.353,2.738-1.353,3.248,0
		l11.678,30.979H397.923z M390.234,68.078l-9.619-25.47l-9.614,25.47H390.234z M325.229,33.517c1.572,0,2.84-1.066,3.295-2.485
		c1.131-0.422,2.316-1.015,3.518-1.624c2.655-1.334,5.645-2.854,8.773-2.854c2.989,0,4.852,1.383,5.914,2.552
		c-0.035,0.302-0.085,0.59-0.085,0.911c0,3.465,2.809,6.272,6.268,6.272c3.467,0,6.292-2.807,6.292-6.272
		c0-0.321-0.05-0.609-0.104-0.911c1.065-1.168,2.941-2.552,5.933-2.552c3.128,0,6.118,1.52,8.774,2.854
		c1.196,0.609,2.365,1.202,3.513,1.624c0.443,1.419,1.728,2.485,3.297,2.485c1.927,0,3.501-1.574,3.501-3.5
		c0-1.943-1.574-3.498-3.501-3.498c-0.998,0-1.893,0.422-2.519,1.098c-0.861-0.354-1.789-0.827-2.738-1.301
		c-2.99-1.521-6.388-3.227-10.327-3.227c-3.446,0-5.845,1.317-7.469,2.722c-0.746-0.795-1.674-1.404-2.737-1.742
		c1.3-0.694,2.194-2.011,2.194-3.583c0-2.266-4.108-7.554-4.108-7.554s-4.087,5.288-4.087,7.554c0,1.572,0.895,2.889,2.195,3.583
		c-1.064,0.338-2.011,0.947-2.735,1.742c-1.624-1.404-4.026-2.722-7.47-2.722c-3.953,0-7.336,1.707-10.329,3.227
		c-0.963,0.474-1.876,0.947-2.738,1.301c-0.623-0.675-1.524-1.098-2.519-1.098c-1.924,0-3.5,1.555-3.5,3.498
		C321.729,31.943,323.305,33.517,325.229,33.517L325.229,33.517z M325.229,80.385c-8.014,0-14.77-5.157-17.305-12.308h3.986
		l11.697-30.979c0.507-1.353,2.738-1.353,3.245,0l11.694,30.979h3.989C340.001,75.228,333.242,80.385,325.229,80.385L325.229,80.385
		z M334.848,68.078l-9.619-25.47l-9.619,25.47H334.848z M334.848,68.078"/>
</g>
<g>
	<path fill="#3A67B4" d="M544.402,22.386c0,5.234,3.593,9.597,8.436,10.854v36.958h-5.623c-1.55,0-2.812,1.258-2.812,2.812
		s1.263,2.812,2.812,2.812h84.375c1.562,0,2.812-1.258,2.812-2.812s-1.25-2.812-2.812-2.812h-5.622V33.24
		c4.842-1.257,8.435-5.62,8.435-10.854v-2.812h-90V22.386z M600.653,33.637c6.22,0,11.251-5.039,11.251-11.25
		c0,5.234,3.593,9.597,8.438,10.854v36.958h-42.19V33.637c6.219,0,11.252-5.039,11.252-11.25
		C589.404,28.598,594.446,33.637,600.653,33.637L600.653,33.637z M575.34,33.24v36.958h-16.875V33.24
		c4.845-1.257,8.438-5.62,8.438-10.854C566.902,27.62,570.496,31.983,575.34,33.24L575.34,33.24z M623.155-5.739h-67.503
		l-11.25,22.5h90L623.155-5.739z M568.166,0.511l-5.625,11.251c-0.253,0.493-0.748,0.78-1.264,0.78
		c-0.208,0-0.423-0.043-0.627-0.148c-0.69-0.347-0.977-1.192-0.625-1.883l5.623-11.251c0.354-0.693,1.193-0.971,1.885-0.633
		C568.232-1.027,568.506-0.182,568.166,0.511L568.166,0.511z M579.417,0.511l-5.626,11.251c-0.252,0.493-0.746,0.78-1.264,0.78
		c-0.207,0-0.423-0.043-0.627-0.148c-0.691-0.347-0.978-1.192-0.626-1.883L576.9-0.74c0.352-0.693,1.197-0.971,1.883-0.633
		C579.482-1.027,579.757-0.182,579.417,0.511L579.417,0.511z M590.81,11.135c0,0.78-0.626,1.407-1.405,1.407
		c-0.775,0-1.407-0.627-1.407-1.407V-0.113c0-0.782,0.632-1.406,1.407-1.406c0.779,0,1.405,0.625,1.405,1.406V11.135z
		 M606.959,12.367c-0.218,0.12-0.449,0.175-0.68,0.175c-0.495,0-0.978-0.264-1.233-0.73l-6.149-11.251
		c-0.375-0.681-0.124-1.539,0.561-1.905c0.669-0.375,1.539-0.132,1.91,0.555l6.153,11.249C607.883,11.142,607.645,12,606.959,12.367
		L606.959,12.367z M618.157,12.394c-0.198,0.103-0.409,0.148-0.627,0.148c-0.516,0-1.011-0.287-1.254-0.78L610.65,0.511
		c-0.351-0.693-0.065-1.538,0.627-1.885c0.681-0.346,1.538-0.068,1.894,0.633l5.621,11.251
		C619.134,11.202,618.857,12.047,618.157,12.394L618.157,12.394z M568.309,53.754v-6.483c-0.823-0.494-1.406-1.353-1.406-2.384
		c0-1.555,1.264-2.812,2.812-2.812c1.56,0,2.812,1.258,2.812,2.812c0,1.031-0.575,1.89-1.404,2.384v6.483
		c0.829,0.495,1.404,1.349,1.404,2.38c0,1.555-1.253,2.812-2.812,2.812c-1.55,0-2.812-1.258-2.812-2.812
		C566.902,55.103,567.485,54.249,568.309,53.754L568.309,53.754z M555.652-11.364c0-1.555,1.264-2.813,2.812-2.813h61.878
		c1.559,0,2.812,1.258,2.812,2.813s-1.254,2.812-2.812,2.812h-61.878C556.916-8.552,555.652-9.81,555.652-11.364L555.652-11.364z
		 M593.7,48.693l-1.992-1.991l7.956-7.952l1.989,1.988L593.7,48.693z M593.7,56.649l-1.992-1.992l15.911-15.907l1.988,1.988
		L593.7,56.649z M607.619,46.702l1.988,1.991l-7.954,7.956l-1.989-1.992L607.619,46.702z M607.619,46.702"/>
</g>
<path fill="#3A67B4" d="M382.992,150.81l-17.288-5.685c0,0,0,0-0.01,0h0.01c0,0-0.279-0.103-0.674-0.063
	c-0.383,0.043-0.654,0.24-0.654,0.24l-9.695,6.33c-0.442,0.282-0.702,0.775-0.702,1.301v17.336l-0.533-0.037v-28.006
	c0-0.672-0.44-1.271-1.067-1.477l-31.342-10.295c0,0-0.365-0.113-0.7-0.055c-0.403,0.055-0.692,0.27-0.692,0.27l-22.908,16.346
	c-0.412,0.289-0.656,0.756-0.656,1.261v58.001c0,0.562,0.311,1.085,0.806,1.356l22.917,12.557c0,0,0.234,0.141,0.561,0.179
	c0.328,0.046,0.562-0.03,0.562-0.03l31.343-7.909l13.334-3.366l17.288-4.366c0.682-0.169,1.169-0.795,1.169-1.507v-50.903
	C384.059,151.615,383.631,151.016,382.992,150.81L382.992,150.81z M300.756,198.947c0,0.167-0.084,0.325-0.216,0.42
	c-0.094,0.065-0.195,0.094-0.299,0.094c-0.065,0-0.123-0.008-0.178-0.028l-1.338-0.495c-0.204-0.075-0.344-0.271-0.344-0.488v-4.253
	c0-0.158,0.082-0.317,0.205-0.41c0.13-0.105,0.299-0.133,0.448-0.085l1.347,0.364c0.215,0.065,0.374,0.27,0.374,0.506V198.947z
	 M300.756,190.195c0,0.148-0.066,0.298-0.188,0.391c-0.094,0.077-0.205,0.123-0.327,0.123c-0.039,0-0.065-0.01-0.094-0.01
	l-1.346-0.252c-0.244-0.046-0.42-0.262-0.42-0.506v-4.263c0-0.141,0.062-0.281,0.166-0.385c0.113-0.093,0.254-0.139,0.402-0.131
	l1.338,0.131c0.262,0.029,0.468,0.254,0.468,0.514V190.195z M300.756,181.433c0,0.141-0.058,0.27-0.149,0.373
	c-0.104,0.093-0.225,0.15-0.365,0.15l-1.348-0.008c-0.279-0.01-0.512-0.236-0.512-0.525v-4.254c0-0.272,0.205-0.496,0.475-0.514
	l1.338-0.113c0.15-0.018,0.289,0.038,0.393,0.131c0.111,0.104,0.169,0.234,0.169,0.385V181.433z M300.756,172.682
	c0,0.251-0.179,0.466-0.431,0.505l-1.337,0.232c-0.028,0.008-0.057,0.008-0.084,0.008c-0.122,0-0.243-0.043-0.337-0.121
	c-0.111-0.103-0.186-0.242-0.186-0.4v-4.255c0-0.233,0.157-0.44,0.381-0.495l1.338-0.354c0.16-0.039,0.328-0.012,0.449,0.092
	c0.13,0.095,0.206,0.242,0.206,0.41V172.682z M300.756,163.928c0,0.216-0.141,0.41-0.346,0.485l-1.339,0.469
	c-0.055,0.02-0.111,0.029-0.167,0.029c-0.112,0-0.216-0.029-0.299-0.096c-0.142-0.093-0.224-0.25-0.224-0.42v-4.255
	c0-0.206,0.121-0.393,0.307-0.476l1.348-0.59c0.158-0.074,0.335-0.053,0.484,0.038c0.151,0.093,0.235,0.262,0.235,0.429V163.928z
	 M300.756,155.166c0,0.199-0.104,0.367-0.272,0.461l-1.338,0.709c-0.082,0.049-0.166,0.066-0.241,0.066
	c-0.093,0-0.188-0.028-0.272-0.072c-0.158-0.097-0.25-0.266-0.25-0.441v-4.266c0-0.176,0.092-0.345,0.242-0.439l1.337-0.833
	c0.169-0.093,0.364-0.103,0.522-0.004c0.168,0.091,0.272,0.26,0.272,0.444V155.166z M305.271,200.61
	c0,0.169-0.084,0.327-0.226,0.421c-0.082,0.065-0.186,0.095-0.287,0.095c-0.066,0-0.123-0.01-0.188-0.029l-1.591-0.589
	c-0.205-0.075-0.336-0.27-0.336-0.486v-4.647c0-0.158,0.073-0.307,0.196-0.412c0.131-0.091,0.299-0.121,0.458-0.083l1.589,0.45
	c0.225,0.055,0.384,0.26,0.384,0.495V200.61z M305.271,191.036c0,0.158-0.075,0.299-0.187,0.4c-0.094,0.077-0.216,0.123-0.337,0.123
	c-0.028,0-0.056-0.008-0.093-0.008l-1.592-0.302c-0.25-0.046-0.429-0.262-0.429-0.514v-4.638c0-0.15,0.066-0.291,0.179-0.383
	c0.111-0.095,0.25-0.15,0.393-0.131l1.598,0.149c0.263,0.027,0.468,0.252,0.468,0.523V191.036z M305.271,181.47
	c0,0.142-0.056,0.271-0.159,0.365c-0.094,0.104-0.225,0.148-0.354,0.148h-0.011l-1.589-0.01c-0.291,0-0.515-0.233-0.515-0.514
	v-4.645c0-0.264,0.206-0.488,0.467-0.516l1.599-0.131c0.141-0.01,0.29,0.038,0.395,0.141c0.102,0.092,0.167,0.232,0.167,0.371
	V181.47z M305.271,171.905c0,0.254-0.187,0.468-0.431,0.505l-1.599,0.278c-0.028,0-0.056,0-0.083,0
	c-0.122,0-0.245-0.034-0.338-0.119c-0.112-0.093-0.187-0.243-0.187-0.393v-4.64c0-0.242,0.159-0.436,0.393-0.506l1.589-0.418
	c0.16-0.037,0.328-0.008,0.45,0.094c0.121,0.093,0.195,0.254,0.195,0.41v4.788H305.271z M305.271,162.33
	c0,0.223-0.14,0.421-0.345,0.486l-1.6,0.572c-0.057,0.019-0.113,0.026-0.168,0.026c-0.113,0-0.217-0.038-0.301-0.095
	c-0.141-0.102-0.214-0.262-0.214-0.427v-4.64c0-0.206,0.11-0.395,0.309-0.468l1.589-0.71c0.158-0.065,0.346-0.058,0.496,0.037
	c0.14,0.094,0.233,0.26,0.233,0.438V162.33z M305.271,152.763c0,0.187-0.103,0.367-0.271,0.46l-1.599,0.851
	c-0.074,0.037-0.159,0.056-0.242,0.056c-0.096,0-0.188-0.026-0.271-0.075c-0.148-0.094-0.243-0.26-0.243-0.438v-4.638
	c0-0.176,0.085-0.346,0.243-0.44l1.588-0.999c0.16-0.094,0.365-0.105,0.524-0.01c0.169,0.095,0.271,0.26,0.271,0.447V152.763z
	 M310.702,202.611c0,0.169-0.072,0.327-0.213,0.423c-0.094,0.065-0.197,0.091-0.299,0.091c-0.057,0-0.123-0.008-0.178-0.025
	l-1.937-0.712c-0.196-0.076-0.336-0.271-0.336-0.486v-5.105c0-0.158,0.075-0.308,0.206-0.412c0.121-0.094,0.289-0.131,0.449-0.084
	l1.936,0.534c0.224,0.065,0.371,0.271,0.371,0.505V202.611z M310.702,192.054c0,0.159-0.062,0.3-0.186,0.403
	c-0.094,0.075-0.205,0.12-0.326,0.12c-0.028,0-0.066-0.01-0.095-0.01l-1.935-0.364c-0.243-0.046-0.421-0.262-0.421-0.504v-5.105
	c0-0.141,0.064-0.279,0.167-0.383c0.113-0.095,0.254-0.141,0.403-0.131l1.927,0.187c0.271,0.027,0.465,0.252,0.465,0.523V192.054z
	 M310.702,181.508c0,0.139-0.045,0.27-0.147,0.373c-0.095,0.093-0.224,0.148-0.364,0.148l-1.936-0.016
	c-0.279,0-0.515-0.236-0.515-0.516v-5.106c0-0.27,0.206-0.494,0.478-0.512l1.936-0.16c0.139-0.011,0.281,0.037,0.392,0.133
	c0.103,0.101,0.169,0.233,0.169,0.38v5.275H310.702z M310.702,170.96c0,0.25-0.176,0.467-0.419,0.514l-1.935,0.338
	c-0.028,0-0.057,0-0.094,0c-0.122,0-0.234-0.036-0.327-0.119c-0.123-0.098-0.188-0.246-0.188-0.396v-5.094
	c0-0.244,0.159-0.44,0.384-0.506l1.936-0.506c0.148-0.047,0.318-0.008,0.449,0.096c0.121,0.091,0.193,0.242,0.193,0.4V170.96z
	 M310.702,160.415c0,0.222-0.127,0.409-0.334,0.483l-1.936,0.685c-0.057,0.02-0.112,0.028-0.178,0.028
	c-0.104,0-0.205-0.028-0.301-0.092c-0.129-0.098-0.214-0.256-0.214-0.422v-5.105c0-0.207,0.121-0.385,0.31-0.469l1.934-0.86
	c0.16-0.063,0.348-0.056,0.487,0.038c0.149,0.103,0.231,0.262,0.231,0.439V160.415z M310.702,149.865
	c0,0.188-0.102,0.366-0.268,0.459l-1.938,1.027c-0.074,0.038-0.159,0.058-0.242,0.058c-0.094,0-0.188-0.02-0.264-0.075
	c-0.158-0.092-0.251-0.262-0.251-0.439v-5.096c0-0.188,0.093-0.346,0.243-0.439l1.936-1.205c0.159-0.105,0.354-0.105,0.523-0.01
	c0.169,0.083,0.26,0.262,0.26,0.448V149.865z M317.391,205.062c0,0.176-0.085,0.337-0.226,0.43
	c-0.083,0.056-0.188,0.094-0.289,0.094c-0.065,0-0.121-0.011-0.187-0.038l-2.386-0.878c-0.205-0.076-0.336-0.272-0.336-0.486v-5.658
	c0-0.159,0.076-0.308,0.197-0.411c0.129-0.103,0.298-0.133,0.447-0.085l2.394,0.664c0.226,0.056,0.385,0.264,0.385,0.496V205.062z
	 M317.391,193.308c0,0.158-0.075,0.307-0.188,0.402c-0.092,0.075-0.215,0.121-0.336,0.121c-0.027,0-0.056-0.01-0.094-0.01
	l-2.395-0.448c-0.242-0.048-0.421-0.262-0.421-0.514v-5.657c0-0.141,0.066-0.281,0.179-0.385c0.104-0.093,0.253-0.141,0.393-0.131
	l2.393,0.234c0.264,0.027,0.47,0.252,0.47,0.514V193.308z M317.391,181.564c0,0.139-0.058,0.271-0.159,0.362
	c-0.094,0.096-0.226,0.151-0.355,0.151h-0.01l-2.385-0.019c-0.289,0-0.514-0.235-0.514-0.515v-5.664
	c0-0.273,0.205-0.498,0.467-0.516l2.394-0.196c0.149-0.01,0.29,0.036,0.394,0.129c0.103,0.103,0.169,0.235,0.169,0.385V181.564z
	 M317.391,169.809c0,0.254-0.188,0.47-0.431,0.505l-2.395,0.413c-0.028,0.008-0.055,0.008-0.084,0.008
	c-0.121,0-0.242-0.038-0.337-0.121c-0.112-0.093-0.188-0.241-0.188-0.393v-5.655c0-0.235,0.159-0.441,0.396-0.505l2.383-0.628
	c0.159-0.037,0.318-0.009,0.449,0.092c0.121,0.096,0.206,0.244,0.206,0.413V169.809z M317.391,158.057
	c0,0.214-0.142,0.423-0.347,0.485l-2.394,0.844c-0.057,0.018-0.113,0.037-0.169,0.037c-0.111,0-0.216-0.037-0.299-0.104
	c-0.139-0.095-0.215-0.254-0.215-0.42v-5.659c0-0.204,0.112-0.393,0.298-0.478l2.396-1.055c0.157-0.076,0.345-0.058,0.494,0.035
	c0.141,0.096,0.235,0.264,0.235,0.44V158.057z M317.391,146.303c0,0.196-0.104,0.364-0.28,0.458l-2.386,1.273
	c-0.074,0.035-0.159,0.062-0.243,0.062c-0.093,0-0.188-0.027-0.271-0.072c-0.149-0.094-0.253-0.262-0.253-0.451v-5.656
	c0-0.177,0.095-0.348,0.245-0.44l2.393-1.485c0.16-0.103,0.365-0.113,0.523-0.018c0.169,0.092,0.272,0.262,0.272,0.446V146.303z
	 M330.078,204.893c0,0.252-0.177,0.466-0.431,0.506l-5.517,0.934c-0.026,0.01-0.056,0.01-0.085,0.01
	c-0.12,0-0.242-0.037-0.336-0.123c-0.111-0.093-0.178-0.241-0.178-0.393v-6.067c0-0.251,0.188-0.478,0.449-0.505l5.517-0.71
	c0.14-0.02,0.29,0.027,0.403,0.121c0.112,0.103,0.177,0.243,0.177,0.395V204.893z M330.078,193.222c0,0.272-0.196,0.496-0.468,0.516
	l-5.516,0.477c-0.02,0-0.027,0-0.049,0c-0.129,0-0.25-0.046-0.346-0.131c-0.111-0.102-0.168-0.244-0.168-0.383v-6.012
	c0-0.282,0.216-0.506,0.488-0.523l5.517-0.244c0.148-0.01,0.279,0.037,0.382,0.141c0.104,0.093,0.159,0.234,0.159,0.373V193.222z
	 M330.078,181.556c0,0.287-0.226,0.521-0.514,0.521l-5.519,0.02c-0.139,0-0.271-0.058-0.362-0.148
	c-0.095-0.096-0.151-0.236-0.151-0.367v-6.068c0-0.139,0.057-0.27,0.16-0.373c0.104-0.093,0.233-0.141,0.375-0.141l5.516,0.205
	c0.281,0.01,0.495,0.243,0.495,0.525V181.556z M330.078,169.896c0,0.137-0.056,0.279-0.159,0.373
	c-0.103,0.083-0.224,0.139-0.354,0.139c-0.019,0-0.027,0-0.038,0l-5.518-0.438c-0.271-0.03-0.477-0.244-0.477-0.523v-6.059
	c0-0.152,0.066-0.293,0.168-0.385c0.114-0.103,0.264-0.15,0.412-0.131l5.517,0.673c0.262,0.03,0.449,0.254,0.449,0.516V169.896z
	 M330.078,158.228c0,0.146-0.064,0.297-0.177,0.391c-0.095,0.085-0.216,0.121-0.337,0.121c-0.027,0-0.056,0-0.085,0l-5.516-0.898
	c-0.254-0.046-0.432-0.26-0.432-0.512v-6.062c0-0.159,0.066-0.31,0.188-0.402c0.121-0.103,0.281-0.139,0.432-0.113l5.516,1.132
	c0.244,0.048,0.411,0.262,0.411,0.506V158.228z M330.078,146.557c0,0.159-0.064,0.308-0.196,0.41
	c-0.094,0.065-0.205,0.111-0.317,0.111c-0.038,0-0.085-0.011-0.122-0.021l-5.517-1.354c-0.233-0.056-0.394-0.26-0.394-0.506v-6.057
	c0-0.169,0.076-0.32,0.206-0.413c0.132-0.103,0.29-0.131,0.449-0.083l5.517,1.58c0.226,0.063,0.374,0.26,0.374,0.496V146.557z
	 M339.952,203.219c0,0.252-0.186,0.469-0.43,0.514l-4.759,0.804c-0.03,0-0.056,0-0.085,0c-0.123,0-0.242-0.036-0.336-0.121
	c-0.111-0.092-0.188-0.242-0.188-0.393v-5.619c0-0.262,0.195-0.477,0.459-0.514l4.749-0.609c0.149-0.018,0.3,0.028,0.411,0.121
	c0.113,0.105,0.178,0.244,0.178,0.395V203.219z M339.952,192.372c0,0.271-0.205,0.496-0.477,0.516l-4.75,0.413
	c-0.018,0-0.028,0-0.047,0c-0.131,0-0.254-0.048-0.346-0.144c-0.113-0.093-0.168-0.231-0.168-0.372v-5.619
	c0-0.282,0.216-0.506,0.495-0.525l4.75-0.205c0.14-0.01,0.28,0.038,0.383,0.14c0.103,0.095,0.159,0.233,0.159,0.374V192.372z
	 M339.952,181.526c0,0.28-0.234,0.514-0.514,0.514l-4.76,0.02c-0.139,0-0.271-0.057-0.364-0.15
	c-0.103-0.103-0.159-0.233-0.159-0.364v-5.629c0-0.141,0.064-0.27,0.159-0.364c0.103-0.104,0.241-0.159,0.383-0.151l4.749,0.182
	c0.281,0.018,0.506,0.241,0.506,0.523V181.526z M339.952,170.671c0,0.146-0.064,0.289-0.168,0.383
	c-0.094,0.083-0.224,0.139-0.355,0.139c-0.01,0-0.028,0-0.037-0.008l-4.759-0.375c-0.263-0.016-0.478-0.242-0.478-0.514v-5.619
	c0-0.15,0.064-0.291,0.178-0.383c0.111-0.103,0.261-0.15,0.412-0.131l4.749,0.578c0.262,0.029,0.458,0.253,0.458,0.515V170.671z
	 M339.952,159.824c0,0.15-0.064,0.299-0.186,0.395c-0.095,0.084-0.206,0.129-0.338,0.129c-0.028,0-0.047-0.008-0.073-0.008
	l-4.762-0.777c-0.251-0.037-0.438-0.252-0.438-0.506v-5.627c0-0.152,0.076-0.299,0.195-0.402c0.123-0.094,0.282-0.131,0.431-0.104
	l4.761,0.975c0.232,0.043,0.41,0.26,0.41,0.503V159.824z M339.952,148.978c0,0.158-0.075,0.307-0.196,0.41
	c-0.093,0.076-0.206,0.113-0.317,0.113c-0.047,0-0.083-0.01-0.131-0.02l-4.752-1.168c-0.232-0.056-0.391-0.26-0.391-0.506v-5.619
	c0-0.158,0.074-0.307,0.205-0.412c0.121-0.094,0.299-0.129,0.449-0.084l4.76,1.367c0.214,0.064,0.373,0.271,0.373,0.495V148.978z
	 M348.527,201.76c0,0.254-0.178,0.468-0.43,0.514l-4.143,0.702c-0.027,0.01-0.057,0.01-0.087,0.01c-0.119,0-0.242-0.048-0.333-0.121
	c-0.123-0.105-0.19-0.244-0.19-0.393v-5.246c0-0.262,0.198-0.479,0.45-0.516l4.142-0.523c0.151-0.019,0.302,0.027,0.413,0.123
	c0.11,0.101,0.178,0.243,0.178,0.391V201.76z M348.527,191.625c0,0.271-0.206,0.495-0.478,0.523l-4.142,0.356
	c-0.01,0-0.028,0-0.04,0c-0.129,0-0.25-0.047-0.353-0.141c-0.104-0.095-0.171-0.233-0.171-0.375v-5.234
	c0-0.281,0.216-0.507,0.498-0.525l4.142-0.187c0.139,0,0.279,0.048,0.383,0.149c0.102,0.093,0.16,0.233,0.16,0.374V191.625z
	 M348.527,181.489c0,0.289-0.237,0.514-0.515,0.525l-4.145,0.008c-0.139,0-0.27-0.048-0.362-0.15
	c-0.102-0.094-0.161-0.225-0.161-0.363v-5.235c0-0.141,0.06-0.281,0.161-0.375c0.103-0.096,0.243-0.15,0.382-0.141l4.145,0.15
	c0.27,0.008,0.495,0.242,0.495,0.523V181.489z M348.527,171.353c0,0.149-0.059,0.29-0.17,0.383
	c-0.094,0.094-0.214,0.141-0.345,0.141c-0.017,0-0.028,0-0.046-0.01l-4.143-0.326c-0.264-0.021-0.479-0.244-0.479-0.514v-5.236
	c0-0.151,0.067-0.29,0.179-0.391c0.115-0.096,0.264-0.144,0.412-0.123l4.132,0.503c0.262,0.028,0.46,0.252,0.46,0.516V171.353z
	 M348.527,161.22c0,0.156-0.067,0.299-0.178,0.398c-0.104,0.074-0.215,0.123-0.337,0.123c-0.028,0-0.056-0.011-0.084-0.011
	l-4.142-0.672c-0.252-0.048-0.442-0.264-0.442-0.516v-5.236c0-0.159,0.075-0.298,0.198-0.401c0.123-0.092,0.27-0.143,0.433-0.103
	l4.14,0.841c0.234,0.048,0.412,0.264,0.412,0.504V161.22z M348.527,151.08c0,0.162-0.075,0.319-0.198,0.414
	c-0.091,0.074-0.206,0.111-0.316,0.111c-0.046,0-0.084-0.01-0.131-0.02l-4.143-1.01c-0.224-0.055-0.395-0.27-0.395-0.506v-5.244
	c0-0.158,0.087-0.309,0.208-0.412c0.131-0.092,0.298-0.131,0.458-0.083l4.143,1.188c0.214,0.065,0.374,0.27,0.374,0.505V151.08z
	 M365.742,207.558c0,0.233-0.169,0.438-0.393,0.506l-13.334,3.366c-0.038,0.008-0.085,0.008-0.121,0.008
	c-0.123,0-0.226-0.037-0.319-0.103c-0.131-0.104-0.204-0.252-0.204-0.411v-29.445c0-0.046,0.081-5.433,7.61-5.151
	c6.686,0.253,6.761,5.058,6.761,5.105V207.558z M371.334,197.9c0,0.252-0.179,0.466-0.431,0.514l-2.723,0.458
	c-0.027,0.008-0.055,0.008-0.083,0.008c-0.123,0-0.244-0.046-0.337-0.121c-0.111-0.103-0.179-0.242-0.179-0.402v-4.226
	c0-0.262,0.188-0.487,0.448-0.516l2.723-0.354c0.15-0.018,0.299,0.029,0.41,0.131c0.104,0.095,0.171,0.234,0.171,0.385V197.9z
	 M371.334,189.66c0,0.264-0.198,0.487-0.469,0.516l-2.72,0.233c-0.02,0-0.038,0-0.048,0c-0.131,0-0.254-0.047-0.356-0.131
	c-0.102-0.103-0.159-0.243-0.159-0.383v-4.236c0-0.28,0.214-0.504,0.488-0.514l2.729-0.121c0.142-0.01,0.28,0.035,0.371,0.139
	c0.107,0.095,0.163,0.234,0.163,0.375V189.66z M371.334,181.385c0,0.279-0.227,0.514-0.516,0.514l-2.721,0.01
	c-0.139,0-0.271-0.056-0.364-0.148c-0.094-0.104-0.151-0.234-0.151-0.365v-4.206c0-0.141,0.058-0.271,0.159-0.373
	c0.095-0.095,0.233-0.143,0.374-0.143l2.723,0.104c0.279,0.01,0.504,0.243,0.504,0.525v4.083H371.334z M371.334,173.167
	c0,0.148-0.056,0.29-0.163,0.383c-0.099,0.094-0.222,0.139-0.353,0.139c-0.008,0-0.028-0.006-0.036-0.006l-2.732-0.216
	c-0.262-0.021-0.468-0.244-0.468-0.514v-4.237c0-0.15,0.058-0.289,0.171-0.385c0.111-0.102,0.262-0.148,0.4-0.121l2.732,0.328
	c0.262,0.027,0.448,0.252,0.448,0.516V173.167z M371.334,164.929c0,0.15-0.067,0.289-0.179,0.393
	c-0.096,0.086-0.214,0.121-0.337,0.121c-0.028,0-0.056,0-0.084-0.008l-2.72-0.44c-0.254-0.036-0.44-0.253-0.44-0.505v-4.236
	c0-0.158,0.075-0.309,0.196-0.402c0.121-0.103,0.279-0.139,0.431-0.113l2.72,0.564c0.242,0.045,0.413,0.262,0.413,0.505V164.929z
	 M371.334,156.683c0,0.156-0.067,0.307-0.198,0.41c-0.092,0.074-0.207,0.113-0.317,0.113c-0.036,0-0.084-0.01-0.119-0.018
	l-2.725-0.664c-0.233-0.068-0.393-0.271-0.393-0.506v-4.237c0-0.159,0.075-0.317,0.206-0.413c0.123-0.101,0.29-0.127,0.448-0.082
	l2.723,0.776c0.224,0.065,0.375,0.272,0.375,0.496V156.683z M376.362,197.047c0,0.252-0.177,0.468-0.429,0.506l-2.45,0.42
	c-0.028,0.008-0.06,0.008-0.084,0.008c-0.123,0-0.243-0.045-0.337-0.121c-0.111-0.101-0.179-0.241-0.179-0.393v-4.019
	c0-0.264,0.187-0.478,0.452-0.516l2.447-0.308c0.15-0.02,0.289,0.028,0.402,0.121c0.111,0.104,0.177,0.244,0.177,0.393V197.047z
	 M376.362,189.221c0,0.271-0.196,0.496-0.464,0.516l-2.451,0.214c-0.023,0-0.029,0-0.048,0c-0.131,0-0.254-0.045-0.345-0.131
	c-0.115-0.103-0.171-0.243-0.171-0.383v-4.011c0-0.281,0.217-0.506,0.496-0.525l2.45-0.111c0.142,0,0.28,0.046,0.373,0.149
	c0.104,0.095,0.159,0.224,0.159,0.374V189.221z M376.362,181.395c0,0.29-0.223,0.523-0.512,0.523l-2.451,0.008
	c-0.139,0-0.273-0.055-0.364-0.148c-0.096-0.103-0.151-0.233-0.151-0.373v-4.012c0-0.139,0.056-0.279,0.159-0.373
	c0.103-0.103,0.233-0.15,0.375-0.15l2.448,0.095c0.281,0.019,0.496,0.242,0.496,0.522V181.395z M376.362,173.57
	c0,0.149-0.056,0.28-0.159,0.383c-0.101,0.084-0.222,0.133-0.353,0.133c-0.012,0-0.028,0-0.04,0l-2.448-0.189
	c-0.271-0.026-0.479-0.252-0.479-0.521v-4.012c0-0.152,0.056-0.291,0.179-0.393c0.104-0.094,0.252-0.143,0.402-0.123l2.449,0.297
	c0.262,0.03,0.448,0.254,0.448,0.516V173.57z M376.362,165.742c0,0.161-0.065,0.3-0.177,0.393c-0.093,0.086-0.214,0.133-0.335,0.133
	c-0.028,0-0.056-0.01-0.086-0.01l-2.45-0.402c-0.252-0.037-0.431-0.252-0.431-0.506v-4.021c0-0.148,0.067-0.3,0.187-0.402
	c0.123-0.093,0.282-0.131,0.433-0.103l2.448,0.495c0.244,0.058,0.411,0.273,0.411,0.516V165.742z M376.362,157.918
	c0,0.156-0.065,0.31-0.196,0.41c-0.094,0.075-0.204,0.111-0.315,0.111c-0.04,0-0.086-0.009-0.123-0.019l-2.451-0.598
	c-0.233-0.057-0.393-0.262-0.393-0.506v-4.012c0-0.166,0.076-0.318,0.207-0.41c0.131-0.104,0.299-0.133,0.449-0.084l2.449,0.701
	c0.224,0.053,0.373,0.262,0.373,0.495V157.918z M380.918,196.282c0,0.252-0.19,0.466-0.439,0.504l-2.217,0.375
	c-0.028,0.01-0.056,0.01-0.084,0.01c-0.122,0-0.243-0.04-0.337-0.123c-0.11-0.094-0.178-0.242-0.178-0.393v-3.815
	c0-0.262,0.186-0.485,0.449-0.515l2.215-0.28c0.151-0.018,0.3,0.028,0.413,0.123c0.11,0.094,0.166,0.242,0.166,0.393v3.722H380.918z
	 M380.918,188.829c0,0.271-0.206,0.496-0.478,0.516l-2.217,0.194c-0.018,0-0.027,0-0.046,0c-0.122,0-0.253-0.046-0.347-0.139
	c-0.113-0.096-0.168-0.234-0.168-0.375v-3.814c0-0.28,0.216-0.514,0.495-0.523l2.217-0.104c0.139,0,0.279,0.048,0.375,0.148
	c0.101,0.094,0.168,0.236,0.168,0.375V188.829z M380.918,181.385c0,0.279-0.233,0.514-0.523,0.514l-2.217,0.01
	c-0.131,0-0.271-0.056-0.364-0.148c-0.096-0.104-0.15-0.234-0.15-0.365v-3.814c0-0.148,0.055-0.278,0.158-0.382
	c0.104-0.095,0.234-0.15,0.375-0.141l2.217,0.083c0.279,0.01,0.505,0.244,0.505,0.522V181.385z M380.918,173.935
	c0,0.141-0.067,0.279-0.168,0.383c-0.105,0.083-0.227,0.131-0.355,0.131c-0.012,0-0.027,0-0.039,0l-2.217-0.179
	c-0.27-0.018-0.476-0.243-0.476-0.513v-3.817c0-0.147,0.067-0.29,0.178-0.391c0.104-0.093,0.25-0.141,0.4-0.123l2.217,0.262
	c0.262,0.038,0.46,0.252,0.46,0.514V173.935z M380.918,166.482c0,0.158-0.075,0.299-0.19,0.393
	c-0.091,0.086-0.214,0.121-0.333,0.121c-0.027,0-0.06,0-0.087,0l-2.217-0.365c-0.25-0.035-0.428-0.252-0.428-0.506v-3.814
	c0-0.158,0.067-0.307,0.186-0.4c0.123-0.104,0.282-0.139,0.433-0.113l2.217,0.458c0.242,0.048,0.42,0.262,0.42,0.504V166.482z
	 M380.918,159.039c0,0.16-0.075,0.307-0.206,0.402c-0.085,0.076-0.206,0.111-0.317,0.111c-0.039,0-0.087,0-0.123-0.02l-2.216-0.539
	c-0.234-0.059-0.393-0.264-0.393-0.498v-3.825c0-0.157,0.075-0.308,0.206-0.41c0.131-0.095,0.297-0.131,0.448-0.083l2.217,0.637
	c0.224,0.062,0.372,0.27,0.372,0.493v3.731H380.918z M380.918,159.039"/>
<g>
	<path fill="#3A67B4" d="M475.953,12.812h-45.724c-1.99,0-3.606,1.62-3.606,3.607v82.785c0,1.988,1.616,3.607,3.606,3.607h45.724
		c1.99,0,3.604-1.619,3.604-3.607V16.419C479.558,14.432,477.943,12.812,475.953,12.812L475.953,12.812z M453.091,96.778
		c-2.159,0-3.912-1.759-3.912-3.912c0-2.158,1.753-3.912,3.912-3.912c2.156,0,3.911,1.754,3.911,3.912
		C457.002,95.019,455.247,96.778,453.091,96.778L453.091,96.778z M471.694,84.673h-37.208V20.675h37.208V84.673z M471.694,84.673"/>
	<path fill="#3A67B4" d="M452.883,69.558c0,1.378-1.119,2.495-2.494,2.495c-1.381,0-2.498-1.117-2.498-2.495
		c0-1.38,1.117-2.497,2.498-2.497C451.764,67.061,452.883,68.178,452.883,69.558L452.883,69.558z M452.883,69.558"/>
	<path fill="#3A67B4" d="M459.562,67.061c-1.375,0-2.497,1.117-2.497,2.497c0,1.378,1.122,2.495,2.497,2.495
		c1.381,0,2.498-1.117,2.498-2.495C462.061,68.178,460.943,67.061,459.562,67.061L459.562,67.061z M459.562,67.061"/>
	<path fill="#3A67B4" d="M438.441,47.471l1.764,1.092l6.086,15.769c0.186,0.482,0.65,0.8,1.166,0.8h15.037
		c0.513,0,0.98-0.317,1.166-0.8l4.99-12.985c0.151-0.385,0.098-0.814-0.132-1.156c-0.234-0.336-0.619-0.542-1.034-0.542h-22.325
		l-1.283-3.275c-0.166-0.427-0.466-0.786-0.854-1.027l-2.358-1.461c-0.99-0.612-2.291-0.308-2.905,0.683
		C437.146,45.556,437.451,46.858,438.441,47.471L438.441,47.471z M438.441,47.471"/>
</g>
<g>
	<circle fill="none" stroke="#FFFFFF" stroke-width="2" stroke-miterlimit="10" cx="-118.598" cy="13.229" r="70"/>
	<g>
		<path fill="#FFFFFF" d="M-98.021,3.198v-9.696h-4.898v23.636c-4.489,2.533-9.359-0.354-9.359-0.354S-113.996-12.281-127-12.281
			h-13.726v26.73h-4.696c-4.693,0,0,16.616,0,16.616h2.912c0.202-4.129,3.613-7.429,7.793-7.429c4.175,0,7.59,3.3,7.787,7.429h9.506
			c0-0.033-0.004-0.076-0.004-0.111c0-4.578,3.729-8.302,8.31-8.302c4.576,0,8.305,3.724,8.305,8.302
			c0,0.536-0.054,1.053-0.149,1.559h2.942V7.221h17.78V5.418L-98.021,3.198z M-122.665,17.697L-127,10.113h-9.392V-7.944H-127
			c3.877,0,6.021,5.402,7.137,9.931c0.712,2.896,2.904,13.417,3.108,15.71H-122.665z M-122.665,17.697"/>
		<path fill="#FFFFFF" d="M-133.141,0h-2.167v7.944h7.95V5.782h-5.783V0z M-133.141,0"/>
		<path fill="#FFFFFF" d="M-109.077,23.611c-3.989,0-7.215,3.229-7.215,7.211c0,3.983,3.226,7.213,7.215,7.213
			c3.979,0,7.205-3.229,7.205-7.213C-101.872,26.84-105.098,23.611-109.077,23.611L-109.077,23.611z M-109.077,34.998
			c-2.308,0-4.175-1.871-4.175-4.176c0-2.299,1.867-4.173,4.175-4.173c2.298,0,4.17,1.874,4.17,4.173
			C-104.907,33.126-106.779,34.998-109.077,34.998L-109.077,34.998z M-109.077,34.998"/>
		<path fill="#FFFFFF" d="M-134.924,24.938c-3.781,0-6.849,3.064-6.849,6.852c0,3.779,3.067,6.845,6.849,6.845
			c3.786,0,6.854-3.065,6.854-6.845C-128.07,28.002-131.138,24.938-134.924,24.938L-134.924,24.938z M-134.924,35.751
			c-2.184,0-3.963-1.776-3.963-3.962c0-2.189,1.779-3.968,3.963-3.968c2.188,0,3.967,1.778,3.967,3.968
			C-130.957,33.975-132.736,35.751-134.924,35.751L-134.924,35.751z M-134.924,35.751"/>
	</g>
</g>
<g>
	<path fill="none" stroke="#FFFFFF" stroke-width="2" stroke-miterlimit="10" d="M-66.43,117.399
		c38.566-2.669,71.992,26.434,74.662,64.994c2.667,38.566-26.435,71.994-65,74.666c-38.565,2.665-71.992-26.433-74.661-65.002
		C-134.095,153.493-104.997,120.065-66.43,117.399z"/>
	<g>
		<path fill="#FFFFFF" d="M-22.091,198.008v-0.948l-7.956-26.129H-47.65v-6.253h-42.318v16.173h-9.017l-3.816,5.08h12.833v3.815
			h-14.414l-3.816,5.082h18.22v3.18H-92v8.571h2.021v1.274h1.376c0.773,4.559,4.736,8.051,9.52,8.051
			c4.772,0,8.737-3.492,9.509-8.051h21.688c0.765,4.559,4.728,8.051,9.514,8.051c4.771,0,8.736-3.492,9.507-8.051h6.774v-1.274
			h2.224v-8.571H-22.091z M-79.083,211.36c-2.819,0-5.118-2.294-5.118-5.116c0-2.821,2.286-5.118,5.118-5.118
			c2.81,0,5.108,2.297,5.108,5.118C-73.975,209.066-76.273,211.36-79.083,211.36L-79.083,211.36z M-38.372,211.36
			c-2.822,0-5.12-2.294-5.12-5.116c0-2.821,2.298-5.118,5.12-5.118c2.819,0,5.107,2.297,5.107,5.118
			C-33.265,209.066-35.553,211.36-38.372,211.36L-38.372,211.36z M-43.108,187.047v-11.576h9.695l3.527,11.576H-43.108z
			 M-43.108,187.047"/>
	</g>
</g>
<g>
	<circle fill="none" stroke="#FFFFFF" stroke-width="2" stroke-miterlimit="10" cx="-247.597" cy="164.229" r="70"/>
	<g>
		<path fill="#FFFFFF" d="M-273.582,143.203c-1.21-3.669,0.791-7.64,4.46-8.852c3.669-1.21,7.64,0.791,8.848,4.458l13.772,41.734
			c-1.282-0.338-2.646-0.4-4.013-0.15l-13.328-40.404c-0.562-1.699-2.401-2.629-4.102-2.064c-1.699,0.561-2.626,2.398-2.065,4.1
			c0.324,0.984-0.211,2.049-1.198,2.373C-272.191,144.722-273.256,144.189-273.582,143.203L-273.582,143.203z M-219.328,175.939
			l-22.562,7.444c0.801,0.912,1.437,1.99,1.839,3.212c0.013,0.045,0.024,0.087,0.032,0.131l21.87-7.213
			c0.985-0.328,1.521-1.389,1.195-2.375S-218.342,175.617-219.328,175.939L-219.328,175.939z M-241.838,187.185
			c1.28,3.873-0.825,8.051-4.698,9.329c-3.875,1.277-8.053-0.825-9.331-4.702c-1.28-3.872,0.825-8.048,4.699-9.326
			C-247.293,181.208-243.113,183.311-241.838,187.185L-241.838,187.185z M-245.344,188.34c-0.639-1.936-2.728-2.986-4.667-2.349
			c-1.936,0.638-2.987,2.728-2.349,4.663c0.638,1.938,2.727,2.991,4.664,2.352C-245.758,192.366-244.704,190.281-245.344,188.34
			L-245.344,188.34z M-225.032,147.633l7.66,23.213c0.165,0.491-0.104,1.024-0.596,1.188l-24.107,7.954
			c-0.495,0.163-1.026-0.104-1.188-0.598l-7.661-23.216c-0.161-0.491,0.106-1.026,0.6-1.188l24.108-7.954
			C-225.725,146.87-225.193,147.139-225.032,147.633L-225.032,147.633z M-228.22,161.118l-8.208-4.517l-3.908,8.514l2.588,1.191
			l1.69-3.683l3.052,9.245l2.918-0.964l-3.051-9.244l3.55,1.953L-228.22,161.118z M-235.381,147.266l-4.899-14.841
			c-0.104-0.313-0.442-0.487-0.757-0.383l-4.198,1.385l-0.023,0.038l-0.032-0.02l-2.217,0.73l1.824,5.531l-2.5,0.824l-1.824-5.53
			l-2.216,0.732l-0.016,0.036l-0.038-0.02l-4.172,1.378c-0.316,0.103-0.487,0.442-0.384,0.759l4.897,14.842
			c0.104,0.318,0.445,0.486,0.761,0.383l15.414-5.082C-235.449,147.922-235.276,147.584-235.381,147.266L-235.381,147.266z
			 M-235.381,147.266"/>
	</g>
</g>
<g>
	<path fill="none" stroke="#FFFFFF" stroke-width="2" stroke-miterlimit="10" d="M-199.596,339.227
		c0,38.662-31.342,70.002-70.003,70.002c-38.66,0-70-31.34-70-70.002c0-38.658,31.34-69.998,70-69.998
		C-230.938,269.229-199.596,300.569-199.596,339.227z"/>
	<g>
		<path fill="#FFFFFF" d="M-233.739,321.974l-32.353-13.214c-1.107-0.453-2.354-0.448-3.459,0.01l-31.801,13.2
			c-0.849,0.353-1.401,1.179-1.401,2.099v4.732c0,1.252,1.017,2.27,2.272,2.27h1.703c0.314,0,0.568,0.254,0.568,0.568v30.102
			c0,2.824,2.291,5.112,5.112,5.112h1.485v-27.312h48.147v27.312h1.481c2.825,0,5.116-2.288,5.116-5.112v-30.102
			c0-0.314,0.254-0.568,0.567-0.568h1.703c1.252,0,2.271-1.018,2.271-2.27v-4.722C-232.326,323.153-232.882,322.325-233.739,321.974
			L-233.739,321.974z M-280.035,331.071h-11.36v-5.111h11.36V331.071z M-261.861,331.071h-11.358v-5.111h11.358V331.071z
			 M-243.683,331.071h-11.359v-5.111h11.359V331.071z M-277.08,355.5h-3.232v4.458h-1.51V355.5h-3.252
			c-1.177,0-2.129,0.952-2.129,2.128v7.097c0,1.178,0.954,2.129,2.129,2.129h7.995c1.175,0,2.129-0.951,2.129-2.129v-7.097
			C-274.951,356.452-275.905,355.5-277.08,355.5L-277.08,355.5z M-263.535,355.5h-3.232v4.458h-1.513V355.5h-3.253
			c-1.175,0-2.127,0.952-2.127,2.128v7.097c0,1.178,0.952,2.129,2.127,2.129h7.998c1.171,0,2.125-0.951,2.125-2.129v-7.097
			C-261.41,356.452-262.364,355.5-263.535,355.5L-263.535,355.5z M-249.74,355.5h-3.236v4.458h-1.51V355.5h-3.253
			c-1.175,0-2.129,0.952-2.129,2.128v7.097c0,1.178,0.954,2.129,2.129,2.129h7.999c1.171,0,2.125-0.951,2.125-2.129v-7.097
			C-247.615,356.452-248.569,355.5-249.74,355.5L-249.74,355.5z M-270.279,342.689h-3.234v4.462h-1.509v-4.462h-3.253
			c-1.175,0-2.129,0.954-2.129,2.129v7.098c0,1.177,0.954,2.129,2.129,2.129h7.997c1.173,0,2.128-0.952,2.128-2.129v-7.098
			C-268.151,343.643-269.106,342.689-270.279,342.689L-270.279,342.689z M-256.406,342.689h-3.236v4.462h-1.51v-4.462h-3.249
			c-1.179,0-2.129,0.954-2.129,2.129v7.098c0,1.177,0.95,2.129,2.129,2.129h7.995c1.175,0,2.129-0.952,2.129-2.129v-7.098
			C-254.277,343.643-255.231,342.689-256.406,342.689L-256.406,342.689z M-256.406,342.689"/>
	</g>
</g>
<g>
	<circle fill="none" stroke="#FFFFFF" stroke-width="2" stroke-miterlimit="10" cx="-118.597" cy="347.229" r="70"/>
	<g>
		<g>
			<path fill="#FFFFFF" d="M-92.47,326.229h-12.575c-2.963,0-7.104,0.237-9.197,2.332l-21.122,20.379
				c-2.093,2.096-2.093,5.153,0,7.251l15.731,15.546c2.097,2.095,5.528,2,7.621-0.092l20.86-21.167
				c2.097-2.095,3.555-6.28,3.555-9.243v-12.574C-87.598,325.698-89.507,326.229-92.47,326.229z M-99.655,341.235
				c-2.979,0-5.39-2.414-5.39-5.39c0-2.975,2.411-5.39,5.39-5.39c2.976,0,5.387,2.415,5.387,5.39
				C-94.269,338.821-96.68,341.235-99.655,341.235z"/>
		</g>
		<path fill="#FFFFFF" d="M-143.292,353.281l19.219,19.219c-2.035,1.075-4.629,0.761-6.336-0.949l-15.731-15.728
			c-2.095-2.097-2.095-5.526,0-7.621l21.119-21.119c2.097-2.096,6.235-3.811,9.197-3.811l-27.468,27.469
			C-143.991,351.44-143.991,352.583-143.292,353.281L-143.292,353.281z"/>
	</g>
</g>
<g>
	<path fill="none" stroke="#FFFFFF" stroke-width="2" stroke-miterlimit="10" d="M42.57,256.399
		c38.566-2.669,71.992,26.434,74.662,64.994c2.667,38.566-26.435,71.994-65,74.666c-38.565,2.665-71.992-26.433-74.661-65.002
		C-25.095,292.493,4.003,259.065,42.57,256.399z"/>
	<g>
		<path fill="#FFFFFF" d="M26.679,339.063L26.635,319c-0.002-0.912,0.932-1.532,1.773-1.172l16.91,7.227
			c0.467,0.201,0.771,0.66,0.775,1.168l0.042,20.065c0.002,0.914-0.932,1.529-1.773,1.171l-16.91-7.229
			C26.985,340.032,26.681,339.573,26.679,339.063L26.679,339.063z"/>
		<path fill="#FFFFFF" d="M67.151,317.633c0.671,0,1.272,0.539,1.274,1.271l0.044,20.062c0.002,0.51-0.3,0.971-0.767,1.172
			l-16.877,7.31c-0.165,0.072-0.337,0.104-0.504,0.104c-0.668,0.002-1.271-0.537-1.271-1.268l-0.044-20.065
			c-0.005-0.508,0.298-0.969,0.765-1.172l16.877-7.31C66.815,317.667,66.984,317.633,67.151,317.633L67.151,317.633z"/>
		<path fill="#FFFFFF" d="M47.28,304.397c0.175-0.002,0.352,0.033,0.517,0.106l17.793,7.845c1.009,0.443,1.013,1.876,0.006,2.324
			L47.839,322.6c-0.163,0.074-0.34,0.109-0.517,0.109c-0.175,0.002-0.35-0.035-0.515-0.105l-17.791-7.845
			c-1.008-0.444-1.013-1.876-0.006-2.324l17.757-7.928C46.929,304.433,47.104,304.397,47.28,304.397L47.28,304.397z"/>
		<polygon fill="#FFFFFF" points="51.365,362.317 51.365,352.701 43.454,352.701 43.454,362.317 35.872,362.317 47.408,373.846 
			58.944,362.317 		"/>
		<polygon fill="#FFFFFF" points="83.267,322.484 73.656,322.484 73.656,330.395 83.267,330.395 83.267,337.976 94.801,326.44 
			83.267,314.905 		"/>
		<polygon fill="#FFFFFF" points="43.436,290.579 43.436,300.192 51.349,300.192 51.349,290.579 58.929,290.579 47.392,279.048 
			35.856,290.579 		"/>
		<polygon fill="#FFFFFF" points="11.534,330.414 21.146,330.414 21.146,322.5 11.534,322.5 11.534,314.92 0,326.455 
			11.534,337.993 		"/>
		<path fill="#FFFFFF" d="M11.534,330.414"/>
	</g>
</g>
<g>
	<circle fill="none" stroke="#FFFFFF" stroke-width="2" stroke-miterlimit="10" cx="118.403" cy="513.229" r="70"/>
	<g>
		<path fill="#FFFFFF" d="M117.461,513.796c-2.4-2.449-8.543-7.825-14.088-5.794l-16.875,16.648c0.091-0.01,0.169-0.032,0.258-0.032
			c3.872-0.518,9.463,0.089,14.853,5.545c4.346,4.411,6.209,8.453,5.256,11.394c-0.542,1.618-1.898,2.729-3.742,3.033
			c-0.324,0.044-0.684,0.078-1.055,0.078c-3.109,0-7.71-1.93-11.899-7.59l2.595-1.92c3.411,4.591,7.542,6.636,9.835,6.243
			c0.965-0.169,1.131-0.687,1.189-0.854c0.402-1.235-0.531-4.109-4.48-8.106c-6.4-6.487-12.867-4.805-15.111-3.919
			c-0.606,3.705,1.493,8.882,5.724,13.169c5.469,5.547,12.473,7.567,15.93,4.693c0.023,0,0.037-0.01,0.037-0.01l18.793-18.524
			c0.29-0.751,0.584-2.447-0.81-5.219C122.367,519.609,120.031,516.389,117.461,513.796L117.461,513.796z M117.461,513.796"/>
		<path fill="#FFFFFF" d="M150.335,482.114c-5.636-5.715-12.913-7.679-16.246-4.393c-0.101,0.094-13.565,13.351-13.565,13.351
			c4.122,1.66,8.533,4.695,12.128,8.353c4.166,4.209,6.771,8.645,7.732,12.921c0,0,14.032-13.829,14.125-13.907
			C157.846,495.147,155.979,487.837,150.335,482.114L150.335,482.114z M150.335,482.114"/>
		<path fill="#FFFFFF" d="M140.308,519.878c-1.73-0.402-3.011-0.547-3.2-0.562c0.395-1.358,0.527-2.749,0.427-4.142
			c-0.346-4.737-3.312-9.542-7.185-13.473c-3.414-3.468-7.532-6.241-11.201-7.688c-0.43-0.156-0.832-0.27-1.238-0.338
			l-10.846,10.688c4.492,0.436,8.982,3.391,12.699,7.162c2.953,2.999,5.421,6.514,7.003,9.657c0.628,1.268,1.011,2.413,1.204,3.424
			c0.752,3.838-1.055,5.792-1.055,5.792l6.018-5.928c0.245-0.056,0.515-0.124,0.772-0.225c0.282,1.292,0.338,2.55,0.237,3.762
			c-0.587,6.636-5.997,11.731-5.997,11.731l6.4,2.762c8.026-6.443,5.446-14.246,3.32-18.175c-0.491-0.909-0.954-1.606-1.252-2.043
			c-0.028-0.023-0.04-0.046-0.048-0.08c0.008,0.021,0.02,0.034,0.048,0.057c0.761,0.336,1.481,0.752,2.117,1.201
			c6.421,4.468,6.852,13.752,6.852,13.752l6.264-3.053C151.985,524.101,144.707,520.891,140.308,519.878L140.308,519.878z
			 M140.308,519.878"/>
	</g>
</g>
<g>
	<path fill="none" stroke="#FFFFFF" stroke-width="2" stroke-miterlimit="10" d="M291.404,378.227
		c0,38.662-31.342,70.002-70.004,70.002c-38.66,0-70-31.34-70-70.002c0-38.658,31.34-69.998,70-69.998
		C260.062,308.229,291.404,339.569,291.404,378.227z"/>
	<g>
		<path fill="#FFFFFF" d="M243.739,382.114c0,12.058-9.802,21.876-21.876,21.876c-12.069,0-21.888-9.818-21.888-21.876
			c0-12.062,9.818-21.893,21.888-21.893l6.45,0.082l-3.192,3.183l7.749,7.729l16.437-16.453l-16.437-16.413l-7.749,7.731
			l3.232,3.205h-6.49c-18.119,0-32.826,14.691-32.826,32.828c0,18.122,14.707,32.812,32.826,32.812
			c18.108,0,32.817-14.69,32.817-32.812H243.739z M243.739,382.114"/>
	</g>
</g>
</svg>
