<?xml version="1.0" encoding="utf-8"?>
<!-- Generator: Adobe Illustrator 16.0.0, SVG Export Plug-In . SVG Version: 6.00 Build 0)  -->
<!DOCTYPE svg PUBLIC "-//W3C//DTD SVG 1.1//EN" "http://www.w3.org/Graphics/SVG/1.1/DTD/svg11.dtd">
<svg version="1.1" id="Capa_1" xmlns="http://www.w3.org/2000/svg" xmlns:xlink="http://www.w3.org/1999/xlink" x="0px" y="0px"
	 width="178.49px" height="100px" viewBox="0 0 178.49 100" enable-background="new 0 0 178.49 100" xml:space="preserve">
<g>
	<path fill="#3A67B4" d="M170.217,64.9v-1.832l-15.355-50.442h-33.99V0.554H39.17v31.223H21.764l-7.367,9.809H39.17v7.364H11.344
		l-7.365,9.81h35.174V64.9h-3.898v16.547h3.898v2.459h2.66c1.49,8.802,9.141,15.539,18.375,15.539
		c9.217,0,16.871-6.737,18.359-15.539h41.875c1.473,8.802,9.125,15.539,18.359,15.539c9.215,0,16.869-6.737,18.357-15.539h13.078
		v-2.459h4.293V64.9H170.217z M60.188,90.674c-5.441,0-9.879-4.432-9.879-9.875c0-5.449,4.418-9.88,9.879-9.88
		c5.426,0,9.863,4.432,9.863,9.88C70.051,86.243,65.613,90.674,60.188,90.674L60.188,90.674z M138.781,90.674
		c-5.445,0-9.883-4.432-9.883-9.875c0-5.449,4.438-9.88,9.883-9.88c5.441,0,9.861,4.432,9.861,9.88
		C148.643,86.243,144.223,90.674,138.781,90.674L138.781,90.674z M129.637,43.738V21.392h18.721l6.807,22.347H129.637z
		 M129.637,43.738"/>
</g>
</svg>
