<?xml version="1.0" encoding="utf-8"?>
<!-- Generator: Adobe Illustrator 16.0.0, SVG Export Plug-In . SVG Version: 6.00 Build 0)  -->
<!DOCTYPE svg PUBLIC "-//W3C//DTD SVG 1.1//EN" "http://www.w3.org/Graphics/SVG/1.1/DTD/svg11.dtd">
<svg version="1.1" id="Capa_1" xmlns="http://www.w3.org/2000/svg" xmlns:xlink="http://www.w3.org/1999/xlink" x="0px" y="0px"
	 width="100px" height="100px" viewBox="-25 -25 100 100" enable-background="new -25 -25 100 100" xml:space="preserve">
<g>
	<g>
		<path fill="#3A67B4" d="M67-13.681h-84c-3.309,0-6,2.688-6,6v53.999c0,3.313,2.691,6,6,6h34.389c-1.308-2.289-2.913-5.238-4.91-9
			h-26.479v-48H64v48h-3.958v6.477c0,0.206-0.028,1.17-0.246,2.52H67c3.308,0,6-2.688,6-6V-7.681C73-10.993,70.308-13.681,67-13.681
			z M68.47,22.319c-1.661,0-2.998-1.342-2.998-2.999c0-1.656,1.337-3.001,2.998-3.001c1.654,0,3,1.346,3,3.001
			S70.124,22.319,68.47,22.319z"/>
		<path fill="#3A67B4" d="M51.979,20.02h-0.338c-1.967,0-3.567,1.597-3.567,3.559v3.184h-0.438v-3.184
			c0-1.964-1.604-3.559-3.564-3.559h-0.349c-1.961,0-3.559,1.597-3.559,3.559v3.184h-0.442v-3.184c0-1.964-1.602-3.559-3.559-3.559
			H35.81c-1.96,0-3.561,1.597-3.561,3.559v3.184h-0.232V6.422c0-1.977-1.598-3.583-3.582-3.583l-0.349-0.002
			c-1.971,0-3.575,1.607-3.575,3.585v31.122c-0.957-1.08-1.797-2.179-2.567-3.173c-1.713-2.217-3.059-3.972-4.58-4.32
			c-1.688-0.401-3.247,0.161-3.998,1.38c-0.704,1.157-0.597,2.751,0.293,4.478c1.951,3.731,11.323,20.121,11.329,20.121
			c0.741,1.794,4.01,7.651,15.019,7.651v-0.39l0.013,0.39c8.007,0,11.798-3.776,13.569-6.944c1.913-3.422,1.942-6.793,1.942-6.939
			V23.579C55.542,21.613,53.935,20.02,51.979,20.02z"/>
	</g>
</g>
</svg>
