<?xml version="1.0" encoding="utf-8"?>
<!-- Generator: Adobe Illustrator 16.0.0, SVG Export Plug-In . SVG Version: 6.00 Build 0)  -->
<!DOCTYPE svg PUBLIC "-//W3C//DTD SVG 1.1//EN" "http://www.w3.org/Graphics/SVG/1.1/DTD/svg11.dtd">
<svg version="1.1" id="Capa_1" xmlns="http://www.w3.org/2000/svg" xmlns:xlink="http://www.w3.org/1999/xlink" x="0px" y="0px"
	 width="373.5px" height="140.5px" viewBox="-6.5 -55.5 373.5 140.5" enable-background="new -6.5 -55.5 373.5 140.5"
	 xml:space="preserve">
<g>
	<g>
		<path fill="#FFFFFF" d="M-397.36-81.506c1.076-3.702,2.17-7.4,3.224-11.108c0.768-2.704,1.509-5.419,2.217-8.14
			c1.035-3.979,3.451-6.294,7.667-6.51c0.234-0.012,0.465-0.059,0.698-0.083c5.748-0.603,7.803,1.054,8.227,6.794
			c0.415,5.613,0.701,11.236,1.116,16.85c0.056,0.76,0.535,1.488,0.818,2.231c0.46-0.649,1.152-1.235,1.346-1.956
			c1.612-5.997,3.131-12.021,4.683-18.031c0.175-0.682,0.35-1.364,0.575-2.029c0.87-2.574,2.075-3.555,4.774-3.595
			c4.913-0.071,4.3-0.412,3.175,3.841c-1.917,7.251-4.114,14.434-5.797,21.736c-1.73,7.51-7.688,8.154-13.747,6.82
			c-1.563-0.344-2.401-1.724-2.655-3.232c-0.34-2.018-0.53-4.066-0.66-6.109c-0.302-4.738-0.499-9.484-0.822-14.223
			c-0.043-0.631-0.571-1.229-0.875-1.842c-0.427,0.555-1.077,1.049-1.248,1.674c-1.624,5.934-3.167,11.889-4.733,17.838
			c-1.495,5.68-2.09,6.137-7.983,6.115C-397.36-76.812-397.36-79.159-397.36-81.506z"/>
		<path fill="#FFFFFF" d="M-214.011-73.674c-2.258-0.307-4.557-0.438-6.767-0.953c-5.074-1.184-7.692-4.637-7.421-9.833
			c0.274-5.263,1.574-10.299,4.038-14.987c2.572-4.896,6.64-7.55,12.147-8.125c3.886-0.406,7.733-0.371,11.506,0.682
			c4.73,1.321,7.009,4.207,6.968,9.074c-0.051,5.971-1.635,11.589-4.651,16.741c-3.167,5.409-8.377,6.969-14.212,7.204
			c-0.527,0.021-1.055,0.002-1.583,0.002C-213.994-73.804-214.002-73.738-214.011-73.674z M-212.254-80.82
			c2.095-0.037,4.723-0.314,6.21-2.886c2.289-3.958,3.537-8.286,3.837-12.841c0.133-2.012-0.776-3.27-2.779-3.721
			c-1.803-0.404-3.705-0.525-5.56-0.498c-2.856,0.043-4.926,1.527-5.938,4.188c-0.976,2.564-1.854,5.182-2.547,7.836
			C-220.574-82.833-218.943-80.82-212.254-80.82z"/>
		<path fill="#FFFFFF" d="M-246.635-94.805c0.703,0,1.407,0.001,2.111,0c4.611-0.004,5.958-1.019,7.25-5.492
			c0.325-1.125,0.599-2.266,0.936-3.387c0.652-2.174,2.169-3.352,4.4-3.381c6.295-0.081,5.21-0.66,3.865,4.481
			c-2.031,7.762-4.148,15.502-6.256,23.244c-1.177,4.324-4.625,6.197-8.9,4.776c-0.329-0.11-0.624-1.149-0.502-1.651
			c0.771-3.188,1.67-6.342,2.512-9.512c0.531-1.998,0.339-2.242-1.748-2.252c-2.169-0.01-4.339-0.03-6.508,0.008
			c-3.367,0.059-4.91,1.168-5.967,4.379c-0.567,1.723-0.95,3.504-1.477,5.24c-0.88,2.898-2.082,3.793-5.078,3.885
			c-4.592,0.141-4.587,0.143-3.364-4.375c2.159-7.969,4.286-15.949,6.48-23.909c1.021-3.701,5.222-5.737,8.782-4.245
			c0.339,0.142,0.554,1.199,0.425,1.737c-0.65,2.734-1.441,5.433-2.167,8.15c-0.544,2.039-0.357,2.287,1.687,2.303
			C-248.98-94.797-247.808-94.805-246.635-94.805z"/>
		<path fill="#FFFFFF" d="M-349.171-74.461c-3.636,0-7.271-0.033-10.906,0.017c-1.349,0.019-1.772-0.354-1.386-1.76
			c2.096-7.624,4.048-15.288,6.192-22.897c1.677-5.947,4.543-7.989,10.753-8.005c5.101-0.013,10.203-0.008,15.304,0
			c2.006,0.003,2.117,0.167,1.565,2.148c-1.023,3.679-2.133,4.537-5.991,4.562c-3.107,0.021-6.216-0.039-9.323,0.031
			c-3.154,0.073-4.078,0.939-4.917,3.948c-0.444,1.593,0.159,1.998,1.614,1.983c3.812-0.039,7.623-0.02,11.434-0.01
			c1.951,0.004,2.074,0.174,1.579,2.006c-1.034,3.822-2.137,4.675-6.054,4.711c-2.638,0.025-5.278,0-7.911,0.118
			c-2.683,0.12-4.927,2.866-4.379,5.444c0.097,0.457,1.197,0.985,1.842,0.996c5.042,0.082,10.084,0.043,15.127,0.049
			c1.961,0.002,2.058,0.135,1.574,1.987c-0.976,3.729-2.18,4.659-6.089,4.669C-342.486-74.453-345.829-74.461-349.171-74.461z"/>
		<path fill="#FFFFFF" d="M-182.082-74.463c-3.577,0.002-7.155-0.05-10.73,0.026c-1.502,0.032-2.026-0.374-1.599-1.925
			c2.083-7.565,4.042-15.166,6.183-22.717c1.703-6.003,4.502-8.012,10.717-8.028c5.16-0.013,10.32,0.037,15.479-0.028
			c1.479-0.019,1.853,0.472,1.523,1.874c-0.884,3.759-2.192,4.841-6.131,4.866c-3.166,0.02-6.334-0.046-9.499,0.041
			c-2.964,0.082-4.05,1.088-4.734,3.956c-0.319,1.336-0.001,1.987,1.508,1.968c3.87-0.053,7.741,0.041,11.609-0.045
			c1.581-0.035,1.951,0.512,1.583,1.975c-0.931,3.695-2.206,4.734-6.031,4.773c-2.755,0.029-5.513,0.002-8.262,0.132
			c-2.417,0.112-4.782,3.235-4.138,5.515c0.127,0.451,1.155,0.906,1.776,0.916c4.866,0.076,9.733,0.042,14.6,0.043
			c2.735,0,2.816,0.115,1.968,2.769c-0.939,2.94-2.135,3.852-5.267,3.882C-175.045-74.438-178.563-74.463-182.082-74.463z"/>
		<path fill="#FFFFFF" d="M-297.547-74.637c-0.215-4.254,2.041-6.744,6.082-6.772c4.338-0.03,8.679,0.038,13.016-0.053
			c0.758-0.017,1.504-0.604,2.256-0.929c-0.447-0.735-0.723-1.723-1.37-2.161c-3.297-2.235-6.722-4.284-10.043-6.485
			c-4.786-3.172-5.632-7.871-2.376-12.572c1.797-2.596,4.531-3.335,7.378-3.41c6.153-0.158,12.312-0.064,18.469-0.094
			c1.05-0.004,1.406,0.494,1.131,1.435c-1.183,4.033-1.91,5.604-6.564,5.523c-3.751-0.062-7.505-0.021-11.258-0.004
			c-0.579,0.003-1.209,0.005-1.718,0.229c-0.425,0.186-1.042,0.766-0.984,1.051c0.124,0.611,0.499,1.334,1,1.678
			c2.369,1.623,4.817,3.127,7.23,4.684c1.378,0.891,2.775,1.756,4.108,2.711c2.805,2.01,3.981,4.697,3.127,8.119
			c-0.917,3.681-2.8,6.811-6.887,6.969C-282.431-74.432-289.93-74.637-297.547-74.637z"/>
		<path fill="#FFFFFF" d="M-133.472-106.771c0,2.058,0,4.158,0,6.443c-0.846,0.055-1.644,0.148-2.44,0.152
			c-3.87,0.016-7.743-0.061-11.609,0.061c-0.844,0.027-1.667,0.729-2.499,1.119c0.485,0.717,0.816,1.662,1.482,2.111
			c3.3,2.232,6.727,4.279,10.037,6.496c4.411,2.954,5.279,6.438,3.058,11.242c-1.385,2.992-3.764,4.511-6.929,4.572
			c-6.859,0.131-13.72,0.076-20.581,0.117c-1.156,0.007-1.383-0.472-1.125-1.543c1.039-4.314,2.395-5.414,6.863-5.416
			c3.87-0.003,7.74,0.02,11.61-0.014c1.058-0.01,2.447,0.408,2.887-1.008c0.477-1.535-1.019-1.934-1.935-2.535
			c-3.184-2.092-6.45-4.061-9.614-6.18c-4.6-3.082-5.408-7.959-2.188-12.492c1.311-1.843,3.164-3.008,5.312-3.069
			C-145.307-106.881-139.461-106.771-133.472-106.771z"/>
		<path fill="#FFFFFF" d="M-307.25-107.109c4.339,0,8.68,0.04,13.018-0.022c1.453-0.021,1.694,0.534,1.37,1.814
			c-1.035,4.088-2.308,5.127-6.492,5.149c-5.039,0.025-6.348,0.988-7.715,5.875c-1.355,4.852-2.628,9.727-3.954,14.586
			c-1.251,4.588-2.124,5.258-6.879,5.242c-3.023-0.012-3.295,0.504-2.332-3.01c1.845-6.721,3.635-13.457,5.445-20.188
			c0.598-2.221,0.406-2.492-1.827-2.504c-2.58-0.012-5.161-0.034-7.74,0.009c-1.299,0.021-1.631-0.428-1.29-1.706
			c1.143-4.279,2.339-5.245,6.785-5.246C-314.99-107.111-311.121-107.109-307.25-107.109z"/>
	</g>
</g>
<g>
	<g>
		<path fill="#FFFFFF" d="M79.626,5.871c-2.654,0.86-5.227,1.692-7.937,2.567c0.519,1.959,1.017,3.839,1.515,5.718
			c4.317,16.271,8.609,32.551,12.979,48.811c0.711,2.643,1.198,5.213,0.388,7.914c-1.361,4.549-5.583,7.869-10.329,7.96
			c-3.726,0.072-7.454,0.011-11.181,0.072c-0.816,0.009-1.021-0.377-1.198-1.033c-4.235-15.742-8.481-31.478-12.729-47.214
			c-2.169-8.033-4.345-16.066-6.518-24.098c-0.068-0.254-0.161-0.504-0.303-0.94c-2.646,0.835-5.251,1.655-8.009,2.525
			c6.312,23.581,12.601,47.079,18.92,70.685c-0.541,0.024-0.916,0.055-1.293,0.055c-14.486,0-28.973-0.008-43.46,0.002
			c-2.355,0-4.67-0.104-6.837-1.215c-4.721-2.418-7.162-7.783-5.792-12.914C3.556,43.388,9.271,22.014,15.001,0.638
			c1.195-4.459,5.706-7.944,10.341-7.953c12.297-0.027,24.592-0.02,36.89,0c3.927,0.005,6.784,2.743,7.101,6.702
			c0.008,0.111,0.048,0.219,0.104,0.453c0.326-0.052,0.654-0.073,0.964-0.154c7.827-2.039,15.655-4.094,23.484-6.13
			c5.945-1.546,11.125,1.828,12.581,7.801c1.699,6.965,3.71,13.852,5.596,20.772c3.909,14.357,7.834,28.709,11.729,43.071
			c1.811,6.676-3.28,13.63-10.214,13.856c-4.377,0.143-8.761,0.023-13.141,0.097c-0.968,0.017-1.109-0.514-1.298-1.219
			c-3.143-11.665-6.296-23.326-9.448-34.987c-3.222-11.923-6.443-23.841-9.668-35.762C79.913,6.788,79.782,6.395,79.626,5.871z"/>
		<path fill="#FFFFFF" d="M307.924-7.39c0,2.597,0,5.037,0,7.612c-1.458,0-2.831,0-4.204,0c-2.188-0.001-4.38-0.021-6.569,0.001
			c-5.562,0.062-8.822,4.452-7.427,9.839c4.484,17.34,8.92,34.69,13.376,52.035c1.322,5.165,2.649,10.328,3.973,15.492
			c0.094,0.36,0.16,0.729,0.27,1.26c-0.51,0-0.88,0-1.253,0c-6.072,0-12.145,0.003-18.216,0c-4.213-0.002-7.638-2.572-8.702-6.69
			c-2.8-10.803-5.539-21.618-8.311-32.427c-3.228-12.593-6.472-25.183-9.681-37.782c-0.251-0.991-0.403-2.036-0.406-3.056
			c-0.026-12.683-0.006-25.364-0.039-38.045c-0.003-1.06,0.249-1.608,1.317-1.988c7.518-2.68,15.006-5.435,22.504-8.163
			c0.32-0.118,0.646-0.207,1.111-0.352c0.031,0.579,0.076,1.062,0.076,1.543c0.006,11.028-0.003,22.056,0.003,33.085
			c0.003,3.715,2.041,6.489,5.44,7.316c0.846,0.208,1.752,0.221,2.628,0.227c4.343,0.019,8.684,0.004,13.027,0.008
			C307.178-7.47,307.517-7.422,307.924-7.39z"/>
		<path fill="#FFFFFF" d="M131.026,14.792c0-2.607-0.032-5.098,0.047-7.585c0.01-0.314,0.57-0.747,0.964-0.893
			c6.002-2.233,12.021-4.423,18.034-6.631c4.969-1.827,9.897-3.77,14.905-5.475c14.938-5.083,31.361,3.858,35.359,19.106
			c2.811,10.718,5.715,21.414,8.581,32.116c1.703,6.371,3.466,12.726,5.116,19.111c1.946,7.52-3.381,14.313-11.13,14.311
			c-3.648-0.003-7.299-0.026-10.949,0.016c-0.822,0.011-1.184-0.197-1.409-1.049c-4.215-15.818-8.478-31.628-12.721-47.443
			c-2.266-8.44-4.51-16.886-6.777-25.329c-0.657-2.454-3.311-3.626-5.938-2.664c-6.702,2.453-13.401,4.903-20.104,7.355
			c-4.251,1.556-8.503,3.109-12.757,4.661C131.861,14.538,131.465,14.652,131.026,14.792z"/>
		<path fill="#FFFFFF" d="M252.809-7.268c0,2.602,0,5.056,0,7.648c-0.425,0.02-0.831,0.055-1.235,0.057
			c-3.611,0.005-7.225-0.003-10.834,0.005c-4.819,0.014-8.128,4.422-6.879,9.083c5.257,19.594,10.497,39.195,15.741,58.793
			c0.922,3.437,1.841,6.879,2.804,10.476c-0.511,0.023-0.909,0.057-1.312,0.057c-5.608,0.003-11.22,0.006-16.831,0
			c-4.71-0.004-9.178-3.438-10.405-7.988c-5.692-21.144-11.369-42.295-17.094-63.43c-0.592-2.19-1.354-4.289-0.926-6.638
			c0.848-4.623,4.85-8.105,9.535-8.112c12.027-0.013,24.056-0.007,36.083-0.007C251.871-7.327,252.287-7.293,252.809-7.268z"/>
		<path fill="#FFFFFF" d="M363.034,78.802c-0.303,0.041-0.491,0.088-0.675,0.086c-5.995-0.014-11.988,0.041-17.977-0.071
			c-4.293-0.078-8.565-3.597-9.793-8.038c-2.297-8.311-4.501-16.648-6.724-24.981c-4.589-17.185-9.165-34.373-13.744-51.561
			c-0.127-0.472-0.231-0.949-0.383-1.563c0.519,0,0.896,0,1.271,0c7.988,0,15.979,0.022,23.968-0.03
			c0.983-0.004,1.292,0.336,1.525,1.213c7.015,26.493,14.062,52.984,21.099,79.475C362.086,75.136,362.548,76.943,363.034,78.802z"
			/>
		<path fill="#FFFFFF" d="M167.368,23.39c4.943,18.474,9.868,36.865,14.846,55.46c-0.585,0-0.987,0-1.39,0
			c-14.409,0-28.816,0-43.224-0.002c-4.461-0.002-7.354-2.904-7.353-7.348c0-9.797-0.002-19.596,0-29.393
			c0-3.339,1.708-5.827,4.826-6.967c10.48-3.833,20.967-7.655,31.456-11.477C166.771,23.575,167.02,23.505,167.368,23.39z"/>
		<path fill="#FFFFFF" d="M315.104-18.757c-2.661-0.144-4.978-1.996-5.429-4.435c-0.536-2.897,0.806-5.529,3.476-6.525
			c5.608-2.088,11.239-4.107,16.862-6.153c2.594-0.942,5.194-1.876,7.789-2.816c3.225-1.168,6.426,0.133,7.538,3.074
			c1.197,3.157-0.27,6.272-3.58,7.483c-8.104,2.962-16.217,5.906-24.332,8.833C316.686-19.027,315.88-18.932,315.104-18.757z"/>
	</g>
</g>
<g>
	<path fill="#FFFFFF" d="M419.436-67.295c-7.026,0-14.057,0-21.103,0c-0.341-0.957-0.105-1.393,0.917-1.362
		c0.484,0.015,0.978-0.112,1.46-0.212c2.922-0.605,3.299-1.066,3.299-3.99c0-11.896-0.023-23.793,0.033-35.689
		c0.006-1.405-0.524-2.11-1.784-2.373c-1.308-0.272-2.631-0.472-4.037-0.719c0-0.447,0-0.954,0-1.56
		c0.513-0.024,0.95-0.063,1.39-0.063c8.663-0.003,17.327,0.005,25.99-0.006c3.337-0.005,6.423,0.776,9.015,2.946
		c3.829,3.207,5.35,7.332,4.051,12.162c-1.359,5.061-4.914,7.975-10.01,9.042c-0.38,0.079-0.765,0.141-1.329,0.244
		c0.813,1.064,1.517,1.983,2.221,2.9c3.713,4.843,7.448,9.67,11.131,14.537c1.267,1.675,2.832,2.726,4.944,2.854
		c0.812,0.05,1.178,0.348,0.847,1.27c-5.097,0-10.236,0-14.932,0c-5.325-8.054-10.501-15.883-15.827-23.94
		c1.654,0,3.028,0.022,4.402-0.004c5.794-0.11,10.442-4.393,10.578-9.731c0.146-5.708-4.287-10.482-10.133-10.803
		c-2.185-0.12-4.382-0.02-6.759-0.02c0,0.62,0,1.144,0,1.667c0,12.66,0,25.319,0,37.978c0,1.974,0.266,2.409,2.14,3.031
		c0.884,0.294,1.848,0.336,2.741,0.604c0.398,0.119,0.718,0.515,1.071,0.784C419.646-67.598,419.541-67.446,419.436-67.295z"/>
	<path fill="#FFFFFF" d="M342.522-113.152c-9.25,14.76-18.4,29.361-27.721,44.23c0.679,0,1.136,0,1.596,0
		c6.418,0,12.835,0.002,19.252,0c3.11,0,5.014-1.539,5.673-4.59c0.065-0.306,0.135-0.611,0.293-1.332
		c0.48,0.412,1.087,0.684,1.104,0.986c0.092,1.79,0.051,3.588,0.047,5.383c-0.001,0.352-0.041,0.703-0.067,1.148
		c-13.345,0-26.629,0-40.164,0c9.296-14.748,18.485-29.326,27.85-44.179c-0.692,0-1.152,0-1.612,0c-5.431,0-10.86,0-16.29,0
		c-2.776,0-4.276,1.197-4.922,3.932c-0.121,0.519-0.215,1.043-0.333,1.623c-0.55,0-1.072,0-1.695,0c0-2.373,0-4.729,0-7.202
		C317.754-113.152,330.006-113.152,342.522-113.152z"/>
	<path fill="#FFFFFF" d="M353.918-68.521c0,0.438,0,0.785,0,1.213c-3.445,0-6.836,0-10.331,0c-0.024-0.402-0.051-0.779-0.074-1.16
		c0.197-0.079,0.313-0.162,0.436-0.169c2.55-0.149,4.206-1.263,5.33-3.738c5.941-13.1,12.045-26.127,18.094-39.178
		c0.218-0.471,0.456-0.932,0.799-1.629c0.347,0.668,0.589,1.127,0.824,1.591c6.578,12.996,13.218,25.961,19.68,39.016
		c1.299,2.625,3.192,3.697,5.878,3.905c0.311,0.024,0.62,0.038,1.021,0.062c0.032,0.405,0.065,0.787,0.105,1.279
		c-7.273,0-14.473,0-21.769,0c-0.026-0.373-0.051-0.752-0.076-1.139c0.178-0.075,0.29-0.141,0.412-0.17
		c1.125-0.271,2.278-0.459,3.371-0.825c0.89-0.298,1.2-0.893,0.677-1.886c-1.548-2.934-2.978-5.928-4.53-8.857
		c-0.208-0.393-0.857-0.777-1.308-0.781c-5.431-0.054-10.862-0.016-16.292-0.056c-0.775-0.006-1.108,0.303-1.396,0.943
		c-1.287,2.86-2.611,5.704-3.921,8.556c-0.646,1.407-0.419,1.991,1.055,2.518C352.523-68.805,353.189-68.699,353.918-68.521z
		 M372.637-82.701c-2.954-5.793-5.799-11.37-8.773-17.207c-2.695,5.916-5.246,11.509-7.842,17.207
		C361.613-82.701,366.988-82.701,372.637-82.701z"/>
	<path fill="#FFFFFF" d="M458.388-67.285c-3.4,0-6.753,0-10.218,0c-0.027-0.41-0.052-0.781-0.075-1.145
		c0.211-0.088,0.327-0.174,0.449-0.181c2.509-0.142,4.125-1.271,5.223-3.683c5.955-13.094,12.056-26.123,18.104-39.174
		c0.225-0.484,0.46-0.963,0.811-1.695c0.333,0.61,0.585,1.046,0.812,1.494c6.624,13.073,13.303,26.121,19.821,39.247
		c1.273,2.568,3.143,3.63,5.79,3.808c0.307,0.021,0.611,0.052,0.993,0.083c0,0.44,0,0.81,0,1.24c-7.225,0-14.39,0-21.656,0
		c-0.022-0.407-0.043-0.781-0.063-1.155c0.197-0.077,0.314-0.138,0.438-0.169c1.161-0.296,2.354-0.509,3.479-0.906
		c0.756-0.266,1.052-0.841,0.597-1.715c-1.573-3.021-3.063-6.086-4.646-9.103c-0.174-0.332-0.735-0.653-1.119-0.656
		c-5.52-0.042-11.042-0.049-16.561,0.012c-0.421,0.004-1.02,0.488-1.221,0.901c-1.296,2.658-2.503,5.359-3.741,8.045
		c-0.968,2.097-0.552,2.921,1.799,3.388C458.138-68.503,458.785-68.42,458.388-67.285z M460.574-82.746c5.575,0,10.963,0,16.574,0
		c-2.92-5.729-5.762-11.307-8.744-17.164C465.719-94.023,463.169-88.434,460.574-82.746z"/>
</g>
</svg>
