<?xml version="1.0" encoding="utf-8"?>
<!-- Generator: Adobe Illustrator 16.0.0, SVG Export Plug-In . SVG Version: 6.00 Build 0)  -->
<!DOCTYPE svg PUBLIC "-//W3C//DTD SVG 1.1//EN" "http://www.w3.org/Graphics/SVG/1.1/DTD/svg11.dtd">
<svg version="1.1" id="Capa_1" xmlns="http://www.w3.org/2000/svg" xmlns:xlink="http://www.w3.org/1999/xlink" x="0px" y="0px"
	 width="38.333px" height="24px" viewBox="0 0 38.333 24" enable-background="new 0 0 38.333 24" xml:space="preserve">
<g>
	<g>
		<polygon fill="#3A67B9" points="31.448,11.893 33.74,14.188 36.031,11.894 33.74,9.599 		"/>
		<path fill="#3A67B9" d="M31.448,11.893l0.002,0.001c0.01-0.012,0.021-0.023,0.032-0.035L31.448,11.893z"/>
		<path fill="#589AD4" d="M33.74,14.188l0.04-0.041C33.767,14.16,33.753,14.172,33.74,14.188L33.74,14.188z"/>
		<path fill="#589AD4" d="M33.74,14.188l0.04-0.041C33.767,14.16,33.753,14.172,33.74,14.188L33.74,14.188z"/>
		<path fill="#3A67B9" d="M33.74,14.188l0.04-0.041C33.767,14.16,33.753,14.172,33.74,14.188L33.74,14.188z"/>
		<path fill="#589AD4" d="M28.046,13.414c-1.355,0-2.573-0.597-3.416-1.536l-2.29,2.294c1.428,1.523,3.453,2.484,5.706,2.486
			c2.246,0,4.265-0.953,5.694-2.471l-2.29-2.294C30.608,12.824,29.396,13.414,28.046,13.414z"/>
		
			<rect x="5.22" y="7.544" transform="matrix(-0.7077 0.7065 -0.7065 -0.7077 26.9397 7.1832)" fill="#589AD4" width="13.528" height="3.241"/>
		<polygon fill="#E17E1E" points="31.448,5.503 33.74,3.209 36.031,5.502 33.74,7.798 		"/>
		<path fill="#3A67B9" d="M31.448,5.503l0.002-0.001c0.01,0.012,0.021,0.023,0.032,0.035L31.448,5.503z"/>
		<path fill="#589AD4" d="M33.74,3.209l0.04,0.042C33.767,3.236,33.753,3.224,33.74,3.209L33.74,3.209z"/>
		<path fill="#589AD4" d="M33.74,3.209l0.04,0.042C33.767,3.236,33.753,3.224,33.74,3.209L33.74,3.209z"/>
		<path fill="#3A67B9" d="M33.74,3.209l0.04,0.042C33.767,3.236,33.753,3.224,33.74,3.209L33.74,3.209z"/>
		<path fill="#589AD4" d="M28.046,0.738c-2.248,0.002-4.27,0.959-5.698,2.478l-0.007-0.007L20.09,5.463L20.086,5.46l-6.526,6.426
			l-0.007-0.008c-0.842,0.939-2.06,1.536-3.416,1.536c-2.532,0-4.595-2.062-4.596-4.598c0-2.538,2.063-4.603,4.596-4.604
			c1.297,0,2.466,0.541,3.304,1.408l2.291-2.295c-1.422-1.454-3.402-2.357-5.594-2.356C5.812,0.972,2.305,4.485,2.303,8.816
			c-0.001,4.332,3.509,7.842,7.834,7.842c2.248-0.002,4.27-0.959,5.698-2.479l0.007,0.008l6.495-6.394l0.004,0.004l2.282-2.287
			l0.007,0.007c0.843-0.938,2.061-1.534,3.416-1.534c1.351,0,2.562,0.589,3.404,1.519l2.29-2.292
			C32.311,1.692,30.292,0.738,28.046,0.738z"/>
		
			<rect x="6.599" y="11.314" transform="matrix(0.7065 -0.7077 0.7077 0.7065 -6.7425 9.6147)" fill="#E17E1E" width="3.244" height="3.244"/>
		<polygon fill="#3A67B9" points="13.323,5.524 15.625,3.219 17.916,5.513 15.614,7.817 		"/>
		<polygon fill="#E17E1E" points="16.726,8.769 19.06,11.019 21.364,8.751 19.026,6.503 		"/>
		<polygon fill="#3A67B9" points="19.988,11.926 22.339,14.16 24.626,11.872 22.271,9.643 		"/>
	</g>
	<g>
		<path fill="#3A67B9" d="M4.905,20.398c-0.264-0.25-0.566-0.334-0.921-0.334c-0.438,0-0.68,0.137-0.68,0.371
			c0,0.242,0.219,0.377,0.695,0.408c0.702,0.045,1.594,0.205,1.594,1.193c0,0.656-0.537,1.225-1.603,1.225
			c-0.588,0-1.178-0.1-1.722-0.664l0.453-0.658c0.265,0.295,0.868,0.514,1.284,0.521c0.348,0.008,0.673-0.174,0.673-0.445
			c0-0.258-0.212-0.363-0.74-0.395c-0.703-0.051-1.542-0.309-1.542-1.154c0-0.861,0.892-1.164,1.572-1.164
			c0.581,0,1.019,0.113,1.449,0.492L4.905,20.398z"/>
		<path fill="#3A67B9" d="M10.201,21.275c0,1.072-0.733,1.941-1.942,1.941c-1.208,0-1.933-0.869-1.933-1.941
			c0-1.066,0.74-1.941,1.926-1.941C9.438,19.334,10.201,20.209,10.201,21.275z M7.247,21.275c0,0.566,0.341,1.094,1.012,1.094
			c0.674,0,1.013-0.527,1.013-1.094c0-0.559-0.393-1.104-1.013-1.104C7.595,20.172,7.247,20.717,7.247,21.275z"/>
		<path fill="#3A67B9" d="M12.066,17.852v5.281h-0.914v-5.281H12.066z"/>
		<path fill="#3A67B9" d="M14.136,19.408v1.949c0,0.566,0.31,0.998,0.898,0.998c0.567,0,0.952-0.477,0.952-1.043v-1.904H16.9v3.732
			h-0.823l-0.061-0.506c-0.385,0.377-0.74,0.559-1.262,0.559c-0.891,0-1.541-0.672-1.541-1.828v-1.957H14.136z"/>
		<path fill="#3A67B9" d="M19.332,18.359v1.057h1.027v0.793h-1.034v1.609c0,0.355,0.196,0.529,0.483,0.529
			c0.144,0,0.31-0.045,0.445-0.113l0.257,0.785c-0.265,0.107-0.483,0.15-0.763,0.16c-0.809,0.029-1.337-0.432-1.337-1.361v-1.609
			h-0.695v-0.793h0.695v-0.959L19.332,18.359z"/>
		<path fill="#3A67B9" d="M21.364,19.395v3.738h0.922v-3.738H21.364z"/>
		<path fill="#3A67B9" d="M27.218,21.275c0,1.072-0.732,1.941-1.94,1.941c-1.209,0-1.934-0.869-1.934-1.941
			c0-1.066,0.739-1.941,1.926-1.941C26.455,19.334,27.218,20.209,27.218,21.275z M24.265,21.275c0,0.566,0.34,1.094,1.013,1.094
			c0.672,0,1.012-0.527,1.012-1.094c0-0.559-0.393-1.104-1.012-1.104C24.611,20.172,24.265,20.717,24.265,21.275z"/>
		<path fill="#3A67B9" d="M30.911,23.133v-1.949c0-0.566-0.31-0.996-0.898-0.996c-0.566,0-0.952,0.477-0.952,1.041v1.904h-0.913
			V19.4h0.823l0.061,0.508c0.377-0.371,0.755-0.561,1.224-0.561c0.876,0,1.578,0.658,1.578,1.828v1.957H30.911z"/>
		<path fill="#3A67B9" d="M35.376,20.398c-0.265-0.25-0.567-0.334-0.921-0.334c-0.439,0-0.681,0.137-0.681,0.371
			c0,0.242,0.219,0.377,0.695,0.408c0.702,0.045,1.594,0.205,1.594,1.193c0,0.656-0.536,1.225-1.602,1.225
			c-0.589,0-1.179-0.1-1.723-0.664l0.453-0.658c0.265,0.295,0.868,0.514,1.284,0.521c0.349,0.008,0.673-0.174,0.673-0.445
			c0-0.258-0.211-0.363-0.74-0.395c-0.702-0.051-1.542-0.309-1.542-1.154c0-0.861,0.893-1.164,1.571-1.164
			c0.582,0,1.02,0.113,1.45,0.492L35.376,20.398z"/>
	</g>
	<rect x="18.7" y="17.857" fill="#E17E1E" width="0.933" height="0.934"/>
</g>
</svg>
