<?xml version="1.0" encoding="utf-8"?>
<!-- Generator: Adobe Illustrator 16.0.0, SVG Export Plug-In . SVG Version: 6.00 Build 0)  -->
<!DOCTYPE svg PUBLIC "-//W3C//DTD SVG 1.1//EN" "http://www.w3.org/Graphics/SVG/1.1/DTD/svg11.dtd">
<svg version="1.1" id="Capa_1" xmlns="http://www.w3.org/2000/svg" xmlns:xlink="http://www.w3.org/1999/xlink" x="0px" y="0px"
	 width="660.536px" height="85px" viewBox="0 0 660.536 85" enable-background="new 0 0 660.536 85" xml:space="preserve">
<g>
	<g>
		<path fill-rule="evenodd" clip-rule="evenodd" fill="#FFFFFF" d="M9.486,64.959c2.616-9.001,5.275-17.992,7.838-27.007
			c1.868-6.574,3.668-13.175,5.39-19.789c2.517-9.674,8.391-15.303,18.64-15.828c0.568-0.028,1.131-0.142,1.697-0.202
			c13.974-1.466,18.971,2.562,20.002,16.519c1.008,13.647,1.703,27.318,2.712,40.965c0.137,1.848,1.3,3.619,1.988,5.426
			c1.12-1.58,2.8-3.004,3.272-4.756c3.919-14.581,7.611-29.223,11.385-43.838c0.426-1.657,0.85-3.317,1.397-4.934
			c2.115-6.257,5.044-8.644,11.607-8.74c11.945-0.173,10.454-1,7.719,9.338c-4.661,17.629-10.003,35.092-14.093,52.846
			c-4.208,18.258-18.69,19.825-33.421,16.582c-3.8-0.836-5.838-4.19-6.456-7.859c-0.828-4.904-1.288-9.886-1.605-14.853
			c-0.733-11.52-1.213-23.059-1.999-34.579c-0.104-1.534-1.388-2.987-2.126-4.478c-1.039,1.349-2.618,2.55-3.035,4.07
			C36.453,38.268,32.7,52.746,28.895,67.21c-3.634,13.809-5.081,14.92-19.408,14.868C9.486,76.369,9.486,70.664,9.486,64.959z"/>
		<path fill-rule="evenodd" clip-rule="evenodd" fill="#FFFFFF" d="M455.244,84c-5.491-0.745-11.079-1.065-16.451-2.316
			c-12.337-2.878-18.7-11.273-18.043-23.906c0.666-12.795,3.827-25.039,9.817-36.438c6.254-11.905,16.143-18.356,29.533-19.755
			c9.447-0.988,18.801-0.902,27.975,1.658c11.498,3.211,17.039,10.229,16.939,22.062c-0.125,14.516-3.975,28.175-11.307,40.701
			c-7.699,13.151-20.367,16.943-34.553,17.516c-1.281,0.052-2.564,0.004-3.848,0.004C455.286,83.685,455.265,83.844,455.244,84z
			 M459.515,66.626c5.094-0.091,11.482-0.765,15.098-7.016c5.566-9.623,8.598-20.146,9.33-31.219
			c0.324-4.891-1.889-7.949-6.756-9.046c-4.383-0.983-9.008-1.277-13.517-1.211c-6.944,0.104-11.977,3.713-14.435,10.181
			c-2.373,6.235-4.508,12.598-6.193,19.051C439.288,61.732,443.255,66.626,459.515,66.626z"/>
		<path fill-rule="evenodd" clip-rule="evenodd" fill="#FFFFFF" d="M375.929,32.626c1.709,0,3.421,0.002,5.131,0
			c11.212-0.009,14.484-2.476,17.626-13.353c0.79-2.735,1.455-5.508,2.274-8.234c1.586-5.286,5.273-8.149,10.698-8.221
			c15.306-0.196,12.667-1.605,9.396,10.894c-4.938,18.871-10.086,37.689-15.209,56.511c-2.862,10.514-11.246,15.067-21.639,11.613
			c-0.8-0.269-1.516-2.795-1.221-4.016c1.873-7.749,4.062-15.418,6.107-23.125c1.29-4.857,0.823-5.451-4.249-5.475
			c-5.273-0.023-10.549-0.073-15.823,0.02c-8.186,0.142-11.937,2.839-14.508,10.646c-1.379,4.188-2.309,8.518-3.59,12.739
			c-2.141,7.047-5.061,9.222-12.345,9.444c-11.165,0.342-11.153,0.348-8.178-10.637c5.249-19.373,10.419-38.776,15.755-58.128
			c2.481-8.999,12.695-13.947,21.352-10.321c0.825,0.346,1.346,2.916,1.034,4.223c-1.58,6.646-3.503,13.209-5.267,19.814
			c-1.323,4.958-0.868,5.561,4.101,5.599C370.227,32.646,373.077,32.626,375.929,32.626z"/>
		<path fill-rule="evenodd" clip-rule="evenodd" fill="#FFFFFF" d="M126.644,82.087c-8.839,0-17.676-0.081-26.514,0.04
			c-3.279,0.045-4.309-0.861-3.37-4.277c5.096-18.536,9.841-37.169,15.055-55.669c4.078-14.458,11.045-19.422,26.143-19.461
			c12.402-0.032,24.805-0.019,37.207-0.001c4.876,0.007,5.146,0.405,3.806,5.224c-2.487,8.945-5.185,11.029-14.565,11.091
			c-7.555,0.052-15.113-0.095-22.666,0.076c-7.668,0.178-9.914,2.284-11.955,9.599c-1.08,3.872,0.386,4.857,3.925,4.822
			c9.267-0.095,18.532-0.047,27.797-0.023c4.744,0.009,5.043,0.422,3.838,4.876c-2.514,9.293-5.195,11.365-14.719,11.453
			c-6.413,0.062-12.832,0-19.234,0.288c-6.522,0.292-11.979,6.968-10.647,13.236c0.236,1.111,2.911,2.396,4.478,2.422
			c12.257,0.199,24.518,0.104,36.777,0.118c4.768,0.005,5.003,0.327,3.826,4.831c-2.372,9.065-5.301,11.328-14.805,11.352
			C142.895,82.105,134.769,82.087,126.644,82.087z"/>
		<path fill-rule="evenodd" clip-rule="evenodd" fill="#FFFFFF" d="M532.872,82.082c-8.697,0.005-17.396-0.121-26.088,0.064
			c-3.652,0.078-4.926-0.91-3.887-4.68c5.062-18.393,9.824-36.872,15.031-55.229c4.141-14.596,10.945-19.479,26.057-19.519
			c12.545-0.032,25.09,0.089,37.633-0.068c3.596-0.045,4.504,1.147,3.703,4.555c-2.15,9.138-5.33,11.769-14.906,11.831
			c-7.697,0.047-15.4-0.111-23.094,0.1c-7.207,0.2-9.846,2.645-11.51,9.618c-0.775,3.248-0.004,4.832,3.666,4.784
			c9.408-0.128,18.818,0.1,28.223-0.109c3.846-0.085,4.744,1.244,3.85,4.801c-2.264,8.984-5.361,11.51-14.664,11.605
			c-6.697,0.071-13.402,0.005-20.086,0.321c-5.877,0.272-11.625,7.865-10.061,13.407c0.309,1.097,2.809,2.203,4.318,2.227
			c11.83,0.186,23.662,0.103,35.494,0.104c6.648,0,6.846,0.28,4.785,6.73c-2.285,7.149-5.191,9.365-12.807,9.438
			C549.978,82.145,541.425,82.082,532.872,82.082z"/>
		<path fill-rule="evenodd" clip-rule="evenodd" fill="#FFFFFF" d="M252.151,81.66c-0.523-10.343,4.961-16.396,14.785-16.466
			c10.548-0.073,21.1,0.093,31.645-0.128c1.844-0.041,3.656-1.47,5.484-2.258c-1.087-1.788-1.757-4.188-3.33-5.255
			c-8.017-5.435-16.342-10.416-24.417-15.767c-11.635-7.712-13.693-19.136-5.778-30.566c4.37-6.311,11.015-8.109,17.938-8.29
			c14.96-0.385,29.933-0.157,44.902-0.229c2.553-0.011,3.417,1.2,2.748,3.488c-2.875,9.805-4.642,13.623-15.958,13.428
			c-9.121-0.154-18.247-0.05-27.37-0.009c-1.407,0.007-2.94,0.012-4.178,0.558c-1.034,0.451-2.534,1.861-2.393,2.554
			c0.3,1.486,1.213,3.244,2.431,4.079c5.759,3.946,11.711,7.603,17.578,11.387c3.351,2.166,6.747,4.269,9.987,6.591
			c6.82,4.886,9.678,11.42,7.604,19.739c-2.229,8.949-6.808,16.559-16.743,16.942C288.902,82.158,270.671,81.66,252.151,81.66z"/>
		<path fill-rule="evenodd" clip-rule="evenodd" fill="#FFFFFF" d="M651.05,3.534c0,5.002,0,10.108,0,15.664
			c-2.057,0.133-3.994,0.361-5.932,0.37c-9.41,0.038-18.824-0.147-28.225,0.147c-2.051,0.066-4.051,1.771-6.076,2.721
			c1.182,1.743,1.986,4.041,3.604,5.133c8.023,5.427,16.354,10.404,24.402,15.793c10.723,7.182,12.834,15.651,7.436,27.333
			c-3.367,7.275-9.152,10.967-16.848,11.116c-16.676,0.318-33.355,0.185-50.035,0.285c-2.811,0.017-3.363-1.147-2.734-3.751
			c2.525-10.49,5.82-13.163,16.684-13.168c9.408-0.008,18.818,0.047,28.229-0.033c2.57-0.023,5.947,0.992,7.018-2.45
			c1.16-3.732-2.477-4.701-4.703-6.164c-7.74-5.085-15.682-9.872-23.375-15.024c-11.184-7.493-13.148-19.35-5.318-30.371
			c3.188-4.481,7.691-7.312,12.912-7.461C622.278,3.266,636.489,3.534,651.05,3.534z"/>
		<path fill-rule="evenodd" clip-rule="evenodd" fill="#FFFFFF" d="M228.562,2.713c10.549,0.001,21.102,0.097,31.65-0.054
			c3.533-0.05,4.118,1.297,3.331,4.41c-2.517,9.94-5.61,12.466-15.784,12.518c-12.251,0.062-15.434,2.403-18.756,14.283
			c-3.294,11.795-6.39,23.648-9.613,35.461c-3.042,11.154-5.164,12.783-16.724,12.746c-7.351-0.029-8.012,1.225-5.668-7.318
			c4.486-16.339,8.836-32.717,13.238-49.08c1.455-5.399,0.987-6.059-4.442-6.087c-6.273-0.029-12.547-0.083-18.818,0.021
			c-3.159,0.052-3.966-1.04-3.136-4.148c2.779-10.403,5.688-12.751,16.496-12.754C209.744,2.708,219.151,2.711,228.562,2.713z"/>
	</g>
</g>
<g>
	<g>
		<path fill-rule="evenodd" clip-rule="evenodd" fill="#FFFFFF" d="M212.159-105.222c-1.71,0.554-3.368,1.09-5.114,1.654
			c0.334,1.263,0.655,2.474,0.976,3.685c2.782,10.485,5.548,20.976,8.364,31.454c0.458,1.702,0.771,3.359,0.25,5.099
			c-0.877,2.931-3.598,5.071-6.656,5.129c-2.401,0.046-4.803,0.007-7.205,0.046c-0.526,0.006-0.658-0.241-0.772-0.666
			c-2.729-10.143-5.465-20.283-8.202-30.423c-1.397-5.177-2.799-10.353-4.199-15.529c-0.044-0.164-0.104-0.325-0.195-0.606
			c-1.705,0.538-3.384,1.067-5.161,1.627c4.067,15.196,8.12,30.337,12.192,45.549c-0.348,0.016-0.59,0.035-0.833,0.035
			c-9.335,0-18.67-0.005-28.005,0.002c-1.518,0-3.009-0.069-4.406-0.783c-3.042-1.559-4.615-5.016-3.732-8.322
			c3.68-13.776,7.363-27.55,11.055-41.324c0.77-2.873,3.677-5.119,6.664-5.125c7.924-0.017,15.847-0.012,23.771,0
			c2.531,0.004,4.372,1.768,4.576,4.319c0.005,0.072,0.031,0.141,0.067,0.292c0.21-0.033,0.421-0.047,0.621-0.099
			c5.044-1.314,10.088-2.638,15.133-3.95c3.831-0.997,7.169,1.178,8.107,5.027c1.095,4.488,2.391,8.926,3.606,13.385
			c2.519,9.252,5.048,18.5,7.558,27.755c1.167,4.302-2.113,8.783-6.582,8.929c-2.82,0.091-5.645,0.015-8.467,0.062
			c-0.624,0.011-0.715-0.331-0.837-0.785c-2.025-7.517-4.057-15.031-6.088-22.546c-2.076-7.682-4.152-15.363-6.23-23.044
			C212.344-104.632,212.26-104.885,212.159-105.222z"/>
		<path fill-rule="evenodd" clip-rule="evenodd" fill="#FFFFFF" d="M359.271-113.767c0,1.673,0,3.245,0,4.905
			c-0.939,0-1.824,0-2.709,0c-1.41-0.001-2.822-0.014-4.233,0.001c-3.584,0.04-5.684,2.869-4.785,6.34
			c2.889,11.174,5.747,22.354,8.619,33.531c0.853,3.328,1.707,6.655,2.56,9.983c0.06,0.231,0.103,0.47,0.174,0.811
			c-0.328,0-0.568,0-0.808,0c-3.913,0.001-7.825,0.002-11.738,0.001c-2.714-0.002-4.922-1.659-5.608-4.312
			c-1.803-6.961-3.568-13.93-5.354-20.896c-2.081-8.115-4.171-16.227-6.238-24.346c-0.163-0.638-0.261-1.312-0.263-1.969
			c-0.017-8.172-0.003-16.344-0.025-24.516c-0.002-0.683,0.161-1.036,0.849-1.281c4.844-1.727,9.67-3.502,14.502-5.26
			c0.206-0.076,0.415-0.133,0.716-0.227c0.02,0.373,0.049,0.684,0.049,0.994c0.003,7.107-0.002,14.213,0.002,21.32
			c0.002,2.394,1.315,4.181,3.506,4.715c0.544,0.133,1.128,0.142,1.692,0.146c2.799,0.012,5.597,0.003,8.395,0.005
			C358.791-113.819,359.009-113.788,359.271-113.767z"/>
		<path fill-rule="evenodd" clip-rule="evenodd" fill="#FFFFFF" d="M245.281-99.474c0-1.68-0.021-3.285,0.03-4.888
			c0.006-0.202,0.367-0.481,0.621-0.575c3.868-1.439,7.747-2.85,11.621-4.273c3.202-1.177,6.378-2.429,9.605-3.528
			c9.626-3.275,20.209,2.486,22.786,12.312c1.81,6.907,3.682,13.799,5.529,20.696c1.098,4.105,2.233,8.2,3.297,12.315
			c1.254,4.844-2.179,9.223-7.173,9.221c-2.351-0.002-4.703-0.017-7.055,0.011c-0.53,0.006-0.762-0.127-0.908-0.677
			c-2.716-10.193-5.463-20.38-8.197-30.571c-1.46-5.439-2.906-10.882-4.367-16.322c-0.424-1.581-2.134-2.337-3.827-1.717
			c-4.318,1.581-8.635,3.16-12.954,4.74c-2.739,1.002-5.479,2.003-8.22,3.003C245.819-99.637,245.563-99.564,245.281-99.474z"/>
		<path fill-rule="evenodd" clip-rule="evenodd" fill="#FFFFFF" d="M323.756-113.689c0,1.677,0,3.258,0,4.928
			c-0.273,0.013-0.535,0.036-0.796,0.037c-2.327,0.003-4.655-0.002-6.982,0.003c-3.105,0.009-5.237,2.85-4.432,5.853
			c3.387,12.626,6.764,25.257,10.144,37.886c0.593,2.215,1.186,4.432,1.806,6.749c-0.329,0.016-0.586,0.037-0.845,0.037
			c-3.615,0.002-7.23,0.004-10.846,0.001c-3.035-0.003-5.915-2.215-6.705-5.148c-3.668-13.625-7.326-27.254-11.015-40.874
			c-0.382-1.411-0.873-2.763-0.597-4.277c0.546-2.979,3.125-5.223,6.144-5.227c7.751-0.009,15.502-0.005,23.252-0.005
			C323.152-113.727,323.42-113.705,323.756-113.689z"/>
		<path fill-rule="evenodd" clip-rule="evenodd" fill="#FFFFFF" d="M394.784-58.227c-0.195,0.027-0.316,0.057-0.435,0.056
			c-3.862-0.009-7.725,0.026-11.584-0.046c-2.766-0.051-5.519-2.318-6.31-5.18c-1.481-5.355-2.901-10.728-4.333-16.097
			c-2.957-11.074-5.905-22.15-8.856-33.226c-0.082-0.304-0.15-0.611-0.246-1.007c0.333,0,0.576,0,0.818,0
			c5.148,0,10.297,0.014,15.445-0.019c0.634-0.003,0.832,0.216,0.982,0.781c4.521,17.073,9.062,34.143,13.597,51.213
			C394.173-60.589,394.471-59.424,394.784-58.227z"/>
		<path fill-rule="evenodd" clip-rule="evenodd" fill="#FFFFFF" d="M268.699-93.933c3.186,11.904,6.359,23.755,9.567,35.738
			c-0.377,0-0.637,0-0.896,0c-9.285-0.001-18.569,0-27.853-0.002c-2.875-0.001-4.739-1.872-4.738-4.734
			c0-6.313-0.001-12.627,0-18.941c0-2.152,1.101-3.755,3.11-4.489c6.754-2.47,13.511-4.933,20.27-7.396
			C268.314-93.814,268.474-93.86,268.699-93.933z"/>
		<path fill-rule="evenodd" clip-rule="evenodd" fill="#FFFFFF" d="M363.899-121.093c-1.715-0.092-3.208-1.286-3.499-2.857
			c-0.346-1.867,0.52-3.563,2.24-4.205c3.614-1.346,7.243-2.647,10.866-3.965c1.672-0.607,3.347-1.209,5.019-1.815
			c2.079-0.753,4.141,0.086,4.858,1.981c0.771,2.034-0.174,4.042-2.307,4.822c-5.223,1.909-10.45,3.806-15.679,5.692
			C364.918-121.266,364.399-121.205,363.899-121.093z"/>
	</g>
</g>
<g>
	<path fill-rule="evenodd" clip-rule="evenodd" fill="#FFFFFF" d="M514.943-165.131c-12.684,0-25.371,0-38.088,0
		c-0.615-1.728-0.19-2.514,1.655-2.459c0.874,0.026,1.765-0.202,2.635-0.382c5.273-1.093,5.954-1.925,5.954-7.202
		c0-21.473-0.044-42.945,0.061-64.417c0.01-2.537-0.947-3.809-3.221-4.283c-2.36-0.492-4.748-0.853-7.287-1.298
		c0-0.806,0-1.722,0-2.816c0.924-0.044,1.716-0.114,2.507-0.114c15.636-0.006,31.274,0.009,46.912-0.011
		c6.021-0.009,11.591,1.4,16.269,5.318c6.912,5.789,9.656,13.234,7.312,21.952c-2.453,9.134-8.869,14.394-18.066,16.32
		c-0.686,0.143-1.379,0.254-2.399,0.44c1.471,1.922,2.737,3.58,4.009,5.235c6.701,8.74,13.443,17.453,20.09,26.238
		c2.284,3.022,5.111,4.919,8.925,5.152c1.468,0.09,2.125,0.627,1.527,2.291c-9.199,0-18.478,0-26.95,0
		c-9.611-14.536-18.953-28.667-28.566-43.211c2.985,0,5.466,0.041,7.945-0.007c10.458-0.199,18.85-7.928,19.093-17.564
		c0.263-10.303-7.737-18.92-18.287-19.498c-3.942-0.217-7.908-0.035-12.199-0.035c0,1.119,0,2.064,0,3.008
		c0,22.85,0,45.698,0,68.548c0,3.562,0.478,4.348,3.86,5.471c1.596,0.53,3.335,0.606,4.949,1.09c0.72,0.215,1.294,0.929,1.934,1.415
		C515.324-165.677,515.134-165.404,514.943-165.131z"/>
	<path fill-rule="evenodd" clip-rule="evenodd" fill="#FFFFFF" d="M376.122-247.9c-16.696,26.64-33.212,52.995-50.032,79.833
		c1.224,0,2.05,0,2.878,0c11.584,0,23.167,0.004,34.749,0c5.615,0,9.049-2.777,10.238-8.284c0.12-0.552,0.244-1.104,0.529-2.404
		c0.869,0.744,1.962,1.234,1.992,1.78c0.165,3.231,0.091,6.476,0.084,9.716c-0.002,0.635-0.074,1.269-0.123,2.072
		c-24.086,0-48.063,0-72.493,0c16.778-26.618,33.366-52.931,50.267-79.74c-1.252,0-2.082,0-2.912,0c-9.8,0-19.603,0-29.402,0.001
		c-5.011,0-7.719,2.16-8.882,7.097c-0.221,0.936-0.388,1.883-0.601,2.928c-0.993,0-1.938,0-3.062,0c0-4.283,0-8.536,0-12.999
		C331.416-247.9,353.53-247.9,376.122-247.9z"/>
	<path fill-rule="evenodd" clip-rule="evenodd" fill="#FFFFFF" d="M396.689-167.345c0,0.792,0,1.417,0,2.189
		c-6.218,0-12.338,0-18.646,0c-0.046-0.727-0.092-1.406-0.134-2.094c0.356-0.144,0.565-0.293,0.784-0.306
		c4.603-0.27,7.592-2.278,9.62-6.747c10.726-23.644,21.74-47.157,32.658-70.713c0.393-0.85,0.823-1.682,1.441-2.94
		c0.626,1.207,1.063,2.035,1.488,2.871c11.873,23.457,23.856,46.858,35.521,70.42c2.344,4.738,5.762,6.674,10.608,7.049
		c0.559,0.044,1.119,0.068,1.841,0.111c0.06,0.731,0.119,1.421,0.191,2.309c-13.129,0-26.122,0-39.29,0
		c-0.048-0.673-0.092-1.357-0.138-2.055c0.321-0.136,0.523-0.254,0.744-0.307c2.03-0.49,4.112-0.829,6.084-1.49
		c1.606-0.537,2.167-1.61,1.222-3.403c-2.794-5.295-5.374-10.699-8.177-15.986c-0.375-0.709-1.549-1.403-2.36-1.41
		c-9.802-0.098-19.605-0.028-29.405-0.101c-1.399-0.011-2.001,0.546-2.521,1.702c-2.323,5.163-4.715,10.296-7.077,15.442
		c-1.165,2.54-0.756,3.594,1.902,4.544C394.173-167.855,395.375-167.665,396.689-167.345z M430.476-192.938
		c-5.332-10.456-10.467-20.522-15.837-31.058c-4.865,10.678-9.469,20.772-14.154,31.058
		C410.579-192.938,420.28-192.938,430.476-192.938z"/>
	<path fill-rule="evenodd" clip-rule="evenodd" fill="#FFFFFF" d="M585.249-165.113c-6.139,0-12.188,0-18.442,0
		c-0.049-0.74-0.093-1.41-0.135-2.065c0.38-0.159,0.59-0.313,0.811-0.326c4.528-0.256,7.445-2.293,9.426-6.646
		c10.749-23.634,21.758-47.151,32.678-70.707c0.405-0.874,0.83-1.738,1.463-3.059c0.602,1.102,1.056,1.888,1.467,2.697
		c11.956,23.596,24.01,47.146,35.775,70.838c2.301,4.636,5.672,6.552,10.451,6.873c0.553,0.036,1.104,0.093,1.794,0.149
		c0,0.795,0,1.461,0,2.238c-13.04,0-25.972,0-39.09,0c-0.04-0.734-0.077-1.41-0.114-2.085c0.356-0.14,0.567-0.249,0.79-0.305
		c2.097-0.534,4.249-0.919,6.281-1.636c1.364-0.479,1.898-1.518,1.077-3.096c-2.841-5.453-5.531-10.984-8.387-16.429
		c-0.313-0.6-1.327-1.18-2.02-1.185c-9.963-0.076-19.93-0.088-29.891,0.021c-0.76,0.008-1.838,0.882-2.201,1.627
		c-2.34,4.798-4.518,9.674-6.755,14.521c-1.745,3.784-0.994,5.272,3.247,6.115C584.798-167.311,585.967-167.161,585.249-165.113z
		 M589.196-193.019c10.062,0,19.787,0,29.915,0c-5.269-10.34-10.397-20.408-15.783-30.98
		C598.481-213.374,593.879-203.284,589.196-193.019z"/>
</g>
</svg>
