<?xml version="1.0" encoding="utf-8"?>
<!-- Generator: Adobe Illustrator 16.0.0, SVG Export Plug-In . SVG Version: 6.00 Build 0)  -->
<!DOCTYPE svg PUBLIC "-//W3C//DTD SVG 1.1//EN" "http://www.w3.org/Graphics/SVG/1.1/DTD/svg11.dtd">
<svg version="1.1" id="Capa_1" xmlns="http://www.w3.org/2000/svg" xmlns:xlink="http://www.w3.org/1999/xlink" x="0px" y="0px"
	 width="130px" height="80px" viewBox="0 0 130 80" enable-background="new 0 0 130 80" xml:space="preserve">
<g>
	<g>
		<polygon fill="#0167B9" points="107.304,39.63 115.231,47.567 123.163,39.633 115.231,31.695 		"/>
		<path fill="#0167B9" d="M107.304,39.63v0.003c0.049-0.041,0.083-0.082,0.122-0.122L107.304,39.63z"/>
		<path fill="#0597D3" d="M115.231,47.567l0.141-0.141c-0.046,0.048-0.092,0.089-0.141,0.14V47.567z"/>
		<path fill="#0597D3" d="M115.231,47.567l0.141-0.141c-0.046,0.048-0.092,0.089-0.141,0.14V47.567z"/>
		<path fill="#0167B9" d="M115.231,47.567l0.141-0.141c-0.046,0.048-0.092,0.089-0.141,0.14V47.567z"/>
		<path fill="#0597D3" d="M95.533,44.889c-4.691,0-8.906-2.061-11.819-5.31l-7.919,7.937c4.94,5.271,11.95,8.593,19.738,8.599
			c7.775,0,14.759-3.3,19.698-8.549l-7.928-7.932C104.394,42.851,100.206,44.889,95.533,44.889z"/>
		<polygon fill="#0597D3" points="19.438,42.758 52.565,9.693 60.486,17.624 27.372,50.693 		"/>
		<polygon fill="#F97F00" points="107.304,17.525 115.231,9.588 123.163,17.522 115.231,25.461 		"/>
		<path fill="#0167B9" d="M107.304,17.525v-0.003c0.049,0.038,0.083,0.08,0.122,0.121L107.304,17.525z"/>
		<path fill="#0597D3" d="M115.231,9.588l0.141,0.143c-0.046-0.05-0.092-0.091-0.141-0.14V9.588z"/>
		<path fill="#0597D3" d="M115.231,9.588l0.141,0.143c-0.046-0.05-0.092-0.091-0.141-0.14V9.588z"/>
		<path fill="#0167B9" d="M115.231,9.588l0.141,0.143c-0.046-0.05-0.092-0.091-0.141-0.14V9.588z"/>
		<path fill="#0597D3" d="M95.533,1.042c-7.776,0.005-14.771,3.317-19.708,8.572l-0.024-0.026l-7.791,7.8l-0.013-0.014
			l-22.578,22.23l-0.025-0.026c-2.914,3.25-7.128,5.31-11.819,5.31c-8.763,0-15.896-7.124-15.896-15.902
			c0-8.783,7.133-15.922,15.901-15.927c4.487,0,8.529,1.867,11.429,4.868l7.921-7.934c-4.917-5.036-11.765-8.162-19.35-8.155
			C18.612,1.847,6.488,14.003,6.476,28.986c0,14.983,12.137,27.131,27.104,27.128c7.776-0.006,14.771-3.316,19.714-8.57l0.019,0.023
			l22.474-22.118l0.015,0.012l7.894-7.908l0.02,0.021c2.913-3.247,7.128-5.31,11.819-5.31c4.673,0,8.86,2.039,11.771,5.257
			l7.928-7.931C110.292,4.34,103.309,1.041,95.533,1.042z"/>
		<polygon fill="#F97F00" points="34.878,43.242 26.95,51.184 19.022,43.242 26.956,35.306 		"/>
		<polygon fill="#0167B9" points="44.598,17.596 52.565,9.623 60.486,17.558 52.532,25.528 		"/>
		<polygon fill="#F97F00" points="56.372,28.819 64.446,36.61 72.419,28.76 64.333,20.982 		"/>
		<polygon fill="#0167B9" points="67.661,39.744 75.795,47.471 83.701,39.557 75.555,31.845 		"/>
	</g>
	<g>
		<g>
			<path fill="#0167B9" d="M15.731,69.054c-0.905-0.862-1.957-1.149-3.188-1.149c-1.51,0-2.349,0.47-2.349,1.281
				c0,0.834,0.76,1.304,2.407,1.41c2.43,0.156,5.512,0.703,5.512,4.129c0,2.271-1.852,4.232-5.546,4.232
				c-2.03,0-4.068-0.339-5.946-2.298l1.559-2.274c0.915,1.02,3.006,1.776,4.449,1.802c1.197,0.029,2.32-0.6,2.32-1.542
				c0-0.887-0.726-1.253-2.559-1.357c-2.43-0.185-5.335-1.072-5.335-4c0-2.978,3.091-4.025,5.433-4.025
				c2.021,0,3.534,0.394,5.023,1.7L15.731,69.054z"/>
			<path fill="#0167B9" d="M34.058,72.086c0,3.708-2.541,6.715-6.719,6.715c-4.182,0-6.688-3.007-6.688-6.715
				c0-3.684,2.559-6.717,6.663-6.717C31.417,65.37,34.058,68.402,34.058,72.086z M23.839,72.086c0,1.957,1.179,3.788,3.5,3.788
				c2.324,0,3.5-1.831,3.5-3.788c0-1.936-1.361-3.816-3.5-3.816C25.045,68.27,23.839,70.151,23.839,72.086z"/>
			<path fill="#0167B9" d="M40.508,60.247v18.267h-3.157V60.247H40.508z"/>
			<path fill="#0167B9" d="M47.67,65.631v6.743c0,1.957,1.073,3.449,3.108,3.449c1.96,0,3.291-1.645,3.291-3.606v-6.585h3.169v12.91
				h-2.859l-0.204-1.753c-1.33,1.31-2.561,1.934-4.363,1.934c-3.084,0-5.332-2.326-5.332-6.322v-6.769H47.67z"/>
			<path fill="#0167B9" d="M65.649,62v3.657h3.552v2.746h-3.579v5.563c0,1.23,0.684,1.829,1.668,1.829
				c0.495,0,1.078-0.155,1.54-0.39l0.894,2.718c-0.918,0.366-1.68,0.521-2.641,0.548c-2.799,0.104-4.625-1.49-4.625-4.705v-5.563
				h-2.4v-2.746h2.4v-3.318L65.649,62z"/>
			<path fill="#0167B9" d="M72.677,65.58v12.934h3.188V65.58H72.677z"/>
			<path fill="#0167B9" d="M92.926,72.086c0,3.708-2.534,6.715-6.718,6.715c-4.182,0-6.688-3.007-6.688-6.715
				c0-3.684,2.559-6.717,6.663-6.717C90.286,65.37,92.926,68.402,92.926,72.086z M82.708,72.086c0,1.957,1.172,3.788,3.5,3.788
				c2.324,0,3.504-1.831,3.504-3.788c0-1.936-1.359-3.816-3.504-3.816C83.907,68.27,82.708,70.151,82.708,72.086z"/>
			<path fill="#0167B9" d="M105.703,78.513v-6.741c0-1.961-1.069-3.452-3.108-3.452c-1.96,0-3.291,1.647-3.291,3.608v6.584h-3.169
				V65.605h2.853l0.213,1.75c1.305-1.281,2.607-1.933,4.227-1.933c3.033,0,5.467,2.273,5.467,6.322v6.769H105.703z"/>
			<path fill="#0167B9" d="M121.147,69.054c-0.917-0.862-1.956-1.149-3.188-1.149c-1.516,0-2.348,0.47-2.348,1.281
				c0,0.834,0.753,1.304,2.4,1.41c2.428,0.156,5.512,0.703,5.512,4.129c0,2.271-1.859,4.232-5.539,4.232
				c-2.036,0-4.075-0.339-5.962-2.298l1.577-2.274c0.911,1.02,2.996,1.776,4.439,1.802c1.197,0.029,2.321-0.6,2.321-1.542
				c0-0.887-0.732-1.253-2.559-1.357c-2.431-0.185-5.329-1.072-5.329-4c0-2.978,3.078-4.025,5.432-4.025
				c2.012,0,3.528,0.394,5.018,1.7L121.147,69.054z"/>
		</g>
		<rect x="72.717" y="60.262" fill="#F97F00" width="3.229" height="3.227"/>
	</g>
</g>
</svg>
