<?xml version="1.0" encoding="utf-8"?>
<!-- Generator: Adobe Illustrator 16.0.0, SVG Export Plug-In . SVG Version: 6.00 Build 0)  -->
<!DOCTYPE svg PUBLIC "-//W3C//DTD SVG 1.1//EN" "http://www.w3.org/Graphics/SVG/1.1/DTD/svg11.dtd">
<svg version="1.1" id="Capa_1" xmlns="http://www.w3.org/2000/svg" xmlns:xlink="http://www.w3.org/1999/xlink" x="0px" y="0px"
	 width="38px" height="24px" viewBox="0 0 38 24" enable-background="new 0 0 38 24" xml:space="preserve">
<g>
	<g>
		
			<rect x="32.171" y="10.237" transform="matrix(-0.7067 -0.7075 0.7075 -0.7067 49.3194 44.227)" fill="#0167B9" width="3.311" height="3.31"/>
		<path fill="#0167B9" d="M31.486,11.891L31.486,11.891c0.014-0.011,0.023-0.023,0.035-0.035L31.486,11.891z"/>
		<path fill="#0597D3" d="M33.826,14.233l0.041-0.042C33.854,14.206,33.84,14.218,33.826,14.233L33.826,14.233z"/>
		<path fill="#0597D3" d="M33.826,14.233l0.041-0.042C33.854,14.206,33.84,14.218,33.826,14.233L33.826,14.233z"/>
		<path fill="#0167B9" d="M33.826,14.233l0.041-0.042C33.854,14.206,33.84,14.218,33.826,14.233L33.826,14.233z"/>
		<path fill="#0597D3" d="M28.012,13.443c-1.385,0-2.629-0.608-3.488-1.567l-2.338,2.342c1.459,1.556,3.527,2.536,5.826,2.538
			c2.295,0,4.355-0.974,5.814-2.523l-2.34-2.341C30.627,12.842,29.391,13.443,28.012,13.443z"/>
		
			<rect x="4.703" y="7.451" transform="matrix(-0.7078 0.7065 -0.7065 -0.7078 26.2603 7.3478)" fill="#0597D3" width="13.814" height="3.308"/>
		
			<rect x="32.171" y="3.711" transform="matrix(-0.7067 0.7075 -0.7075 -0.7067 61.5289 -14.7725)" fill="#F97F00" width="3.311" height="3.31"/>
		<path fill="#0167B9" d="M31.486,5.367L31.486,5.367c0.014,0.01,0.023,0.023,0.035,0.035L31.486,5.367z"/>
		<path fill="#0597D3" d="M33.826,3.024l0.041,0.042C33.854,3.052,33.84,3.04,33.826,3.024L33.826,3.024z"/>
		<path fill="#0597D3" d="M33.826,3.024l0.041,0.042C33.854,3.052,33.84,3.04,33.826,3.024L33.826,3.024z"/>
		<path fill="#0167B9" d="M33.826,3.024l0.041,0.042C33.854,3.052,33.84,3.04,33.826,3.024L33.826,3.024z"/>
		<path fill="#0597D3" d="M28.012,0.502c-2.295,0.001-4.359,0.979-5.816,2.53l-0.008-0.007l-2.299,2.302l-0.004-0.004l-6.664,6.561
			l-0.008-0.007c-0.859,0.959-2.104,1.567-3.488,1.567c-2.586,0-4.691-2.103-4.691-4.693c0-2.592,2.105-4.699,4.693-4.701
			c1.324,0,2.518,0.551,3.373,1.437l2.338-2.341c-1.451-1.487-3.473-2.409-5.711-2.407c-4.418,0.003-7.996,3.59-8,8.013
			c0,4.422,3.582,8.008,8,8.007c2.295-0.002,4.359-0.979,5.818-2.53l0.006,0.007l6.633-6.528l0.004,0.003l2.33-2.334l0.006,0.006
			c0.859-0.958,2.104-1.567,3.488-1.567c1.379,0,2.615,0.602,3.475,1.551l2.34-2.341C32.367,1.476,30.307,0.501,28.012,0.502z"/>
		<polygon fill="#F97F00" points="10.109,12.957 7.77,15.301 5.43,12.957 7.771,10.615 		"/>
		
			<rect x="13.66" y="3.727" transform="matrix(-0.7069 0.7073 -0.7073 -0.7069 29.9618 -1.6524)" fill="#0167B9" width="3.327" height="3.309"/>
		<polygon fill="#F97F00" points="16.453,8.7 18.836,11 21.189,8.683 18.803,6.387 		"/>
		<polygon fill="#0167B9" points="19.785,11.925 22.186,14.205 24.52,11.87 22.115,9.593 		"/>
	</g>
	<g>
		<g>
			<path fill="#0167B9" d="M4.459,20.575c-0.268-0.254-0.578-0.339-0.941-0.339c-0.445,0-0.693,0.139-0.693,0.378
				c0,0.246,0.225,0.385,0.711,0.416c0.717,0.046,1.627,0.208,1.627,1.219c0,0.67-0.547,1.25-1.637,1.25
				c-0.6,0-1.201-0.1-1.756-0.679l0.461-0.671c0.27,0.301,0.887,0.524,1.312,0.532c0.354,0.008,0.686-0.177,0.686-0.455
				c0-0.262-0.215-0.37-0.756-0.4c-0.717-0.055-1.574-0.317-1.574-1.181c0-0.879,0.912-1.188,1.604-1.188
				c0.596,0,1.043,0.116,1.482,0.502L4.459,20.575z"/>
			<path fill="#0167B9" d="M9.867,21.47c0,1.095-0.75,1.982-1.982,1.982c-1.234,0-1.975-0.887-1.975-1.982
				c0-1.087,0.756-1.982,1.967-1.982S9.867,20.383,9.867,21.47z M6.852,21.47c0,0.578,0.348,1.118,1.033,1.118
				s1.033-0.541,1.033-1.118c0-0.571-0.402-1.126-1.033-1.126C7.207,20.344,6.852,20.899,6.852,21.47z"/>
			<path fill="#0167B9" d="M11.771,17.976v5.391H10.84v-5.391H11.771z"/>
			<path fill="#0167B9" d="M13.885,19.565v1.99c0,0.578,0.316,1.018,0.918,1.018c0.578,0,0.971-0.485,0.971-1.064v-1.943h0.936v3.81
				h-0.844l-0.061-0.517c-0.393,0.386-0.756,0.571-1.287,0.571c-0.91,0-1.574-0.687-1.574-1.866v-1.998H13.885z"/>
			<path fill="#0167B9" d="M19.191,18.493v1.08h1.049v0.81h-1.057v1.642c0,0.363,0.201,0.54,0.492,0.54
				c0.146,0,0.318-0.046,0.455-0.115l0.264,0.802c-0.271,0.108-0.496,0.154-0.779,0.162c-0.826,0.031-1.365-0.44-1.365-1.389v-1.642
				h-0.709v-0.81h0.709v-0.979L19.191,18.493z"/>
			<path fill="#0167B9" d="M21.266,19.55v3.817h0.941V19.55H21.266z"/>
			<path fill="#0167B9" d="M27.242,21.47c0,1.095-0.748,1.982-1.982,1.982s-1.975-0.887-1.975-1.982
				c0-1.087,0.756-1.982,1.967-1.982S27.242,20.383,27.242,21.47z M24.227,21.47c0,0.578,0.346,1.118,1.033,1.118
				c0.686,0,1.033-0.541,1.033-1.118c0-0.571-0.4-1.126-1.033-1.126C24.58,20.344,24.227,20.899,24.227,21.47z"/>
			<path fill="#0167B9" d="M31.014,23.367v-1.99c0-0.579-0.316-1.019-0.918-1.019c-0.578,0-0.971,0.486-0.971,1.065v1.943h-0.936
				v-3.81h0.842l0.062,0.517c0.385-0.378,0.77-0.571,1.248-0.571c0.895,0,1.613,0.671,1.613,1.866v1.998H31.014z"/>
			<path fill="#0167B9" d="M35.572,20.575c-0.271-0.254-0.578-0.339-0.941-0.339c-0.447,0-0.693,0.139-0.693,0.378
				c0,0.246,0.223,0.385,0.709,0.416c0.717,0.046,1.627,0.208,1.627,1.219c0,0.67-0.549,1.25-1.635,1.25
				c-0.602,0-1.203-0.1-1.76-0.679l0.465-0.671c0.27,0.301,0.885,0.524,1.311,0.532c0.354,0.008,0.686-0.177,0.686-0.455
				c0-0.262-0.217-0.37-0.756-0.4c-0.717-0.055-1.572-0.317-1.572-1.181c0-0.879,0.908-1.188,1.604-1.188
				c0.594,0,1.041,0.116,1.48,0.502L35.572,20.575z"/>
		</g>
		<rect x="21.277" y="17.98" fill="#F97F00" width="0.953" height="0.952"/>
	</g>
</g>
</svg>
