<?xml version="1.0" encoding="utf-8"?>
<!-- Generator: Adobe Illustrator 16.0.0, SVG Export Plug-In . SVG Version: 6.00 Build 0)  -->
<!DOCTYPE svg PUBLIC "-//W3C//DTD SVG 1.1//EN" "http://www.w3.org/Graphics/SVG/1.1/DTD/svg11.dtd">
<svg version="1.1" id="Capa_1" xmlns="http://www.w3.org/2000/svg" xmlns:xlink="http://www.w3.org/1999/xlink" x="0px" y="0px"
	 width="374px" height="85px" viewBox="0 0 374 85" enable-background="new 0 0 374 85" xml:space="preserve">
<g>
	<g>
		<path fill-rule="evenodd" clip-rule="evenodd" fill="#FFFFFF" d="M-341.36-81.506c1.076-3.702,2.17-7.4,3.224-11.108
			c0.768-2.704,1.509-5.419,2.217-8.14c1.035-3.979,3.451-6.294,7.667-6.51c0.234-0.012,0.465-0.059,0.698-0.083
			c5.748-0.603,7.803,1.054,8.227,6.794c0.415,5.613,0.701,11.236,1.116,16.85c0.056,0.76,0.535,1.488,0.818,2.231
			c0.46-0.649,1.152-1.235,1.346-1.956c1.612-5.997,3.131-12.02,4.683-18.031c0.175-0.682,0.35-1.364,0.575-2.029
			c0.87-2.574,2.075-3.555,4.774-3.595c4.913-0.071,4.3-0.412,3.175,3.841c-1.917,7.251-4.114,14.434-5.797,21.736
			c-1.73,7.51-7.688,8.154-13.747,6.82c-1.563-0.344-2.401-1.724-2.655-3.232c-0.34-2.018-0.53-4.066-0.66-6.109
			c-0.302-4.738-0.499-9.484-0.822-14.223c-0.043-0.631-0.571-1.229-0.875-1.842c-0.427,0.555-1.077,1.049-1.248,1.674
			c-1.624,5.934-3.167,11.889-4.733,17.838c-1.495,5.68-2.09,6.137-7.983,6.115C-341.36-76.812-341.36-79.159-341.36-81.506z"/>
		<path fill-rule="evenodd" clip-rule="evenodd" fill="#FFFFFF" d="M-158.011-73.674c-2.258-0.307-4.557-0.438-6.767-0.953
			c-5.074-1.184-7.692-4.637-7.421-9.833c0.274-5.263,1.574-10.299,4.038-14.987c2.572-4.896,6.64-7.55,12.147-8.125
			c3.886-0.406,7.733-0.371,11.506,0.682c4.73,1.321,7.009,4.207,6.968,9.074c-0.051,5.971-1.635,11.589-4.651,16.741
			c-3.167,5.409-8.377,6.969-14.212,7.204c-0.527,0.021-1.055,0.002-1.583,0.002C-157.994-73.804-158.002-73.738-158.011-73.674z
			 M-156.254-80.82c2.095-0.037,4.723-0.314,6.21-2.886c2.289-3.958,3.537-8.286,3.837-12.841c0.133-2.012-0.776-3.27-2.779-3.721
			c-1.803-0.404-3.705-0.525-5.56-0.498c-2.856,0.043-4.926,1.527-5.938,4.188c-0.976,2.564-1.854,5.182-2.547,7.836
			C-164.574-82.833-162.943-80.82-156.254-80.82z"/>
		<path fill-rule="evenodd" clip-rule="evenodd" fill="#FFFFFF" d="M-190.635-94.805c0.703,0,1.407,0.001,2.111,0
			c4.611-0.004,5.958-1.019,7.25-5.492c0.325-1.125,0.599-2.266,0.936-3.387c0.652-2.174,2.169-3.352,4.4-3.381
			c6.295-0.081,5.21-0.66,3.865,4.481c-2.031,7.762-4.148,15.502-6.256,23.244c-1.177,4.324-4.625,6.197-8.9,4.776
			c-0.329-0.11-0.624-1.149-0.502-1.651c0.771-3.188,1.67-6.342,2.512-9.512c0.531-1.998,0.339-2.242-1.748-2.252
			c-2.169-0.01-4.339-0.03-6.508,0.008c-3.367,0.059-4.91,1.168-5.967,4.379c-0.567,1.723-0.95,3.504-1.477,5.24
			c-0.88,2.898-2.082,3.793-5.078,3.885c-4.592,0.141-4.587,0.143-3.364-4.375c2.159-7.969,4.286-15.949,6.48-23.909
			c1.021-3.701,5.222-5.737,8.782-4.245c0.339,0.142,0.554,1.199,0.425,1.737c-0.65,2.734-1.441,5.433-2.167,8.15
			c-0.544,2.039-0.357,2.287,1.687,2.303C-192.98-94.797-191.808-94.805-190.635-94.805z"/>
		<path fill-rule="evenodd" clip-rule="evenodd" fill="#FFFFFF" d="M-293.171-74.461c-3.636,0-7.271-0.033-10.906,0.017
			c-1.349,0.019-1.772-0.354-1.386-1.76c2.096-7.624,4.048-15.288,6.192-22.897c1.677-5.947,4.543-7.989,10.753-8.005
			c5.101-0.013,10.203-0.008,15.304,0c2.006,0.003,2.117,0.167,1.565,2.148c-1.023,3.679-2.133,4.537-5.991,4.562
			c-3.107,0.021-6.216-0.039-9.323,0.031c-3.154,0.073-4.078,0.939-4.917,3.948c-0.444,1.593,0.159,1.998,1.614,1.983
			c3.812-0.039,7.623-0.02,11.434-0.01c1.951,0.004,2.074,0.174,1.579,2.006c-1.034,3.822-2.137,4.675-6.054,4.711
			c-2.638,0.025-5.278,0-7.911,0.118c-2.683,0.12-4.927,2.866-4.379,5.444c0.097,0.457,1.197,0.985,1.842,0.996
			c5.042,0.082,10.084,0.043,15.127,0.049c1.961,0.002,2.058,0.135,1.574,1.987c-0.976,3.729-2.18,4.659-6.089,4.669
			C-286.486-74.453-289.829-74.461-293.171-74.461z"/>
		<path fill-rule="evenodd" clip-rule="evenodd" fill="#FFFFFF" d="M-126.082-74.463c-3.577,0.002-7.155-0.05-10.73,0.026
			c-1.502,0.032-2.026-0.374-1.599-1.925c2.083-7.565,4.042-15.166,6.183-22.717c1.703-6.003,4.502-8.012,10.717-8.028
			c5.16-0.013,10.32,0.037,15.479-0.028c1.479-0.019,1.853,0.472,1.523,1.874c-0.884,3.759-2.192,4.841-6.131,4.866
			c-3.166,0.02-6.334-0.046-9.499,0.041c-2.964,0.082-4.05,1.088-4.734,3.956c-0.319,1.336-0.001,1.987,1.508,1.968
			c3.87-0.053,7.741,0.041,11.609-0.045c1.581-0.035,1.951,0.512,1.583,1.975c-0.931,3.695-2.206,4.734-6.031,4.773
			c-2.755,0.029-5.513,0.002-8.262,0.132c-2.417,0.112-4.782,3.235-4.138,5.515c0.127,0.451,1.155,0.906,1.776,0.916
			c4.866,0.076,9.733,0.042,14.6,0.043c2.735,0,2.816,0.115,1.968,2.769c-0.939,2.94-2.135,3.852-5.267,3.882
			C-119.045-74.438-122.563-74.463-126.082-74.463z"/>
		<path fill-rule="evenodd" clip-rule="evenodd" fill="#FFFFFF" d="M-241.547-74.637c-0.215-4.254,2.041-6.744,6.082-6.772
			c4.338-0.03,8.679,0.038,13.016-0.053c0.758-0.017,1.504-0.604,2.256-0.929c-0.447-0.735-0.723-1.723-1.37-2.161
			c-3.297-2.235-6.722-4.284-10.043-6.485c-4.786-3.172-5.632-7.871-2.376-12.572c1.797-2.596,4.531-3.335,7.378-3.41
			c6.153-0.158,12.312-0.064,18.469-0.094c1.05-0.004,1.406,0.494,1.131,1.435c-1.183,4.033-1.91,5.604-6.564,5.523
			c-3.751-0.063-7.505-0.021-11.258-0.004c-0.579,0.003-1.209,0.005-1.718,0.229c-0.425,0.186-1.042,0.766-0.984,1.051
			c0.124,0.611,0.499,1.334,1,1.678c2.369,1.623,4.817,3.127,7.23,4.684c1.378,0.891,2.775,1.756,4.108,2.711
			c2.805,2.01,3.981,4.697,3.127,8.119c-0.917,3.681-2.8,6.811-6.887,6.969C-226.431-74.432-233.93-74.637-241.547-74.637z"/>
		<path fill-rule="evenodd" clip-rule="evenodd" fill="#FFFFFF" d="M-77.472-106.771c0,2.058,0,4.158,0,6.443
			c-0.846,0.055-1.644,0.148-2.44,0.152c-3.87,0.016-7.743-0.061-11.609,0.061c-0.844,0.027-1.667,0.729-2.499,1.119
			c0.485,0.717,0.816,1.662,1.482,2.111c3.3,2.232,6.727,4.279,10.037,6.496c4.411,2.954,5.279,6.438,3.058,11.242
			c-1.385,2.992-3.764,4.511-6.929,4.572c-6.859,0.131-13.72,0.076-20.581,0.117c-1.156,0.007-1.383-0.472-1.125-1.543
			c1.039-4.314,2.395-5.414,6.863-5.416c3.87-0.003,7.74,0.02,11.61-0.014c1.058-0.01,2.447,0.408,2.887-1.008
			c0.477-1.535-1.019-1.934-1.935-2.535c-3.184-2.092-6.45-4.061-9.614-6.18c-4.6-3.082-5.408-7.959-2.188-12.492
			c1.311-1.843,3.164-3.008,5.312-3.069C-89.307-106.881-83.461-106.771-77.472-106.771z"/>
		<path fill-rule="evenodd" clip-rule="evenodd" fill="#FFFFFF" d="M-251.25-107.109c4.339,0,8.68,0.04,13.018-0.022
			c1.453-0.021,1.694,0.534,1.37,1.814c-1.035,4.088-2.308,5.127-6.492,5.149c-5.039,0.025-6.348,0.988-7.715,5.875
			c-1.355,4.852-2.628,9.727-3.954,14.586c-1.251,4.588-2.124,5.258-6.879,5.242c-3.023-0.012-3.295,0.504-2.332-3.01
			c1.845-6.721,3.635-13.457,5.445-20.188c0.598-2.221,0.406-2.492-1.827-2.504c-2.58-0.012-5.161-0.034-7.74,0.009
			c-1.299,0.021-1.631-0.428-1.29-1.706c1.143-4.279,2.339-5.245,6.785-5.246C-258.99-107.111-255.121-107.109-251.25-107.109z"/>
	</g>
</g>
<g>
	<g>
		<path fill-rule="evenodd" clip-rule="evenodd" fill="#FFFFFF" d="M67.159-105.222c-1.71,0.554-3.368,1.09-5.114,1.654
			c0.334,1.263,0.655,2.474,0.976,3.685c2.782,10.485,5.548,20.976,8.364,31.454c0.458,1.702,0.771,3.359,0.25,5.099
			c-0.877,2.931-3.598,5.071-6.656,5.129c-2.401,0.046-4.803,0.007-7.205,0.046c-0.526,0.006-0.658-0.241-0.772-0.666
			c-2.729-10.143-5.465-20.283-8.202-30.423C47.402-94.421,46-99.597,44.6-104.773c-0.044-0.164-0.104-0.325-0.195-0.606
			c-1.705,0.538-3.384,1.067-5.161,1.627c4.067,15.196,8.12,30.337,12.192,45.549c-0.348,0.016-0.59,0.035-0.833,0.035
			c-9.335,0-18.67-0.005-28.005,0.002c-1.518,0-3.009-0.069-4.406-0.783c-3.042-1.559-4.615-5.016-3.732-8.322
			c3.68-13.776,7.363-27.55,11.055-41.324c0.77-2.873,3.677-5.119,6.664-5.125c7.924-0.017,15.847-0.012,23.771,0
			c2.531,0.004,4.372,1.768,4.576,4.319c0.005,0.072,0.031,0.141,0.067,0.292c0.21-0.033,0.421-0.047,0.621-0.099
			c5.044-1.314,10.088-2.638,15.133-3.95c3.831-0.997,7.169,1.178,8.107,5.027c1.095,4.488,2.391,8.926,3.606,13.385
			c2.519,9.252,5.048,18.5,7.558,27.755c1.167,4.302-2.113,8.783-6.582,8.929c-2.82,0.091-5.645,0.015-8.467,0.062
			c-0.624,0.011-0.715-0.331-0.837-0.785c-2.025-7.517-4.057-15.031-6.088-22.546c-2.076-7.682-4.152-15.363-6.23-23.044
			C67.344-104.632,67.26-104.885,67.159-105.222z"/>
		<path fill-rule="evenodd" clip-rule="evenodd" fill="#FFFFFF" d="M214.271-113.767c0,1.673,0,3.245,0,4.905
			c-0.939,0-1.824,0-2.709,0c-1.41-0.001-2.822-0.014-4.233,0.001c-3.584,0.04-5.684,2.869-4.785,6.34
			c2.889,11.174,5.747,22.354,8.619,33.531c0.853,3.328,1.707,6.655,2.56,9.983c0.06,0.231,0.103,0.47,0.174,0.811
			c-0.328,0-0.568,0-0.808,0c-3.913,0.001-7.825,0.002-11.738,0.001c-2.714-0.002-4.922-1.659-5.608-4.312
			c-1.803-6.961-3.568-13.93-5.354-20.896c-2.081-8.115-4.171-16.227-6.238-24.346c-0.163-0.638-0.261-1.312-0.263-1.969
			c-0.017-8.172-0.003-16.344-0.025-24.516c-0.002-0.683,0.161-1.036,0.849-1.281c4.844-1.727,9.67-3.502,14.502-5.26
			c0.206-0.076,0.415-0.133,0.716-0.227c0.02,0.373,0.049,0.684,0.049,0.994c0.003,7.107-0.002,14.213,0.002,21.32
			c0.002,2.394,1.315,4.181,3.506,4.715c0.544,0.133,1.128,0.142,1.692,0.146c2.799,0.012,5.597,0.003,8.395,0.005
			C213.791-113.819,214.009-113.788,214.271-113.767z"/>
		<path fill-rule="evenodd" clip-rule="evenodd" fill="#FFFFFF" d="M100.281-99.474c0-1.68-0.021-3.285,0.03-4.888
			c0.006-0.202,0.367-0.481,0.621-0.575c3.868-1.439,7.747-2.85,11.621-4.273c3.202-1.177,6.378-2.429,9.605-3.528
			c9.626-3.275,20.209,2.486,22.786,12.312c1.81,6.907,3.682,13.799,5.529,20.696c1.098,4.105,2.233,8.2,3.297,12.315
			c1.254,4.844-2.179,9.223-7.173,9.221c-2.351-0.002-4.703-0.017-7.055,0.011c-0.53,0.006-0.762-0.127-0.908-0.677
			c-2.716-10.193-5.463-20.38-8.197-30.571c-1.46-5.439-2.906-10.882-4.367-16.322c-0.424-1.581-2.134-2.337-3.827-1.717
			c-4.318,1.581-8.635,3.16-12.954,4.74c-2.739,1.002-5.479,2.003-8.22,3.003C100.819-99.637,100.563-99.564,100.281-99.474z"/>
		<path fill-rule="evenodd" clip-rule="evenodd" fill="#FFFFFF" d="M178.756-113.689c0,1.677,0,3.258,0,4.928
			c-0.273,0.013-0.535,0.036-0.796,0.037c-2.327,0.003-4.655-0.002-6.982,0.003c-3.105,0.009-5.237,2.85-4.432,5.853
			c3.387,12.626,6.764,25.257,10.144,37.886c0.593,2.215,1.186,4.432,1.806,6.749c-0.329,0.016-0.586,0.037-0.845,0.037
			c-3.615,0.002-7.23,0.004-10.846,0.001c-3.035-0.003-5.915-2.215-6.705-5.148c-3.668-13.625-7.326-27.254-11.015-40.874
			c-0.382-1.411-0.873-2.763-0.597-4.277c0.546-2.979,3.125-5.223,6.144-5.227c7.751-0.009,15.502-0.005,23.252-0.005
			C178.152-113.727,178.42-113.705,178.756-113.689z"/>
		<path fill-rule="evenodd" clip-rule="evenodd" fill="#FFFFFF" d="M249.784-58.227c-0.195,0.027-0.316,0.057-0.435,0.056
			c-3.862-0.009-7.725,0.026-11.584-0.046c-2.766-0.051-5.519-2.318-6.31-5.18c-1.481-5.355-2.901-10.728-4.333-16.097
			c-2.957-11.074-5.905-22.15-8.856-33.226c-0.082-0.304-0.15-0.611-0.246-1.007c0.333,0,0.576,0,0.818,0
			c5.148,0,10.297,0.014,15.445-0.019c0.634-0.003,0.832,0.216,0.982,0.781c4.521,17.073,9.062,34.143,13.597,51.213
			C249.173-60.589,249.471-59.424,249.784-58.227z"/>
		<path fill-rule="evenodd" clip-rule="evenodd" fill="#FFFFFF" d="M123.699-93.933c3.186,11.904,6.359,23.755,9.567,35.738
			c-0.377,0-0.637,0-0.896,0c-9.285-0.001-18.569,0-27.853-0.002c-2.875-0.001-4.739-1.872-4.738-4.734
			c0-6.313-0.001-12.627,0-18.941c0-2.152,1.101-3.755,3.11-4.489c6.754-2.47,13.511-4.933,20.27-7.396
			C123.314-93.814,123.474-93.86,123.699-93.933z"/>
		<path fill-rule="evenodd" clip-rule="evenodd" fill="#FFFFFF" d="M218.899-121.093c-1.715-0.092-3.208-1.286-3.499-2.857
			c-0.346-1.867,0.52-3.563,2.24-4.205c3.614-1.346,7.243-2.647,10.866-3.965c1.672-0.607,3.347-1.209,5.019-1.815
			c2.079-0.753,4.141,0.086,4.858,1.981c0.771,2.034-0.174,4.042-2.307,4.822c-5.223,1.909-10.45,3.806-15.679,5.692
			C219.918-121.266,219.399-121.205,218.899-121.093z"/>
	</g>
</g>
<g>
	<path fill-rule="evenodd" clip-rule="evenodd" fill="#FFFFFF" d="M219.703,83.982c-12.684,0-25.371,0-38.088,0
		c-0.615-1.728-0.19-2.514,1.655-2.459c0.874,0.026,1.765-0.202,2.635-0.382c5.273-1.093,5.954-1.925,5.954-7.202
		c0-21.473-0.044-42.945,0.061-64.417c0.01-2.537-0.947-3.809-3.221-4.283c-2.36-0.492-4.748-0.853-7.287-1.298
		c0-0.806,0-1.722,0-2.816c0.924-0.044,1.716-0.114,2.507-0.114C199.555,1.004,215.193,1.02,230.831,1
		c6.021-0.009,11.591,1.4,16.269,5.318c6.912,5.789,9.656,13.234,7.312,21.952c-2.453,9.134-8.869,14.394-18.066,16.32
		c-0.686,0.143-1.379,0.254-2.399,0.44c1.471,1.922,2.737,3.58,4.009,5.235c6.701,8.74,13.443,17.453,20.09,26.238
		c2.284,3.022,5.111,4.919,8.925,5.152c1.468,0.09,2.125,0.627,1.527,2.291c-9.199,0-18.478,0-26.95,0
		c-9.611-14.536-18.953-28.667-28.566-43.211c2.985,0,5.466,0.041,7.945-0.007c10.458-0.199,18.85-7.928,19.093-17.564
		c0.263-10.303-7.737-18.92-18.287-19.498c-3.942-0.217-7.908-0.035-12.199-0.035c0,1.119,0,2.064,0,3.008
		c0,22.85,0,45.698,0,68.548c0,3.562,0.478,4.348,3.86,5.471c1.596,0.53,3.335,0.606,4.949,1.09c0.72,0.215,1.294,0.929,1.934,1.415
		C220.084,83.437,219.894,83.709,219.703,83.982z"/>
	<path fill-rule="evenodd" clip-rule="evenodd" fill="#FFFFFF" d="M80.882,1.213C64.186,27.854,47.67,54.208,30.85,81.046
		c1.224,0,2.05,0,2.878,0c11.584,0,23.167,0.004,34.749,0c5.615,0,9.049-2.777,10.238-8.284c0.12-0.552,0.244-1.104,0.529-2.404
		c0.869,0.744,1.962,1.234,1.992,1.78c0.165,3.231,0.091,6.476,0.084,9.716c-0.002,0.635-0.074,1.269-0.123,2.072
		c-24.086,0-48.063,0-72.493,0C25.482,57.308,42.07,30.995,58.971,4.186c-1.252,0-2.082,0-2.912,0c-9.8,0-19.603,0-29.402,0.001
		c-5.011,0-7.719,2.16-8.882,7.097c-0.221,0.936-0.388,1.883-0.601,2.928c-0.993,0-1.938,0-3.062,0c0-4.283,0-8.536,0-12.999
		C36.176,1.213,58.29,1.213,80.882,1.213z"/>
	<path fill-rule="evenodd" clip-rule="evenodd" fill="#FFFFFF" d="M101.449,81.769c0,0.792,0,1.417,0,2.189
		c-6.218,0-12.338,0-18.646,0c-0.046-0.727-0.092-1.406-0.134-2.094c0.356-0.144,0.565-0.293,0.784-0.306
		c4.603-0.27,7.592-2.278,9.62-6.747c10.726-23.644,21.74-47.157,32.658-70.713c0.393-0.85,0.823-1.682,1.441-2.94
		c0.626,1.207,1.063,2.035,1.488,2.871c11.873,23.457,23.856,46.858,35.521,70.42c2.344,4.738,5.762,6.674,10.608,7.049
		c0.559,0.044,1.119,0.068,1.841,0.111c0.06,0.731,0.119,1.421,0.191,2.309c-13.129,0-26.122,0-39.29,0
		c-0.048-0.673-0.092-1.357-0.138-2.055c0.321-0.136,0.523-0.254,0.744-0.307c2.03-0.49,4.112-0.829,6.084-1.49
		c1.606-0.537,2.167-1.61,1.222-3.403c-2.794-5.295-5.374-10.699-8.177-15.986c-0.375-0.709-1.549-1.403-2.36-1.41
		c-9.802-0.098-19.605-0.028-29.405-0.101c-1.399-0.011-2.001,0.546-2.521,1.702c-2.323,5.163-4.715,10.296-7.077,15.442
		c-1.165,2.54-0.756,3.594,1.902,4.544C98.933,81.258,100.135,81.448,101.449,81.769z M135.235,56.176
		c-5.332-10.456-10.467-20.522-15.837-31.058c-4.865,10.678-9.469,20.772-14.154,31.058
		C115.339,56.176,125.04,56.176,135.235,56.176z"/>
	<path fill-rule="evenodd" clip-rule="evenodd" fill="#FFFFFF" d="M290.009,84c-6.139,0-12.188,0-18.442,0
		c-0.049-0.74-0.093-1.41-0.135-2.065c0.38-0.159,0.59-0.313,0.811-0.326c4.528-0.256,7.445-2.293,9.426-6.646
		c10.749-23.634,21.758-47.151,32.678-70.707c0.405-0.874,0.83-1.738,1.463-3.059c0.602,1.102,1.056,1.888,1.467,2.697
		c11.956,23.596,24.01,47.146,35.775,70.838c2.301,4.636,5.672,6.552,10.451,6.873c0.553,0.036,1.104,0.093,1.794,0.149
		c0,0.795,0,1.461,0,2.238c-13.04,0-25.972,0-39.09,0c-0.04-0.734-0.077-1.41-0.114-2.085c0.356-0.14,0.567-0.249,0.79-0.305
		c2.097-0.534,4.249-0.919,6.281-1.636c1.364-0.479,1.898-1.518,1.077-3.096c-2.841-5.453-5.531-10.984-8.387-16.429
		c-0.313-0.6-1.327-1.18-2.02-1.185c-9.963-0.076-19.93-0.088-29.891,0.021c-0.76,0.008-1.838,0.882-2.201,1.627
		c-2.34,4.798-4.518,9.674-6.755,14.521c-1.745,3.784-0.994,5.272,3.247,6.115C289.558,81.803,290.727,81.952,290.009,84z
		 M293.956,56.095c10.062,0,19.787,0,29.915,0c-5.269-10.34-10.397-20.408-15.783-30.98
		C303.241,35.739,298.639,45.829,293.956,56.095z"/>
</g>
</svg>
