<?xml version="1.0" encoding="utf-8"?>
<!-- Generator: Adobe Illustrator 16.0.0, SVG Export Plug-In . SVG Version: 6.00 Build 0)  -->
<!DOCTYPE svg PUBLIC "-//W3C//DTD SVG 1.1//EN" "http://www.w3.org/Graphics/SVG/1.1/DTD/svg11.dtd">
<svg version="1.1" id="Capa_1" xmlns="http://www.w3.org/2000/svg" xmlns:xlink="http://www.w3.org/1999/xlink" x="0px" y="0px"
	 width="100px" height="100px" viewBox="0 0 100 100" enable-background="new 0 0 100 100" xml:space="preserve">
<g>
	<text transform="matrix(1 0 0 1 -440.5498 -124.603)" fill="#5595CF" font-family="'OpenSans-Bold'" font-size="12.5627">Producción</text>
</g>
<g>
	<text transform="matrix(1 0 0 1 -274.8936 -124.603)" fill="#5595CF" font-family="'OpenSans-Bold'" font-size="12.5627">Marketing</text>
</g>
<g>
	<text transform="matrix(1 0 0 1 -132.1733 47.3281)" fill="#5595CF" font-family="'OpenSans-Bold'" font-size="12.5627">Fulfillment</text>
</g>
<g>
	<text transform="matrix(1 0 0 1 -108.5933 -124.603)" fill="#5595CF" font-family="'OpenSans-Bold'" font-size="12.5627">TI</text>
</g>
<g>
	<text transform="matrix(1 0 0 1 -141.2495 213.3936)" fill="#5595CF" font-family="'OpenSans-Bold'" font-size="12.5627">Asesoría legal </text>
</g>
<g>
	<text transform="matrix(1 0 0 1 -258.1543 213.3936)" fill="#5595CF" font-family="'OpenSans-Bold'" font-size="12.5627">B2B</text>
</g>
<g>
	<path fill="#3A67B4" d="M83.109-86.271H64.398V-108.1c0-3.764-3.074-6.796-6.838-6.796H32.341c-3.762,0-6.734,3.032-6.734,6.796
		v21.821h-4.611v-3.353c0-1.547-1.196-2.847-2.736-2.847H9.548c-1.55,0-2.869,1.3-2.869,2.847v3.333C3.023-86.278,0-83.236,0-79.483
		v41.577c0,3.76,3.023,6.802,6.785,6.802h76.325c3.764,0,6.891-3.042,6.891-6.802v-41.577C90-83.247,86.873-86.271,83.109-86.271
		L83.109-86.271z M31.64-106.531c0-1.551,1.254-2.801,2.802-2.801h20.955c1.548,0,2.799,1.25,2.799,2.801v2.512
		c0,1.541-1.251,2.801-2.799,2.801H34.441c-1.548,0-2.802-1.26-2.802-2.801V-106.531z M44.951-35.378
		c-12.859,0-23.323-10.466-23.323-23.314c0-12.859,10.464-23.32,23.323-23.32c12.862,0,23.314,10.461,23.314,23.32
		C68.265-45.844,57.812-35.378,44.951-35.378L44.951-35.378z M44.951-35.378"/>
	<path fill="#3A67B4" d="M44.951-73.833c-8.344,0-15.139,6.786-15.139,15.141c0,8.349,6.794,15.134,15.139,15.134
		c8.345,0,15.14-6.785,15.14-15.134C60.091-67.047,53.296-73.833,44.951-73.833L44.951-73.833z M44.951-73.833"/>
</g>
<path fill="#3A67B4" d="M94.448,23.753c-0.545-0.747-1.41-1.189-2.337-1.189H27.137c-0.123,0-0.25,0.009-0.371,0.023l-2.674-7.709
	c-0.278-0.793-0.889-1.429-1.669-1.739L8.942,7.847C7.458,7.266,5.784,7.993,5.201,9.479c-0.583,1.481,0.146,3.158,1.631,3.742
	l12.239,4.808l14.981,43.187c-0.658,0.23-1.222,0.737-1.476,1.447l-4.33,12.032c-0.268,0.737-0.16,1.557,0.292,2.2
	c0.451,0.639,1.189,1.02,1.969,1.02h2.229c-1.382,1.537-2.229,3.559-2.229,5.777c0,4.779,3.888,8.662,8.665,8.662
	c4.78,0,8.664-3.883,8.664-8.662c0-2.219-0.845-4.24-2.228-5.777h18.89c-1.377,1.537-2.223,3.559-2.223,5.777
	c0,4.779,3.882,8.662,8.662,8.662c4.775,0,8.663-3.883,8.663-8.662c0-2.219-0.847-4.24-2.224-5.777h2.703
	c1.33,0,2.406-1.076,2.406-2.406c0-1.326-1.076-2.406-2.406-2.406H33.935l2.679-7.451c0.348,0.146,0.724,0.231,1.114,0.231H80.08
	c1.259,0,2.369-0.808,2.75-2.003l12.031-37.545C95.144,25.455,94.988,24.496,94.448,23.753L94.448,23.753z M39.171,87.541
	c-2.121,0-3.85-1.727-3.85-3.85c0-2.125,1.729-3.851,3.85-3.851c2.124,0,3.854,1.726,3.854,3.851
	C43.025,85.814,41.295,87.541,39.171,87.541L39.171,87.541z M70.938,87.541c-2.125,0-3.85-1.727-3.85-3.85
	c0-2.125,1.725-3.851,3.85-3.851s3.85,1.726,3.85,3.851C74.787,85.814,73.062,87.541,70.938,87.541L70.938,87.541z M86.072,34.841
	H71.337v-6.5h16.817L86.072,34.841z M81.833,48.077H71.337v-7.464h12.884L81.833,48.077z M52.244,48.077v-7.464h13.316v7.464H52.244
	z M65.561,53.849v6.261H52.244v-6.261H65.561z M33.023,40.613h13.445v7.464h-10.86L33.023,40.613z M52.244,34.841v-6.5h13.316v6.5
	H52.244z M46.468,28.341v6.5H31.016l-2.252-6.5H46.468z M37.615,53.849h8.854v6.261h-6.686L37.615,53.849z M71.337,60.109v-6.261
	h8.644l-2.006,6.261H71.337z M71.337,60.109"/>
<g>
	<path fill="#3A67B4" d="M-122.198-189.947v37.328h37.653v-37.328H-122.198z M-87.653-186.848v31.128h-31.445v-31.128H-87.653z
		 M-87.653-186.848"/>
	<path fill="#3A67B4" d="M-107.424-165.906l-9.895-4.304v-2.381l9.895-4.278v2.808l-6.893,2.641l6.893,2.741V-165.906z
		 M-107.424-165.906"/>
	<path fill="#3A67B4" d="M-106.504-164.01l3.576-14.924h2.072l-3.618,14.924H-106.504z M-106.504-164.01"/>
	<path fill="#3A67B4" d="M-99.946-165.906v-2.774l6.902-2.733l-6.902-2.69v-2.766l9.902,4.287v2.363L-99.946-165.906z
		 M-99.946-165.906"/>
</g>
<g>
	<text transform="matrix(1 0 0 1 -443.9985 47.3281)" fill="#5595CF" font-family="'OpenSans-Bold'" font-size="12.5627">Antifraude</text>
</g>
<g>
	<path fill="#3A67B4" d="M-416.053-28.737l-21.034,6.35v15.875c0,10.321,8.527,21.538,21.034,28.182
		c12.508-6.644,21.035-17.86,21.035-28.182v-15.875L-416.053-28.737z M-416.053,18.038c-10.744-6.205-17.86-15.912-17.86-24.551
		v-13.516l17.86-5.392V18.038z M-416.053,18.038"/>
</g>
<g>
	<text transform="matrix(1 0 0 1 -276.6465 47.3281)" fill="#5595CF" font-family="'OpenSans-Bold'" font-size="12.5627">Call Center</text>
</g>
<path fill="#3A67B4" d="M-78.253-7.387l-5.118-11.067l-19.569-7.968l-21.202,8.053l-5.542,8.042l5.473-0.482V7.229l20.508,8.116
	l20.349-8.116V-5.192L-78.253-7.387z M-102.91-10.683v-14.155l17.651,7.194L-102.91-10.683z M-104.514,13.433l-18.236-7.194V-16.25
	l18.236,7.194V13.433z M-84.818,6.238l-18.235,7.194V-9.056l4.005,10.606l14.23-6.119V6.238z M-84.818,6.238"/>
<g>
	<text transform="matrix(1 0 0 1 -448.5439 213.3936)" fill="#5595CF" font-family="'OpenSans-Bold'" font-size="12.5627">Distribución</text>
</g>
<g>
	<path fill="#3A67B4" d="M-390.613,169.832v-0.604l-5.066-16.638h-11.21v-3.982h-26.948v10.299h-5.742l-2.43,3.235h8.171v2.429
		h-9.179l-2.429,3.235h11.602v2.026h-1.286v5.457h1.286v0.812h0.877c0.492,2.903,3.016,5.125,6.062,5.125
		c3.04,0,5.563-2.222,6.055-5.125h13.812c0.486,2.903,3.01,5.125,6.056,5.125c3.04,0,5.563-2.222,6.055-5.125h4.314v-0.812h1.416
		v-5.457H-390.613z M-426.905,178.333c-1.795,0-3.259-1.462-3.259-3.258c0-1.797,1.458-3.259,3.259-3.259
		c1.79,0,3.253,1.462,3.253,3.259C-423.652,176.871-425.115,178.333-426.905,178.333L-426.905,178.333z M-400.982,178.333
		c-1.796,0-3.259-1.462-3.259-3.258c0-1.797,1.463-3.259,3.259-3.259c1.795,0,3.253,1.462,3.253,3.259
		C-397.729,176.871-399.187,178.333-400.982,178.333L-400.982,178.333z M-403.998,162.852v-7.37h6.174l2.246,7.37H-403.998z
		 M-403.998,162.852"/>
</g>
<path fill="#3A67B4" d="M-239.422-0.77c2.858-3.018,4.683-7.276,4.683-11.34c0-7.393-5.988-13.388-13.38-13.388
	c-7.391,0-13.387,5.995-13.387,13.388c0,1.825,0.388,3.683,1.049,5.459c1.644,3.708,4.873,6.58,8.961,7.629
	c0.81-1,2.032-1.603,3.377-1.603c2.404,0,4.353,1.958,4.353,4.363c0,2.4-1.957,4.35-4.353,4.35c-1.717,0-3.229-0.997-3.939-2.483
	c-3.51-0.778-6.59-2.537-8.986-4.955c-5.277,2.243-8.696,5.839-8.696,9.886c0,6.819,43.234,6.819,43.234,0
	C-226.506,5.479-231.816,1.144-239.422-0.77L-239.422-0.77z M-239.422-0.77"/>
<path fill="#3A67B4" d="M-250.886,4.26c0.248,1.303,1.388,2.287,2.758,2.287c1.561,0,2.817-1.258,2.817-2.808
	c0-1.555-1.256-2.816-2.809-2.816c-1.197,0-2.213,0.749-2.617,1.798c-7.07-1.247-12.463-7.416-12.463-14.83
	c0-8.317,6.764-15.081,15.081-15.081c8.309,0,15.073,6.764,15.073,15.081h1.544c0-9.168-7.458-16.628-16.617-16.628
	c-9.167,0-16.624,7.46-16.624,16.628C-264.744-3.895-258.732,2.938-250.886,4.26L-250.886,4.26z M-250.886,4.26"/>
<g>
	<path fill="#3A67B4" d="M-94.179,180.431v1.625h-19.578v-1.625c0-0.9,0.732-1.634,1.624-1.634h3.292
		c0.089-2.04,1.401-3.737,3.244-4.391v-19.134c-0.861-0.541-1.442-1.498-1.442-2.59h6.135c0,1.092-0.573,2.049-1.435,2.59v19.134
		c1.833,0.653,3.156,2.351,3.243,4.391h3.283C-94.913,178.797-94.179,179.53-94.179,180.431L-94.179,180.431z M-82.752,165.735
		c-1.195,3.371-4.383,5.802-8.159,5.802c-3.777,0-6.965-2.431-8.16-5.802h1.88l5.515-14.606c0.239-0.638,1.291-0.638,1.53,0
		l5.507,14.606H-82.752z M-86.377,165.735l-4.534-12.009l-4.534,12.009H-86.377z M-117.026,149.44c0.741,0,1.339-0.503,1.554-1.172
		c0.533-0.199,1.092-0.479,1.658-0.766c1.252-0.629,2.661-1.346,4.137-1.346c1.409,0,2.287,0.652,2.788,1.203
		c-0.017,0.143-0.04,0.278-0.04,0.43c0,1.634,1.324,2.957,2.955,2.957c1.635,0,2.966-1.323,2.966-2.957
		c0-0.151-0.023-0.287-0.048-0.43c0.502-0.551,1.387-1.203,2.797-1.203c1.475,0,2.885,0.717,4.136,1.346
		c0.565,0.287,1.115,0.566,1.657,0.766c0.208,0.669,0.813,1.172,1.555,1.172c0.908,0,1.649-0.742,1.649-1.65
		c0-0.916-0.741-1.649-1.649-1.649c-0.471,0-0.893,0.199-1.188,0.518c-0.407-0.167-0.845-0.39-1.291-0.613
		c-1.411-0.717-3.013-1.521-4.869-1.521c-1.625,0-2.757,0.621-3.522,1.283c-0.351-0.375-0.788-0.662-1.29-0.821
		c0.613-0.327,1.035-0.948,1.035-1.689c0-1.068-1.938-3.562-1.938-3.562s-1.927,2.493-1.927,3.562c0,0.741,0.422,1.362,1.035,1.689
		c-0.502,0.159-0.948,0.446-1.29,0.821c-0.766-0.662-1.898-1.283-3.521-1.283c-1.864,0-3.459,0.805-4.87,1.521
		c-0.454,0.224-0.885,0.446-1.291,0.613c-0.294-0.318-0.719-0.518-1.188-0.518c-0.907,0-1.65,0.733-1.65,1.649
		C-118.676,148.698-117.933,149.44-117.026,149.44L-117.026,149.44z M-117.026,171.537c-3.778,0-6.964-2.431-8.159-5.802h1.88
		l5.515-14.606c0.239-0.638,1.291-0.638,1.53,0l5.514,14.606h1.881C-110.061,169.106-113.248,171.537-117.026,171.537
		L-117.026,171.537z M-112.491,165.735l-4.535-12.009l-4.535,12.009H-112.491z M-112.491,165.735"/>
</g>
<g>
	<path fill="#3A67B4" d="M-269.434,157.312c0,2.479,1.702,4.545,3.995,5.141v17.502h-2.663c-0.734,0-1.332,0.596-1.332,1.332
		s0.598,1.332,1.332,1.332h39.958c0.739,0,1.332-0.596,1.332-1.332s-0.593-1.332-1.332-1.332h-2.664v-17.502
		c2.294-0.596,3.996-2.662,3.996-5.141v-1.332h-42.622V157.312z M-242.794,162.64c2.944,0,5.327-2.386,5.327-5.327
		c0,2.479,1.703,4.545,3.996,5.141v17.502h-19.979V162.64c2.945,0,5.329-2.386,5.329-5.327
		C-248.123,160.254-245.735,162.64-242.794,162.64L-242.794,162.64z M-254.783,162.453v17.502h-7.992v-17.502
		c2.294-0.596,3.996-2.662,3.996-5.141C-258.779,159.791-257.077,161.857-254.783,162.453L-254.783,162.453z M-232.14,143.993
		h-31.967l-5.328,10.655h42.622L-232.14,143.993z M-258.18,146.953l-2.664,5.328c-0.12,0.233-0.354,0.369-0.598,0.369
		c-0.099,0-0.2-0.021-0.297-0.07c-0.327-0.164-0.462-0.564-0.296-0.892l2.664-5.328c0.167-0.328,0.565-0.46,0.892-0.3
		C-258.149,146.225-258.019,146.625-258.18,146.953L-258.18,146.953z M-252.852,146.953l-2.664,5.328
		c-0.119,0.233-0.354,0.369-0.599,0.369c-0.098,0-0.2-0.021-0.297-0.07c-0.327-0.164-0.463-0.564-0.296-0.892l2.664-5.328
		c0.167-0.328,0.567-0.46,0.892-0.3C-252.821,146.225-252.691,146.625-252.852,146.953L-252.852,146.953z M-247.457,151.984
		c0,0.369-0.297,0.666-0.666,0.666c-0.367,0-0.666-0.297-0.666-0.666v-5.327c0-0.37,0.299-0.666,0.666-0.666
		c0.369,0,0.666,0.296,0.666,0.666V151.984z M-239.809,152.567c-0.104,0.057-0.213,0.083-0.322,0.083
		c-0.234,0-0.463-0.125-0.584-0.346l-2.912-5.328c-0.178-0.322-0.058-0.729,0.265-0.902c0.317-0.178,0.729-0.062,0.905,0.263
		l2.914,5.327C-239.372,151.987-239.485,152.394-239.809,152.567L-239.809,152.567z M-234.507,152.58
		c-0.093,0.049-0.193,0.07-0.297,0.07c-0.244,0-0.479-0.136-0.592-0.369l-2.664-5.328c-0.167-0.328-0.032-0.729,0.297-0.893
		c0.322-0.164,0.729-0.032,0.895,0.3l2.664,5.328C-234.043,152.016-234.174,152.416-234.507,152.58L-234.507,152.58z
		 M-258.113,172.167v-3.07c-0.39-0.234-0.666-0.64-0.666-1.129c0-0.736,0.599-1.332,1.332-1.332c0.739,0,1.332,0.596,1.332,1.332
		c0,0.489-0.272,0.895-0.665,1.129v3.07c0.393,0.234,0.665,0.64,0.665,1.128c0,0.736-0.593,1.332-1.332,1.332
		c-0.734,0-1.332-0.596-1.332-1.332C-258.779,172.807-258.502,172.401-258.113,172.167L-258.113,172.167z M-264.106,141.329
		c0-0.736,0.599-1.332,1.332-1.332h29.303c0.74,0,1.332,0.596,1.332,1.332s-0.592,1.332-1.332,1.332h-29.303
		C-263.508,142.661-264.106,142.065-264.106,141.329L-264.106,141.329z M-246.088,169.771l-0.942-0.942l3.767-3.766l0.942,0.94
		L-246.088,169.771z M-246.088,173.538l-0.942-0.942l7.535-7.533l0.942,0.94L-246.088,173.538z M-239.496,168.828l0.942,0.942
		l-3.767,3.768l-0.942-0.942L-239.496,168.828z M-239.496,168.828"/>
</g>
<g>
	<text transform="matrix(1 0 0 1 -258.3936 334.5107)" fill="#5595CF" font-family="'OpenSans-Bold'" font-size="12.5627">B2C</text>
</g>
<path fill="#3A67B4" d="M-226.982,272.603l-8.515-2.8c0,0,0,0-0.005,0h0.005c0,0-0.138-0.051-0.332-0.031
	c-0.188,0.021-0.322,0.118-0.322,0.118l-4.775,3.118c-0.217,0.139-0.346,0.382-0.346,0.641v8.538l-0.263-0.019v-13.793
	c0-0.331-0.216-0.626-0.524-0.728l-15.437-5.07c0,0-0.18-0.056-0.345-0.027c-0.198,0.027-0.341,0.133-0.341,0.133l-11.283,8.051
	c-0.203,0.143-0.323,0.372-0.323,0.621v28.567c0,0.276,0.152,0.534,0.396,0.668l11.287,6.185c0,0,0.115,0.069,0.276,0.088
	c0.161,0.022,0.277-0.015,0.277-0.015l15.437-3.896l6.567-1.658l8.515-2.15c0.336-0.083,0.576-0.392,0.576-0.742V273.33
	C-226.457,272.999-226.668,272.704-226.982,272.603L-226.982,272.603z M-267.486,296.312c0,0.082-0.042,0.16-0.106,0.207
	c-0.046,0.032-0.096,0.046-0.147,0.046c-0.032,0-0.061-0.004-0.088-0.014l-0.659-0.244c-0.101-0.037-0.169-0.134-0.169-0.24v-2.095
	c0-0.078,0.041-0.156,0.101-0.202c0.064-0.052,0.147-0.065,0.221-0.042l0.663,0.18c0.106,0.032,0.185,0.133,0.185,0.249V296.312z
	 M-267.486,292.001c0,0.073-0.033,0.146-0.092,0.192c-0.046,0.038-0.101,0.061-0.161,0.061c-0.019,0-0.032-0.005-0.046-0.005
	l-0.663-0.124c-0.12-0.022-0.207-0.129-0.207-0.249v-2.1c0-0.069,0.031-0.139,0.082-0.189c0.056-0.046,0.125-0.068,0.199-0.064
	l0.659,0.064c0.129,0.015,0.23,0.125,0.23,0.253V292.001z M-267.486,287.686c0,0.069-0.028,0.133-0.074,0.184
	c-0.051,0.046-0.111,0.074-0.18,0.074l-0.664-0.004c-0.138-0.005-0.252-0.116-0.252-0.259v-2.096c0-0.134,0.101-0.244,0.234-0.253
	l0.659-0.056c0.074-0.009,0.143,0.019,0.194,0.064c0.055,0.051,0.083,0.115,0.083,0.189V287.686z M-267.486,283.375
	c0,0.124-0.088,0.229-0.212,0.249l-0.659,0.114c-0.014,0.004-0.028,0.004-0.042,0.004c-0.06,0-0.12-0.021-0.166-0.06
	c-0.055-0.051-0.091-0.119-0.091-0.197v-2.096c0-0.115,0.078-0.217,0.188-0.244l0.659-0.174c0.079-0.02,0.162-0.006,0.221,0.045
	c0.064,0.047,0.102,0.119,0.102,0.202V283.375z M-267.486,279.063c0,0.106-0.069,0.202-0.17,0.239l-0.659,0.23
	c-0.027,0.01-0.055,0.015-0.083,0.015c-0.055,0-0.106-0.015-0.147-0.047c-0.07-0.046-0.11-0.123-0.11-0.207v-2.096
	c0-0.102,0.06-0.193,0.151-0.234l0.664-0.29c0.078-0.037,0.165-0.026,0.239,0.019c0.074,0.046,0.116,0.129,0.116,0.211V279.063z
	 M-267.486,274.748c0,0.098-0.051,0.181-0.134,0.227l-0.659,0.35c-0.041,0.023-0.082,0.032-0.119,0.032
	c-0.046,0-0.092-0.014-0.134-0.035c-0.078-0.048-0.124-0.131-0.124-0.218v-2.101c0-0.087,0.045-0.17,0.119-0.217l0.659-0.41
	c0.083-0.046,0.18-0.051,0.257-0.002c0.083,0.045,0.134,0.128,0.134,0.219V274.748z M-265.262,297.131
	c0,0.083-0.042,0.161-0.111,0.207c-0.041,0.032-0.091,0.047-0.142,0.047c-0.033,0-0.061-0.005-0.092-0.015l-0.783-0.29
	c-0.101-0.037-0.166-0.133-0.166-0.239v-2.289c0-0.078,0.036-0.151,0.097-0.203c0.064-0.045,0.147-0.06,0.226-0.041l0.783,0.222
	c0.11,0.027,0.189,0.128,0.189,0.244V297.131z M-265.262,292.415c0,0.078-0.037,0.147-0.092,0.197
	c-0.046,0.038-0.106,0.061-0.166,0.061c-0.014,0-0.028-0.004-0.046-0.004l-0.784-0.148c-0.124-0.022-0.211-0.129-0.211-0.253v-2.284
	c0-0.074,0.033-0.144,0.088-0.188c0.055-0.047,0.124-0.074,0.193-0.064l0.787,0.073c0.129,0.014,0.23,0.124,0.23,0.258V292.415z
	 M-265.262,287.704c0,0.069-0.027,0.133-0.079,0.18c-0.046,0.051-0.11,0.073-0.174,0.073h-0.005l-0.783-0.005
	c-0.144,0-0.253-0.115-0.253-0.253v-2.288c0-0.13,0.102-0.24,0.23-0.254l0.788-0.064c0.069-0.005,0.143,0.019,0.194,0.069
	c0.05,0.045,0.083,0.114,0.083,0.183V287.704z M-265.262,282.992c0,0.125-0.092,0.23-0.212,0.249l-0.787,0.137
	c-0.014,0-0.028,0-0.041,0c-0.06,0-0.121-0.017-0.166-0.059c-0.056-0.046-0.092-0.12-0.092-0.193v-2.285
	c0-0.119,0.078-0.215,0.193-0.249l0.783-0.206c0.079-0.019,0.162-0.004,0.222,0.046c0.06,0.046,0.096,0.125,0.096,0.202v2.358
	H-265.262z M-265.262,278.276c0,0.109-0.069,0.207-0.17,0.239l-0.788,0.282c-0.028,0.009-0.056,0.013-0.083,0.013
	c-0.056,0-0.106-0.019-0.148-0.047c-0.069-0.05-0.105-0.129-0.105-0.21v-2.285c0-0.102,0.055-0.194,0.152-0.23l0.783-0.35
	c0.078-0.032,0.17-0.028,0.244,0.019c0.069,0.046,0.115,0.128,0.115,0.216V278.276z M-265.262,273.564
	c0,0.092-0.051,0.181-0.134,0.227l-0.787,0.419c-0.037,0.019-0.079,0.027-0.12,0.027c-0.047,0-0.092-0.013-0.134-0.037
	c-0.073-0.046-0.12-0.128-0.12-0.216V271.7c0-0.087,0.042-0.17,0.12-0.217l0.782-0.492c0.079-0.046,0.18-0.052,0.258-0.005
	c0.083,0.047,0.134,0.128,0.134,0.221V273.564z M-262.587,298.116c0,0.083-0.036,0.161-0.105,0.208
	c-0.046,0.032-0.097,0.045-0.147,0.045c-0.028,0-0.06-0.004-0.087-0.013l-0.954-0.351c-0.097-0.037-0.166-0.134-0.166-0.239v-2.515
	c0-0.078,0.037-0.151,0.102-0.203c0.06-0.046,0.143-0.064,0.221-0.041l0.953,0.263c0.11,0.032,0.183,0.134,0.183,0.249V298.116z
	 M-262.587,292.917c0,0.078-0.031,0.147-0.092,0.198c-0.046,0.037-0.101,0.06-0.161,0.06c-0.014,0-0.033-0.005-0.046-0.005
	l-0.953-0.18c-0.12-0.022-0.207-0.129-0.207-0.248v-2.515c0-0.069,0.032-0.138,0.083-0.188c0.056-0.047,0.125-0.069,0.198-0.064
	l0.949,0.092c0.134,0.014,0.229,0.124,0.229,0.258V292.917z M-262.587,287.723c0,0.068-0.022,0.133-0.073,0.184
	c-0.046,0.046-0.11,0.073-0.18,0.073l-0.953-0.008c-0.138,0-0.253-0.116-0.253-0.254v-2.516c0-0.133,0.102-0.243,0.235-0.252
	l0.954-0.079c0.068-0.005,0.138,0.019,0.193,0.065c0.051,0.05,0.083,0.115,0.083,0.188v2.599H-262.587z M-262.587,282.527
	c0,0.123-0.086,0.229-0.207,0.253l-0.953,0.166c-0.014,0-0.027,0-0.046,0c-0.06,0-0.115-0.018-0.161-0.059
	c-0.061-0.048-0.092-0.121-0.092-0.195v-2.509c0-0.12,0.078-0.217,0.189-0.249l0.953-0.249c0.073-0.023,0.157-0.004,0.221,0.047
	c0.06,0.045,0.096,0.119,0.096,0.197V282.527z M-262.587,277.333c0,0.109-0.063,0.201-0.165,0.238l-0.953,0.337
	c-0.028,0.01-0.055,0.014-0.087,0.014c-0.051,0-0.101-0.014-0.148-0.045c-0.064-0.048-0.105-0.126-0.105-0.208v-2.515
	c0-0.102,0.06-0.189,0.152-0.23l0.953-0.424c0.079-0.031,0.171-0.027,0.24,0.019c0.074,0.051,0.114,0.129,0.114,0.217V277.333z
	 M-262.587,272.137c0,0.093-0.05,0.181-0.132,0.227l-0.954,0.506c-0.037,0.019-0.079,0.028-0.12,0.028
	c-0.046,0-0.092-0.01-0.13-0.037c-0.078-0.045-0.124-0.129-0.124-0.217v-2.51c0-0.092,0.046-0.17,0.12-0.216l0.953-0.594
	c0.079-0.052,0.175-0.052,0.258-0.005c0.083,0.041,0.128,0.129,0.128,0.221V272.137z M-259.293,299.323
	c0,0.087-0.042,0.166-0.111,0.212c-0.041,0.027-0.092,0.046-0.143,0.046c-0.032,0-0.06-0.005-0.092-0.019l-1.175-0.433
	c-0.101-0.037-0.166-0.134-0.166-0.239v-2.787c0-0.078,0.038-0.151,0.097-0.202c0.064-0.051,0.147-0.065,0.221-0.042l1.179,0.327
	c0.111,0.027,0.189,0.13,0.189,0.244V299.323z M-259.293,293.534c0,0.078-0.037,0.151-0.093,0.198
	c-0.045,0.037-0.105,0.06-0.166,0.06c-0.013,0-0.027-0.005-0.046-0.005l-1.179-0.221c-0.12-0.023-0.208-0.129-0.208-0.253v-2.786
	c0-0.069,0.033-0.139,0.088-0.189c0.051-0.046,0.125-0.069,0.193-0.064l1.179,0.115c0.13,0.014,0.231,0.124,0.231,0.253V293.534z
	 M-259.293,287.75c0,0.068-0.028,0.134-0.078,0.179c-0.046,0.047-0.111,0.074-0.175,0.074h-0.005l-1.174-0.009
	c-0.143,0-0.253-0.116-0.253-0.254v-2.79c0-0.135,0.102-0.245,0.23-0.254l1.179-0.097c0.074-0.005,0.143,0.018,0.194,0.063
	c0.05,0.051,0.083,0.116,0.083,0.189V287.75z M-259.293,281.96c0,0.125-0.093,0.231-0.212,0.249l-1.18,0.203
	c-0.014,0.004-0.027,0.004-0.041,0.004c-0.06,0-0.12-0.019-0.166-0.06c-0.055-0.046-0.092-0.119-0.092-0.193v-2.785
	c0-0.116,0.079-0.218,0.194-0.249l1.174-0.31c0.079-0.018,0.157-0.004,0.222,0.046c0.059,0.047,0.101,0.12,0.101,0.203V281.96z
	 M-259.293,276.172c0,0.105-0.069,0.208-0.17,0.239l-1.179,0.415c-0.028,0.009-0.056,0.019-0.083,0.019
	c-0.055,0-0.106-0.019-0.147-0.051c-0.068-0.047-0.106-0.125-0.106-0.207V273.8c0-0.101,0.056-0.193,0.147-0.235l1.18-0.52
	c0.078-0.037,0.17-0.028,0.244,0.018c0.069,0.047,0.116,0.13,0.116,0.217V276.172z M-259.293,270.383
	c0,0.097-0.051,0.18-0.138,0.226l-1.175,0.627c-0.037,0.018-0.079,0.031-0.12,0.031c-0.046,0-0.092-0.014-0.134-0.036
	c-0.074-0.046-0.125-0.129-0.125-0.222v-2.786c0-0.087,0.047-0.171,0.121-0.217l1.178-0.731c0.079-0.051,0.18-0.056,0.258-0.009
	c0.083,0.045,0.134,0.129,0.134,0.22V270.383z M-253.044,299.24c0,0.124-0.087,0.229-0.212,0.249l-2.717,0.46
	c-0.013,0.005-0.027,0.005-0.042,0.005c-0.06,0-0.12-0.019-0.166-0.061c-0.055-0.046-0.088-0.119-0.088-0.193v-2.988
	c0-0.124,0.093-0.235,0.222-0.249l2.717-0.35c0.069-0.01,0.143,0.014,0.198,0.06c0.056,0.051,0.087,0.12,0.087,0.194V299.24z
	 M-253.044,293.492c0,0.134-0.097,0.244-0.23,0.254l-2.717,0.234c-0.009,0-0.013,0-0.023,0c-0.064,0-0.124-0.022-0.17-0.064
	c-0.055-0.05-0.083-0.12-0.083-0.188v-2.961c0-0.139,0.106-0.249,0.24-0.258l2.717-0.12c0.073-0.005,0.138,0.019,0.188,0.069
	c0.051,0.046,0.078,0.115,0.078,0.184V293.492z M-253.044,287.746c0,0.142-0.111,0.257-0.253,0.257l-2.718,0.01
	c-0.069,0-0.134-0.028-0.179-0.073c-0.046-0.047-0.075-0.116-0.075-0.181v-2.989c0-0.068,0.028-0.133,0.079-0.184
	c0.051-0.046,0.115-0.069,0.185-0.069l2.717,0.101c0.138,0.005,0.244,0.12,0.244,0.259V287.746z M-253.044,282.003
	c0,0.067-0.027,0.138-0.078,0.184c-0.051,0.041-0.11,0.068-0.175,0.068c-0.009,0-0.014,0-0.019,0l-2.718-0.216
	c-0.133-0.015-0.235-0.12-0.235-0.258v-2.983c0-0.075,0.033-0.145,0.083-0.189c0.056-0.051,0.13-0.074,0.203-0.064l2.717,0.331
	c0.129,0.015,0.221,0.125,0.221,0.254V282.003z M-253.044,276.256c0,0.072-0.032,0.146-0.087,0.192
	c-0.046,0.042-0.106,0.06-0.166,0.06c-0.014,0-0.028,0-0.042,0l-2.716-0.442c-0.125-0.022-0.213-0.128-0.213-0.252v-2.985
	c0-0.078,0.033-0.152,0.093-0.198c0.06-0.051,0.138-0.068,0.212-0.056l2.717,0.558c0.121,0.023,0.203,0.129,0.203,0.249V276.256z
	 M-253.044,270.508c0,0.078-0.032,0.151-0.097,0.202c-0.046,0.032-0.101,0.055-0.156,0.055c-0.019,0-0.042-0.005-0.06-0.01
	l-2.717-0.667c-0.115-0.027-0.194-0.128-0.194-0.249v-2.983c0-0.083,0.038-0.157,0.102-0.203c0.065-0.051,0.143-0.064,0.221-0.041
	l2.717,0.778c0.111,0.031,0.185,0.128,0.185,0.244V270.508z M-248.181,298.416c0,0.124-0.092,0.23-0.211,0.253l-2.344,0.396
	c-0.015,0-0.027,0-0.042,0c-0.06,0-0.119-0.018-0.165-0.06c-0.055-0.045-0.092-0.119-0.092-0.193v-2.768
	c0-0.129,0.096-0.234,0.226-0.253l2.339-0.3c0.074-0.009,0.147,0.014,0.203,0.06c0.056,0.052,0.087,0.12,0.087,0.194V298.416z
	 M-248.181,293.073c0,0.134-0.101,0.244-0.235,0.254l-2.339,0.203c-0.009,0-0.014,0-0.023,0c-0.064,0-0.125-0.023-0.17-0.07
	c-0.056-0.046-0.083-0.114-0.083-0.184v-2.768c0-0.139,0.106-0.249,0.244-0.259l2.339-0.101c0.069-0.005,0.138,0.019,0.188,0.068
	c0.051,0.047,0.079,0.115,0.079,0.185V293.073z M-248.181,287.731c0,0.138-0.115,0.253-0.253,0.253l-2.345,0.01
	c-0.068,0-0.134-0.028-0.179-0.074c-0.051-0.051-0.078-0.115-0.078-0.18v-2.772c0-0.069,0.032-0.133,0.078-0.18
	c0.051-0.051,0.119-0.078,0.188-0.074l2.339,0.089c0.138,0.009,0.249,0.119,0.249,0.258V287.731z M-248.181,282.385
	c0,0.072-0.032,0.143-0.083,0.188c-0.046,0.041-0.11,0.068-0.175,0.068c-0.005,0-0.014,0-0.018-0.004l-2.344-0.185
	c-0.129-0.008-0.235-0.119-0.235-0.253v-2.768c0-0.074,0.032-0.144,0.087-0.188c0.055-0.051,0.128-0.074,0.203-0.064l2.339,0.284
	c0.129,0.015,0.226,0.125,0.226,0.254V282.385z M-248.181,277.042c0,0.074-0.032,0.147-0.092,0.194
	c-0.046,0.041-0.101,0.063-0.166,0.063c-0.014,0-0.023-0.004-0.036-0.004l-2.345-0.383c-0.124-0.019-0.216-0.124-0.216-0.249v-2.771
	c0-0.075,0.037-0.147,0.096-0.198c0.06-0.046,0.139-0.064,0.212-0.051l2.345,0.479c0.115,0.021,0.202,0.128,0.202,0.248V277.042z
	 M-248.181,271.7c0,0.078-0.037,0.151-0.097,0.202c-0.046,0.037-0.102,0.056-0.156,0.056c-0.023,0-0.041-0.005-0.064-0.01
	l-2.34-0.575c-0.115-0.027-0.193-0.128-0.193-0.249v-2.768c0-0.078,0.037-0.151,0.101-0.203c0.06-0.046,0.147-0.063,0.222-0.041
	l2.344,0.673c0.105,0.032,0.184,0.134,0.184,0.244V271.7z M-243.957,297.697c0,0.125-0.088,0.23-0.212,0.253l-2.04,0.346
	c-0.014,0.005-0.028,0.005-0.042,0.005c-0.06,0-0.119-0.023-0.165-0.06c-0.06-0.052-0.093-0.12-0.093-0.193v-2.584
	c0-0.129,0.097-0.235,0.221-0.254l2.04-0.258c0.074-0.009,0.148,0.014,0.203,0.061c0.055,0.05,0.088,0.12,0.088,0.192V297.697z
	 M-243.957,292.705c0,0.134-0.102,0.244-0.235,0.258l-2.04,0.176c-0.005,0-0.014,0-0.019,0c-0.064,0-0.124-0.023-0.174-0.069
	c-0.051-0.047-0.083-0.115-0.083-0.185v-2.578c0-0.139,0.106-0.25,0.245-0.259l2.04-0.092c0.069,0,0.138,0.023,0.188,0.073
	c0.05,0.046,0.079,0.115,0.079,0.185V292.705z M-243.957,287.713c0,0.143-0.117,0.253-0.254,0.259l-2.04,0.004
	c-0.069,0-0.133-0.023-0.179-0.074c-0.05-0.046-0.079-0.11-0.079-0.179v-2.579c0-0.069,0.028-0.139,0.079-0.185
	c0.051-0.047,0.12-0.074,0.189-0.069l2.041,0.074c0.133,0.004,0.244,0.119,0.244,0.258V287.713z M-243.957,282.721
	c0,0.073-0.029,0.143-0.083,0.188c-0.046,0.046-0.105,0.069-0.171,0.069c-0.008,0-0.013,0-0.022-0.005l-2.04-0.161
	c-0.13-0.01-0.236-0.12-0.236-0.253v-2.579c0-0.074,0.033-0.143,0.087-0.192c0.056-0.047,0.13-0.07,0.203-0.061l2.036,0.248
	c0.129,0.014,0.226,0.124,0.226,0.254V282.721z M-243.957,277.729c0,0.077-0.033,0.147-0.088,0.196
	c-0.051,0.037-0.106,0.061-0.167,0.061c-0.013,0-0.027-0.005-0.041-0.005l-2.04-0.331c-0.125-0.023-0.217-0.13-0.217-0.254v-2.579
	c0-0.078,0.037-0.146,0.097-0.197c0.061-0.046,0.134-0.07,0.213-0.051l2.04,0.414c0.115,0.023,0.203,0.13,0.203,0.248V277.729z
	 M-243.957,272.735c0,0.08-0.037,0.157-0.097,0.204c-0.046,0.036-0.102,0.055-0.157,0.055c-0.022,0-0.041-0.005-0.064-0.01
	l-2.04-0.497c-0.11-0.027-0.194-0.133-0.194-0.249v-2.583c0-0.078,0.042-0.152,0.102-0.203c0.064-0.045,0.146-0.064,0.226-0.041
	l2.04,0.585c0.105,0.032,0.185,0.133,0.185,0.249V272.735z M-235.479,300.553c0,0.115-0.083,0.216-0.193,0.249l-6.567,1.658
	c-0.019,0.004-0.042,0.004-0.06,0.004c-0.06,0-0.111-0.019-0.157-0.051c-0.064-0.051-0.101-0.124-0.101-0.202v-14.503
	c0-0.022,0.041-2.676,3.748-2.537c3.293,0.124,3.33,2.491,3.33,2.515V300.553z M-232.725,295.796c0,0.124-0.087,0.229-0.211,0.253
	l-1.341,0.226c-0.014,0.004-0.027,0.004-0.041,0.004c-0.06,0-0.12-0.022-0.166-0.06c-0.055-0.051-0.087-0.119-0.087-0.198v-2.081
	c0-0.129,0.092-0.24,0.221-0.254l1.34-0.175c0.074-0.009,0.148,0.015,0.203,0.064c0.051,0.047,0.083,0.115,0.083,0.189V295.796z
	 M-232.725,291.737c0,0.13-0.097,0.24-0.23,0.254l-1.34,0.115c-0.009,0-0.018,0-0.023,0c-0.065,0-0.125-0.023-0.175-0.064
	c-0.05-0.051-0.078-0.12-0.078-0.188v-2.087c0-0.138,0.105-0.248,0.239-0.253l1.345-0.06c0.069-0.005,0.138,0.018,0.183,0.068
	c0.052,0.047,0.079,0.115,0.079,0.185V291.737z M-232.725,287.662c0,0.138-0.11,0.253-0.253,0.253l-1.34,0.005
	c-0.069,0-0.134-0.027-0.18-0.073c-0.046-0.051-0.074-0.115-0.074-0.18v-2.072c0-0.069,0.028-0.134,0.078-0.184
	c0.046-0.047,0.115-0.07,0.184-0.07l1.34,0.051c0.138,0.005,0.249,0.12,0.249,0.259v2.012H-232.725z M-232.725,283.614
	c0,0.073-0.027,0.143-0.079,0.188c-0.05,0.046-0.11,0.068-0.174,0.068c-0.005,0-0.015-0.003-0.019-0.003l-1.345-0.106
	c-0.128-0.01-0.23-0.12-0.23-0.253v-2.087c0-0.074,0.028-0.143,0.083-0.189c0.055-0.05,0.129-0.073,0.197-0.06l1.346,0.161
	c0.129,0.014,0.221,0.124,0.221,0.254V283.614z M-232.725,279.557c0,0.074-0.032,0.143-0.087,0.193
	c-0.047,0.042-0.106,0.06-0.166,0.06c-0.015,0-0.028,0-0.042-0.004l-1.34-0.217c-0.125-0.018-0.217-0.125-0.217-0.249v-2.086
	c0-0.078,0.037-0.152,0.097-0.198c0.06-0.051,0.138-0.068,0.211-0.056l1.34,0.277c0.12,0.022,0.203,0.129,0.203,0.249V279.557z
	 M-232.725,275.495c0,0.077-0.032,0.151-0.097,0.202c-0.045,0.036-0.101,0.056-0.156,0.056c-0.019,0-0.042-0.005-0.06-0.009
	l-1.341-0.327c-0.115-0.033-0.193-0.134-0.193-0.249v-2.087c0-0.078,0.036-0.156,0.102-0.203c0.06-0.05,0.142-0.062,0.221-0.041
	l1.34,0.383c0.11,0.032,0.184,0.134,0.184,0.244V275.495z M-230.248,295.376c0,0.124-0.087,0.23-0.211,0.249l-1.207,0.207
	c-0.014,0.004-0.029,0.004-0.042,0.004c-0.06,0-0.12-0.022-0.165-0.06c-0.056-0.05-0.088-0.119-0.088-0.193v-1.979
	c0-0.13,0.092-0.235,0.222-0.254l1.206-0.151c0.074-0.01,0.143,0.014,0.198,0.06c0.055,0.051,0.087,0.12,0.087,0.193V295.376z
	 M-230.248,291.521c0,0.134-0.097,0.244-0.229,0.254l-1.207,0.105c-0.011,0-0.014,0-0.023,0c-0.064,0-0.125-0.022-0.17-0.064
	c-0.056-0.051-0.083-0.12-0.083-0.188v-1.976c0-0.139,0.106-0.249,0.244-0.259l1.207-0.055c0.069,0,0.138,0.022,0.184,0.073
	c0.051,0.047,0.078,0.11,0.078,0.185V291.521z M-230.248,287.667c0,0.143-0.11,0.258-0.253,0.258l-1.207,0.004
	c-0.068,0-0.134-0.027-0.179-0.073c-0.046-0.051-0.074-0.115-0.074-0.184v-1.977c0-0.068,0.027-0.138,0.078-0.184
	c0.05-0.051,0.115-0.074,0.184-0.074l1.207,0.047c0.139,0.009,0.244,0.119,0.244,0.258V287.667z M-230.248,283.812
	c0,0.073-0.027,0.138-0.078,0.188c-0.05,0.041-0.11,0.065-0.175,0.065c-0.005,0-0.014,0-0.019,0l-1.207-0.094
	c-0.134-0.013-0.235-0.124-0.235-0.257v-1.976c0-0.075,0.027-0.144,0.088-0.193c0.05-0.046,0.124-0.07,0.198-0.061l1.206,0.146
	c0.129,0.015,0.221,0.125,0.221,0.254V283.812z M-230.248,279.957c0,0.079-0.033,0.147-0.087,0.193
	c-0.046,0.042-0.105,0.065-0.166,0.065c-0.014,0-0.027-0.005-0.042-0.005l-1.207-0.198c-0.124-0.019-0.211-0.124-0.211-0.249v-1.98
	c0-0.073,0.032-0.147,0.092-0.198c0.06-0.046,0.138-0.064,0.212-0.051l1.207,0.244c0.12,0.028,0.203,0.135,0.203,0.254V279.957z
	 M-230.248,276.104c0,0.077-0.033,0.152-0.097,0.202c-0.045,0.037-0.101,0.055-0.156,0.055c-0.019,0-0.042-0.004-0.06-0.009
	l-1.207-0.295c-0.115-0.027-0.193-0.129-0.193-0.249v-1.976c0-0.082,0.037-0.157,0.101-0.202c0.065-0.051,0.147-0.065,0.222-0.041
	l1.206,0.345c0.111,0.026,0.185,0.129,0.185,0.244V276.104z M-228.004,294.999c0,0.124-0.093,0.229-0.216,0.248l-1.091,0.185
	c-0.014,0.005-0.028,0.005-0.042,0.005c-0.061,0-0.12-0.02-0.166-0.061c-0.055-0.046-0.088-0.119-0.088-0.193v-1.879
	c0-0.129,0.092-0.239,0.222-0.254l1.091-0.138c0.074-0.009,0.147,0.014,0.203,0.061c0.055,0.046,0.083,0.119,0.083,0.193v1.833
	H-228.004z M-228.004,291.328c0,0.134-0.102,0.244-0.235,0.254l-1.092,0.096c-0.009,0-0.014,0-0.022,0
	c-0.061,0-0.125-0.022-0.171-0.068c-0.055-0.047-0.083-0.115-0.083-0.185v-1.879c0-0.138,0.106-0.253,0.244-0.258l1.091-0.051
	c0.069,0,0.138,0.023,0.185,0.073c0.05,0.046,0.083,0.116,0.083,0.185V291.328z M-228.004,287.662c0,0.138-0.115,0.253-0.258,0.253
	l-1.091,0.005c-0.065,0-0.134-0.027-0.18-0.073c-0.046-0.051-0.074-0.115-0.074-0.18v-1.879c0-0.073,0.028-0.138,0.079-0.188
	c0.05-0.047,0.114-0.074,0.184-0.069l1.092,0.041c0.138,0.005,0.249,0.12,0.249,0.258V287.662z M-228.004,283.992
	c0,0.069-0.033,0.138-0.083,0.188c-0.051,0.041-0.111,0.064-0.175,0.064c-0.005,0-0.014,0-0.019,0l-1.091-0.088
	c-0.134-0.009-0.235-0.12-0.235-0.253v-1.88c0-0.072,0.033-0.143,0.088-0.192c0.05-0.046,0.124-0.069,0.198-0.061l1.091,0.129
	c0.129,0.019,0.226,0.124,0.226,0.253V283.992z M-228.004,280.321c0,0.078-0.037,0.147-0.093,0.193
	c-0.045,0.042-0.105,0.06-0.165,0.06c-0.014,0-0.028,0-0.042,0l-1.091-0.18c-0.124-0.018-0.211-0.124-0.211-0.249v-1.879
	c0-0.078,0.033-0.151,0.092-0.197c0.06-0.051,0.138-0.068,0.212-0.056l1.092,0.226c0.12,0.023,0.207,0.129,0.207,0.248V280.321z
	 M-228.004,276.655c0,0.079-0.037,0.151-0.102,0.198c-0.042,0.037-0.102,0.055-0.156,0.055c-0.019,0-0.042,0-0.061-0.01
	l-1.092-0.266c-0.114-0.028-0.193-0.13-0.193-0.245v-1.884c0-0.077,0.037-0.151,0.101-0.202c0.065-0.047,0.147-0.064,0.222-0.041
	l1.091,0.313c0.11,0.031,0.184,0.133,0.184,0.243v1.838H-228.004z M-228.004,276.655"/>
<g>
	<text transform="matrix(1 0 0 1 -137.1177 334.5107)" fill="#5595CF" font-family="'OpenSans-Bold'" font-size="12.5627">Market Place </text>
</g>
<g>
	<path fill="#3A67B4" d="M-95.266,269.04h-18.307c-0.797,0-1.444,0.648-1.444,1.444v33.146c0,0.796,0.647,1.444,1.444,1.444h18.307
		c0.797,0,1.443-0.648,1.443-1.444v-33.146C-93.823,269.688-94.469,269.04-95.266,269.04L-95.266,269.04z M-104.419,302.659
		c-0.864,0-1.566-0.704-1.566-1.566c0-0.864,0.702-1.566,1.566-1.566c0.863,0,1.565,0.702,1.565,1.566
		C-102.854,301.955-103.556,302.659-104.419,302.659L-104.419,302.659z M-96.971,297.812h-14.897v-25.624h14.897V297.812z
		 M-96.971,297.812"/>
	<path fill="#3A67B4" d="M-104.502,291.761c0,0.552-0.448,0.999-0.999,0.999c-0.553,0-1-0.447-1-0.999c0-0.553,0.447-1,1-1
		C-104.951,290.761-104.502,291.208-104.502,291.761L-104.502,291.761z M-104.502,291.761"/>
	<path fill="#3A67B4" d="M-101.828,290.761c-0.552,0-1,0.447-1,1c0,0.552,0.448,0.999,1,0.999s1-0.447,1-0.999
		C-100.828,291.208-101.276,290.761-101.828,290.761L-101.828,290.761z M-101.828,290.761"/>
	<path fill="#3A67B4" d="M-110.285,282.917l0.706,0.438l2.437,6.313c0.074,0.193,0.261,0.32,0.467,0.32h6.021
		c0.206,0,0.393-0.127,0.467-0.32l1.999-5.199c0.06-0.154,0.039-0.326-0.054-0.463c-0.094-0.135-0.247-0.217-0.413-0.217h-8.939
		l-0.514-1.312c-0.066-0.171-0.187-0.314-0.342-0.411l-0.944-0.585c-0.396-0.245-0.917-0.123-1.163,0.273
		C-110.803,282.15-110.681,282.672-110.285,282.917L-110.285,282.917z M-110.285,282.917"/>
</g>
</svg>
