<?xml version="1.0" encoding="utf-8"?>
<!-- Generator: Adobe Illustrator 16.0.0, SVG Export Plug-In . SVG Version: 6.00 Build 0)  -->
<!DOCTYPE svg PUBLIC "-//W3C//DTD SVG 1.1//EN" "http://www.w3.org/Graphics/SVG/1.1/DTD/svg11.dtd">
<svg version="1.1" id="Capa_1" xmlns="http://www.w3.org/2000/svg" xmlns:xlink="http://www.w3.org/1999/xlink" x="0px" y="0px"
	 width="126.75px" height="100px" viewBox="0 0 126.75 100" enable-background="new 0 0 126.75 100" xml:space="preserve">
<path fill="#FFFFFF" d="M110.24,22.512c-0.578-0.792-1.494-1.261-2.477-1.261H38.889c-0.129,0-0.264,0.01-0.393,0.025l-2.836-8.171
	c-0.293-0.841-0.941-1.515-1.768-1.844l-14.289-5.61c-1.576-0.617-3.35,0.154-3.967,1.729c-0.617,1.569,0.154,3.348,1.729,3.967
	l12.975,5.096l15.879,45.779c-0.695,0.243-1.295,0.782-1.562,1.533L40.064,76.51c-0.283,0.782-0.168,1.65,0.309,2.333
	c0.479,0.677,1.262,1.081,2.088,1.081h2.363c-1.465,1.629-2.363,3.771-2.363,6.124c0,5.066,4.123,9.182,9.184,9.182
	c5.068,0,9.186-4.116,9.186-9.182c0-2.353-0.896-4.495-2.361-6.124h20.023c-1.459,1.629-2.355,3.771-2.355,6.124
	c0,5.066,4.115,9.182,9.182,9.182c5.062,0,9.182-4.116,9.182-9.182c0-2.353-0.896-4.495-2.355-6.124h2.865
	c1.41,0,2.551-1.141,2.551-2.551c0-1.405-1.141-2.551-2.551-2.551H46.096l2.84-7.896c0.369,0.154,0.766,0.244,1.18,0.244H95.01
	c1.334,0,2.512-0.857,2.914-2.123l12.754-39.799C110.979,24.315,110.814,23.298,110.24,22.512L110.24,22.512z M51.645,90.126
	c-2.246,0-4.08-1.829-4.08-4.08c0-2.253,1.834-4.082,4.08-4.082c2.254,0,4.086,1.829,4.086,4.082
	C55.73,88.298,53.898,90.126,51.645,90.126L51.645,90.126z M85.318,90.126c-2.252,0-4.08-1.829-4.08-4.08
	c0-2.253,1.828-4.082,4.08-4.082s4.08,1.829,4.08,4.082C89.398,88.298,87.57,90.126,85.318,90.126L85.318,90.126z M101.361,34.265
	H85.742v-6.891h17.826L101.361,34.265z M96.867,48.294H85.742v-7.912h13.656L96.867,48.294z M65.504,48.294v-7.912h14.115v7.912
	H65.504z M79.619,54.413v6.636H65.504v-6.636H79.619z M45.129,40.382h14.252v7.912H47.869L45.129,40.382z M65.504,34.265v-6.891
	h14.115v6.891H65.504z M59.381,27.374v6.891H43l-2.387-6.891H59.381z M49.996,54.413h9.385v6.636h-7.088L49.996,54.413z
	 M85.742,61.049v-6.636h9.162l-2.127,6.636H85.742z M85.742,61.049"/>
</svg>
