<?xml version="1.0" encoding="utf-8"?>
<!-- Generator: Adobe Illustrator 16.0.0, SVG Export Plug-In . SVG Version: 6.00 Build 0)  -->
<!DOCTYPE svg PUBLIC "-//W3C//DTD SVG 1.1//EN" "http://www.w3.org/Graphics/SVG/1.1/DTD/svg11.dtd">
<svg version="1.1" id="Capa_1" xmlns="http://www.w3.org/2000/svg" xmlns:xlink="http://www.w3.org/1999/xlink" x="0px" y="0px"
	 width="660.536px" height="85px" viewBox="0 0 660.536 85" enable-background="new 0 0 660.536 85" xml:space="preserve">
<g>
	<path fill="#FFFFFF" d="M514.944-165.131c-12.686,0-25.371,0-38.088,0c-0.615-1.728-0.191-2.514,1.654-2.459
		c0.873,0.026,1.766-0.202,2.635-0.382c5.273-1.093,5.953-1.925,5.953-7.202c0-21.473-0.043-42.945,0.062-64.417
		c0.01-2.537-0.947-3.809-3.221-4.283c-2.361-0.492-4.748-0.853-7.287-1.298c0-0.806,0-1.722,0-2.816
		c0.924-0.044,1.715-0.114,2.506-0.114c15.637-0.006,31.273,0.009,46.912-0.011c6.021-0.009,11.592,1.4,16.27,5.318
		c6.912,5.789,9.656,13.234,7.312,21.952c-2.453,9.134-8.869,14.394-18.066,16.32c-0.686,0.143-1.379,0.254-2.398,0.44
		c1.471,1.922,2.736,3.58,4.008,5.235c6.701,8.74,13.443,17.453,20.09,26.238c2.285,3.022,5.111,4.919,8.926,5.152
		c1.467,0.09,2.125,0.627,1.527,2.291c-9.199,0-18.479,0-26.951,0c-9.611-14.536-18.953-28.667-28.566-43.211
		c2.986,0,5.467,0.041,7.945-0.007c10.459-0.199,18.85-7.928,19.094-17.564c0.264-10.303-7.736-18.92-18.287-19.498
		c-3.941-0.217-7.908-0.035-12.199-0.035c0,1.119,0,2.064,0,3.008c0,22.85,0,45.698,0,68.548c0,3.562,0.479,4.348,3.859,5.471
		c1.598,0.53,3.336,0.606,4.949,1.09c0.721,0.215,1.295,0.929,1.934,1.415C515.325-165.677,515.133-165.404,514.944-165.131z"/>
	<path fill="#FFFFFF" d="M376.122-247.9c-16.695,26.64-33.211,52.995-50.032,79.833c1.225,0,2.05,0,2.878,0
		c11.583,0,23.167,0.004,34.75,0c5.615,0,9.049-2.777,10.238-8.284c0.119-0.552,0.244-1.104,0.529-2.404
		c0.867,0.744,1.961,1.234,1.99,1.78c0.166,3.231,0.092,6.476,0.084,9.716c-0.002,0.635-0.072,1.269-0.121,2.072
		c-24.088,0-48.064,0-72.494,0c16.778-26.618,33.365-52.931,50.268-79.74c-1.252,0-2.082,0-2.912,0c-9.801,0-19.604,0-29.402,0.001
		c-5.012,0-7.72,2.16-8.883,7.097c-0.221,0.936-0.388,1.883-0.601,2.928c-0.993,0-1.938,0-3.062,0c0-4.283,0-8.536,0-12.999
		C331.417-247.9,353.53-247.9,376.122-247.9z"/>
	<path fill="#FFFFFF" d="M396.69-167.345c0,0.792,0,1.417,0,2.188c-6.219,0-12.34,0-18.646,0c-0.047-0.727-0.092-1.406-0.135-2.094
		c0.355-0.144,0.564-0.293,0.785-0.306c4.602-0.27,7.592-2.278,9.619-6.747c10.727-23.645,21.74-47.157,32.658-70.713
		c0.393-0.85,0.822-1.682,1.441-2.94c0.625,1.207,1.062,2.035,1.488,2.871c11.873,23.457,23.855,46.858,35.52,70.42
		c2.344,4.738,5.762,6.674,10.609,7.049c0.559,0.044,1.119,0.068,1.84,0.111c0.061,0.731,0.119,1.421,0.191,2.309
		c-13.129,0-26.121,0-39.289,0c-0.049-0.673-0.094-1.357-0.139-2.055c0.32-0.136,0.523-0.254,0.744-0.307
		c2.029-0.49,4.111-0.829,6.084-1.49c1.605-0.537,2.166-1.61,1.221-3.403c-2.793-5.295-5.373-10.699-8.176-15.986
		c-0.375-0.709-1.549-1.403-2.359-1.41c-9.803-0.098-19.605-0.028-29.406-0.101c-1.398-0.011-2,0.546-2.521,1.702
		c-2.322,5.163-4.715,10.296-7.076,15.442c-1.166,2.54-0.756,3.594,1.902,4.544C394.172-167.855,395.375-167.665,396.69-167.345z
		 M430.475-192.938c-5.332-10.456-10.467-20.522-15.836-31.058c-4.865,10.678-9.469,20.772-14.154,31.058
		C410.579-192.938,420.28-192.938,430.475-192.938z"/>
	<path fill="#FFFFFF" d="M585.249-165.113c-6.139,0-12.188,0-18.441,0c-0.049-0.74-0.094-1.41-0.135-2.064
		c0.379-0.159,0.59-0.313,0.811-0.326c4.527-0.256,7.445-2.293,9.426-6.646c10.75-23.634,21.758-47.151,32.678-70.707
		c0.406-0.874,0.83-1.738,1.463-3.059c0.604,1.102,1.057,1.888,1.467,2.697c11.957,23.596,24.012,47.146,35.775,70.838
		c2.301,4.636,5.672,6.552,10.451,6.873c0.553,0.036,1.104,0.093,1.795,0.149c0,0.795,0,1.461,0,2.238c-13.041,0-25.973,0-39.09,0
		c-0.041-0.734-0.078-1.41-0.115-2.085c0.357-0.14,0.568-0.249,0.791-0.305c2.096-0.534,4.248-0.919,6.281-1.636
		c1.363-0.479,1.896-1.518,1.076-3.096c-2.842-5.453-5.531-10.984-8.387-16.429c-0.312-0.6-1.328-1.18-2.02-1.185
		c-9.963-0.076-19.932-0.088-29.893,0.021c-0.76,0.008-1.838,0.882-2.199,1.627c-2.342,4.798-4.52,9.674-6.756,14.521
		c-1.744,3.784-0.994,5.272,3.246,6.115C584.797-167.311,585.967-167.161,585.249-165.113z M589.196-193.019
		c10.062,0,19.787,0,29.916,0c-5.27-10.34-10.398-20.408-15.783-30.98C598.481-213.374,593.879-203.284,589.196-193.019z"/>
</g>
<g>
	<g>
		<path fill="#FFFFFF" d="M268.181,37.022c-1.638,0.531-3.225,1.044-4.897,1.584c0.32,1.209,0.627,2.369,0.935,3.528
			c2.664,10.04,5.312,20.084,8.008,30.118c0.438,1.631,0.739,3.217,0.239,4.883c-0.839,2.807-3.445,4.855-6.373,4.911
			c-2.299,0.044-4.599,0.007-6.899,0.044c-0.503,0.006-0.63-0.231-0.739-0.637c-2.613-9.713-5.232-19.422-7.854-29.132
			c-1.338-4.957-2.68-9.914-4.021-14.869c-0.042-0.157-0.1-0.312-0.187-0.581c-1.632,0.516-3.24,1.022-4.941,1.558
			c3.894,14.55,7.775,29.048,11.674,43.614c-0.333,0.015-0.564,0.033-0.797,0.033c-8.938,0-17.877-0.004-26.815,0.002
			c-1.454,0-2.881-0.065-4.219-0.75c-2.913-1.492-4.418-4.803-3.573-7.969c3.524-13.19,7.05-26.379,10.585-39.568
			c0.737-2.75,3.521-4.901,6.381-4.907c7.587-0.016,15.174-0.011,22.762,0c2.423,0.004,4.186,1.693,4.381,4.136
			c0.005,0.069,0.03,0.135,0.064,0.28c0.202-0.032,0.403-0.045,0.595-0.095c4.83-1.258,9.659-2.526,14.491-3.782
			c3.668-0.955,6.864,1.128,7.762,4.814c1.048,4.297,2.29,8.546,3.453,12.816c2.412,8.859,4.833,17.715,7.237,26.576
			c1.118,4.119-2.023,8.41-6.302,8.55c-2.701,0.088-5.405,0.015-8.108,0.06c-0.598,0.011-0.685-0.317-0.801-0.752
			c-1.939-7.197-3.885-14.393-5.829-21.588c-1.988-7.356-3.976-14.71-5.965-22.065C268.357,37.587,268.277,37.345,268.181,37.022z"
			/>
		<path fill="#FFFFFF" d="M409.044,28.84c0,1.602,0,3.107,0,4.697c-0.899,0-1.747,0-2.596,0c-1.349-0.001-2.7-0.013-4.053,0.001
			c-3.432,0.039-5.442,2.747-4.582,6.071c2.767,10.698,5.504,21.404,8.253,32.106c0.817,3.187,1.635,6.373,2.452,9.56
			c0.058,0.222,0.099,0.449,0.166,0.777c-0.313,0-0.544,0-0.773,0c-3.746,0-7.492,0.001-11.24,0
			c-2.598-0.002-4.713-1.588-5.369-4.129c-1.727-6.665-3.417-13.339-5.126-20.008c-1.994-7.771-3.995-15.539-5.974-23.312
			c-0.155-0.611-0.251-1.256-0.252-1.885c-0.016-7.825-0.002-15.65-0.022-23.475c-0.002-0.654,0.153-0.992,0.812-1.227
			c4.638-1.654,9.259-3.354,13.886-5.037c0.198-0.073,0.398-0.127,0.687-0.217c0.019,0.357,0.047,0.655,0.047,0.952
			c0.003,6.805-0.002,13.609,0.002,20.414c0.001,2.292,1.258,4.003,3.356,4.515c0.521,0.127,1.081,0.136,1.62,0.14
			c2.68,0.012,5.359,0.003,8.039,0.005C408.584,28.79,408.792,28.82,409.044,28.84z"/>
		<path fill="#FFFFFF" d="M299.896,42.526c0-1.608-0.021-3.146,0.028-4.68c0.006-0.194,0.352-0.46,0.595-0.551
			c3.704-1.378,7.418-2.729,11.127-4.091c3.066-1.127,6.107-2.326,9.197-3.378c9.217-3.136,19.35,2.38,21.817,11.789
			c1.734,6.613,3.525,13.213,5.295,19.816c1.051,3.932,2.138,7.852,3.156,11.793c1.201,4.639-2.087,8.831-6.868,8.829
			c-2.25-0.001-4.503-0.017-6.756,0.01c-0.507,0.007-0.729-0.121-0.869-0.647c-2.6-9.76-5.23-19.515-7.848-29.273
			c-1.397-5.207-2.782-10.419-4.182-15.628c-0.406-1.514-2.043-2.238-3.664-1.644c-4.135,1.514-8.269,3.025-12.404,4.539
			c-2.623,0.959-5.246,1.918-7.871,2.875C300.411,42.37,300.166,42.439,299.896,42.526z"/>
		<path fill="#FFFFFF" d="M375.038,28.915c0,1.605,0,3.12,0,4.719c-0.262,0.012-0.513,0.034-0.764,0.035
			c-2.227,0.003-4.456-0.001-6.684,0.003c-2.974,0.009-5.016,2.729-4.245,5.604c3.243,12.089,6.477,24.184,9.714,36.277
			c0.568,2.12,1.135,4.244,1.729,6.463c-0.316,0.015-0.562,0.036-0.81,0.036c-3.462,0.001-6.924,0.003-10.385,0
			c-2.906-0.003-5.664-2.121-6.421-4.93c-3.512-13.046-7.015-26.097-10.548-39.138c-0.364-1.351-0.836-2.646-0.57-4.096
			c0.521-2.853,2.992-5,5.882-5.005c7.423-0.008,14.844-0.005,22.265-0.005C374.459,28.878,374.715,28.899,375.038,28.915z"/>
		<path fill="#FFFFFF" d="M443.048,82.021c-0.188,0.025-0.304,0.054-0.418,0.053c-3.697-0.008-7.396,0.025-11.092-0.044
			c-2.647-0.048-5.283-2.22-6.04-4.959c-1.42-5.128-2.779-10.273-4.15-15.414c-2.831-10.604-5.653-21.209-8.479-31.814
			c-0.078-0.292-0.144-0.585-0.235-0.965c0.32,0,0.552,0,0.783,0c4.931,0,9.86,0.014,14.79-0.018
			c0.605-0.003,0.796,0.207,0.938,0.748c4.329,16.347,8.678,32.693,13.021,49.038C442.462,79.76,442.749,80.875,443.048,82.021z"/>
		<path fill="#FFFFFF" d="M322.319,47.831c3.05,11.398,6.089,22.747,9.16,34.221c-0.36,0-0.609,0-0.857,0
			c-8.891,0-17.78,0-26.67-0.002c-2.753-0.001-4.538-1.792-4.537-4.533c0-6.045-0.001-12.091,0-18.137
			c0-2.06,1.055-3.595,2.979-4.298c6.467-2.365,12.937-4.724,19.409-7.082C321.95,47.945,322.104,47.902,322.319,47.831z"/>
		<path fill="#FFFFFF" d="M413.475,21.825c-1.643-0.088-3.071-1.231-3.35-2.736c-0.333-1.788,0.497-3.412,2.144-4.026
			c3.461-1.289,6.937-2.534,10.405-3.797c1.601-0.581,3.203-1.157,4.807-1.738c1.989-0.721,3.965,0.083,4.65,1.897
			c0.739,1.948-0.166,3.87-2.208,4.618c-5.003,1.827-10.008,3.644-15.014,5.45C414.451,21.659,413.954,21.718,413.475,21.825z"/>
	</g>
</g>
</svg>
