<?xml version="1.0" encoding="utf-8"?>
<!-- Generator: Adobe Illustrator 16.0.0, SVG Export Plug-In . SVG Version: 6.00 Build 0)  -->
<!DOCTYPE svg PUBLIC "-//W3C//DTD SVG 1.1//EN" "http://www.w3.org/Graphics/SVG/1.1/DTD/svg11.dtd">
<svg version="1.1" id="Capa_1" xmlns="http://www.w3.org/2000/svg" xmlns:xlink="http://www.w3.org/1999/xlink" x="0px" y="0px"
	 width="660.536px" height="85px" viewBox="0 0 660.536 85" enable-background="new 0 0 660.536 85" xml:space="preserve">
<g>
	<g>
		<path fill="#FFFFFF" d="M212.159-105.222c-1.71,0.554-3.368,1.09-5.114,1.654c0.334,1.263,0.655,2.474,0.976,3.685
			c2.782,10.485,5.548,20.976,8.364,31.454c0.458,1.702,0.771,3.359,0.25,5.099c-0.877,2.931-3.598,5.071-6.656,5.129
			c-2.401,0.046-4.803,0.007-7.205,0.046c-0.526,0.006-0.658-0.241-0.772-0.666c-2.729-10.143-5.465-20.283-8.202-30.423
			c-1.397-5.177-2.799-10.353-4.199-15.529c-0.044-0.164-0.104-0.325-0.195-0.606c-1.705,0.538-3.384,1.067-5.161,1.627
			c4.067,15.196,8.12,30.337,12.192,45.549c-0.348,0.016-0.59,0.035-0.833,0.035c-9.335,0-18.67-0.005-28.005,0.002
			c-1.518,0-3.009-0.069-4.406-0.783c-3.042-1.559-4.615-5.016-3.732-8.322c3.68-13.776,7.363-27.55,11.055-41.324
			c0.77-2.873,3.677-5.119,6.664-5.125c7.924-0.017,15.847-0.012,23.771,0c2.531,0.004,4.372,1.768,4.576,4.319
			c0.005,0.072,0.031,0.141,0.067,0.292c0.21-0.033,0.421-0.047,0.621-0.099c5.044-1.314,10.088-2.638,15.133-3.95
			c3.831-0.997,7.169,1.178,8.107,5.027c1.095,4.488,2.391,8.926,3.606,13.385c2.519,9.252,5.048,18.5,7.558,27.755
			c1.167,4.302-2.113,8.783-6.582,8.929c-2.82,0.091-5.645,0.015-8.467,0.062c-0.624,0.011-0.715-0.331-0.837-0.785
			c-2.025-7.517-4.057-15.031-6.088-22.546c-2.076-7.682-4.152-15.363-6.23-23.044C212.344-104.632,212.26-104.885,212.159-105.222z
			"/>
		<path fill="#FFFFFF" d="M359.272-113.767c0,1.673,0,3.245,0,4.905c-0.939,0-1.824,0-2.711,0c-1.408-0.001-2.82-0.014-4.232,0.001
			c-3.584,0.04-5.684,2.869-4.785,6.34c2.889,11.174,5.748,22.354,8.619,33.531c0.854,3.328,1.707,6.655,2.561,9.983
			c0.061,0.231,0.104,0.47,0.174,0.811c-0.328,0-0.568,0-0.809,0c-3.912,0.001-7.824,0.002-11.738,0.001
			c-2.713-0.002-4.922-1.659-5.607-4.312c-1.803-6.961-3.568-13.93-5.354-20.896c-2.082-8.115-4.172-16.227-6.238-24.346
			c-0.163-0.638-0.262-1.312-0.264-1.969c-0.017-8.172-0.003-16.344-0.024-24.516c-0.002-0.683,0.161-1.036,0.849-1.281
			c4.843-1.727,9.669-3.502,14.501-5.26c0.207-0.076,0.416-0.133,0.717-0.227c0.02,0.373,0.049,0.684,0.049,0.994
			c0.004,7.107-0.002,14.213,0.002,21.32c0.002,2.394,1.314,4.181,3.506,4.715c0.545,0.133,1.129,0.142,1.691,0.146
			c2.799,0.012,5.598,0.003,8.396,0.005C358.792-113.819,359.008-113.788,359.272-113.767z"/>
		<path fill="#FFFFFF" d="M245.281-99.474c0-1.68-0.021-3.285,0.03-4.888c0.006-0.202,0.367-0.481,0.621-0.575
			c3.868-1.439,7.747-2.85,11.621-4.273c3.202-1.177,6.378-2.429,9.605-3.528c9.626-3.275,20.209,2.486,22.786,12.312
			c1.81,6.907,3.682,13.799,5.529,20.696c1.098,4.105,2.233,8.2,3.297,12.315c1.254,4.844-2.179,9.223-7.173,9.221
			c-2.351-0.002-4.703-0.017-7.055,0.011c-0.53,0.006-0.762-0.127-0.908-0.677c-2.716-10.193-5.463-20.38-8.197-30.571
			c-1.46-5.439-2.906-10.882-4.367-16.322c-0.424-1.581-2.134-2.337-3.827-1.717c-4.318,1.581-8.635,3.16-12.954,4.74
			c-2.739,1.002-5.479,2.003-8.22,3.003C245.819-99.637,245.563-99.564,245.281-99.474z"/>
		<path fill="#FFFFFF" d="M323.756-113.689c0,1.677,0,3.258,0,4.928c-0.272,0.013-0.535,0.036-0.796,0.037
			c-2.327,0.003-4.655-0.002-6.981,0.003c-3.105,0.009-5.237,2.85-4.433,5.853c3.387,12.626,6.764,25.257,10.145,37.886
			c0.593,2.215,1.186,4.432,1.806,6.749c-0.329,0.016-0.586,0.037-0.845,0.037c-3.615,0.002-7.23,0.004-10.847,0.001
			c-3.035-0.003-5.915-2.215-6.705-5.148c-3.668-13.625-7.326-27.254-11.015-40.874c-0.382-1.411-0.873-2.763-0.597-4.277
			c0.546-2.979,3.125-5.223,6.144-5.227c7.751-0.009,15.502-0.005,23.252-0.005C323.152-113.727,323.42-113.705,323.756-113.689z"/>
		<path fill="#FFFFFF" d="M394.784-58.227c-0.195,0.027-0.316,0.057-0.436,0.056c-3.861-0.009-7.725,0.026-11.584-0.046
			c-2.766-0.051-5.518-2.318-6.309-5.18c-1.482-5.355-2.902-10.728-4.334-16.097c-2.957-11.074-5.904-22.15-8.855-33.226
			c-0.082-0.304-0.15-0.611-0.246-1.007c0.334,0,0.576,0,0.818,0c5.148,0,10.297,0.014,15.445-0.019
			c0.633-0.003,0.832,0.216,0.98,0.781c4.521,17.073,9.062,34.143,13.598,51.213C394.172-60.589,394.471-59.424,394.784-58.227z"/>
		<path fill="#FFFFFF" d="M268.699-93.933c3.186,11.904,6.359,23.755,9.567,35.738c-0.377,0-0.637,0-0.896,0
			c-9.285-0.001-18.569,0-27.853-0.002c-2.875-0.001-4.739-1.872-4.738-4.734c0-6.313-0.001-12.627,0-18.941
			c0-2.152,1.101-3.755,3.11-4.489c6.754-2.47,13.511-4.933,20.27-7.396C268.314-93.814,268.474-93.86,268.699-93.933z"/>
		<path fill="#FFFFFF" d="M363.899-121.093c-1.715-0.092-3.207-1.286-3.498-2.857c-0.348-1.867,0.52-3.563,2.238-4.205
			c3.615-1.346,7.244-2.646,10.867-3.965c1.672-0.607,3.346-1.209,5.02-1.815c2.078-0.753,4.141,0.086,4.857,1.981
			c0.771,2.034-0.174,4.042-2.307,4.822c-5.225,1.909-10.451,3.806-15.68,5.692C364.918-121.266,364.399-121.205,363.899-121.093z"
			/>
	</g>
</g>
<g>
	<path fill="#FFFFFF" d="M514.944-165.131c-12.686,0-25.371,0-38.088,0c-0.615-1.728-0.191-2.514,1.654-2.459
		c0.873,0.026,1.766-0.202,2.635-0.382c5.273-1.093,5.953-1.925,5.953-7.202c0-21.473-0.043-42.945,0.062-64.417
		c0.01-2.537-0.947-3.809-3.221-4.283c-2.361-0.492-4.748-0.853-7.287-1.298c0-0.806,0-1.722,0-2.816
		c0.924-0.044,1.715-0.114,2.506-0.114c15.637-0.006,31.273,0.009,46.912-0.011c6.021-0.009,11.592,1.4,16.27,5.318
		c6.912,5.789,9.656,13.234,7.312,21.952c-2.453,9.134-8.869,14.394-18.066,16.32c-0.686,0.143-1.379,0.254-2.398,0.44
		c1.471,1.922,2.736,3.58,4.008,5.235c6.701,8.74,13.443,17.453,20.09,26.238c2.285,3.022,5.111,4.919,8.926,5.152
		c1.467,0.09,2.125,0.627,1.527,2.291c-9.199,0-18.479,0-26.951,0c-9.611-14.536-18.953-28.667-28.566-43.211
		c2.986,0,5.467,0.041,7.945-0.007c10.459-0.199,18.85-7.928,19.094-17.564c0.264-10.303-7.736-18.92-18.287-19.498
		c-3.941-0.217-7.908-0.035-12.199-0.035c0,1.119,0,2.064,0,3.008c0,22.85,0,45.698,0,68.548c0,3.562,0.479,4.348,3.859,5.471
		c1.598,0.53,3.336,0.606,4.949,1.09c0.721,0.215,1.295,0.929,1.934,1.415C515.325-165.677,515.133-165.404,514.944-165.131z"/>
	<path fill="#FFFFFF" d="M376.122-247.9c-16.695,26.64-33.211,52.995-50.032,79.833c1.225,0,2.05,0,2.878,0
		c11.583,0,23.167,0.004,34.75,0c5.615,0,9.049-2.777,10.238-8.284c0.119-0.552,0.244-1.104,0.529-2.404
		c0.867,0.744,1.961,1.234,1.99,1.78c0.166,3.231,0.092,6.476,0.084,9.716c-0.002,0.635-0.072,1.269-0.121,2.072
		c-24.088,0-48.064,0-72.494,0c16.778-26.618,33.365-52.931,50.268-79.74c-1.252,0-2.082,0-2.912,0c-9.801,0-19.604,0-29.402,0.001
		c-5.012,0-7.72,2.16-8.883,7.097c-0.221,0.936-0.388,1.883-0.601,2.928c-0.993,0-1.938,0-3.062,0c0-4.283,0-8.536,0-12.999
		C331.417-247.9,353.53-247.9,376.122-247.9z"/>
	<path fill="#FFFFFF" d="M396.69-167.345c0,0.792,0,1.417,0,2.188c-6.219,0-12.34,0-18.646,0c-0.047-0.727-0.092-1.406-0.135-2.094
		c0.355-0.144,0.564-0.293,0.785-0.306c4.602-0.27,7.592-2.278,9.619-6.747c10.727-23.645,21.74-47.157,32.658-70.713
		c0.393-0.85,0.822-1.682,1.441-2.94c0.625,1.207,1.062,2.035,1.488,2.871c11.873,23.457,23.855,46.858,35.52,70.42
		c2.344,4.738,5.762,6.674,10.609,7.049c0.559,0.044,1.119,0.068,1.84,0.111c0.061,0.731,0.119,1.421,0.191,2.309
		c-13.129,0-26.121,0-39.289,0c-0.049-0.673-0.094-1.357-0.139-2.055c0.32-0.136,0.523-0.254,0.744-0.307
		c2.029-0.49,4.111-0.829,6.084-1.49c1.605-0.537,2.166-1.61,1.221-3.403c-2.793-5.295-5.373-10.699-8.176-15.986
		c-0.375-0.709-1.549-1.403-2.359-1.41c-9.803-0.098-19.605-0.028-29.406-0.101c-1.398-0.011-2,0.546-2.521,1.702
		c-2.322,5.163-4.715,10.296-7.076,15.442c-1.166,2.54-0.756,3.594,1.902,4.544C394.172-167.855,395.375-167.665,396.69-167.345z
		 M430.475-192.938c-5.332-10.456-10.467-20.522-15.836-31.058c-4.865,10.678-9.469,20.772-14.154,31.058
		C410.579-192.938,420.28-192.938,430.475-192.938z"/>
	<path fill="#FFFFFF" d="M585.249-165.113c-6.139,0-12.188,0-18.441,0c-0.049-0.74-0.094-1.41-0.135-2.064
		c0.379-0.159,0.59-0.313,0.811-0.326c4.527-0.256,7.445-2.293,9.426-6.646c10.75-23.634,21.758-47.151,32.678-70.707
		c0.406-0.874,0.83-1.738,1.463-3.059c0.604,1.102,1.057,1.888,1.467,2.697c11.957,23.596,24.012,47.146,35.775,70.838
		c2.301,4.636,5.672,6.552,10.451,6.873c0.553,0.036,1.104,0.093,1.795,0.149c0,0.795,0,1.461,0,2.238c-13.041,0-25.973,0-39.09,0
		c-0.041-0.734-0.078-1.41-0.115-2.085c0.357-0.14,0.568-0.249,0.791-0.305c2.096-0.534,4.248-0.919,6.281-1.636
		c1.363-0.479,1.896-1.518,1.076-3.096c-2.842-5.453-5.531-10.984-8.387-16.429c-0.312-0.6-1.328-1.18-2.02-1.185
		c-9.963-0.076-19.932-0.088-29.893,0.021c-0.76,0.008-1.838,0.882-2.199,1.627c-2.342,4.798-4.52,9.674-6.756,14.521
		c-1.744,3.784-0.994,5.272,3.246,6.115C584.797-167.311,585.967-167.161,585.249-165.113z M589.196-193.019
		c10.062,0,19.787,0,29.916,0c-5.27-10.34-10.398-20.408-15.783-30.98C598.481-213.374,593.879-203.284,589.196-193.019z"/>
</g>
<g>
	<g>
		<path fill="#FFFFFF" d="M108.233,58.046c1.811-6.23,3.651-12.454,5.426-18.694c1.292-4.55,2.538-9.119,3.73-13.697
			c1.742-6.695,5.808-10.592,12.901-10.955c0.394-0.02,0.783-0.099,1.175-0.141c9.673-1.014,13.132,1.774,13.845,11.435
			c0.698,9.446,1.179,18.909,1.878,28.354c0.095,1.279,0.899,2.506,1.375,3.756c0.775-1.094,1.938-2.079,2.266-3.291
			c2.712-10.094,5.268-20.228,7.88-30.344c0.295-1.147,0.589-2.296,0.967-3.415c1.464-4.331,3.492-5.983,8.034-6.05
			c8.269-0.12,7.236-0.692,5.343,6.463c-3.226,12.202-6.924,24.291-9.755,36.579c-2.912,12.638-12.937,13.722-23.133,11.478
			c-2.63-0.578-4.041-2.9-4.469-5.44c-0.573-3.394-0.892-6.843-1.11-10.28c-0.508-7.975-0.84-15.961-1.384-23.935
			c-0.072-1.062-0.961-2.067-1.472-3.1c-0.719,0.934-1.812,1.765-2.102,2.817c-2.729,9.986-5.327,20.006-7.961,30.018
			c-2.516,9.559-3.518,10.327-13.435,10.291C108.233,65.943,108.233,61.994,108.233,58.046z"/>
		<path fill="#FFFFFF" d="M416.774,71.225c-3.802-0.516-7.669-0.736-11.388-1.603c-8.54-1.991-12.944-7.803-12.488-16.548
			c0.461-8.855,2.648-17.33,6.794-25.22c4.329-8.24,11.174-12.706,20.443-13.674c6.538-0.684,13.013-0.624,19.362,1.147
			c7.959,2.223,11.794,7.081,11.726,15.271c-0.087,10.048-2.751,19.502-7.827,28.172c-5.329,9.103-14.098,11.728-23.916,12.124
			c-0.887,0.036-1.774,0.002-2.664,0.002C416.802,71.008,416.787,71.117,416.774,71.225z M419.729,59.199
			c3.527-0.062,7.947-0.529,10.452-4.856c3.851-6.661,5.95-13.944,6.457-21.608c0.223-3.385-1.309-5.502-4.676-6.262
			c-3.035-0.68-6.236-0.883-9.357-0.838c-4.807,0.072-8.289,2.57-9.99,7.047c-1.644,4.316-3.121,8.72-4.288,13.186
			C405.729,55.812,408.474,59.199,419.729,59.199z"/>
		<path fill="#FFFFFF" d="M361.873,35.666c1.184,0,2.369,0.001,3.552,0c7.761-0.006,10.026-1.714,12.201-9.242
			c0.546-1.893,1.007-3.812,1.574-5.699c1.098-3.659,3.649-5.641,7.404-5.69c10.595-0.135,8.768-1.111,6.503,7.541
			c-3.417,13.062-6.98,26.086-10.526,39.115c-1.981,7.276-7.784,10.429-14.978,8.038c-0.553-0.187-1.05-1.935-0.846-2.78
			c1.297-5.363,2.812-10.672,4.228-16.006c0.893-3.362,0.569-3.773-2.941-3.79c-3.648-0.015-7.302-0.051-10.952,0.015
			c-5.665,0.098-8.263,1.965-10.042,7.368c-0.954,2.899-1.598,5.896-2.484,8.817c-1.482,4.878-3.503,6.384-8.546,6.537
			c-7.728,0.236-7.719,0.24-5.66-7.363c3.634-13.408,7.212-26.839,10.906-40.233c1.717-6.229,8.785-9.654,14.778-7.145
			c0.571,0.24,0.932,2.019,0.715,2.924c-1.093,4.6-2.424,9.143-3.644,13.714c-0.918,3.432-0.602,3.849,2.838,3.875
			C357.927,35.68,359.9,35.666,361.873,35.666z"/>
		<path fill="#FFFFFF" d="M189.327,69.9c-6.118,0-12.235-0.056-18.353,0.029c-2.27,0.03-2.982-0.597-2.333-2.961
			c3.527-12.83,6.812-25.728,10.421-38.533c2.822-10.007,7.645-13.443,18.095-13.471c8.585-0.021,17.17-0.013,25.754,0
			c3.375,0.005,3.562,0.28,2.635,3.616c-1.722,6.192-3.589,7.634-10.082,7.677c-5.229,0.036-10.461-0.065-15.688,0.053
			c-5.309,0.123-6.863,1.581-8.276,6.644c-0.747,2.681,0.268,3.362,2.718,3.338c6.414-0.065,12.827-0.033,19.24-0.016
			c3.283,0.006,3.49,0.292,2.656,3.374c-1.74,6.433-3.597,7.867-10.188,7.928c-4.438,0.043-8.882,0-13.312,0.199
			c-4.515,0.203-8.292,4.824-7.37,9.162c0.164,0.77,2.016,1.658,3.101,1.677c8.483,0.138,16.97,0.071,25.455,0.081
			c3.301,0.004,3.463,0.228,2.648,3.344c-1.643,6.275-3.669,7.842-10.248,7.858C200.575,69.914,194.95,69.9,189.327,69.9z"/>
		<path fill="#FFFFFF" d="M470.505,69.897c-6.021,0.003-12.042-0.083-18.058,0.045c-2.528,0.054-3.41-0.63-2.69-3.24
			c3.504-12.73,6.8-25.521,10.403-38.228c2.867-10.103,7.577-13.483,18.036-13.51c8.684-0.022,17.367,0.062,26.048-0.047
			c2.489-0.031,3.118,0.793,2.564,3.152c-1.489,6.325-3.689,8.146-10.318,8.19c-5.328,0.032-10.659-0.077-15.985,0.069
			c-4.988,0.138-6.814,1.831-7.966,6.657c-0.537,2.248-0.003,3.344,2.537,3.312c6.512-0.089,13.025,0.069,19.535-0.076
			c2.662-0.06,3.283,0.86,2.664,3.323c-1.566,6.219-3.709,7.967-10.149,8.032c-4.635,0.05-9.275,0.004-13.903,0.223
			c-4.068,0.188-8.046,5.444-6.964,9.279c0.214,0.76,1.944,1.524,2.989,1.542c8.189,0.129,16.378,0.071,24.568,0.072
			c4.603,0,4.737,0.193,3.312,4.658c-1.581,4.948-3.594,6.482-8.864,6.533C482.346,69.941,476.424,69.897,470.505,69.897z"/>
		<path fill="#FFFFFF" d="M276.199,69.605c-0.362-7.16,3.434-11.349,10.233-11.398c7.301-0.049,14.604,0.065,21.903-0.087
			c1.276-0.028,2.531-1.019,3.796-1.563c-0.752-1.238-1.216-2.898-2.305-3.637c-5.55-3.763-11.312-7.21-16.9-10.914
			c-8.054-5.337-9.478-13.245-4-21.157c3.025-4.368,7.625-5.613,12.416-5.738c10.355-0.267,20.72-0.109,31.08-0.159
			c1.767-0.008,2.366,0.83,1.902,2.415c-1.99,6.786-3.213,9.429-11.045,9.294c-6.313-0.107-12.631-0.035-18.946-0.006
			c-0.973,0.005-2.034,0.008-2.892,0.386c-0.715,0.312-1.753,1.288-1.656,1.768c0.208,1.028,0.84,2.246,1.684,2.823
			c3.985,2.731,8.106,5.262,12.167,7.881c2.319,1.5,4.669,2.955,6.912,4.562c4.722,3.382,6.698,7.904,5.264,13.662
			c-1.543,6.195-4.712,11.463-11.589,11.728C301.636,69.951,289.017,69.605,276.199,69.605z"/>
		<path fill="#FFFFFF" d="M552.303,15.529c0,3.462,0,6.996,0,10.842c-1.424,0.092-2.764,0.25-4.105,0.255
			c-6.513,0.027-13.029-0.102-19.536,0.103c-1.42,0.045-2.804,1.225-4.206,1.883c0.818,1.207,1.376,2.797,2.494,3.553
			c5.554,3.757,11.321,7.202,16.892,10.931c7.422,4.972,8.883,10.833,5.146,18.92c-2.33,5.034-6.334,7.591-11.661,7.693
			c-11.543,0.22-23.089,0.128-34.634,0.197c-1.944,0.013-2.328-0.794-1.893-2.597c1.749-7.26,4.029-9.11,11.549-9.113
			c6.513-0.006,13.024,0.032,19.54-0.023c1.778-0.016,4.115,0.687,4.856-1.696c0.803-2.583-1.714-3.254-3.255-4.266
			c-5.356-3.521-10.854-6.833-16.179-10.399c-7.741-5.186-9.102-13.394-3.682-21.022c2.208-3.102,5.323-5.061,8.938-5.164
			C532.389,15.343,542.226,15.529,552.303,15.529z"/>
		<path fill="#FFFFFF" d="M259.871,14.961c7.302,0,14.606,0.067,21.907-0.037c2.445-0.035,2.851,0.897,2.307,3.052
			c-1.743,6.88-3.884,8.629-10.927,8.665c-8.479,0.042-10.683,1.664-12.982,9.886c-2.279,8.165-4.423,16.368-6.653,24.545
			c-2.105,7.72-3.574,8.848-11.575,8.822c-5.089-0.021-5.547,0.848-3.924-5.065c3.105-11.31,6.116-22.646,9.163-33.971
			c1.007-3.738,0.683-4.195-3.075-4.214c-4.342-0.02-8.685-0.058-13.024,0.015c-2.187,0.036-2.745-0.72-2.171-2.872
			c1.924-7.2,3.938-8.826,11.418-8.828C246.846,14.958,253.357,14.959,259.871,14.961z"/>
	</g>
</g>
</svg>
