<?xml version="1.0" encoding="utf-8"?>
<!-- Generator: Adobe Illustrator 16.0.0, SVG Export Plug-In . SVG Version: 6.00 Build 0)  -->
<!DOCTYPE svg PUBLIC "-//W3C//DTD SVG 1.1//EN" "http://www.w3.org/Graphics/SVG/1.1/DTD/svg11.dtd">
<svg version="1.1" id="Capa_1" xmlns="http://www.w3.org/2000/svg" xmlns:xlink="http://www.w3.org/1999/xlink" x="0px" y="0px"
	 width="200px" height="200px" viewBox="0 0 200 200" enable-background="new 0 0 200 200" xml:space="preserve">
<g>
	<g>
		<path fill="#FFFFFF" d="M195.862,146.349c0-1.562-0.608-3.027-1.71-4.129l-4.37-4.368c-1.1-1.102-2.565-1.709-4.124-1.709
			s-3.024,0.607-4.128,1.709l-6.664,6.663c-3.561-2.551-7.923-4.055-12.638-4.055c-11.995,0-21.717,9.726-21.717,21.719
			c0,11.99,9.722,21.715,21.717,21.715c11.994,0,21.716-9.725,21.716-21.715c0-0.489-0.018-0.97-0.05-1.447l10.256-10.258
			C195.254,149.371,195.862,147.905,195.862,146.349L195.862,146.349z M189.411,147.645l-20.884,20.887
			c-0.441,0.438-1.038,0.686-1.661,0.686c-0.624,0-1.22-0.247-1.659-0.688l-9.679-9.693c-0.917-0.916-0.917-2.4,0.001-3.316
			l1.863-1.862c0.915-0.916,2.4-0.916,3.315-0.003l6.157,6.139l17.347-17.347c0.441-0.439,1.037-0.688,1.661-0.688
			c0.621,0,1.22,0.249,1.658,0.688l1.88,1.88C190.328,145.241,190.328,146.728,189.411,147.645L189.411,147.645z M189.411,147.645"
			/>
		<g>
			<path fill="none" d="M145.703,43.208c4.279,0,7.765-3.487,7.765-7.788c0-4.283-3.485-7.767-7.765-7.767
				c-4.302,0-7.789,3.484-7.789,7.767C137.914,39.721,141.401,43.208,145.703,43.208z"/>
			<path fill="none" d="M123.754,43.208c4.305,0,7.766-3.487,7.766-7.788c0-4.283-3.461-7.767-7.766-7.767
				c-4.304,0-7.765,3.484-7.765,7.767C115.989,39.721,119.45,43.208,123.754,43.208z"/>
			<path fill="none" d="M101.806,43.208c4.278,0,7.765-3.487,7.765-7.788c0-4.283-3.486-7.767-7.765-7.767
				c-4.304,0-7.791,3.484-7.791,7.767C94.015,39.721,97.501,43.208,101.806,43.208z"/>
			<g>
				<path fill="none" d="M101.806,27.653c-4.304,0-7.791,3.484-7.791,7.767c0,4.301,3.487,7.788,7.791,7.788
					c4.278,0,7.765-3.487,7.765-7.788C109.57,31.137,106.084,27.653,101.806,27.653z"/>
				<path fill="none" d="M123.754,27.653c-4.304,0-7.765,3.484-7.765,7.767c0,4.301,3.461,7.788,7.765,7.788
					c4.305,0,7.766-3.487,7.766-7.788C131.52,31.137,128.059,27.653,123.754,27.653z"/>
				<path fill="none" d="M145.703,27.653c-4.302,0-7.789,3.484-7.789,7.767c0,4.301,3.487,7.788,7.789,7.788
					c4.279,0,7.765-3.487,7.765-7.788C153.468,31.137,149.982,27.653,145.703,27.653z"/>
				<path fill="#FFFFFF" d="M4,16v157h131.757c-1.345-4-2.107-7.377-2.107-11.275c0-0.162,0.022,0.275,0.023-0.725H17V55h151v77.059
					c4,0.599,9,2.045,12,4.17V16H4z M70,40H24V30h46V40z M101.806,43.208c-4.304,0-7.791-3.487-7.791-7.788
					c0-4.283,3.487-7.767,7.791-7.767c4.278,0,7.765,3.484,7.765,7.767C109.57,39.721,106.084,43.208,101.806,43.208z
					 M123.754,43.208c-4.304,0-7.765-3.487-7.765-7.788c0-4.283,3.461-7.767,7.765-7.767c4.305,0,7.766,3.484,7.766,7.767
					C131.52,39.721,128.059,43.208,123.754,43.208z M145.703,43.208c-4.302,0-7.789-3.487-7.789-7.788
					c0-4.283,3.487-7.767,7.789-7.767c4.279,0,7.765,3.484,7.765,7.767C153.468,39.721,149.982,43.208,145.703,43.208z"/>
			</g>
		</g>
	</g>
	<g>
		<path fill="#FFFFFF" d="M73.378,97.664h-0.322c-1.185,0-2.236,0.76-2.607,1.881l-5.047,15.23l-5.069-15.231
			c-0.374-1.122-1.423-1.88-2.605-1.88h-0.466c-1.184,0-2.235,0.76-2.606,1.881l-5.045,15.23l-5.069-15.231
			c-0.375-1.122-1.425-1.88-2.605-1.88h-0.325c-0.886,0-1.716,0.428-2.232,1.146c-0.517,0.72-0.652,1.644-0.371,2.483l7.789,22.965
			c0.378,1.115,1.424,1.864,2.602,1.864h0.18c0.013,0,0.024-0.003,0.038-0.003c0.013,0,0.024,0.003,0.037,0.003h0.145
			c1.178,0,2.228-0.75,2.604-1.869l5.105-15.158l5.081,15.154c0.375,1.118,1.425,1.873,2.604,1.873h0.18
			c0.013,0,0.024-0.003,0.038-0.003c0.011,0,0.024,0.003,0.037,0.003h0.144c1.178,0,2.223-0.749,2.603-1.864l7.788-22.965
			c0.285-0.839,0.147-1.763-0.369-2.483C75.095,98.092,74.263,97.664,73.378,97.664L73.378,97.664z M73.378,97.664"/>
		<path fill="#FFFFFF" d="M111.471,97.664h-0.322c-1.185,0-2.235,0.76-2.606,1.881l-5.048,15.23l-5.068-15.231
			c-0.374-1.122-1.423-1.88-2.607-1.88h-0.466c-1.184,0-2.233,0.76-2.604,1.881l-5.046,15.23l-5.068-15.231
			c-0.376-1.122-1.425-1.88-2.608-1.88h-0.322c-0.885,0-1.716,0.428-2.233,1.146c-0.514,0.72-0.65,1.644-0.368,2.483l7.789,22.965
			c0.377,1.115,1.424,1.864,2.599,1.864h0.183c0.011,0,0.024-0.003,0.037-0.003c0.011,0,0.024,0.003,0.038,0.003h0.143
			c1.178,0,2.228-0.75,2.604-1.869l5.105-15.158l5.082,15.154c0.374,1.118,1.422,1.873,2.603,1.873h0.18
			c0.012,0,0.024-0.003,0.037-0.003c0.011,0,0.025,0.003,0.038,0.003h0.143c1.18,0,2.226-0.749,2.602-1.864l7.789-22.965
			c0.285-0.839,0.146-1.763-0.37-2.483C113.188,98.092,112.356,97.664,111.471,97.664L111.471,97.664z M111.471,97.664"/>
		<path fill="#FFFFFF" d="M149.562,97.664h-0.321c-1.185,0-2.235,0.76-2.606,1.881l-5.047,15.23l-5.07-15.231
			c-0.373-1.122-1.423-1.88-2.604-1.88h-0.467c-1.185,0-2.234,0.76-2.605,1.881l-5.047,15.23l-5.068-15.231
			c-0.376-1.122-1.424-1.88-2.607-1.88h-0.322c-0.885,0-1.717,0.428-2.231,1.146c-0.517,0.72-0.652,1.644-0.369,2.483l7.787,22.965
			c0.376,1.115,1.424,1.864,2.6,1.864h0.182c0.013,0,0.023-0.003,0.038-0.003c0.011,0,0.023,0.003,0.036,0.003h0.144
			c1.179,0,2.228-0.75,2.604-1.869l5.106-15.158l5.082,15.154c0.375,1.118,1.423,1.873,2.604,1.873h0.179
			c0.014,0,0.025-0.003,0.038-0.003s0.025,0.003,0.036,0.003h0.145c1.178,0,2.224-0.749,2.602-1.864l7.787-22.965
			c0.287-0.839,0.146-1.763-0.368-2.483C151.279,98.092,150.447,97.664,149.562,97.664L149.562,97.664z M149.562,97.664"/>
	</g>
</g>
</svg>
