<?xml version="1.0" encoding="utf-8"?>
<!-- Generator: Adobe Illustrator 16.0.0, SVG Export Plug-In . SVG Version: 6.00 Build 0)  -->
<!DOCTYPE svg PUBLIC "-//W3C//DTD SVG 1.1//EN" "http://www.w3.org/Graphics/SVG/1.1/DTD/svg11.dtd">
<svg version="1.1" id="Capa_1" xmlns="http://www.w3.org/2000/svg" xmlns:xlink="http://www.w3.org/1999/xlink" x="0px" y="0px"
	 width="200px" height="200px" viewBox="0 0 200 200" enable-background="new 0 0 200 200" xml:space="preserve">
<g>
	<rect x="32.408" y="70.11" fill="#FFFFFF" width="138.823" height="30.044"/>
	<rect x="32.408" y="109.123" fill="#FFFFFF" width="64.366" height="18.356"/>
	<rect x="32.408" y="135.594" fill="#FFFFFF" width="64.366" height="18.357"/>
	<rect x="105.991" y="109.123" fill="#FFFFFF" width="64.366" height="18.356"/>
	<rect x="105.991" y="135.594" fill="#FFFFFF" width="64.366" height="18.357"/>
	<g>
		<path fill="none" d="M134.102,47.555c4.609,0,8.316-3.545,8.316-7.918c0-4.354-3.707-7.896-8.316-7.896s-8.315,3.542-8.315,7.896
			C125.786,44.01,129.492,47.555,134.102,47.555z"/>
		<path fill="none" d="M110.596,47.555c4.582,0,8.316-3.545,8.316-7.918c0-4.354-3.734-7.896-8.316-7.896
			c-4.609,0-8.344,3.542-8.344,7.896C102.252,44.01,105.986,47.555,110.596,47.555z"/>
		<path fill="none" d="M157.607,47.555c4.583,0,8.315-3.545,8.315-7.918c0-4.354-3.732-7.896-8.315-7.896
			c-4.607,0-8.341,3.542-8.341,7.896C149.267,44.01,153,47.555,157.607,47.555z"/>
		<rect x="20" y="60" fill="none" width="161" height="108"/>
		<path fill="#FFFFFF" d="M6,20v160h188V20H6z M157.607,31.74c4.583,0,8.315,3.542,8.315,7.896c0,4.374-3.732,7.918-8.315,7.918
			c-4.607,0-8.341-3.545-8.341-7.918C149.267,35.282,153,31.74,157.607,31.74z M134.102,31.74c4.609,0,8.316,3.542,8.316,7.896
			c0,4.374-3.707,7.918-8.316,7.918s-8.315-3.545-8.315-7.918C125.786,35.282,129.492,31.74,134.102,31.74z M110.596,31.74
			c4.582,0,8.316,3.542,8.316,7.896c0,4.374-3.734,7.918-8.316,7.918c-4.609,0-8.344-3.545-8.344-7.918
			C102.252,35.282,105.986,31.74,110.596,31.74z M27,34h50v10H27V34z M181,168H20V60h161V168z"/>
	</g>
</g>
</svg>
