<?xml version="1.0" encoding="utf-8"?>
<!-- Generator: Adobe Illustrator 16.0.0, SVG Export Plug-In . SVG Version: 6.00 Build 0)  -->
<!DOCTYPE svg PUBLIC "-//W3C//DTD SVG 1.1//EN" "http://www.w3.org/Graphics/SVG/1.1/DTD/svg11.dtd">
<svg version="1.1" id="Capa_1" xmlns="http://www.w3.org/2000/svg" xmlns:xlink="http://www.w3.org/1999/xlink" x="0px" y="0px"
	 width="200px" height="200px" viewBox="0 0 200 200" enable-background="new 0 0 200 200" xml:space="preserve">
<text transform="matrix(1 0 0 1 -802.9434 112.5977)" fill="#FFFFFF" font-family="'OpenSans-Bold'" font-size="21">Producción</text>
<text transform="matrix(1 0 0 1 -488.75 112.5977)" fill="#FFFFFF" font-family="'OpenSans-Bold'" font-size="21">Marketing</text>
<text transform="matrix(1 0 0 1 -173.1396 391.5977)" fill="#FFFFFF" font-family="'OpenSans-Bold'" font-size="21">Fulfillment</text>
<text transform="matrix(1 0 0 1 -133.7227 112.5977)" fill="#FFFFFF" font-family="'OpenSans-Bold'" font-size="21">TI</text>
<text transform="matrix(1 0 0 1 -188.3115 669.5977)" fill="#FFFFFF" font-family="'OpenSans-Bold'" font-size="21">Asesoría legal </text>
<text transform="matrix(1 0 0 1 -460.7686 669.5977)" fill="#FFFFFF" font-family="'OpenSans-Bold'" font-size="21">B2B</text>
<g>
	<path fill="#3A67B4" d="M-760.995,67.412c-41.635,0-75.508-33.873-75.508-75.508s33.873-75.508,75.508-75.508
		s75.508,33.873,75.508,75.508S-719.36,67.412-760.995,67.412z M-760.995-81.604c-40.532,0-73.508,32.976-73.508,73.508
		s32.976,73.508,73.508,73.508s73.508-32.976,73.508-73.508S-720.463-81.604-760.995-81.604z"/>
	<g>
		<path fill="#3A67B4" d="M-734.307-18.791h-13.121v-15.307c0-2.64-2.153-4.766-4.792-4.766h-17.684
			c-2.638,0-4.724,2.126-4.724,4.766v15.301h-3.233v-2.35c0-1.086-0.838-1.997-1.918-1.997h-6.108c-1.086,0-2.011,0.911-2.011,1.997
			v2.336c-2.564,0.014-4.684,2.146-4.684,4.778V15.12c0,2.638,2.12,4.771,4.758,4.771h53.517c2.639,0,4.833-2.133,4.833-4.771
			v-29.152C-729.475-16.671-731.668-18.791-734.307-18.791L-734.307-18.791z M-770.396-32.998c0-1.087,0.878-1.964,1.965-1.964
			h14.693c1.086,0,1.964,0.877,1.964,1.964v1.762c0,1.08-0.877,1.964-1.964,1.964h-14.693c-1.086,0-1.965-0.884-1.965-1.964V-32.998
			z M-761.062,16.894c-9.018,0-16.355-7.337-16.355-16.347c0-9.018,7.337-16.354,16.355-16.354c9.017,0,16.347,7.336,16.347,16.354
			C-744.715,9.557-752.045,16.894-761.062,16.894L-761.062,16.894z M-761.062,16.894"/>
		<path fill="#3A67B4" d="M-761.062-10.07c-5.853,0-10.616,4.759-10.616,10.617c0,5.854,4.764,10.611,10.616,10.611
			c5.852,0,10.617-4.758,10.617-10.611C-750.445-5.312-755.21-10.07-761.062-10.07L-761.062-10.07z M-761.062-10.07"/>
	</g>
</g>
<g>
	<path fill="#3A67B4" d="M100,189.904c-49.626,0-90-40.374-90-90c0-49.626,40.374-90,90-90c49.627,0,90,40.374,90,90
		C190,149.53,149.627,189.904,100,189.904z M100,12.288c-48.312,0-87.616,39.305-87.616,87.616S51.688,187.521,100,187.521
		s87.616-39.305,87.616-87.616S148.312,12.288,100,12.288z"/>
	<g>
		<path fill="#3A67B4" d="M131.811,87.252h-15.64V69.007c0-3.146-2.566-5.68-5.712-5.68H89.381c-3.145,0-5.63,2.534-5.63,5.68
			v18.238h-3.854v-2.801c0-1.294-0.999-2.38-2.286-2.38h-7.281c-1.295,0-2.397,1.086-2.397,2.38v2.784
			c-3.056,0.017-5.583,2.559-5.583,5.696v34.748c0,3.144,2.527,5.686,5.671,5.686h63.789c3.146,0,5.76-2.542,5.76-5.686V92.924
			C137.57,89.779,134.956,87.252,131.811,87.252L131.811,87.252z M88.794,70.318c0-1.296,1.047-2.341,2.342-2.341h17.512
			c1.295,0,2.342,1.045,2.342,2.341v2.1c0,1.288-1.047,2.341-2.342,2.341H91.136c-1.295,0-2.342-1.053-2.342-2.341V70.318z
			 M99.92,129.785c-10.749,0-19.494-8.745-19.494-19.483c0-10.749,8.745-19.493,19.494-19.493c10.748,0,19.485,8.744,19.485,19.493
			C119.405,121.04,110.668,129.785,99.92,129.785L99.92,129.785z M99.92,129.785"/>
		<path fill="#3A67B4" d="M99.92,97.646c-6.976,0-12.654,5.672-12.654,12.655c0,6.977,5.678,12.647,12.654,12.647
			c6.974,0,12.654-5.671,12.654-12.647C112.574,103.318,106.895,97.646,99.92,97.646L99.92,97.646z M99.92,97.646"/>
	</g>
</g>
<g>
	<path fill="#3A67B4" d="M-444.076,67.415c-39.47,0-72.524-30.879-75.252-70.299c-2.874-41.536,28.58-77.666,70.115-80.54
		c1.756-0.122,3.536-0.183,5.288-0.183c39.47,0,72.524,30.878,75.252,70.298c2.875,41.536-28.579,77.666-70.115,80.54
		C-440.544,67.354-442.323,67.415-444.076,67.415z M-443.924-81.606c-1.707,0-3.439,0.06-5.15,0.178
		c-40.435,2.798-71.056,37.971-68.258,78.407c2.656,38.375,34.834,68.437,73.257,68.437c1.707,0,3.439-0.06,5.15-0.178
		c40.436-2.798,71.056-37.972,68.258-78.407C-373.323-51.546-405.501-81.606-443.924-81.606z"/>
	<path fill="#3A67B4" d="M-407.061-29.252c-0.453-0.621-1.172-0.988-1.941-0.988h-53.999c-0.102,0-0.207,0.008-0.309,0.02
		l-2.223-6.406c-0.23-0.66-0.738-1.188-1.387-1.445l-11.203-4.398c-1.234-0.484-2.625,0.121-3.109,1.355
		c-0.484,1.23,0.121,2.625,1.355,3.109l10.172,3.996l12.45,35.891c-0.547,0.191-1.016,0.613-1.227,1.203l-3.598,10
		c-0.223,0.613-0.133,1.293,0.242,1.828c0.375,0.531,0.988,0.848,1.637,0.848h1.852c-1.148,1.277-1.852,2.957-1.852,4.801
		c0,3.973,3.231,7.199,7.2,7.199c3.973,0,7.202-3.227,7.202-7.199c0-1.844-0.703-3.523-1.852-4.801h15.699
		c-1.145,1.277-1.848,2.957-1.848,4.801c0,3.973,3.227,7.199,7.199,7.199c3.969,0,7.199-3.227,7.199-7.199
		c0-1.844-0.703-3.523-1.848-4.801h2.246c1.105,0,2-0.895,2-2c0-1.102-0.895-2-2-2h-38.35l2.227-6.191
		c0.289,0.121,0.602,0.191,0.926,0.191h35.198c1.047,0,1.969-0.672,2.285-1.664l10-31.203
		C-406.482-27.838-406.611-28.635-407.061-29.252L-407.061-29.252z M-453,23.76c-1.762,0-3.199-1.434-3.199-3.199
		s1.438-3.199,3.199-3.199c1.766,0,3.203,1.434,3.203,3.199S-451.235,23.76-453,23.76L-453,23.76z M-426.6,23.76
		c-1.766,0-3.199-1.434-3.199-3.199s1.434-3.199,3.199-3.199s3.199,1.434,3.199,3.199S-424.834,23.76-426.6,23.76L-426.6,23.76z
		 M-414.021-20.037h-12.246v-5.402h13.977L-414.021-20.037z M-417.545-9.037h-8.723v-6.203h10.707L-417.545-9.037z M-442.135-9.037
		v-6.203h11.066v6.203H-442.135z M-431.068-4.24v5.203h-11.066V-4.24H-431.068z M-458.11-15.24h11.175v6.203h-9.026L-458.11-15.24z
		 M-442.135-20.037v-5.402h11.066v5.402H-442.135z M-446.935-25.439v5.402h-12.843l-1.872-5.402H-446.935z M-454.293-4.24h7.358
		v5.203h-5.558L-454.293-4.24z M-426.268,0.963V-4.24h7.184l-1.668,5.203H-426.268z M-426.268,0.963"/>
</g>
<g>
	<path fill="#3A67B4" d="M-125.995,67.412c-41.635,0-75.508-33.873-75.508-75.508s33.873-75.508,75.508-75.508
		s75.508,33.873,75.508,75.508S-84.36,67.412-125.995,67.412z M-125.995-81.604c-40.532,0-73.508,32.976-73.508,73.508
		s32.976,73.508,73.508,73.508s73.508-32.976,73.508-73.508S-85.463-81.604-125.995-81.604z"/>
	<g>
		<path fill="#3A67B4" d="M-156.466-40.633v62.397h62.941v-62.397H-156.466z M-98.721-35.451v52.033h-52.563v-52.033H-98.721z
			 M-98.721-35.451"/>
		<path fill="#3A67B4" d="M-131.771-0.446L-148.31-7.64v-3.98l16.539-7.152v4.693l-11.521,4.414l11.521,4.582V-0.446z
			 M-131.771-0.446"/>
		<path fill="#3A67B4" d="M-130.233,2.725l5.979-24.947h3.464l-6.048,24.947H-130.233z M-130.233,2.725"/>
		<path fill="#3A67B4" d="M-119.269-0.446v-4.637l11.538-4.568l-11.538-4.497v-4.624l16.553,7.166v3.949L-119.269-0.446z
			 M-119.269-0.446"/>
	</g>
</g>
<text transform="matrix(1 0 0 1 -791.1533 391.5977)" fill="#FFFFFF" font-family="'OpenSans-Bold'" font-size="21">Riesgo</text>
<g>
	<path fill="#3A67B4" d="M-761.995,346.412c-41.635,0-75.508-33.873-75.508-75.508s33.873-75.508,75.508-75.508
		s75.508,33.873,75.508,75.508S-720.36,346.412-761.995,346.412z M-761.995,197.396c-40.532,0-73.508,32.976-73.508,73.508
		s32.976,73.508,73.508,73.508s73.508-32.976,73.508-73.508S-721.463,197.396-761.995,197.396z"/>
	<g>
		<path fill="#3A67B4" d="M-761.995,228.848l-35.162,10.613v26.537c0,17.254,14.254,36.003,35.162,47.109
			c20.908-11.106,35.162-29.855,35.162-47.109v-26.537L-761.995,228.848z M-761.995,307.037
			c-17.96-10.373-29.855-26.599-29.855-41.039v-22.592l29.855-9.013V307.037z M-761.995,307.037"/>
	</g>
</g>
<text transform="matrix(1 0 0 1 -491.6797 391.5977)" fill="#FFFFFF" font-family="'OpenSans-Bold'" font-size="21">Call Center</text>
<g>
	<path fill="#3A67B4" d="M-125.995,346.412c-41.635,0-75.508-33.873-75.508-75.508s33.873-75.508,75.508-75.508
		s75.508,33.873,75.508,75.508S-84.36,346.412-125.995,346.412z M-125.995,197.396c-40.532,0-73.508,32.976-73.508,73.508
		s32.976,73.508,73.508,73.508s73.508-32.976,73.508-73.508S-85.463,197.396-125.995,197.396z"/>
	<path fill="#3A67B4" d="M-83.009,264.537l-8.555-18.5l-32.713-13.319l-35.441,13.461l-9.264,13.443l9.148-0.807v30.154
		l34.28,13.567l34.016-13.567v-20.766L-83.009,264.537z M-124.224,259.028v-23.663l29.507,12.026L-124.224,259.028z
		 M-126.906,299.34l-30.483-12.026v-37.593l30.483,12.026V299.34z M-93.981,287.313l-30.481,12.026v-37.593l6.694,17.729
		l23.787-10.228V287.313z M-93.981,287.313"/>
</g>
<text transform="matrix(1 0 0 1 -816.3066 669.5977)" fill="#FFFFFF" font-family="'OpenSans-Bold'" font-size="21">Distribución</text>
<g>
	<path fill="#3A67B4" d="M-760.995,624.412c-41.635,0-75.508-33.873-75.508-75.508s33.873-75.508,75.508-75.508
		s75.508,33.873,75.508,75.508S-719.36,624.412-760.995,624.412z M-760.995,475.396c-40.532,0-73.508,32.976-73.508,73.508
		s32.976,73.508,73.508,73.508s73.508-32.976,73.508-73.508S-720.463,475.396-760.995,475.396z"/>
	<g>
		<path fill="#3A67B4" d="M-719.469,560.777v-1.01l-8.469-27.812h-18.739v-6.656h-45.047v17.215h-9.598l-4.061,5.408h13.659v4.061
			h-15.342l-4.061,5.408h19.394v3.387h-2.149v9.123h2.149v1.356h1.466c0.822,4.853,5.042,8.567,10.133,8.567
			c5.081,0,9.3-3.715,10.122-8.567h23.088c0.812,4.853,5.031,8.567,10.123,8.567c5.081,0,9.3-3.715,10.122-8.567h7.211V569.9h2.367
			v-9.123H-719.469z M-780.135,574.988c-3.001,0-5.448-2.443-5.448-5.445c0-3.004,2.437-5.447,5.448-5.447
			c2.991,0,5.438,2.443,5.438,5.447C-774.697,572.545-777.144,574.988-780.135,574.988L-780.135,574.988z M-736.802,574.988
			c-3.002,0-5.448-2.443-5.448-5.445c0-3.004,2.446-5.447,5.448-5.447c3.001,0,5.438,2.443,5.438,5.447
			C-731.364,572.545-733.801,574.988-736.802,574.988L-736.802,574.988z M-741.844,549.109v-12.321h10.321l3.754,12.321H-741.844z
			 M-741.844,549.109"/>
	</g>
</g>
<g>
	<path fill="#3A67B4" d="M-444,346.412c-41.635,0-75.508-33.873-75.508-75.508s33.873-75.508,75.508-75.508
		s75.508,33.873,75.508,75.508S-402.365,346.412-444,346.412z M-444,197.396c-40.532,0-73.508,32.976-73.508,73.508
		s32.976,73.508,73.508,73.508s73.508-32.976,73.508-73.508S-403.468,197.396-444,197.396z"/>
	<path fill="#3A67B4" d="M-429.456,275.598c4.777-5.043,7.828-12.163,7.828-18.955c0-12.356-10.009-22.379-22.365-22.379
		c-12.355,0-22.379,10.022-22.379,22.379c0,3.051,0.649,6.156,1.754,9.125c2.747,6.199,8.145,11,14.979,12.753
		c1.354-1.671,3.396-2.679,5.646-2.679c4.018,0,7.275,3.272,7.275,7.293c0,4.014-3.271,7.272-7.275,7.272
		c-2.871,0-5.397-1.667-6.585-4.152c-5.867-1.301-11.017-4.241-15.021-8.283c-8.821,3.751-14.537,9.761-14.537,16.525
		c0,11.399,72.271,11.399,72.271,0C-407.864,286.045-416.741,278.797-429.456,275.598L-429.456,275.598z M-429.456,275.598"/>
	<path fill="#3A67B4" d="M-448.619,284.005c0.414,2.178,2.32,3.824,4.611,3.824c2.609,0,4.708-2.103,4.708-4.694
		c0-2.599-2.1-4.707-4.695-4.707c-2.002,0-3.699,1.252-4.376,3.006c-11.817-2.085-20.833-12.397-20.833-24.791
		c0-13.902,11.307-25.209,25.209-25.209c13.888,0,25.195,11.307,25.195,25.209h2.582c0-15.324-12.467-27.795-27.777-27.795
		c-15.324,0-27.79,12.471-27.79,27.795C-471.784,270.375-461.734,281.796-448.619,284.005L-448.619,284.005z M-448.619,284.005"/>
</g>
<g>
	<path fill="#3A67B4" d="M-125.995,624.412c-41.635,0-75.508-33.873-75.508-75.508s33.873-75.508,75.508-75.508
		s75.508,33.873,75.508,75.508S-84.36,624.412-125.995,624.412z M-125.995,475.396c-40.532,0-73.508,32.976-73.508,73.508
		s32.976,73.508,73.508,73.508s73.508-32.976,73.508-73.508S-85.463,475.396-125.995,475.396z"/>
	<g>
		<path fill="#3A67B4" d="M-109.63,578.494v2.718h-32.727v-2.718c0-1.505,1.224-2.73,2.714-2.73h5.503
			c0.148-3.41,2.344-6.248,5.423-7.34V536.44c-1.438-0.905-2.411-2.504-2.411-4.329h10.256c0,1.825-0.959,3.424-2.398,4.329v31.983
			c3.064,1.092,5.275,3.93,5.422,7.34h5.488C-110.855,575.764-109.63,576.989-109.63,578.494L-109.63,578.494z M-90.528,553.931
			c-1.998,5.635-7.326,9.697-13.64,9.697c-6.314,0-11.643-4.062-13.641-9.697h3.144l9.218-24.417c0.399-1.065,2.158-1.065,2.558,0
			l9.205,24.417H-90.528z M-96.589,553.931l-7.579-20.074l-7.579,20.074H-96.589z M-147.82,526.69c1.239,0,2.238-0.84,2.598-1.958
			c0.891-0.333,1.825-0.8,2.771-1.279c2.094-1.053,4.449-2.251,6.916-2.251c2.355,0,3.822,1.092,4.66,2.012
			c-0.027,0.239-0.066,0.466-0.066,0.719c0,2.73,2.213,4.942,4.939,4.942c2.732,0,4.957-2.212,4.957-4.942
			c0-0.253-0.039-0.479-0.08-0.719c0.84-0.92,2.318-2.012,4.676-2.012c2.465,0,4.822,1.198,6.914,2.251
			c0.945,0.479,1.864,0.946,2.771,1.279c0.347,1.118,1.358,1.958,2.598,1.958c1.519,0,2.757-1.239,2.757-2.758
			c0-1.532-1.238-2.757-2.757-2.757c-0.786,0-1.492,0.333-1.985,0.865c-0.68-0.279-1.412-0.652-2.158-1.025
			c-2.357-1.199-5.035-2.544-8.139-2.544c-2.717,0-4.608,1.039-5.888,2.145c-0.586-0.626-1.318-1.105-2.157-1.372
			c1.025-0.547,1.731-1.585,1.731-2.824c0-1.785-3.239-5.954-3.239-5.954s-3.222,4.169-3.222,5.954c0,1.239,0.706,2.277,1.731,2.824
			c-0.839,0.267-1.585,0.746-2.157,1.372c-1.279-1.105-3.173-2.145-5.886-2.145c-3.117,0-5.783,1.345-8.141,2.544
			c-0.76,0.373-1.479,0.746-2.158,1.025c-0.492-0.532-1.201-0.865-1.985-0.865c-1.517,0-2.759,1.225-2.759,2.757
			C-150.579,525.451-149.337,526.69-147.82,526.69L-147.82,526.69z M-147.82,563.628c-6.315,0-11.642-4.062-13.64-9.697h3.143
			l9.219-24.417c0.399-1.065,2.158-1.065,2.558,0l9.218,24.417h3.144C-136.178,559.565-141.505,563.628-147.82,563.628
			L-147.82,563.628z M-140.239,553.931l-7.581-20.074l-7.581,20.074H-140.239z M-140.239,553.931"/>
	</g>
</g>
<g>
	<path fill="#3A67B4" d="M-444,624.412c-41.635,0-75.508-33.873-75.508-75.508s33.873-75.508,75.508-75.508
		s75.508,33.873,75.508,75.508S-402.365,624.412-444,624.412z M-444,475.396c-40.532,0-73.508,32.976-73.508,73.508
		s32.976,73.508,73.508,73.508s73.508-32.976,73.508-73.508S-403.468,475.396-444,475.396z"/>
	<g>
		<path fill="#3A67B4" d="M-479.624,539.85c0,4.145,2.845,7.598,6.679,8.594V577.7h-4.452c-1.227,0-2.227,0.996-2.227,2.227
			s1,2.227,2.227,2.227h66.795c1.234,0,2.227-0.996,2.227-2.227s-0.992-2.227-2.227-2.227h-4.453v-29.257
			c3.836-0.996,6.68-4.449,6.68-8.594v-2.226h-71.248V539.85z M-435.093,548.756c4.922,0,8.904-3.988,8.904-8.906
			c0,4.145,2.846,7.598,6.68,8.594V577.7h-33.397v-28.944c4.923,0,8.907-3.988,8.907-8.906
			C-443.999,544.768-440.008,548.756-435.093,548.756L-435.093,548.756z M-455.133,548.443V577.7h-13.358v-29.257
			c3.835-0.996,6.679-4.449,6.679-8.594C-461.812,543.994-458.967,547.447-455.133,548.443L-455.133,548.443z M-417.282,517.585
			h-53.436l-8.906,17.812h71.248L-417.282,517.585z M-460.812,522.534l-4.453,8.905c-0.2,0.391-0.592,0.618-1,0.618
			c-0.165,0-0.335-0.034-0.496-0.118c-0.547-0.273-0.773-0.943-0.496-1.491l4.453-8.905c0.279-0.549,0.944-0.77,1.491-0.501
			C-460.76,521.316-460.542,521.984-460.812,522.534L-460.812,522.534z M-451.905,522.534l-4.453,8.905
			c-0.199,0.391-0.591,0.618-1.001,0.618c-0.164,0-0.334-0.034-0.496-0.118c-0.547-0.273-0.773-0.943-0.495-1.491l4.453-8.905
			c0.278-0.549,0.948-0.77,1.491-0.501C-451.854,521.316-451.636,521.984-451.905,522.534L-451.905,522.534z M-442.886,530.943
			c0,0.618-0.496,1.114-1.113,1.114c-0.613,0-1.113-0.496-1.113-1.114v-8.905c0-0.618,0.5-1.113,1.113-1.113
			c0.617,0,1.113,0.495,1.113,1.113V530.943z M-430.102,531.918c-0.174,0.096-0.356,0.14-0.538,0.14
			c-0.392,0-0.774-0.21-0.977-0.579l-4.868-8.906c-0.297-0.539-0.097-1.217,0.443-1.508c0.53-0.297,1.218-0.105,1.513,0.439
			l4.87,8.904C-429.371,530.948-429.562,531.627-430.102,531.918L-430.102,531.918z M-421.239,531.939
			c-0.155,0.082-0.322,0.118-0.496,0.118c-0.408,0-0.8-0.228-0.99-0.618l-4.453-8.906c-0.278-0.549-0.054-1.218,0.496-1.491
			c0.538-0.274,1.218-0.054,1.496,0.5l4.453,8.906C-420.465,530.996-420.683,531.666-421.239,531.939L-421.239,531.939z
			 M-460.699,564.681v-5.132c-0.651-0.392-1.113-1.069-1.113-1.887c0-1.23,1.001-2.227,2.227-2.227c1.235,0,2.227,0.996,2.227,2.227
			c0,0.817-0.455,1.495-1.111,1.887v5.132c0.656,0.392,1.111,1.07,1.111,1.887c0,1.23-0.991,2.227-2.227,2.227
			c-1.227,0-2.227-0.996-2.227-2.227C-461.812,565.751-461.351,565.071-460.699,564.681L-460.699,564.681z M-470.718,513.132
			c0-1.23,1-2.227,2.227-2.227h48.982c1.236,0,2.227,0.996,2.227,2.227s-0.99,2.227-2.227,2.227h-48.982
			C-469.718,515.358-470.718,514.362-470.718,513.132L-470.718,513.132z M-440.599,560.675l-1.575-1.574l6.297-6.296l1.575,1.573
			L-440.599,560.675z M-440.599,566.973l-1.575-1.575l12.595-12.593l1.574,1.573L-440.599,566.973z M-429.579,559.101l1.574,1.574
			l-6.297,6.298l-1.575-1.575L-429.579,559.101z M-429.579,559.101"/>
	</g>
</g>
<g>
	<g>
		<path fill="#3A67B4" d="M-340.995-174.588c-41.635,0-75.508-33.873-75.508-75.508s33.873-75.508,75.508-75.508
			s75.508,33.873,75.508,75.508S-299.36-174.588-340.995-174.588z M-340.995-323.604c-40.532,0-73.508,32.976-73.508,73.508
			s32.976,73.508,73.508,73.508s73.508-32.976,73.508-73.508S-300.463-323.604-340.995-323.604z"/>
	</g>
	<g>
		<path fill="#3A67B4" d="M-331.039-215.876c-1.33-0.978-1.473-2.447-1.473-2.447l-0.498-3.188h-15.894l-0.502,3.185
			c0,0-0.138,1.472-1.468,2.45c-1.331,0.978-2.378,1.817-1.331,1.959c1.012,0.135,10.544,0.011,11.249,0
			c0.704,0.011,10.236,0.135,11.244,0C-328.664-214.059-329.712-214.898-331.039-215.876L-331.039-215.876z M-331.039-215.876"/>
		<g>
			<defs>
				<rect id="SVGID_1_" x="-379.324" y="-286.544" width="76.657" height="72.897"/>
			</defs>
			<clipPath id="SVGID_2_">
				<use xlink:href="#SVGID_1_"  overflow="visible"/>
			</clipPath>
			<path clip-path="url(#SVGID_2_)" fill="#3A67B4" d="M-358.862-241.347c4.249-0.034,4.776-1.056,6.16-5.316
				c2.551-6.729,14.05,1.761,6.924,4.706C-352.901-239.009-363.108-241.313-358.862-241.347L-358.862-241.347z M-358.862-241.347"/>
			<path clip-path="url(#SVGID_2_)" fill="#3A67B4" d="M-315.321-285.687c-2.061-1.66-5.474-0.839-7.625,1.829l-21.784,30.952
				c-2.15,2.667-2.139,2.158-0.083,3.818c2.061,1.66,1.566,1.78,3.717-0.892l25.613-27.865
				C-313.335-280.516-313.261-284.026-315.321-285.687L-315.321-285.687z M-320.923-281.981c0,0-0.318-0.371-1.378-1.217
				c1.592-2.601,4.717-2.125,4.717-2.125C-320.548-283.569-320.923-281.981-320.923-281.981L-320.923-281.981z M-320.923-281.981"/>
			<path clip-path="url(#SVGID_2_)" fill="#3A67B4" d="M-305.658-275.226h-9.582l-4.229,4.605h12.274v36.831h-67.524v-36.831h39.281
				l3.241-4.605h-44.058c-1.693,0-3.069,1.375-3.069,3.069v44.504c0,1.697,1.375,3.072,3.069,3.072h70.597
				c1.693,0,3.068-1.375,3.068-3.072v-44.504C-302.59-273.85-303.965-275.226-305.658-275.226L-305.658-275.226z M-305.658-275.226"
				/>
		</g>
	</g>
</g>
</svg>
