<?xml version="1.0" encoding="utf-8"?>
<!-- Generator: Adobe Illustrator 16.0.0, SVG Export Plug-In . SVG Version: 6.00 Build 0)  -->
<!DOCTYPE svg PUBLIC "-//W3C//DTD SVG 1.1//EN" "http://www.w3.org/Graphics/SVG/1.1/DTD/svg11.dtd">
<svg version="1.1" id="Capa_1" xmlns="http://www.w3.org/2000/svg" xmlns:xlink="http://www.w3.org/1999/xlink" x="0px" y="0px"
	 width="126.75px" height="100px" viewBox="0 0 126.75 100" enable-background="new 0 0 126.75 100" xml:space="preserve">
<g>
	<path fill="#FFFFFF" d="M104.461,35.78H84.41V12.388c0-4.034-3.293-7.283-7.326-7.283H50.061c-4.033,0-7.219,3.249-7.219,7.283
		v23.384H37.9V32.18c0-1.659-1.281-3.051-2.932-3.051h-9.334c-1.66,0-3.074,1.392-3.074,3.051v3.571
		c-3.917,0.021-7.156,3.28-7.156,7.302v44.553c0,4.031,3.239,7.29,7.269,7.29h81.788c4.035,0,7.385-3.259,7.385-7.29V43.052
		C111.846,39.021,108.496,35.78,104.461,35.78L104.461,35.78z M49.309,14.068c0-1.661,1.344-3,3-3h22.457c1.66,0,3,1.34,3,3v2.693
		c0,1.651-1.34,3-3,3H52.309c-1.656,0-3-1.35-3-3V14.068z M63.572,90.315c-13.781,0-24.993-11.213-24.993-24.981
		c0-13.782,11.212-24.992,24.993-24.992c13.779,0,24.982,11.21,24.982,24.992C88.555,79.102,77.352,90.315,63.572,90.315
		L63.572,90.315z M63.572,90.315"/>
	<path fill="#FFFFFF" d="M63.572,49.108c-8.943,0-16.221,7.272-16.221,16.225c0,8.945,7.277,16.217,16.221,16.217
		c8.941,0,16.225-7.271,16.225-16.217C79.797,56.38,72.514,49.108,63.572,49.108L63.572,49.108z M63.572,49.108"/>
</g>
</svg>
