<?xml version="1.0" encoding="utf-8"?>
<!-- Generator: Adobe Illustrator 16.0.0, SVG Export Plug-In . SVG Version: 6.00 Build 0)  -->
<!DOCTYPE svg PUBLIC "-//W3C//DTD SVG 1.1//EN" "http://www.w3.org/Graphics/SVG/1.1/DTD/svg11.dtd">
<svg version="1.1" id="Capa_1" xmlns="http://www.w3.org/2000/svg" xmlns:xlink="http://www.w3.org/1999/xlink" x="0px" y="0px"
	 width="616px" height="300px" viewBox="0 0 616 300" enable-background="new 0 0 616 300" xml:space="preserve">
<g>
	<path fill="#959595" d="M124.956,72.719c4.51-3.686,9.352-6.511,14.473-8.528H109.7v23.615
		C113.096,83.282,118.177,78.281,124.956,72.719"/>
	<path fill="#959595" d="M159.419,93.574c-15.772,0-27.552,4.377-35.737,12.894c-8.344,8.704-12.364,18.399-12.376,29.571v96.613
		h56.737V94.091c-1.234-0.172-2.428-0.317-3.528-0.37C162.961,93.615,161.276,93.574,159.419,93.574"/>
	<rect x="13.471" y="64.19" fill="#959595" width="62.19" height="168.449"/>
	<rect x="464.288" y="215.498" fill="#959595" width="14.779" height="15.842"/>
	<rect x="524.928" y="215.498" fill="#959595" width="14.802" height="15.842"/>
	<rect x="582.327" y="215.498" fill="#959595" width="14.79" height="15.842"/>
	<path fill="#FFFFFF" d="M373.089,128.781l62.959-63.052h-39.334l-65.452,66.821V5h-29.171v205.204
		c-0.41,0.028-0.941,0.121-1.34,0.163c-1.433,0.145-2.705,0.196-3.793,0.196c-3.489,0.04-5.215-0.863-5.718-1.751
		c-0.862-1.302-1.367-3.145-1.367-5.731v-94.158c0.066-15.972-6.155-28.27-18.267-35.896c-12.044-7.549-27.578-11.249-46.482-11.249
		c-16.423,0-30.961,4.031-43.431,12.15c-12.908,8.279-19.501,23.213-19.992,43.802l-0.053,2.043h28.467l0.226-1.75
		c0.941-8.25,3.012-14.3,5.956-18.16c5.36-7.152,14.566-10.903,28.243-10.945c11.793,0,20.787,2.123,26.797,6.077
		c5.916,3.941,8.781,9.83,8.847,18.783c0,4.404-0.598,7.617-1.578,9.643c-1.765,3.797-5.135,6.077-10.932,6.86l-42.595,5.478
		c-15.215,1.989-27.712,7.23-37.25,15.841c-9.644,8.741-14.473,21.184-14.473,36.758c0,14.286,4.96,26.465,14.658,35.963
		c9.724,9.564,22.326,14.341,37.396,14.341c12.549,0,24.089-2.759,34.53-8.29c8.914-4.686,16.131-10.176,21.53-16.425
		c0.969,4.762,2.361,8.663,4.206,11.781c4.523,7.32,11.992,11.01,21.597,10.943c3.805,0,6.857-0.147,9.152-0.464
		c2.321-0.334,5.545-1.13,9.737-2.363l1.365-0.384v-0.305h23.733V170.7l19.567-19.634l49.027,82.089h38.367L373.089,128.781z
		 M184.996,187.732c0.067-9.896,3.714-16.528,11.421-21.09c4.537-2.643,11.674-4.738,21.212-6.01l16.157-2.151
		c5.014-0.622,10.135-1.643,15.375-3.064c3.913-1.126,7.336-2.438,10.28-3.977v18.756c-0.065,16.239-6.897,27.354-21.211,34.651
		c-8.608,4.337-17.417,6.499-26.558,6.499c-7.416,0-13.61-2.162-18.943-6.461C187.528,200.641,185.063,195.136,184.996,187.732"/>
	<path fill="#FFFFFF" d="M24.787,259.396v3.182c-1.088-0.505-2.043-0.769-2.852-0.769c-0.583,0-1.036,0.117-1.446,0.397
		c-0.372,0.24-0.624,0.531-0.729,0.875c-0.133,0.333-0.173,1.208-0.173,2.642v3.422h4.935v2.786h-4.935v22.431h-3.037v-22.431
		h-3.078v-2.786h3.078v-3.954c0-1.776,0.146-3.09,0.463-3.848c0.306-0.769,0.836-1.432,1.592-1.881
		c0.729-0.479,1.632-0.717,2.666-0.717C22.266,258.746,23.421,258.983,24.787,259.396"/>
	<path fill="#FFFFFF" d="M59.065,269.146v25.217h-2.972v-4.336c-1.26,1.644-2.707,2.877-4.272,3.715
		c-1.565,0.82-3.302,1.259-5.16,1.259c-3.342,0-6.195-1.314-8.557-3.915c-2.322-2.56-3.489-5.678-3.489-9.404
		c0-3.622,1.167-6.751,3.528-9.337c2.402-2.587,5.24-3.859,8.597-3.859c1.923,0,3.674,0.475,5.2,1.312
		c1.591,0.914,2.971,2.216,4.152,3.952v-4.603H59.065z M46.966,271.599c-1.658,0-3.223,0.479-4.656,1.341
		c-1.394,0.888-2.561,2.163-3.382,3.727c-0.85,1.632-1.288,3.318-1.288,5.106c0,1.779,0.438,3.489,1.288,5.108
		c0.863,1.619,2.003,2.879,3.422,3.795c1.419,0.861,2.958,1.326,4.616,1.326c1.645,0,3.238-0.426,4.696-1.326
		c1.486-0.916,2.614-2.124,3.423-3.635c0.795-1.554,1.221-3.251,1.221-5.16c0-2.947-0.917-5.386-2.72-7.324
		C51.821,272.62,49.606,271.599,46.966,271.599 M48.824,257.339h4.656l-6.407,7.123h-2.946L48.824,257.339z"/>
	<path fill="#FFFFFF" d="M72.688,294.362v-34.966h3.039v14.085c1.259-1.685,2.692-2.919,4.244-3.752
		c1.579-0.796,3.291-1.245,5.133-1.245c3.331,0,6.196,1.312,8.543,3.896c2.334,2.573,3.516,5.691,3.516,9.392
		c0,3.664-1.182,6.779-3.568,9.367c-2.362,2.573-5.213,3.86-8.57,3.86c-1.884,0-3.621-0.438-5.187-1.314
		c-1.565-0.899-2.919-2.228-4.112-4.005v4.682H72.688z M84.787,291.882c1.697,0,3.25-0.476,4.656-1.339
		c1.445-0.891,2.572-2.162,3.396-3.727c0.836-1.621,1.261-3.317,1.261-5.136c0-1.792-0.424-3.476-1.261-5.105
		c-0.849-1.621-2.003-2.88-3.435-3.782c-1.42-0.903-2.958-1.366-4.577-1.366c-1.646,0-3.223,0.463-4.696,1.366
		c-1.513,0.902-2.628,2.109-3.436,3.648c-0.77,1.513-1.208,3.235-1.208,5.159c0,2.919,0.888,5.388,2.72,7.324
		C79.998,290.902,82.2,291.882,84.787,291.882"/>
	<path fill="#FFFFFF" d="M108.175,269.146h3.091v3.675c0.941-1.473,1.896-2.562,2.904-3.265c1.035-0.717,2.069-1.071,3.197-1.071
		c0.835,0,1.711,0.305,2.68,0.874l-1.578,2.719c-0.61-0.28-1.141-0.45-1.606-0.45c-0.98,0-1.976,0.45-2.904,1.353
		c-0.915,0.875-1.632,2.255-2.123,4.126c-0.384,1.444-0.569,4.337-0.569,8.714v8.543h-3.091V269.146z"/>
	<path fill="#FFFFFF" d="M130.314,258.746c0.664,0,1.248,0.263,1.765,0.779c0.477,0.533,0.729,1.168,0.729,1.912
		c0,0.743-0.252,1.34-0.729,1.885c-0.517,0.543-1.101,0.794-1.765,0.794c-0.69,0-1.273-0.251-1.776-0.794
		c-0.453-0.545-0.704-1.142-0.704-1.885c0-0.744,0.251-1.379,0.704-1.912C129.041,259.009,129.624,258.746,130.314,258.746
		 M128.802,269.146h3.024v25.217h-3.024V269.146z"/>
	<path fill="#FFFFFF" d="M167.563,274.387l-2.427,1.576c-2.056-2.932-4.869-4.415-8.463-4.415c-2.839,0-5.24,0.992-7.137,2.943
		c-1.896,1.988-2.853,4.405-2.853,7.231c0,1.829,0.465,3.567,1.34,5.186c0.851,1.617,2.058,2.852,3.583,3.768
		c1.498,0.9,3.197,1.326,5.093,1.326c3.449,0,6.274-1.459,8.437-4.418l2.427,1.672c-1.126,1.829-2.626,3.237-4.536,4.231
		c-1.911,0.994-4.06,1.513-6.473,1.513c-3.702,0-6.805-1.287-9.246-3.808c-2.454-2.545-3.649-5.598-3.649-9.261
		c0-2.386,0.545-4.694,1.699-6.765c1.155-2.122,2.705-3.754,4.723-4.908c2.002-1.18,4.218-1.774,6.725-1.774
		c1.551,0,3.038,0.236,4.483,0.767c1.459,0.506,2.667,1.18,3.702,1.989C165.959,272.077,166.834,273.087,167.563,274.387"/>
	<path fill="#FFFFFF" d="M203.421,269.146v25.217h-2.984v-4.336c-1.274,1.644-2.693,2.877-4.272,3.715
		c-1.565,0.82-3.303,1.259-5.199,1.259c-3.316,0-6.155-1.314-8.491-3.915c-2.374-2.56-3.515-5.678-3.515-9.404
		c0-3.622,1.155-6.751,3.542-9.337c2.389-2.587,5.254-3.859,8.57-3.859c1.95,0,3.66,0.475,5.24,1.312
		c1.59,0.914,2.93,2.216,4.125,3.952v-4.603H203.421z M191.323,271.599c-1.686,0-3.224,0.479-4.644,1.341
		c-1.432,0.888-2.559,2.163-3.422,3.727c-0.836,1.632-1.26,3.318-1.26,5.106c0,1.779,0.424,3.489,1.287,5.108
		c0.836,1.619,1.964,2.879,3.409,3.795c1.446,0.861,2.984,1.326,4.604,1.326c1.658,0,3.237-0.426,4.696-1.326
		c1.512-0.916,2.641-2.124,3.448-3.635c0.77-1.554,1.195-3.251,1.195-5.16c0-2.947-0.903-5.386-2.68-7.324
		C196.151,272.62,193.938,271.599,191.323,271.599"/>
	<path fill="#FFFFFF" d="M259.19,259.396v34.966h-2.984v-4.336c-1.288,1.644-2.694,2.877-4.246,3.715
		c-1.591,0.82-3.342,1.259-5.213,1.259c-3.302,0-6.143-1.314-8.49-3.915c-2.374-2.56-3.555-5.678-3.555-9.404
		c0-3.622,1.181-6.751,3.555-9.337c2.414-2.587,5.253-3.859,8.583-3.859c1.95,0,3.701,0.475,5.252,1.312
		c1.579,0.914,2.945,2.216,4.114,3.952v-14.352H259.19z M247.104,271.599c-1.671,0-3.236,0.479-4.656,1.341
		c-1.406,0.888-2.547,2.163-3.396,3.727c-0.85,1.632-1.261,3.318-1.261,5.106c0,1.779,0.411,3.489,1.261,5.108
		c0.863,1.619,1.99,2.879,3.436,3.795c1.406,0.861,2.945,1.326,4.577,1.326c1.659,0,3.25-0.426,4.723-1.326
		c1.472-0.916,2.613-2.124,3.41-3.635c0.796-1.554,1.207-3.251,1.207-5.16c0-2.947-0.902-5.386-2.68-7.324
		C251.96,272.62,249.719,271.599,247.104,271.599"/>
	<path fill="#FFFFFF" d="M292.474,286.005l2.533,1.395c-0.849,1.776-1.803,3.181-2.905,4.271c-1.088,1.116-2.307,1.925-3.7,2.479
		c-1.354,0.546-2.905,0.851-4.631,0.851c-3.846,0-6.831-1.339-9.006-4.048c-2.149-2.706-3.236-5.728-3.236-9.138
		c0-3.197,0.927-6.048,2.731-8.571c2.322-3.143,5.427-4.759,9.313-4.759c4.007,0,7.216,1.642,9.617,4.893
		c1.712,2.281,2.547,5.173,2.601,8.638h-21.146c0.055,2.916,0.93,5.332,2.601,7.161c1.684,1.896,3.793,2.826,6.288,2.826
		c1.153,0,2.334-0.2,3.45-0.65c1.14-0.449,2.122-1.062,2.905-1.791C290.683,288.817,291.544,287.638,292.474,286.005
		 M292.474,279.173c-0.424-1.684-1.009-3.103-1.791-4.111c-0.756-1.062-1.764-1.925-3.064-2.521
		c-1.247-0.635-2.587-0.954-3.98-0.954c-2.334,0-4.271,0.795-5.956,2.414c-1.234,1.167-2.109,2.866-2.746,5.173H292.474z"/>
	<path fill="#FFFFFF" d="M338.745,271.905l-1.925,2.146c-1.604-1.671-3.209-2.546-4.763-2.546c-0.955,0-1.816,0.384-2.495,1.075
		c-0.701,0.662-1.087,1.471-1.087,2.414c0,0.851,0.292,1.604,0.875,2.359c0.584,0.718,1.805,1.635,3.65,2.63
		c2.255,1.284,3.754,2.494,4.562,3.635c0.809,1.167,1.221,2.519,1.221,3.965c0,2.068-0.69,3.822-2.029,5.269
		c-1.38,1.431-3.065,2.147-5.094,2.147c-1.341,0-2.654-0.305-3.889-0.955c-1.22-0.626-2.242-1.514-3.038-2.614l1.883-2.32
		c1.526,1.842,3.173,2.799,4.936,2.799c1.195,0,2.204-0.411,3.066-1.233c0.861-0.849,1.286-1.804,1.286-2.972
		c0-0.888-0.291-1.751-0.85-2.479c-0.57-0.705-1.804-1.605-3.794-2.693c-2.136-1.167-3.595-2.296-4.325-3.451
		c-0.781-1.126-1.167-2.438-1.167-3.913c0-1.924,0.639-3.54,1.831-4.802c1.222-1.248,2.759-1.881,4.604-1.881
		C334.392,268.484,336.54,269.622,338.745,271.905"/>
	<path fill="#FFFFFF" d="M361.879,268.484c3.597,0,6.593,1.417,9.008,4.216c2.162,2.562,3.235,5.612,3.235,9.114
		c0,3.514-1.166,6.605-3.448,9.22c-2.282,2.651-5.227,3.966-8.795,3.966c-3.622,0-6.566-1.314-8.848-3.966
		c-2.296-2.614-3.436-5.706-3.436-9.22c0-3.502,1.073-6.515,3.248-9.062C355.22,269.901,358.244,268.484,361.879,268.484
		 M361.879,271.665c-2.521,0-4.71,1.021-6.5,2.958c-1.818,2.019-2.693,4.432-2.693,7.258c0,1.843,0.386,3.556,1.248,5.107
		c0.795,1.563,1.909,2.771,3.29,3.647c1.419,0.862,2.944,1.273,4.655,1.273c1.658,0,3.211-0.411,4.59-1.273
		c1.407-0.876,2.507-2.084,3.329-3.647c0.851-1.552,1.261-3.265,1.261-5.107c0-2.826-0.928-5.239-2.733-7.258
		C366.496,272.686,364.36,271.665,361.879,271.665"/>
	<rect x="385.902" y="259.396" fill="#FFFFFF" width="3.012" height="34.966"/>
	<path fill="#FFFFFF" d="M401.448,269.146h3.04v11.752c0,2.893,0.12,4.869,0.397,5.944c0.452,1.539,1.286,2.731,2.494,3.648
		c1.234,0.916,2.651,1.338,4.377,1.338c1.659,0,3.091-0.422,4.273-1.285c1.192-0.891,2.001-2.018,2.438-3.451
		c0.305-0.954,0.479-3.036,0.479-6.194v-11.752h3.051v12.348c0,3.518-0.358,6.116-1.117,7.867c-0.768,1.779-1.921,3.159-3.42,4.139
		c-1.511,1.022-3.424,1.501-5.705,1.501c-2.308,0-4.229-0.479-5.757-1.501c-1.512-0.979-2.653-2.414-3.41-4.164
		c-0.755-1.791-1.142-4.47-1.142-8.066V269.146z"/>
	<path fill="#FFFFFF" d="M458.173,274.387l-2.387,1.576c-2.109-2.932-4.896-4.415-8.476-4.415c-2.881,0-5.253,0.992-7.165,2.943
		c-1.869,1.988-2.838,4.405-2.838,7.231c0,1.829,0.449,3.567,1.324,5.186c0.837,1.617,2.084,2.852,3.568,3.768
		c1.514,0.9,3.226,1.326,5.11,1.326c3.489,0,6.286-1.459,8.476-4.418l2.387,1.672c-1.125,1.829-2.639,3.237-4.534,4.231
		c-1.897,0.994-4.049,1.513-6.436,1.513c-3.741,0-6.817-1.287-9.26-3.808c-2.454-2.545-3.688-5.598-3.688-9.261
		c0-2.386,0.571-4.694,1.714-6.765c1.154-2.122,2.718-3.754,4.747-4.908c2.006-1.18,4.205-1.774,6.699-1.774
		c1.539,0,3.052,0.236,4.522,0.767c1.435,0.506,2.669,1.18,3.665,1.989C456.623,272.077,457.456,273.087,458.173,274.387"/>
	<path fill="#FFFFFF" d="M471.651,258.746c0.691,0,1.3,0.263,1.778,0.779c0.477,0.533,0.729,1.168,0.729,1.912
		c0,0.743-0.252,1.34-0.729,1.885c-0.479,0.543-1.087,0.794-1.778,0.794c-0.664,0-1.247-0.251-1.751-0.794
		c-0.464-0.545-0.701-1.142-0.701-1.885c0-0.744,0.237-1.379,0.701-1.912C470.404,259.009,470.987,258.746,471.651,258.746
		 M470.153,269.146h3.012v25.217h-3.012V269.146z"/>
	<path fill="#FFFFFF" d="M497.239,268.484c3.624,0,6.608,1.417,8.955,4.216c2.2,2.562,3.276,5.612,3.276,9.114
		c0,3.514-1.113,6.605-3.421,9.22c-2.295,2.651-5.229,3.966-8.811,3.966c-3.634,0-6.577-1.314-8.832-3.966
		c-2.296-2.614-3.438-5.706-3.438-9.22c0-3.502,1.062-6.515,3.237-9.062C490.568,269.901,493.593,268.484,497.239,268.484
		 M497.202,271.665c-2.508,0-4.655,1.021-6.474,2.958c-1.818,2.019-2.693,4.432-2.693,7.258c0,1.843,0.438,3.556,1.247,5.107
		c0.823,1.563,1.923,2.771,3.33,3.647c1.394,0.862,2.919,1.273,4.59,1.273c1.698,0,3.235-0.411,4.629-1.273
		c1.433-0.876,2.534-2.084,3.342-3.647c0.822-1.552,1.248-3.265,1.248-5.107c0-2.826-0.914-5.239-2.731-7.258
		C501.859,272.686,499.733,271.665,497.202,271.665"/>
	<path fill="#FFFFFF" d="M521.718,269.146h3.01v4.511c1.233-1.725,2.547-3.025,4.047-3.899c1.432-0.823,3.036-1.272,4.773-1.272
		c1.78,0,3.306,0.501,4.686,1.442c1.364,0.942,2.358,2.229,2.998,3.9c0.636,1.593,0.995,4.127,0.995,7.537v12.998h-3.039v-12.043
		c0-2.894-0.121-4.83-0.346-5.824c-0.346-1.672-1.021-2.917-2.03-3.743c-0.968-0.847-2.28-1.283-3.886-1.283
		c-1.829,0-3.438,0.675-4.868,1.947c-1.471,1.312-2.442,2.918-2.893,4.83c-0.292,1.246-0.438,3.526-0.438,6.857v9.259h-3.01V269.146
		z"/>
	<path fill="#FFFFFF" d="M575.097,286.005l2.546,1.395c-0.82,1.776-1.788,3.181-2.891,4.271c-1.104,1.116-2.308,1.925-3.675,2.479
		c-1.38,0.546-2.943,0.851-4.655,0.851c-3.849,0-6.847-1.339-8.995-4.048c-2.149-2.706-3.249-5.728-3.249-9.138
		c0-3.197,0.913-6.048,2.746-8.571c2.307-3.143,5.438-4.759,9.339-4.759c3.994,0,7.189,1.642,9.579,4.893
		c1.684,2.281,2.571,5.173,2.597,8.638h-21.143c0.024,2.916,0.913,5.332,2.612,7.161c1.697,1.896,3.766,2.826,6.247,2.826
		c1.194,0,2.362-0.2,3.503-0.65c1.103-0.449,2.082-1.062,2.878-1.791C573.32,288.817,574.183,287.638,575.097,286.005
		 M575.097,279.173c-0.41-1.684-0.994-3.103-1.752-4.111c-0.781-1.062-1.805-1.925-3.051-2.521
		c-1.285-0.635-2.614-0.954-3.993-0.954c-2.32,0-4.312,0.795-5.97,2.414c-1.205,1.167-2.122,2.866-2.719,5.173H575.097z"/>
	<path fill="#FFFFFF" d="M602.504,271.905l-1.91,2.146c-1.634-1.671-3.21-2.546-4.734-2.546c-0.997,0-1.847,0.384-2.56,1.075
		c-0.705,0.662-1.051,1.471-1.051,2.414c0,0.851,0.293,1.604,0.874,2.359c0.571,0.718,1.806,1.635,3.649,2.63
		c2.229,1.284,3.779,2.494,4.59,3.635c0.783,1.167,1.167,2.519,1.167,3.965c0,2.068-0.647,3.822-2.043,5.269
		c-1.352,1.431-3.036,2.147-5.053,2.147c-1.38,0-2.667-0.305-3.887-0.955c-1.248-0.626-2.258-1.514-3.051-2.614l1.896-2.32
		c1.553,1.842,3.197,2.799,4.883,2.799c1.217,0,2.255-0.411,3.101-1.233c0.876-0.849,1.29-1.804,1.29-2.972
		c0-0.888-0.294-1.751-0.851-2.479c-0.557-0.705-1.83-1.605-3.832-2.693c-2.098-1.167-3.544-2.296-4.286-3.451
		c-0.758-1.126-1.153-2.438-1.153-3.913c0-1.924,0.622-3.54,1.854-4.802c1.184-1.248,2.734-1.881,4.578-1.881
		C598.139,268.484,600.34,269.622,602.504,271.905"/>
</g>
</svg>
