<?xml version="1.0" encoding="utf-8"?>
<!-- Generator: Adobe Illustrator 16.0.0, SVG Export Plug-In . SVG Version: 6.00 Build 0)  -->
<!DOCTYPE svg PUBLIC "-//W3C//DTD SVG 1.1//EN" "http://www.w3.org/Graphics/SVG/1.1/DTD/svg11.dtd">
<svg version="1.1" id="Capa_1" xmlns="http://www.w3.org/2000/svg" xmlns:xlink="http://www.w3.org/1999/xlink" x="0px" y="0px"
	 width="100px" height="100px" viewBox="192.61 192.61 100 100" enable-background="new 192.61 192.61 100 100"
	 xml:space="preserve">
<g>
	<path fill="#3A67B4" d="M202.864,242.52c-0.352,0.062-0.7,0.09-1.041,0.09c-2.765,0-5.217-1.98-5.729-4.791
		c-0.569-3.168,1.537-6.202,4.706-6.771c14.264-2.572,29.585-9.843,45.58-21.523l-6.725-8.159l32.089-5.366l-11.397,30.474
		l-6.548-7.942C235.989,231.653,219.284,239.562,202.864,242.52z M213.481,260.089h-5.827c-3.214,0-5.826,2.605-5.826,5.825v17.479
		c0,3.221,2.612,5.826,5.826,5.826h5.827c3.22,0,5.826-2.605,5.826-5.826v-17.479C219.307,262.694,216.701,260.089,213.481,260.089z
		 M260.09,236.785h-5.826c-3.22,0-5.825,2.605-5.825,5.826v40.783c0,3.221,2.605,5.826,5.825,5.826h5.826
		c3.221,0,5.827-2.605,5.827-5.826V242.61C265.917,239.39,263.311,236.785,260.09,236.785z M283.396,225.132h-5.827
		c-3.22,0-5.825,2.606-5.825,5.827v52.435c0,3.221,2.605,5.826,5.825,5.826h5.827c3.22,0,5.825-2.605,5.825-5.826v-52.436
		C289.221,227.738,286.615,225.132,283.396,225.132z M236.785,248.437h-5.826c-3.214,0-5.826,2.606-5.826,5.826v29.131
		c0,3.221,2.612,5.826,5.826,5.826h5.826c3.221,0,5.826-2.605,5.826-5.826v-29.131C242.611,251.043,240.006,248.437,236.785,248.437
		z"/>
</g>
</svg>
