<?xml version="1.0" encoding="utf-8"?>
<!-- Generator: Adobe Illustrator 16.0.0, SVG Export Plug-In . SVG Version: 6.00 Build 0)  -->
<!DOCTYPE svg PUBLIC "-//W3C//DTD SVG 1.1//EN" "http://www.w3.org/Graphics/SVG/1.1/DTD/svg11.dtd">
<svg version="1.1" id="Capa_1" xmlns="http://www.w3.org/2000/svg" xmlns:xlink="http://www.w3.org/1999/xlink" x="0px" y="0px"
	 width="100px" height="100px" viewBox="0 0 100 100" enable-background="new 0 0 100 100" xml:space="preserve">
<g>
	<path fill="#3A67B4" d="M59.709,21.838l1.693-3.557c1.403-2.94,3.725-5.248,6.582-6.628h-12.44c1.048,1.89,0.937,3.985-0.851,6.065
		C57.225,17.718,59.262,19.523,59.709,21.838L59.709,21.838z M59.709,21.838"/>
	<path fill="#3A67B4" d="M94.09,11.653H82.348c4.432,3.521,3.931,8.292,0.371,9.773l-1.754,0.733c9.053,0,8.994-0.838,8.994,4.759
		c1.203,2.503,1.115,5.363,0,7.803v29.832c0,1.267-1.031,2.304-2.307,2.304H12.348c-1.271,0-2.301-1.037-2.301-2.304V32.21
		c-1.304-1.908-0.876-3.729-0.876-9.392c0-2.797,2.261-5.101,5.104-5.101c-1.551-1.55-2.008-3.955-0.845-6.065H5.916
		c-2.912,0-5.271,2.364-5.271,5.266v55.706c0,2.909,2.359,5.267,5.271,5.267h34.901l-4.698,11.312h-2.158
		c-1.877,0-3.395,1.513-3.395,3.392c0,1.87,1.518,3.392,3.395,3.392h32.078c1.877,0,3.396-1.521,3.396-3.392
		c0-1.878-1.52-3.392-3.396-3.392h-2.156l-4.7-11.312H94.09c2.908,0,5.266-2.358,5.266-5.267V16.918
		C99.355,14.017,96.998,11.653,94.09,11.653L94.09,11.653z M77.061,74.479c-1.367,0-2.472-1.101-2.472-2.467
		c0-1.356,1.104-2.469,2.472-2.469c1.355,0,2.465,1.112,2.465,2.469C79.525,73.379,78.416,74.479,77.061,74.479L77.061,74.479z
		 M85.077,74.479c-1.363,0-2.469-1.101-2.469-2.467c0-1.356,1.105-2.469,2.469-2.469c1.362,0,2.472,1.112,2.472,2.469
		C87.549,73.379,86.439,74.479,85.077,74.479L85.077,74.479z M85.077,74.479"/>
	<path fill="#3A67B4" d="M19.223,18.009c-0.503,0.953-0.924,1.954-1.244,2.998c-2.433,0-5.52-0.559-5.52,1.812
		c0,9.141-0.932,8.348,5.514,8.348c0.326,1.047,0.747,2.05,1.25,3c-3.83,3.832-4.332,3.477-1.073,6.741
		c2.042-2.211,3.957-2.605,9.956-5.104c-3.159-2.083-5.257-5.657-5.257-9.713c0-6.42,5.223-11.64,11.64-11.64
		c7.23,0,12.865,6.604,11.407,13.936l10.622-4.425c0-3.433-0.921-2.954-5.516-2.954c-0.324-1.044-0.744-2.045-1.251-3.001
		c1.716-1.717,4.302-3.509,2.626-5.185c-6.501-6.502-5.246-6.561-9.814-1.995c-0.951-0.502-1.949-0.921-3-1.249
		c0-2.425,0.562-5.518-1.805-5.518c-9.142,0-8.348-0.933-8.348,5.518c-1.049,0.328-2.051,0.747-3.002,1.249
		c-1.713-1.718-3.504-4.299-5.182-2.627C14.767,14.655,14.658,13.44,19.223,18.009L19.223,18.009z M19.223,18.009"/>
	<path fill="#3A67B4" d="M34.488,17.74c-4.605,0-8.352,3.743-8.352,8.351c0,3.814,2.59,7.008,6.085,7.995l9.538-3.971
		C44.936,24.385,40.676,17.74,34.488,17.74L34.488,17.74z M34.488,17.74"/>
	<path fill="#3A67B4" d="M61.665,25.377L22.708,41.619c-7.515,3.132-2.882,14.656,4.783,11.474L66.458,36.86
		c10.151,3.553,10.569,3.999,18.227-0.857c4.21-2.667,3.242-9.345,0.664-8.277l-6.825,2.843c-1.191,0.497-2.572-0.062-3.071-1.265
		c-3.46-8.293-3.984-6.753,6.006-10.913c2.501-1.041-1.446-6.491-6.351-5.354l-3.387,0.767
		C65.696,15.184,64.334,19.771,61.665,25.377L61.665,25.377z M61.665,25.377"/>
</g>
</svg>
