<?xml version="1.0" encoding="utf-8"?>
<!-- Generator: Adobe Illustrator 16.0.0, SVG Export Plug-In . SVG Version: 6.00 Build 0)  -->
<!DOCTYPE svg PUBLIC "-//W3C//DTD SVG 1.1//EN" "http://www.w3.org/Graphics/SVG/1.1/DTD/svg11.dtd">
<svg version="1.1" id="Capa_1" xmlns="http://www.w3.org/2000/svg" xmlns:xlink="http://www.w3.org/1999/xlink" x="0px" y="0px"
	 width="150px" height="150px" viewBox="0 0 150 150" enable-background="new 0 0 150 150" xml:space="preserve">
<g>
	<circle fill="none" stroke="#FFFFFF" stroke-width="2" stroke-miterlimit="10" cx="75" cy="75" r="70.688"/>
	<g>
		<path fill="#FFFFFF" d="M46.092,44.131v59.198h59.714V44.131H46.092z M100.876,49.047v49.365H51.008V49.047H100.876z
			 M100.876,49.047"/>
		<path fill="#FFFFFF" d="M69.521,82.257L53.83,75.433v-3.776l15.691-6.786v4.453L58.59,73.511l10.931,4.347V82.257z M69.521,82.257
			"/>
		<path fill="#FFFFFF" d="M70.979,85.266l5.672-23.668h3.286L74.2,85.266H70.979z M70.979,85.266"/>
		<path fill="#FFFFFF" d="M81.382,82.257v-4.398l10.946-4.334l-10.946-4.266v-4.387l15.704,6.799v3.747L81.382,82.257z
			 M81.382,82.257"/>
	</g>
</g>
</svg>
