<?xml version="1.0" encoding="utf-8"?>
<!-- Generator: Adobe Illustrator 16.0.0, SVG Export Plug-In . SVG Version: 6.00 Build 0)  -->
<!DOCTYPE svg PUBLIC "-//W3C//DTD SVG 1.1//EN" "http://www.w3.org/Graphics/SVG/1.1/DTD/svg11.dtd">
<svg version="1.1" id="Capa_1" xmlns="http://www.w3.org/2000/svg" xmlns:xlink="http://www.w3.org/1999/xlink" x="0px" y="0px"
	 width="126.75px" height="100px" viewBox="0 0 126.75 100" enable-background="new 0 0 126.75 100" xml:space="preserve">
<g>
	<path fill="#FFFFFF" d="M73.519,19.533l1.769-3.716c1.467-3.072,3.892-5.483,6.877-6.925H69.167
		c1.095,1.975,0.979,4.163-0.889,6.336C70.923,15.228,73.051,17.115,73.519,19.533L73.519,19.533z M73.519,19.533"/>
	<path fill="#FFFFFF" d="M109.438,8.892H97.17c4.631,3.678,4.107,8.664,0.389,10.211l-1.833,0.766c9.458,0,9.396-0.876,9.396,4.972
		c1.257,2.615,1.165,5.604,0,8.153V64.16c0,1.324-1.077,2.407-2.409,2.407H24.037c-1.328,0-2.403-1.083-2.403-2.407V30.369
		c-1.362-1.993-0.915-3.896-0.915-9.812c0-2.922,2.361-5.33,5.333-5.33c-1.62-1.619-2.098-4.132-0.883-6.336h-7.851
		c-3.043,0-5.508,2.47-5.508,5.501v58.199c0,3.039,2.465,5.503,5.508,5.503h36.463l-4.908,11.819h-2.255
		c-1.961,0-3.546,1.581-3.546,3.543c0,1.954,1.585,3.543,3.546,3.543h33.514c1.961,0,3.549-1.59,3.549-3.543
		c0-1.962-1.588-3.543-3.549-3.543h-2.253l-4.91-11.819h36.469c3.039,0,5.502-2.464,5.502-5.503V14.393
		C114.939,11.361,112.477,8.892,109.438,8.892L109.438,8.892z M91.646,74.531c-1.428,0-2.582-1.15-2.582-2.578
		c0-1.417,1.154-2.579,2.582-2.579c1.416,0,2.575,1.161,2.575,2.579C94.222,73.38,93.062,74.531,91.646,74.531L91.646,74.531z
		 M100.021,74.531c-1.424,0-2.578-1.15-2.578-2.578c0-1.417,1.154-2.579,2.578-2.579s2.583,1.161,2.583,2.579
		C102.604,73.38,101.445,74.531,100.021,74.531L100.021,74.531z M100.021,74.531"/>
	<path fill="#FFFFFF" d="M31.221,15.533c-0.525,0.996-0.966,2.041-1.301,3.132c-2.541,0-5.766-0.583-5.766,1.893
		c0,9.55-0.974,8.721,5.76,8.721c0.341,1.095,0.781,2.142,1.307,3.135c-4.002,4.003-4.526,3.632-1.122,7.043
		c2.134-2.311,4.135-2.723,10.402-5.333c-3.301-2.177-5.492-5.91-5.492-10.148c0-6.707,5.456-12.161,12.16-12.161
		c7.554,0,13.441,6.9,11.918,14.559l11.098-4.624c0-3.586-0.962-3.085-5.763-3.085c-0.339-1.091-0.777-2.136-1.307-3.134
		c1.792-1.794,4.494-3.667,2.743-5.418c-6.792-6.793-5.481-6.853-10.254-2.084c-0.993-0.525-2.036-0.962-3.134-1.304
		c0-2.533,0.586-5.765-1.886-5.765c-9.551,0-8.722-0.975-8.722,5.765c-1.096,0.342-2.143,0.779-3.136,1.304
		c-1.79-1.794-3.661-4.492-5.413-2.745C26.564,12.028,26.451,10.759,31.221,15.533L31.221,15.533z M31.221,15.533"/>
	<path fill="#FFFFFF" d="M47.169,15.251c-4.812,0-8.726,3.911-8.726,8.724c0,3.985,2.706,7.322,6.357,8.353l9.965-4.148
		C58.084,22.193,53.634,15.251,47.169,15.251L47.169,15.251z M47.169,15.251"/>
	<path fill="#FFFFFF" d="M75.562,23.23L34.861,40.199c-7.851,3.272-3.011,15.312,4.998,11.987l40.71-16.959
		c10.606,3.711,11.043,4.177,19.042-0.896c4.398-2.786,3.388-9.763,0.694-8.647l-7.131,2.97c-1.245,0.519-2.688-0.064-3.208-1.322
		c-3.615-8.665-4.163-7.055,6.274-11.401c2.612-1.087-1.511-6.782-6.635-5.593l-3.538,0.801
		C79.773,12.581,78.351,17.373,75.562,23.23L75.562,23.23z M75.562,23.23"/>
</g>
</svg>
