<?xml version="1.0" encoding="utf-8"?>
<!-- Generator: Adobe Illustrator 16.0.0, SVG Export Plug-In . SVG Version: 6.00 Build 0)  -->
<!DOCTYPE svg PUBLIC "-//W3C//DTD SVG 1.1//EN" "http://www.w3.org/Graphics/SVG/1.1/DTD/svg11.dtd">
<svg version="1.1" id="Capa_1" xmlns="http://www.w3.org/2000/svg" xmlns:xlink="http://www.w3.org/1999/xlink" x="0px" y="0px"
	 width="247px" height="300px" viewBox="0 0 247 300" enable-background="new 0 0 247 300" xml:space="preserve">
<g>
	<path fill="#201813" d="M63.55,248.946H50.343l-1.319-26.742l-8.44,26.742H27.375l-2.096-42.494h8.613l1.694,30.353l9.789-30.353
		H56.86l1.694,30.353l9.789-30.353h8.613L63.55,248.946z"/>
	<path fill="#201813" d="M107.424,248.946h-8.612l-1.465-9.106H82.591l-3.876,9.106h-8.614l17.714-42.494h13.207L107.424,248.946z
		 M87.121,233.745l7.5-0.099l-1.899-14.699L87.121,233.745z"/>
	<path fill="#201813" d="M142.32,206.452l-1.205,9.105l-18.991,24.282h18.087l-1.205,9.106h-28.71l1.205-9.106l17.718-24.282
		h-14.473l1.204-9.105H142.32z"/>
	<path fill="#201813" d="M175.301,236.805c-1.071,8.095-5.436,12.142-13.093,12.142h-7.176c-6.719,0-10.079-3.117-10.079-9.349
		c0-0.87,0.069-1.802,0.202-2.793l2.44-18.211c1.07-8.094,5.435-12.142,13.092-12.142h7.179c6.717,0,10.075,3.116,10.075,9.349
		c0,0.871-0.066,1.802-0.199,2.793L175.301,236.805z M153.769,236.805c-0.039,0.242-0.059,0.477-0.059,0.697
		c0,1.559,0.844,2.338,2.526,2.338h7.179c1.913,0,3.005-1.012,3.272-3.035l2.441-18.211c0.038-0.243,0.058-0.476,0.058-0.698
		c0-1.558-0.842-2.338-2.527-2.338h-7.177c-1.914,0-3.007,1.014-3.274,3.036L153.769,236.805z"/>
</g>
<g>
	<path fill="#201813" d="M32.341,261.456l7.126,24.439L53.3,261.456h2.328L51.04,295h-2.328l3.68-26.955l-12.344,22.163H37.72
		l-6.287-22.163L27.753,295h-2.329l4.588-33.544H32.341z"/>
	<path fill="#201813" d="M91.21,261.456l-0.34,2.396H73.873l-1.894,13.179h15.783l-0.341,2.396H71.64l-1.87,13.178h16.997
		L86.428,295H67.002l4.784-33.544H91.21z"/>
	<path fill="#201813" d="M125.601,274.874l-1.016,6.948C123.331,290.607,118.98,295,111.537,295h-11.143l4.877-33.544h11.143
		c6.323,0,9.483,3.234,9.483,9.705C125.897,272.295,125.799,273.532,125.601,274.874z M116.067,263.853h-8.666l-4.185,28.752h8.667
		c5.776,0,9.187-3.595,10.226-10.782l1.016-6.948c0.082-0.575,0.144-1.126,0.186-1.653c0.04-0.526,0.061-1.038,0.061-1.534
		C123.371,266.465,120.938,263.853,116.067,263.853z"/>
	<path fill="#201813" d="M137.976,295l5.067-33.544h2.573L140.549,295H137.976z"/>
	<path fill="#201813" d="M171.858,261.456L177.25,295h-2.312l-1.778-9.415H160.69L156.424,295h-2.313l14.509-33.544H171.858z
		 M161.417,283.475l11.647-0.007l-3.08-20.094L161.417,283.475z"/>
</g>
<linearGradient id="SVGID_1_" gradientUnits="userSpaceOnUse" x1="63.7622" y1="152.126" x2="23.0093" y2="79.2437">
	<stop  offset="0" style="stop-color:#030104"/>
	<stop  offset="0.2871" style="stop-color:#262426"/>
	<stop  offset="0.5639" style="stop-color:#403F40"/>
	<stop  offset="0.81" style="stop-color:#4F4F50"/>
	<stop  offset="1" style="stop-color:#555555"/>
</linearGradient>
<path fill="url(#SVGID_1_)" d="M63.865,94.583c-4.779-8.266-13.715-13.828-23.95-13.828c-15.269,0-27.646,12.378-27.646,27.646
	c0,2.903,0.448,5.7,1.277,8.329l26.705,51.08L63.865,94.583z"/>
<linearGradient id="SVGID_2_" gradientUnits="userSpaceOnUse" x1="132.1016" y1="170.7109" x2="207.5187" y2="30.6263">
	<stop  offset="0" style="stop-color:#030104"/>
	<stop  offset="0.0087" style="stop-color:#050306"/>
	<stop  offset="0.1725" style="stop-color:#222122"/>
	<stop  offset="0.345" style="stop-color:#383839"/>
	<stop  offset="0.5303" style="stop-color:#484849"/>
	<stop  offset="0.7354" style="stop-color:#525252"/>
	<stop  offset="1" style="stop-color:#555555"/>
</linearGradient>
<path fill="url(#SVGID_2_)" d="M172.903,152.907l58.141-106.459c2.345-4.062,3.687-8.775,3.687-13.802
	C234.73,17.377,222.354,5,207.085,5c-10.853,0-20.244,6.253-24.768,15.354l-45.126,81.363L172.903,152.907z"/>
<linearGradient id="SVGID_3_" gradientUnits="userSpaceOnUse" x1="112.7549" y1="66.9141" x2="149.4049" y2="166.1887">
	<stop  offset="0" style="stop-color:#030104"/>
	<stop  offset="0.0947" style="stop-color:#110F12"/>
	<stop  offset="0.334" style="stop-color:#2E2E2F"/>
	<stop  offset="0.5685" style="stop-color:#444344"/>
	<stop  offset="0.7939" style="stop-color:#515151"/>
	<stop  offset="1" style="stop-color:#555555"/>
</linearGradient>
<path fill="url(#SVGID_3_)" d="M118.122,169.018c4.968,7.354,13.38,12.188,22.923,12.188c9.715,0,18.258-5.009,23.188-12.585
	l13.907-25.207c0,0-7.257,4.78-13.478-5.586l-29.497-55.315l-17.044,7.974l-17.733,43.541L118.122,169.018z"/>
<path fill="#555555" d="M38.72,164.891c4.328,9.619,13.994,16.315,25.225,16.315c10.113,0,18.957-5.429,23.777-13.532l37.655-70.962
	c0,0,5.184-10.544,15.669-3.288l-13.914-25.818c-4.677-8.632-13.816-14.495-24.325-14.495c-11.306,0-21.026,6.787-25.31,16.509
	l-36.2,66.654c0,0-4.405,9.157-14.363,6.059L38.72,164.891z"/>
</svg>
