<?xml version="1.0" encoding="utf-8"?>
<!-- Generator: Adobe Illustrator 16.0.0, SVG Export Plug-In . SVG Version: 6.00 Build 0)  -->
<!DOCTYPE svg PUBLIC "-//W3C//DTD SVG 1.1//EN" "http://www.w3.org/Graphics/SVG/1.1/DTD/svg11.dtd">
<svg version="1.1" id="Capa_1" xmlns="http://www.w3.org/2000/svg" xmlns:xlink="http://www.w3.org/1999/xlink" x="0px" y="0px"
	 width="660.536px" height="85px" viewBox="0 0 660.536 85" enable-background="new 0 0 660.536 85" xml:space="preserve">
<g>
	<path fill="#FFFFFF" d="M355.727,74.794c-9.876,0-19.751,0-29.651,0c-0.479-1.346-0.149-1.957,1.288-1.915
		c0.68,0.021,1.374-0.157,2.051-0.298c4.105-0.85,4.635-1.497,4.635-5.605c0-16.717-0.033-33.433,0.049-50.148
		c0.008-1.975-0.737-2.965-2.508-3.334c-1.838-0.383-3.696-0.664-5.673-1.01c0-0.628,0-1.341,0-2.193
		c0.72-0.034,1.335-0.088,1.951-0.088c12.173-0.004,24.346,0.007,36.521-0.009c4.688-0.007,9.024,1.09,12.666,4.14
		c5.381,4.507,7.518,10.303,5.692,17.09c-1.909,7.11-6.904,11.205-14.064,12.705c-0.533,0.111-1.073,0.197-1.867,0.343
		c1.146,1.496,2.13,2.787,3.12,4.075c5.217,6.805,10.466,13.588,15.64,20.427c1.779,2.353,3.979,3.828,6.949,4.01
		c1.142,0.07,1.654,0.488,1.188,1.784c-7.161,0-14.385,0-20.981,0c-7.482-11.316-14.755-22.317-22.238-33.64
		c2.325,0,4.256,0.032,6.186-0.005c8.142-0.155,14.674-6.172,14.864-13.674c0.205-8.021-6.022-14.729-14.236-15.179
		c-3.068-0.169-6.156-0.027-9.497-0.027c0,0.871,0,1.607,0,2.342c0,17.789,0,35.576,0,53.364c0,2.773,0.372,3.385,3.004,4.26
		c1.244,0.412,2.598,0.471,3.854,0.848c0.561,0.168,1.008,0.725,1.505,1.102C356.024,74.368,355.875,74.581,355.727,74.794z"/>
	<path fill="#FFFFFF" d="M247.655,10.358c-12.997,20.739-25.854,41.256-38.949,62.149c0.953,0,1.596,0,2.24,0
		c9.018,0,18.036,0.004,27.053,0c4.371,0,7.044-2.162,7.97-6.449c0.093-0.429,0.19-0.859,0.412-1.871
		c0.676,0.579,1.527,0.96,1.55,1.386c0.129,2.515,0.071,5.041,0.065,7.563c-0.002,0.494-0.057,0.987-0.095,1.612
		c-18.752,0-37.417,0-56.436,0c13.062-20.721,25.975-41.206,39.133-62.076c-0.975,0-1.621,0-2.268,0c-7.63,0-15.261,0-22.889,0.001
		c-3.901,0-6.01,1.681-6.915,5.525c-0.172,0.729-0.302,1.466-0.468,2.279c-0.773,0-1.509,0-2.384,0c0-3.334,0-6.645,0-10.12
		C212.852,10.358,230.067,10.358,247.655,10.358z"/>
	<path fill="#FFFFFF" d="M263.667,73.07c0,0.616,0,1.103,0,1.703c-4.842,0-9.606,0-14.517,0c-0.036-0.565-0.071-1.095-0.104-1.63
		c0.276-0.112,0.439-0.228,0.611-0.238c3.582-0.21,5.91-1.773,7.488-5.252c8.351-18.407,16.925-36.711,25.424-55.05
		c0.306-0.662,0.641-1.31,1.122-2.289c0.486,0.939,0.827,1.584,1.159,2.235c9.242,18.261,18.571,36.479,27.651,54.821
		c1.824,3.688,4.485,5.195,8.259,5.487c0.436,0.034,0.872,0.054,1.433,0.087c0.047,0.569,0.093,1.106,0.149,1.798
		c-10.221,0-20.335,0-30.587,0c-0.038-0.524-0.072-1.057-0.107-1.601c0.249-0.105,0.407-0.197,0.579-0.239
		c1.58-0.381,3.201-0.645,4.736-1.159c1.25-0.418,1.687-1.254,0.95-2.649c-2.174-4.122-4.183-8.329-6.364-12.445
		c-0.292-0.552-1.206-1.092-1.837-1.098c-7.632-0.076-15.263-0.021-22.893-0.078c-1.089-0.009-1.557,0.425-1.963,1.325
		c-1.808,4.02-3.671,8.015-5.509,12.021c-0.908,1.979-0.589,2.799,1.48,3.538C261.708,72.673,262.644,72.82,263.667,73.07z
		 M289.968,53.146c-4.15-8.141-8.147-15.977-12.328-24.179c-3.787,8.313-7.371,16.17-11.019,24.179
		C274.479,53.146,282.032,53.146,289.968,53.146z"/>
	<path fill="#FFFFFF" d="M410.458,74.808c-4.778,0-9.487,0-14.356,0c-0.038-0.577-0.073-1.099-0.104-1.607
		c0.295-0.124,0.459-0.244,0.631-0.254c3.524-0.199,5.796-1.785,7.338-5.175c8.368-18.398,16.938-36.706,25.439-55.044
		c0.316-0.681,0.646-1.353,1.139-2.382c0.47,0.858,0.822,1.47,1.142,2.1c9.309,18.369,18.693,36.703,27.852,55.147
		c1.791,3.608,4.415,5.101,8.136,5.351c0.431,0.027,0.859,0.072,1.397,0.115c0,0.619,0,1.138,0,1.742c-10.152,0-20.22,0-30.432,0
		c-0.031-0.571-0.061-1.098-0.09-1.623c0.278-0.108,0.443-0.193,0.616-0.237c1.632-0.415,3.308-0.715,4.89-1.273
		c1.062-0.373,1.477-1.182,0.838-2.41c-2.212-4.244-4.306-8.551-6.529-12.79c-0.243-0.467-1.033-0.918-1.571-0.923
		c-7.757-0.06-15.517-0.068-23.271,0.017c-0.592,0.007-1.431,0.687-1.712,1.267c-1.823,3.735-3.519,7.531-5.26,11.305
		c-1.357,2.945-0.773,4.104,2.527,4.761C410.108,73.097,411.018,73.213,410.458,74.808z M413.532,53.082c7.833,0,15.404,0,23.289,0
		c-4.103-8.049-8.095-15.887-12.287-24.117C420.76,37.237,417.178,45.092,413.532,53.082z"/>
</g>
</svg>
